<svg width="20" height="20" viewBox="0 0 20 20" fill="none" xmlns="http://www.w3.org/2000/svg">
<g clip-path="url(#clip0_448_92)">
<path d="M5.67979 12.6075L9.59978 14.87V10.3419L5.67666 8.07938V12.6075H5.67979ZM3.99041 13.5806L9.59978 16.8162V19.9994L1.23291 15.1719V5.51375L3.99041 7.10563V13.5806ZM9.99979 5.12063L6.08041 7.38563L9.99979 9.64812L13.9192 7.38563L9.99979 5.12312V5.12063ZM9.99979 3.17688L14.7167 5.90875L17.4742 4.31687L9.99979 0L1.64416 4.82438L4.40104 6.4125L9.99979 3.17688ZM16.0054 13.5806V10.29L14.3198 11.2631V12.6075L10.3998 14.8731V10.345L18.7667 5.5175V15.1725L10.3998 20.0031V16.8231L16.0054 13.5806Z" fill="#F8F8F8"/>
</g>
<defs>
<clipPath id="clip0_448_92">
<rect width="20" height="20" fill="white"/>
</clipPath>
</defs>
</svg>
