<svg width="20" height="20" viewBox="0 0 20 20" fill="none" xmlns="http://www.w3.org/2000/svg">
<path d="M17.8447 5.55566H2.15577C1.87877 5.55566 1.61311 5.6657 1.41724 5.86157C1.22137 6.05745 1.11133 6.3231 1.11133 6.60011V16.7334C1.11133 17.0104 1.22137 17.2761 1.41724 17.472C1.61311 17.6678 1.87877 17.7779 2.15577 17.7779H17.8447C18.1217 17.7779 18.3873 17.6678 18.5832 17.472C18.7791 17.2761 18.8891 17.0104 18.8891 16.7334V6.60011C18.8891 6.3231 18.7791 6.05745 18.5832 5.86157C18.3873 5.6657 18.1217 5.55566 17.8447 5.55566ZM17.778 16.6668H2.22244V6.66678H17.778V16.6668Z" fill="white"/>
<path d="M4.75553 10.8055C5.08517 10.8055 5.4074 10.7078 5.68148 10.5246C5.95557 10.3415 6.16919 10.0812 6.29533 9.77664C6.42148 9.4721 6.45448 9.13699 6.39018 8.81368C6.32587 8.49038 6.16713 8.19341 5.93405 7.96032C5.70096 7.72724 5.40399 7.5685 5.08068 7.50419C4.75738 7.43988 4.42227 7.47289 4.11773 7.59904C3.81318 7.72518 3.55289 7.9388 3.36975 8.21288C3.18662 8.48697 3.08887 8.8092 3.08887 9.13884C3.08887 9.58086 3.26446 10.0048 3.57702 10.3173C3.88958 10.6299 4.31351 10.8055 4.75553 10.8055ZM4.75553 8.24995C4.93222 8.24553 5.10621 8.29388 5.25528 8.38883C5.40435 8.48378 5.52173 8.62101 5.59243 8.78299C5.66313 8.94498 5.68393 9.12436 5.65219 9.29822C5.62044 9.47209 5.53758 9.63254 5.4142 9.75909C5.29082 9.88564 5.13251 9.97253 4.95951 10.0087C4.7865 10.0448 4.60665 10.0285 4.44293 9.96197C4.2792 9.8954 4.13905 9.78153 4.04035 9.63491C3.94166 9.48829 3.88892 9.31558 3.88887 9.13884C3.88879 8.90689 3.97939 8.6841 4.14131 8.51802C4.30323 8.35195 4.52366 8.25575 4.75553 8.24995Z" fill="white"/>
<path d="M4.38906 15.5553L7.7224 12.222L9.48906 13.9886L7.9224 15.5553H9.03351L13.1779 11.4109L16.6668 14.872V13.7609L13.4446 10.5553C13.3707 10.482 13.2709 10.4409 13.1668 10.4409C13.0628 10.4409 12.9629 10.482 12.8891 10.5553L10.0224 13.422L7.98351 11.3886C7.90963 11.3154 7.80979 11.2743 7.70573 11.2743C7.60167 11.2743 7.50183 11.3154 7.42795 11.3886L3.28906 15.5553H4.38906Z" fill="white"/>
<path d="M16.7445 1.66688C16.7445 1.51954 16.6859 1.37823 16.5817 1.27405C16.4776 1.16986 16.3363 1.11133 16.1889 1.11133H3.96669C3.81935 1.11133 3.67804 1.16986 3.57385 1.27405C3.46966 1.37823 3.41113 1.51954 3.41113 1.66688V2.22244H16.7445V1.66688Z" fill="white"/>
<path d="M17.8446 3.88905C17.8446 3.74171 17.7861 3.6004 17.6819 3.49621C17.5777 3.39203 17.4364 3.3335 17.2891 3.3335H2.84462C2.69728 3.3335 2.55597 3.39203 2.45178 3.49621C2.34759 3.6004 2.28906 3.74171 2.28906 3.88905V4.44461H17.8446V3.88905Z" fill="white"/>
</svg>
