<svg width="20" height="20" viewBox="0 0 20 20" fill="none" xmlns="http://www.w3.org/2000/svg">
<path d="M7.40576 17.7778C8.09612 17.7778 8.65576 17.2182 8.65576 16.5278C8.65576 15.8375 8.09612 15.2778 7.40576 15.2778C6.71541 15.2778 6.15576 15.8375 6.15576 16.5278C6.15576 17.2182 6.71541 17.7778 7.40576 17.7778Z" fill="#F8F8F8"/>
<path d="M15 17.7778C15.6904 17.7778 16.25 17.2182 16.25 16.5278C16.25 15.8375 15.6904 15.2778 15 15.2778C14.3096 15.2778 13.75 15.8375 13.75 16.5278C13.75 17.2182 14.3096 17.7778 15 17.7778Z" fill="#F8F8F8"/>
<path d="M18.3779 2.98354C18.3262 2.91981 18.261 2.86833 18.187 2.83279C18.1131 2.79725 18.0322 2.77853 17.9501 2.77799H6.38344L6.74455 3.8891H17.2223L15.739 10.5558H7.40566L4.86677 2.51688C4.83931 2.43158 4.79162 2.35418 4.72777 2.2913C4.66392 2.22842 4.58581 2.18192 4.5001 2.15577L2.22232 1.45577C2.15229 1.43424 2.07869 1.42673 2.00575 1.43365C1.93281 1.44056 1.86194 1.46178 1.7972 1.49609C1.66644 1.56537 1.56857 1.68376 1.5251 1.82521C1.48164 1.96666 1.49614 2.11958 1.56542 2.25034C1.63471 2.38109 1.7531 2.47897 1.89455 2.52243L3.88899 3.13354L6.43899 11.1891L5.52788 11.9335L5.45566 12.0058C5.23029 12.2655 5.10255 12.5957 5.09443 12.9394C5.08632 13.2832 5.19835 13.619 5.41121 13.8891C5.56263 14.0732 5.75505 14.2194 5.97307 14.3159C6.19109 14.4123 6.42865 14.4564 6.66677 14.4447H15.939C16.0863 14.4447 16.2276 14.3861 16.3318 14.2819C16.436 14.1777 16.4945 14.0364 16.4945 13.8891C16.4945 13.7418 16.436 13.6004 16.3318 13.4963C16.2276 13.3921 16.0863 13.3335 15.939 13.3335H6.57788C6.51391 13.3314 6.45158 13.3127 6.39691 13.2794C6.34225 13.2461 6.2971 13.1993 6.26582 13.1434C6.23454 13.0876 6.2182 13.0246 6.21837 12.9606C6.21853 12.8966 6.2352 12.8337 6.26677 12.778L7.60566 11.6669H16.1834C16.3119 11.67 16.4374 11.6286 16.5387 11.5495C16.64 11.4705 16.7108 11.3589 16.739 11.2335L18.5001 3.45577C18.517 3.37294 18.5148 3.28736 18.4936 3.20552C18.4724 3.12369 18.4328 3.04777 18.3779 2.98354Z" fill="#F8F8F8"/>
</svg>
