<svg width="20" height="20" viewBox="0 0 20 20" fill="none" xmlns="http://www.w3.org/2000/svg">
<path d="M13.3335 5.00016H15.8335C16.0545 5.00016 16.2665 5.08796 16.4228 5.24424C16.579 5.40052 16.6668 5.61248 16.6668 5.8335V15.0002C16.6668 15.4422 16.4912 15.8661 16.1787 16.1787C15.8661 16.4912 15.4422 16.6668 15.0002 16.6668C14.5581 16.6668 14.1342 16.4912 13.8217 16.1787C13.5091 15.8661 13.3335 15.4422 13.3335 15.0002V4.16683C13.3335 3.94582 13.2457 3.73385 13.0894 3.57757C12.9331 3.42129 12.7212 3.3335 12.5002 3.3335H4.16683C3.94582 3.3335 3.73385 3.42129 3.57757 3.57757C3.42129 3.73385 3.3335 3.94582 3.3335 4.16683V14.1668C3.3335 14.8299 3.59689 15.4658 4.06573 15.9346C4.53457 16.4034 5.17045 16.6668 5.8335 16.6668H15.0002" stroke="#F8F8F8" stroke-width="1.66667" stroke-linecap="round" stroke-linejoin="round"/>
<path d="M6.66699 6.66699H10.0003" stroke="#F8F8F8" stroke-width="1.66667" stroke-linecap="round" stroke-linejoin="round"/>
<path d="M6.66699 10H10.0003" stroke="#F8F8F8" stroke-width="1.66667" stroke-linecap="round" stroke-linejoin="round"/>
<path d="M6.66699 13.3335H10.0003" stroke="#F8F8F8" stroke-width="1.66667" stroke-linecap="round" stroke-linejoin="round"/>
</svg>
