<svg width="11" height="12" viewBox="0 0 11 12" fill="none" xmlns="http://www.w3.org/2000/svg">
<path d="M0.946777 0.017343C0.946777 0.026547 0.956921 0.0346007 0.969318 0.0346007C0.98397 0.0346007 0.991859 0.0426545 0.991859 0.0576115C0.991859 0.0725684 0.999749 0.0806222 1.0144 0.0806222C1.02905 0.0806222 1.03694 0.0886755 1.03694 0.103632C1.03694 0.118589 1.04483 0.126643 1.05948 0.126643C1.07413 0.126643 1.08202 0.134697 1.08202 0.149653C1.08202 0.16461 1.08991 0.172664 1.10456 0.172664C1.11922 0.172664 1.12711 0.180718 1.12711 0.195675C1.12711 0.210631 1.13499 0.218685 1.14965 0.218685C1.1643 0.218685 1.17219 0.226739 1.17219 0.241696C1.17219 0.256653 1.18008 0.264706 1.19473 0.264706C1.20938 0.264706 1.21727 0.27276 1.21727 0.287717C1.21727 0.302674 1.22516 0.310728 1.23981 0.310728C1.25672 0.310728 1.26235 0.318781 1.26235 0.33949C1.26235 0.3602 1.26799 0.368254 1.28489 0.368254C1.29954 0.368254 1.30743 0.376307 1.30743 0.391264C1.30743 0.406221 1.31532 0.414275 1.32997 0.414275C1.34463 0.414275 1.35252 0.422328 1.35252 0.437285C1.35252 0.452242 1.3604 0.460296 1.37506 0.460296C1.38971 0.460296 1.3976 0.468349 1.3976 0.483306C1.3976 0.498263 1.40549 0.506317 1.42014 0.506317C1.43479 0.506317 1.44268 0.514371 1.44268 0.529327C1.44268 0.544284 1.45057 0.552338 1.46522 0.552338C1.48325 0.552338 1.48776 0.560392 1.48776 0.592607C1.48776 0.624821 1.49227 0.632875 1.5103 0.632875C1.52495 0.632875 1.53284 0.640929 1.53284 0.655886C1.53284 0.670842 1.54073 0.678896 1.55538 0.678896C1.57004 0.678896 1.57792 0.68695 1.57792 0.701907C1.57792 0.716864 1.58581 0.724917 1.60047 0.724917C1.61512 0.724917 1.62301 0.732971 1.62301 0.747928C1.62301 0.762885 1.6309 0.770938 1.64555 0.770938C1.6602 0.770938 1.66809 0.778992 1.66809 0.793949C1.66809 0.808906 1.67598 0.816959 1.69063 0.816959C1.70528 0.816959 1.71317 0.825013 1.71317 0.83997C1.71317 0.854927 1.72106 0.86298 1.73571 0.86298C1.75036 0.86298 1.75825 0.871034 1.75825 0.885991C1.75825 0.900948 1.76614 0.909001 1.78079 0.909001C1.79545 0.909001 1.80333 0.917055 1.80333 0.932012C1.80333 0.946969 1.81122 0.955023 1.82588 0.955023C1.84053 0.955023 1.84842 0.963076 1.84842 0.978033C1.84842 0.99299 1.85631 1.00104 1.87096 1.00104C1.88786 1.00104 1.8935 1.0091 1.8935 1.02981C1.8935 1.05052 1.89913 1.05857 1.91604 1.05857C1.93069 1.05857 1.93858 1.06662 1.93858 1.08158C1.93858 1.09654 1.94647 1.10459 1.96112 1.10459C1.97577 1.10459 1.98366 1.11264 1.98366 1.1276C1.98366 1.14256 1.99155 1.15061 2.0062 1.15061C2.02086 1.15061 2.02874 1.15867 2.02874 1.17362C2.02874 1.18858 2.03663 1.19663 2.05129 1.19663C2.06594 1.19663 2.07383 1.20469 2.07383 1.21964C2.07383 1.2346 2.08172 1.24265 2.09637 1.24265C2.11102 1.24265 2.11891 1.25071 2.11891 1.26567C2.11891 1.28062 2.1268 1.28868 2.14145 1.28868C2.15948 1.28868 2.16399 1.29673 2.16399 1.32894C2.16399 1.36116 2.1685 1.36921 2.18653 1.36921C2.20118 1.36921 2.20907 1.37727 2.20907 1.39222C2.20907 1.40718 2.21696 1.41523 2.23161 1.41523C2.24627 1.41523 2.25415 1.42329 2.25415 1.43824C2.25415 1.4532 2.26204 1.46125 2.2767 1.46125C2.29135 1.46125 2.29924 1.46931 2.29924 1.48427C2.29924 1.49922 2.30713 1.50728 2.32178 1.50728C2.33643 1.50728 2.34432 1.51533 2.34432 1.53029C2.34432 1.54524 2.35221 1.5533 2.36686 1.5533C2.38151 1.5533 2.3894 1.56135 2.3894 1.57631C2.3894 1.59126 2.39729 1.59932 2.41194 1.59932C2.42659 1.59932 2.43448 1.60737 2.43448 1.62233C2.43448 1.63729 2.44237 1.64534 2.45702 1.64534C2.47168 1.64534 2.47956 1.65339 2.47956 1.66835C2.47956 1.68331 2.48745 1.69136 2.50211 1.69136C2.51676 1.69136 2.52465 1.69941 2.52465 1.71437C2.52465 1.72933 2.53254 1.73738 2.54719 1.73738C2.56409 1.73738 2.56973 1.74543 2.56973 1.76614C2.56973 1.78685 2.57536 1.79491 2.59227 1.79491C2.60692 1.79491 2.61481 1.80296 2.61481 1.81792C2.61481 1.83287 2.6227 1.84093 2.63735 1.84093C2.652 1.84093 2.65989 1.84898 2.65989 1.86394C2.65989 1.8789 2.66778 1.88695 2.68243 1.88695C2.69708 1.88695 2.70497 1.895 2.70497 1.90996C2.70497 1.92492 2.71286 1.93297 2.72752 1.93297C2.74217 1.93297 2.75006 1.94102 2.75006 1.95598C2.75006 1.97094 2.75795 1.97899 2.7726 1.97899C2.78725 1.97899 2.79514 1.98705 2.79514 2.002C2.79514 2.01696 2.80303 2.02501 2.81768 2.02501C2.83571 2.02501 2.84022 2.03307 2.84022 2.06528C2.84022 2.0975 2.84473 2.10555 2.86276 2.10555C2.87741 2.10555 2.8853 2.1136 2.8853 2.12856C2.8853 2.14352 2.89319 2.15157 2.90784 2.15157C2.92249 2.15157 2.93038 2.15962 2.93038 2.17458C2.93038 2.18954 2.93827 2.19759 2.95293 2.19759C2.96758 2.19759 2.97547 2.20565 2.97547 2.2206C2.97547 2.23556 2.98336 2.24361 2.99801 2.24361C3.01266 2.24361 3.02055 2.25167 3.02055 2.26662C3.02055 2.28158 3.02844 2.28963 3.04309 2.28963C3.05774 2.28963 3.06563 2.29769 3.06563 2.31264C3.06563 2.3276 3.07352 2.33566 3.08817 2.33566C3.10282 2.33566 3.11071 2.34371 3.11071 2.35867C3.11071 2.37362 3.1186 2.38168 3.13325 2.38168C3.1479 2.38168 3.15579 2.38973 3.15579 2.40469C3.15579 2.41964 3.16368 2.4277 3.17833 2.4277C3.19299 2.4277 3.20088 2.43575 3.20088 2.45071C3.20088 2.46566 3.20877 2.47372 3.22342 2.47372C3.23807 2.47372 3.24596 2.48177 3.24596 2.49673C3.24596 2.51169 3.25385 2.51974 3.2685 2.51974C3.28315 2.51974 3.29104 2.52779 3.29104 2.54275C3.29104 2.55771 3.29893 2.56576 3.31358 2.56576C3.33049 2.56576 3.33612 2.57381 3.33612 2.59452C3.33612 2.61523 3.34176 2.62329 3.35866 2.62329C3.37331 2.62329 3.3812 2.63134 3.3812 2.6463C3.3812 2.66125 3.38909 2.66931 3.40374 2.66931C3.4184 2.66931 3.42629 2.67736 3.42629 2.69232C3.42629 2.70728 3.43418 2.71533 3.44883 2.71533C3.46348 2.71533 3.47137 2.72338 3.47137 2.73834C3.47137 2.7533 3.47926 2.76135 3.49391 2.76135C3.50856 2.76135 3.51645 2.7694 3.51645 2.78436C3.51645 2.79932 3.52434 2.80737 3.53899 2.80737C3.55702 2.80737 3.56153 2.81542 3.56153 2.84764C3.56153 2.87985 3.56604 2.88791 3.58407 2.88791C3.59872 2.88791 3.60661 2.89596 3.60661 2.91092C3.60661 2.92588 3.6145 2.93393 3.62915 2.93393C3.64381 2.93393 3.6517 2.94198 3.6517 2.95694C3.6517 2.9719 3.65958 2.97995 3.67424 2.97995C3.68889 2.97995 3.69678 2.988 3.69678 3.00296C3.69678 3.01792 3.70467 3.02597 3.71932 3.02597C3.73397 3.02597 3.74186 3.03403 3.74186 3.04898C3.74186 3.06394 3.74975 3.07199 3.7644 3.07199C3.77905 3.07199 3.78694 3.08005 3.78694 3.095C3.78694 3.10996 3.79483 3.11801 3.80948 3.11801C3.82413 3.11801 3.83202 3.12607 3.83202 3.14102C3.83202 3.15598 3.83991 3.16403 3.85456 3.16403C3.86922 3.16403 3.87711 3.17209 3.87711 3.18705C3.87711 3.202 3.88499 3.21006 3.89965 3.21006C3.9143 3.21006 3.92219 3.21811 3.92219 3.23307C3.92219 3.24802 3.93008 3.25608 3.94473 3.25608C3.95938 3.25608 3.96727 3.26413 3.96727 3.27909C3.96727 3.29404 3.97516 3.3021 3.98981 3.3021C4.00672 3.3021 4.01235 3.31015 4.01235 3.33086C4.01235 3.35157 4.01799 3.35962 4.03489 3.35962C4.04954 3.35962 4.05743 3.36768 4.05743 3.38263C4.05743 3.39759 4.06532 3.40565 4.07997 3.40565C4.09463 3.40565 4.10252 3.4137 4.10252 3.42866C4.10252 3.44361 4.1104 3.45167 4.12506 3.45167C4.13971 3.45167 4.1476 3.45972 4.1476 3.47468C4.1476 3.48963 4.15549 3.49769 4.17014 3.49769C4.18479 3.49769 4.19268 3.50574 4.19268 3.5207C4.19268 3.53566 4.20057 3.54371 4.21522 3.54371C4.22987 3.54371 4.23776 3.55176 4.23776 3.56672C4.23776 3.58168 4.24565 3.58973 4.2603 3.58973C4.27834 3.58973 4.28284 3.59778 4.28284 3.63C4.28284 3.66221 4.28735 3.67027 4.30538 3.67027C4.32004 3.67027 4.32793 3.67832 4.32793 3.69328C4.32793 3.70823 4.33581 3.71629 4.35047 3.71629C4.36512 3.71629 4.37301 3.72434 4.37301 3.7393C4.37301 3.75426 4.3809 3.76231 4.39555 3.76231C4.4102 3.76231 4.41809 3.77036 4.41809 3.78532C4.41809 3.80028 4.42598 3.80833 4.44063 3.80833C4.45528 3.80833 4.46317 3.81638 4.46317 3.83134C4.46317 3.8463 4.47106 3.85435 4.48571 3.85435C4.50036 3.85435 4.50825 3.8624 4.50825 3.87736C4.50825 3.89232 4.51614 3.90037 4.53079 3.90037C4.54545 3.90037 4.55334 3.90843 4.55334 3.92338C4.55334 3.93834 4.56122 3.94639 4.57588 3.94639C4.59053 3.94639 4.59842 3.95445 4.59842 3.9694C4.59842 3.98436 4.60631 3.99241 4.62096 3.99241C4.63561 3.99241 4.6435 4.00047 4.6435 4.01542C4.6435 4.03038 4.65139 4.03844 4.66604 4.03844C4.68069 4.03844 4.68858 4.04649 4.68858 4.06145C4.68858 4.0764 4.69647 4.08446 4.71112 4.08446C4.72803 4.08446 4.73366 4.09251 4.73366 4.11322C4.73366 4.13393 4.7393 4.14198 4.7562 4.14198C4.77086 4.14198 4.77875 4.15004 4.77875 4.16499C4.77875 4.17995 4.78663 4.188 4.80129 4.188C4.81594 4.188 4.82383 4.19606 4.82383 4.21101C4.82383 4.22597 4.83172 4.23403 4.84637 4.23403C4.8644 4.23403 4.86891 4.24208 4.86891 4.27429C4.86891 4.30651 4.87342 4.31456 4.89145 4.31456C4.9061 4.31456 4.91399 4.32262 4.91399 4.33757C4.91399 4.35253 4.92188 4.36058 4.93653 4.36058C4.95118 4.36058 4.95907 4.36864 4.95907 4.38359C4.95907 4.39855 4.96696 4.4066 4.98161 4.4066C4.99627 4.4066 5.00416 4.41466 5.00416 4.42961C5.00416 4.44457 5.01204 4.45263 5.0267 4.45263C5.04135 4.45263 5.04924 4.46068 5.04924 4.47564C5.04924 4.49059 5.05713 4.49865 5.07178 4.49865C5.08643 4.49865 5.09432 4.5067 5.09432 4.52166C5.09432 4.53661 5.10221 4.54467 5.11686 4.54467C5.13151 4.54467 5.1394 4.55272 5.1394 4.56768C5.1394 4.58263 5.14729 4.59069 5.16194 4.59069C5.17659 4.59069 5.18448 4.59874 5.18448 4.6137C5.18448 4.62866 5.19237 4.63671 5.20702 4.63671C5.22168 4.63671 5.22956 4.64476 5.22956 4.65972C5.22956 4.67468 5.23745 4.68273 5.25211 4.68273C5.26676 4.68273 5.27465 4.69078 5.27465 4.70574C5.27465 4.7207 5.28254 4.72875 5.29719 4.72875C5.31184 4.72875 5.31973 4.73681 5.31973 4.75176C5.31973 4.76672 5.32762 4.77477 5.34227 4.77477C5.35692 4.77477 5.36481 4.78283 5.36481 4.79778C5.36481 4.81274 5.3727 4.82079 5.38735 4.82079C5.40426 4.82079 5.40989 4.82885 5.40989 4.84956C5.40989 4.87027 5.41553 4.87832 5.43243 4.87832C5.44709 4.87832 5.45497 4.88637 5.45497 4.90133C5.45497 4.91629 5.46286 4.92434 5.47752 4.92434C5.49217 4.92434 5.50006 4.93239 5.50006 4.94735C5.50006 4.96231 5.50795 4.97036 5.5226 4.97036C5.53725 4.97036 5.54514 4.97842 5.54514 4.99337C5.54514 5.00833 5.55303 5.01638 5.56768 5.01638C5.58233 5.01638 5.59022 5.02444 5.59022 5.03939C5.59022 5.05435 5.59811 5.0624 5.61276 5.0624C5.62741 5.0624 5.6353 5.07046 5.6353 5.08542C5.6353 5.10037 5.64319 5.10843 5.65784 5.10843C5.6725 5.10843 5.68038 5.11648 5.68038 5.13144C5.68038 5.14639 5.68827 5.15445 5.70293 5.15445C5.72096 5.15445 5.72547 5.1625 5.72547 5.19472C5.72547 5.22693 5.72997 5.23498 5.74801 5.23498C5.76266 5.23498 5.77055 5.24304 5.77055 5.25799C5.77055 5.27295 5.77844 5.281 5.79309 5.281C5.80774 5.281 5.81563 5.28906 5.81563 5.30402C5.81563 5.31897 5.82352 5.32703 5.83817 5.32703C5.85282 5.32703 5.86071 5.33508 5.86071 5.35004C5.86071 5.36499 5.8686 5.37305 5.88325 5.37305C5.8979 5.37305 5.90579 5.36499 5.90579 5.35004C5.90579 5.33508 5.91368 5.32703 5.92834 5.32703C5.94299 5.32703 5.95088 5.31897 5.95088 5.30402C5.95088 5.28906 5.95877 5.281 5.97342 5.281C5.98807 5.281 5.99596 5.27295 5.99596 5.25799C5.99596 5.24304 6.00385 5.23498 6.0185 5.23498C6.03315 5.23498 6.04104 5.22693 6.04104 5.21197C6.04104 5.19702 6.04893 5.18896 6.06358 5.18896C6.07823 5.18896 6.08612 5.18091 6.08612 5.16595C6.08612 5.151 6.09401 5.14294 6.10866 5.14294C6.12331 5.14294 6.1312 5.13489 6.1312 5.11993C6.1312 5.10497 6.13909 5.09692 6.15375 5.09692C6.1684 5.09692 6.17629 5.08887 6.17629 5.07391C6.17629 5.05895 6.18418 5.0509 6.19883 5.0509C6.21348 5.0509 6.22137 5.04285 6.22137 5.02789C6.22137 5.01293 6.22926 5.00488 6.24391 5.00488C6.25856 5.00488 6.26645 4.99682 6.26645 4.98187C6.26645 4.96691 6.27434 4.95886 6.28899 4.95886C6.30702 4.95886 6.31153 4.9508 6.31153 4.91859C6.31153 4.88637 6.31604 4.87832 6.33407 4.87832C6.34872 4.87832 6.35661 4.87027 6.35661 4.85531C6.35661 4.84035 6.3645 4.8323 6.37916 4.8323C6.39381 4.8323 6.4017 4.82425 6.4017 4.80929C6.4017 4.79433 6.40959 4.78628 6.42424 4.78628C6.43889 4.78628 6.44678 4.77822 6.44678 4.76327C6.44678 4.74831 6.45467 4.74026 6.46932 4.74026C6.48622 4.74026 6.49186 4.7322 6.49186 4.71149C6.49186 4.69078 6.4975 4.68273 6.5144 4.68273C6.52905 4.68273 6.53694 4.67468 6.53694 4.65972C6.53694 4.64476 6.54483 4.63671 6.55948 4.63671C6.57413 4.63671 6.58202 4.62866 6.58202 4.6137C6.58202 4.59874 6.58991 4.59069 6.60457 4.59069C6.61922 4.59069 6.62711 4.58263 6.62711 4.56768C6.62711 4.55272 6.635 4.54467 6.64965 4.54467C6.6643 4.54467 6.67219 4.53661 6.67219 4.52166C6.67219 4.5067 6.68008 4.49865 6.69473 4.49865C6.70938 4.49865 6.71727 4.49059 6.71727 4.47564C6.71727 4.46068 6.72516 4.45263 6.73981 4.45263C6.75446 4.45263 6.76235 4.44457 6.76235 4.42961C6.76235 4.41466 6.77024 4.4066 6.78489 4.4066C6.80293 4.4066 6.80743 4.39855 6.80743 4.36634C6.80743 4.33412 6.81194 4.32607 6.82997 4.32607C6.84463 4.32607 6.85252 4.31801 6.85252 4.30306C6.85252 4.2881 6.8604 4.28005 6.87506 4.28005C6.88971 4.28005 6.8976 4.27199 6.8976 4.25704C6.8976 4.24208 6.90549 4.23403 6.92014 4.23403C6.93479 4.23403 6.94268 4.22597 6.94268 4.21101C6.94268 4.19606 6.95057 4.188 6.96522 4.188C6.97987 4.188 6.98776 4.17995 6.98776 4.16499C6.98776 4.15004 6.99565 4.14198 7.0103 4.14198C7.02721 4.14198 7.03284 4.13393 7.03284 4.11322C7.03284 4.09251 7.03848 4.08446 7.05538 4.08446C7.07004 4.08446 7.07793 4.0764 7.07793 4.06145C7.07793 4.04649 7.08581 4.03844 7.10047 4.03844C7.11512 4.03844 7.12301 4.03038 7.12301 4.01542C7.12301 4.00047 7.1309 3.99241 7.14555 3.99241C7.1602 3.99241 7.16809 3.98436 7.16809 3.9694C7.16809 3.95445 7.17598 3.94639 7.19063 3.94639C7.20528 3.94639 7.21317 3.93834 7.21317 3.92338C7.21317 3.90843 7.22106 3.90037 7.23571 3.90037C7.25036 3.90037 7.25825 3.89232 7.25825 3.87736C7.25825 3.8624 7.26614 3.85435 7.28079 3.85435C7.29545 3.85435 7.30334 3.8463 7.30334 3.83134C7.30334 3.81638 7.31122 3.80833 7.32588 3.80833C7.34053 3.80833 7.34842 3.80028 7.34842 3.78532C7.34842 3.77036 7.35631 3.76231 7.37096 3.76231C7.38561 3.76231 7.3935 3.75426 7.3935 3.7393C7.3935 3.72434 7.40139 3.71629 7.41604 3.71629C7.43069 3.71629 7.43858 3.70823 7.43858 3.69328C7.43858 3.67832 7.44647 3.67027 7.46112 3.67027C7.48028 3.67027 7.48366 3.66221 7.48366 3.62425C7.48366 3.58628 7.48704 3.57822 7.5062 3.57822C7.5186 3.57822 7.52875 3.57017 7.52875 3.56097C7.52875 3.54831 7.51635 3.54371 7.48366 3.54371C7.44647 3.54371 7.43858 3.54026 7.43858 3.52185C7.43858 3.50459 7.42731 3.49769 7.3935 3.49194C7.36758 3.48733 7.34842 3.47813 7.34842 3.46892C7.34842 3.45972 7.32926 3.45052 7.30334 3.44591C7.27741 3.44131 7.25825 3.43211 7.25825 3.4229C7.25825 3.4137 7.23909 3.40449 7.21317 3.39989C7.18725 3.39529 7.16809 3.38609 7.16809 3.37688C7.16809 3.36768 7.14893 3.35847 7.12301 3.35387C7.09709 3.34927 7.07793 3.34007 7.07793 3.33086C7.07793 3.32166 7.05877 3.31245 7.03284 3.30785C7.00467 3.30325 6.98776 3.29404 6.98776 3.28369C6.98776 3.27449 6.97762 3.26758 6.96522 3.26758C6.95057 3.26758 6.94268 3.25953 6.94268 3.24457C6.94268 3.22501 6.93479 3.22156 6.8976 3.22156C6.8604 3.22156 6.85252 3.21811 6.85252 3.19855C6.85252 3.17899 6.84463 3.17554 6.80743 3.17554C6.77024 3.17554 6.76235 3.17209 6.76235 3.15368C6.76235 3.13642 6.75108 3.12952 6.71727 3.12377C6.69135 3.11916 6.67219 3.10996 6.67219 3.10076C6.67219 3.09155 6.65303 3.08235 6.62711 3.07775C6.60118 3.07314 6.58202 3.06394 6.58202 3.05473C6.58202 3.04553 6.56286 3.03633 6.53694 3.03172C6.51102 3.02712 6.49186 3.01792 6.49186 3.00871C6.49186 2.99951 6.4727 2.99031 6.44678 2.9857C6.4186 2.9811 6.4017 2.9719 6.4017 2.96154C6.4017 2.95234 6.39155 2.94543 6.37916 2.94543C6.3645 2.94543 6.35661 2.93738 6.35661 2.92242C6.35661 2.90287 6.34872 2.89941 6.31153 2.89941C6.27434 2.89941 6.26645 2.89596 6.26645 2.8764C6.26645 2.85684 6.25856 2.85339 6.22137 2.85339C6.18418 2.85339 6.17629 2.84994 6.17629 2.83153C6.17629 2.81427 6.16502 2.80737 6.1312 2.80162C6.10528 2.79702 6.08612 2.78781 6.08612 2.77861C6.08612 2.7694 6.06696 2.7602 6.04104 2.7556C6.01512 2.751 5.99596 2.74179 5.99596 2.73259C5.99596 2.72338 5.9768 2.71418 5.95088 2.70958C5.92495 2.70497 5.90579 2.69577 5.90579 2.68657C5.90579 2.67736 5.88663 2.66816 5.86071 2.66356C5.83254 2.65895 5.81563 2.64975 5.81563 2.63939C5.81563 2.63019 5.80549 2.62329 5.79309 2.62329C5.77844 2.62329 5.77055 2.61523 5.77055 2.60028C5.77055 2.58072 5.76266 2.57727 5.72547 2.57727C5.68827 2.57727 5.68038 2.57381 5.68038 2.55426C5.68038 2.5347 5.6725 2.53124 5.6353 2.53124C5.59811 2.53124 5.59022 2.52779 5.59022 2.50938C5.59022 2.49213 5.57895 2.48522 5.54514 2.47947C5.51922 2.47487 5.50006 2.46566 5.50006 2.45646C5.50006 2.44726 5.4809 2.43805 5.45497 2.43345C5.42905 2.42885 5.40989 2.41964 5.40989 2.41044C5.40989 2.40124 5.39073 2.39203 5.36481 2.38743C5.33889 2.38283 5.31973 2.37362 5.31973 2.36442C5.31973 2.35521 5.30057 2.34601 5.27465 2.34141C5.24647 2.33681 5.22956 2.3276 5.22956 2.31725C5.22956 2.30804 5.21942 2.30114 5.20702 2.30114C5.19237 2.30114 5.18448 2.29309 5.18448 2.27813C5.18448 2.25857 5.17659 2.25512 5.1394 2.25512C5.10221 2.25512 5.09432 2.25167 5.09432 2.23326C5.09432 2.216 5.08305 2.2091 5.04924 2.20334C5.02331 2.19874 5.00416 2.18954 5.00416 2.18033C5.00416 2.17113 4.98499 2.16193 4.95907 2.15732C4.93315 2.15272 4.91399 2.14352 4.91399 2.13431C4.91399 2.12511 4.89483 2.1159 4.86891 2.1113C4.84299 2.1067 4.82383 2.0975 4.82383 2.08829C4.82383 2.07909 4.80467 2.06988 4.77875 2.06528C4.75057 2.06068 4.73366 2.05148 4.73366 2.04112C4.73366 2.03192 4.72352 2.02501 4.71112 2.02501C4.69647 2.02501 4.68858 2.01696 4.68858 2.002C4.68858 1.98244 4.68069 1.97899 4.6435 1.97899C4.60631 1.97899 4.59842 1.97554 4.59842 1.95598C4.59842 1.93642 4.59053 1.93297 4.55334 1.93297C4.51614 1.93297 4.50825 1.92952 4.50825 1.91111C4.50825 1.89385 4.49698 1.88695 4.46317 1.8812C4.43725 1.87659 4.41809 1.86739 4.41809 1.85819C4.41809 1.84898 4.39893 1.83978 4.37301 1.83518C4.34709 1.83057 4.32793 1.82137 4.32793 1.81217C4.32793 1.80296 4.30877 1.79376 4.28284 1.78915C4.25692 1.78455 4.23776 1.77535 4.23776 1.76614C4.23776 1.75694 4.2186 1.74774 4.19268 1.74313C4.1645 1.73853 4.1476 1.72933 4.1476 1.71897C4.1476 1.70977 4.13745 1.70287 4.12506 1.70287C4.1104 1.70287 4.10252 1.69481 4.10252 1.67985C4.10252 1.6603 4.09463 1.65684 4.05743 1.65684C4.02024 1.65684 4.01235 1.65339 4.01235 1.63383C4.01235 1.61427 4.00446 1.61082 3.96727 1.61082C3.93008 1.61082 3.92219 1.60737 3.92219 1.58896C3.92219 1.57171 3.91092 1.5648 3.87711 1.55905C3.85118 1.55445 3.83202 1.54524 3.83202 1.53604C3.83202 1.52683 3.81286 1.51763 3.78694 1.51303C3.76102 1.50843 3.74186 1.49922 3.74186 1.49002C3.74186 1.48081 3.7227 1.47161 3.69678 1.46701C3.67086 1.4624 3.6517 1.4532 3.6517 1.444C3.6517 1.43479 3.63254 1.42559 3.60661 1.42099C3.58069 1.41638 3.56153 1.40718 3.56153 1.39798C3.56153 1.38877 3.54237 1.37957 3.51645 1.37496C3.48827 1.37036 3.47137 1.36116 3.47137 1.3508C3.47137 1.3416 3.46122 1.3347 3.44883 1.3347C3.43418 1.3347 3.42629 1.32664 3.42629 1.31169C3.42629 1.29213 3.4184 1.28868 3.3812 1.28868C3.34401 1.28868 3.33612 1.28522 3.33612 1.26567C3.33612 1.24611 3.32823 1.24265 3.29104 1.24265C3.25385 1.24265 3.24596 1.2392 3.24596 1.22079C3.24596 1.20354 3.23469 1.19663 3.20088 1.19088C3.17495 1.18628 3.15579 1.17707 3.15579 1.16787C3.15579 1.15867 3.13663 1.14946 3.11071 1.14486C3.08479 1.14026 3.06563 1.13105 3.06563 1.12185C3.06563 1.11264 3.04647 1.10344 3.02055 1.09884C2.99237 1.09424 2.97547 1.08503 2.97547 1.07468C2.97547 1.06547 2.96532 1.05857 2.95293 1.05857C2.93827 1.05857 2.93038 1.05052 2.93038 1.03556C2.93038 1.016 2.92249 1.01255 2.8853 1.01255C2.84811 1.01255 2.84022 1.0091 2.84022 0.990689C2.84022 0.973431 2.82895 0.966528 2.79514 0.960775C2.76922 0.956173 2.75006 0.946969 2.75006 0.937765C2.75006 0.92856 2.7309 0.919356 2.70497 0.914754C2.67905 0.910152 2.65989 0.900948 2.65989 0.891744C2.65989 0.882539 2.64073 0.873335 2.61481 0.868733C2.58889 0.864131 2.56973 0.854927 2.56973 0.845723C2.56973 0.836518 2.55057 0.827314 2.52465 0.822712C2.49872 0.81811 2.47956 0.808906 2.47956 0.799701C2.47956 0.790497 2.4604 0.781293 2.43448 0.776691C2.40631 0.772089 2.3894 0.762885 2.3894 0.75253C2.3894 0.743326 2.37926 0.736423 2.36686 0.736423C2.35221 0.736423 2.34432 0.728369 2.34432 0.713412C2.34432 0.693853 2.33643 0.690402 2.29924 0.690402C2.26204 0.690402 2.25415 0.68695 2.25415 0.668541C2.25415 0.651283 2.24288 0.64438 2.20907 0.638628C2.18315 0.634026 2.16399 0.624821 2.16399 0.615617C2.16399 0.606413 2.14483 0.597208 2.11891 0.592607C2.09299 0.588005 2.07383 0.5788 2.07383 0.569596C2.07383 0.560392 2.05467 0.551188 2.02874 0.546586C2.00282 0.541983 1.98366 0.532779 1.98366 0.523575C1.98366 0.514371 1.9645 0.505167 1.93858 0.500565C1.9104 0.495962 1.8935 0.486758 1.8935 0.476403C1.8935 0.467199 1.88336 0.460296 1.87096 0.460296C1.85631 0.460296 1.84842 0.452242 1.84842 0.437285C1.84842 0.417727 1.84053 0.414275 1.80333 0.414275C1.76614 0.414275 1.75825 0.410823 1.75825 0.392415C1.75825 0.375157 1.74698 0.368254 1.71317 0.362501C1.68725 0.357899 1.66809 0.348695 1.66809 0.33949C1.66809 0.330287 1.64893 0.321082 1.62301 0.31648C1.59708 0.311878 1.57792 0.302674 1.57792 0.293469C1.57792 0.284265 1.55877 0.275061 1.53284 0.270459C1.50692 0.265857 1.48776 0.256653 1.48776 0.247448C1.48776 0.238244 1.4686 0.22904 1.44268 0.224438C1.4145 0.219836 1.3976 0.210631 1.3976 0.200277C1.3976 0.191072 1.38745 0.184169 1.37506 0.184169C1.3604 0.184169 1.35252 0.176116 1.35252 0.161159C1.35252 0.1416 1.34463 0.138148 1.30743 0.138148C1.27024 0.138148 1.26235 0.134697 1.26235 0.115138C1.26235 0.0955787 1.25446 0.0921273 1.21727 0.0921273C1.18008 0.0921273 1.17219 0.0886755 1.17219 0.0702672C1.17219 0.0530095 1.16092 0.0461063 1.12711 0.0403533C1.09893 0.0357513 1.08202 0.026547 1.08202 0.0161924C1.08202 0.00468731 1.06512 8.4877e-05 1.0144 8.4877e-05C0.961429 8.4877e-05 0.946777 0.0035367 0.946777 0.017343Z" fill="#ED028C"/>
<path d="M0.116086 0.365102C0.0946721 0.369704 0.0901639 0.377758 0.0901639 0.415725C0.0901639 0.452542 0.0867828 0.460596 0.0676229 0.460596C0.0473361 0.460596 0.045082 0.46865 0.045082 0.523874C0.045082 0.5791 0.0428279 0.587153 0.022541 0.587153C0 0.587153 0 0.595207 0 5.97737C0 11.3595 0 11.3676 0.022541 11.3676C0.0428279 11.3676 0.045082 11.3756 0.045082 11.4366C0.045082 11.4976 0.0473361 11.5057 0.0676229 11.5057C0.0867828 11.5057 0.0901639 11.5137 0.0901639 11.5517C0.0901639 11.5896 0.0935451 11.5977 0.112705 11.5977C0.128484 11.5977 0.135246 11.6058 0.135246 11.6219C0.135246 11.6437 0.139754 11.646 0.170184 11.6391C0.189344 11.6357 0.209631 11.6322 0.215266 11.6322C0.220902 11.6322 0.22541 11.6219 0.22541 11.6092C0.22541 11.5942 0.233299 11.5862 0.247951 11.5862C0.265984 11.5862 0.270492 11.5781 0.270492 11.5459C0.270492 11.5137 0.275 11.5057 0.293033 11.5057C0.307684 11.5057 0.315574 11.4976 0.315574 11.4826C0.315574 11.4677 0.323463 11.4596 0.338115 11.4596C0.352766 11.4596 0.360656 11.4516 0.360656 11.4366C0.360656 11.4217 0.368545 11.4136 0.383197 11.4136C0.397848 11.4136 0.405738 11.4056 0.405738 11.3906C0.405738 11.3756 0.413627 11.3676 0.428279 11.3676C0.44293 11.3676 0.45082 11.3595 0.45082 11.3446C0.45082 11.3296 0.458709 11.3216 0.473361 11.3216C0.490266 11.3216 0.495902 11.3135 0.495902 11.2928C0.495902 11.2721 0.501537 11.264 0.518443 11.264C0.533094 11.264 0.540984 11.256 0.540984 11.241C0.540984 11.2261 0.548873 11.218 0.563525 11.218C0.578176 11.218 0.586066 11.21 0.586066 11.195C0.586066 11.1801 0.593955 11.172 0.608607 11.172C0.623258 11.172 0.631148 11.164 0.631148 11.149C0.631148 11.134 0.639037 11.126 0.653688 11.126C0.66834 11.126 0.676229 11.1179 0.676229 11.103C0.676229 11.088 0.684119 11.08 0.69877 11.08C0.713422 11.08 0.721311 11.0719 0.721311 11.057C0.721311 11.042 0.729201 11.0339 0.743852 11.0339C0.758504 11.0339 0.766393 11.0259 0.766393 11.0109C0.766393 10.996 0.774283 10.9879 0.788934 10.9879C0.803586 10.9879 0.811475 10.9799 0.811475 10.9649C0.811475 10.95 0.819365 10.9419 0.834016 10.9419C0.852049 10.9419 0.856557 10.9338 0.856557 10.9016C0.856557 10.8694 0.861066 10.8614 0.879098 10.8614C0.89375 10.8614 0.901639 10.8533 0.901639 10.8384C0.901639 10.8234 0.909529 10.8153 0.92418 10.8153C0.938832 10.8153 0.946721 10.8073 0.946721 10.7923C0.946721 10.7774 0.954611 10.7693 0.969262 10.7693C0.983914 10.7693 0.991803 10.7613 0.991803 10.7463C0.991803 10.7314 0.999693 10.7233 1.01434 10.7233C1.029 10.7233 1.03689 10.7152 1.03689 10.7003C1.03689 10.6853 1.04477 10.6773 1.05943 10.6773C1.07633 10.6773 1.08197 10.6692 1.08197 10.6485C1.08197 10.6278 1.0876 10.6198 1.10451 10.6198C1.11916 10.6198 1.12705 10.6117 1.12705 10.5967C1.12705 10.5818 1.13494 10.5737 1.14959 10.5737C1.16424 10.5737 1.17213 10.5657 1.17213 10.5507C1.17213 10.5358 1.18002 10.5277 1.19467 10.5277C1.20932 10.5277 1.21721 10.5197 1.21721 10.5047C1.21721 10.4897 1.2251 10.4817 1.23975 10.4817C1.25441 10.4817 1.2623 10.4736 1.2623 10.4587C1.2623 10.4437 1.27018 10.4357 1.28484 10.4357C1.29949 10.4357 1.30738 10.4276 1.30738 10.4127C1.30738 10.3977 1.31527 10.3896 1.32992 10.3896C1.34457 10.3896 1.35246 10.3816 1.35246 10.3666C1.35246 10.3517 1.36035 10.3436 1.375 10.3436C1.38965 10.3436 1.39754 10.3356 1.39754 10.3206C1.39754 10.3057 1.40543 10.2976 1.42008 10.2976C1.43473 10.2976 1.44262 10.2895 1.44262 10.2746C1.44262 10.2596 1.45051 10.2516 1.46516 10.2516C1.4832 10.2516 1.4877 10.2435 1.4877 10.2113C1.4877 10.1791 1.49221 10.171 1.51025 10.171C1.5249 10.171 1.53279 10.163 1.53279 10.148C1.53279 10.1331 1.54068 10.125 1.55533 10.125C1.56998 10.125 1.57787 10.117 1.57787 10.102C1.57787 10.0871 1.58576 10.079 1.60041 10.079C1.61506 10.079 1.62295 10.0709 1.62295 10.056C1.62295 10.041 1.63084 10.033 1.64549 10.033C1.66014 10.033 1.66803 10.0249 1.66803 10.01C1.66803 9.99501 1.67592 9.98696 1.69057 9.98696C1.70748 9.98696 1.71311 9.97891 1.71311 9.9582C1.71311 9.93749 1.71875 9.92943 1.73566 9.92943C1.75031 9.92943 1.7582 9.92138 1.7582 9.90642C1.7582 9.89147 1.76609 9.88341 1.78074 9.88341C1.79539 9.88341 1.80328 9.87536 1.80328 9.8604C1.80328 9.84545 1.81117 9.83739 1.82582 9.83739C1.84047 9.83739 1.84836 9.82934 1.84836 9.81438C1.84836 9.79942 1.85625 9.79137 1.8709 9.79137C1.88555 9.79137 1.89344 9.78332 1.89344 9.76836C1.89344 9.7534 1.90133 9.74535 1.91598 9.74535C1.93064 9.74535 1.93852 9.7373 1.93852 9.72234C1.93852 9.70738 1.94641 9.69933 1.96107 9.69933C1.97572 9.69933 1.98361 9.69128 1.98361 9.67632C1.98361 9.66136 1.9915 9.65331 2.00615 9.65331C2.0208 9.65331 2.02869 9.64525 2.02869 9.6303C2.02869 9.61534 2.03658 9.60729 2.05123 9.60729C2.06926 9.60729 2.07377 9.59923 2.07377 9.56702C2.07377 9.5348 2.07828 9.52675 2.09631 9.52675C2.11096 9.52675 2.11885 9.5187 2.11885 9.50374C2.11885 9.48878 2.12674 9.48073 2.14139 9.48073C2.15604 9.48073 2.16393 9.47268 2.16393 9.45772C2.16393 9.44276 2.17182 9.43471 2.18648 9.43471C2.20113 9.43471 2.20902 9.42665 2.20902 9.4117C2.20902 9.39674 2.21691 9.38869 2.23156 9.38869C2.24621 9.38869 2.2541 9.38063 2.2541 9.36568C2.2541 9.35072 2.26199 9.34267 2.27664 9.34267C2.29355 9.34267 2.29918 9.33461 2.29918 9.3139C2.29918 9.29319 2.30482 9.28514 2.32172 9.28514C2.33637 9.28514 2.34426 9.27709 2.34426 9.26213C2.34426 9.24717 2.35215 9.23912 2.3668 9.23912C2.38145 9.23912 2.38934 9.23106 2.38934 9.21611C2.38934 9.20115 2.39723 9.1931 2.41189 9.1931C2.42654 9.1931 2.43443 9.18504 2.43443 9.17009C2.43443 9.15513 2.44232 9.14708 2.45697 9.14708C2.47162 9.14708 2.47951 9.13902 2.47951 9.12407C2.47951 9.10911 2.4874 9.10105 2.50205 9.10105C2.5167 9.10105 2.52459 9.093 2.52459 9.07804C2.52459 9.06309 2.53248 9.05503 2.54713 9.05503C2.56178 9.05503 2.56967 9.04698 2.56967 9.03202C2.56967 9.01707 2.57756 9.00901 2.59221 9.00901C2.60686 9.00901 2.61475 9.00096 2.61475 8.986C2.61475 8.97105 2.62264 8.96299 2.63729 8.96299C2.65533 8.96299 2.65984 8.95494 2.65984 8.92272C2.65984 8.89051 2.66434 8.88245 2.68238 8.88245C2.69703 8.88245 2.70492 8.8744 2.70492 8.85944C2.70492 8.84449 2.71281 8.83643 2.72746 8.83643C2.74211 8.83643 2.75 8.82838 2.75 8.81342C2.75 8.79847 2.75789 8.79041 2.77254 8.79041C2.78719 8.79041 2.79508 8.78236 2.79508 8.7674C2.79508 8.75245 2.80297 8.74439 2.81762 8.74439C2.83227 8.74439 2.84016 8.73634 2.84016 8.72138C2.84016 8.70642 2.84805 8.69837 2.8627 8.69837C2.87961 8.69837 2.88525 8.69032 2.88525 8.66961C2.88525 8.6489 2.89088 8.64084 2.90779 8.64084C2.92244 8.64084 2.93033 8.63279 2.93033 8.61783C2.93033 8.60288 2.93822 8.59482 2.95287 8.59482C2.96752 8.59482 2.97541 8.58677 2.97541 8.57181C2.97541 8.55686 2.9833 8.5488 2.99795 8.5488C3.0126 8.5488 3.02049 8.54075 3.02049 8.52579C3.02049 8.51083 3.02838 8.50278 3.04303 8.50278C3.05768 8.50278 3.06557 8.49473 3.06557 8.47977C3.06557 8.46481 3.07346 8.45676 3.08811 8.45676C3.10277 8.45676 3.11066 8.44871 3.11066 8.43375C3.11066 8.41879 3.11854 8.41074 3.1332 8.41074C3.14785 8.41074 3.15574 8.40268 3.15574 8.38773C3.15574 8.37277 3.16363 8.36472 3.17828 8.36472C3.19631 8.36472 3.20082 8.35666 3.20082 8.3256C3.20082 8.28878 3.20307 8.28533 3.2459 8.27843C3.28873 8.27152 3.29098 8.26807 3.29098 8.23126C3.29098 8.20019 3.29549 8.19214 3.31352 8.19214C3.32818 8.19214 3.33607 8.18408 3.33607 8.16913C3.33607 8.15417 3.34395 8.14612 3.35861 8.14612C3.37326 8.14612 3.38115 8.13806 3.38115 8.12311C3.38115 8.10815 3.38904 8.1001 3.40369 8.1001C3.42059 8.1001 3.42623 8.09204 3.42623 8.07133C3.42623 8.05062 3.43186 8.04257 3.44877 8.04257C3.46342 8.04257 3.47131 8.03452 3.47131 8.01956C3.47131 8.0046 3.4792 7.99655 3.49385 7.99655C3.5085 7.99655 3.51639 7.9885 3.51639 7.97354C3.51639 7.95858 3.52428 7.95053 3.53893 7.95053C3.55359 7.95053 3.56148 7.94247 3.56148 7.92752C3.56148 7.91256 3.56936 7.90451 3.58402 7.90451C3.59867 7.90451 3.60656 7.89645 3.60656 7.8815C3.60656 7.86654 3.61445 7.85849 3.6291 7.85849C3.64375 7.85849 3.65164 7.85043 3.65164 7.83547C3.65164 7.82052 3.65953 7.81246 3.67418 7.81246C3.68883 7.81246 3.69672 7.80441 3.69672 7.78945C3.69672 7.7745 3.70461 7.76644 3.71926 7.76644C3.73391 7.76644 3.7418 7.75839 3.7418 7.74343C3.7418 7.72848 3.74969 7.72042 3.76434 7.72042C3.78238 7.72042 3.78689 7.71237 3.78689 7.68015C3.78689 7.64794 3.79139 7.63989 3.80943 7.63989C3.82408 7.63989 3.83197 7.63183 3.83197 7.61687C3.83197 7.60192 3.83986 7.59386 3.85451 7.59386C3.86916 7.59386 3.87705 7.58581 3.87705 7.57085C3.87705 7.5559 3.88494 7.54784 3.89959 7.54784C3.91424 7.54784 3.92213 7.53979 3.92213 7.52483C3.92213 7.50988 3.93002 7.50182 3.94467 7.50182C3.95932 7.50182 3.96721 7.49377 3.96721 7.47881C3.96721 7.46385 3.9751 7.4558 3.98975 7.4558C4.00666 7.4558 4.01229 7.44775 4.01229 7.42704C4.01229 7.40633 4.01793 7.39827 4.03484 7.39827C4.04949 7.39827 4.05738 7.39022 4.05738 7.37526C4.05738 7.36031 4.06527 7.35225 4.07992 7.35225C4.09457 7.35225 4.10246 7.3442 4.10246 7.32924C4.10246 7.31429 4.11035 7.30623 4.125 7.30623C4.13965 7.30623 4.14754 7.29818 4.14754 7.28322C4.14754 7.26827 4.15543 7.26021 4.17008 7.26021C4.18473 7.26021 4.19262 7.25216 4.19262 7.2372C4.19262 7.22224 4.20051 7.21419 4.21516 7.21419C4.22982 7.21419 4.2377 7.20614 4.2377 7.19118C4.2377 7.17622 4.24559 7.16817 4.26025 7.16817C4.2749 7.16817 4.28279 7.16012 4.28279 7.14516C4.28279 7.1302 4.29068 7.12215 4.30533 7.12215C4.31998 7.12215 4.32787 7.11409 4.32787 7.09914C4.32787 7.08418 4.33576 7.07613 4.35041 7.07613C4.36506 7.07613 4.37295 7.06807 4.37295 7.05312C4.37295 7.03816 4.38084 7.03011 4.39549 7.03011C4.41014 7.03011 4.41803 7.02205 4.41803 7.0071C4.41803 6.99214 4.42592 6.98409 4.44057 6.98409C4.45861 6.98409 4.46311 6.97603 4.46311 6.94382C4.46311 6.9116 4.46762 6.90355 4.48566 6.90355C4.50031 6.90355 4.5082 6.89549 4.5082 6.88054C4.5082 6.86558 4.51609 6.85753 4.53074 6.85753C4.54539 6.85753 4.55328 6.84947 4.55328 6.83452C4.55328 6.81956 4.56117 6.81151 4.57582 6.81151C4.59047 6.81151 4.59836 6.80345 4.59836 6.7885C4.59836 6.77354 4.60625 6.76548 4.6209 6.76548C4.63781 6.76548 4.64344 6.75743 4.64344 6.73672C4.64344 6.71601 4.64908 6.70796 4.66598 6.70796C4.68063 6.70796 4.68852 6.6999 4.68852 6.68495C4.68852 6.66999 4.69641 6.66194 4.71107 6.66194C4.72572 6.66194 4.73361 6.65388 4.73361 6.63893C4.73361 6.62397 4.7415 6.61592 4.75615 6.61592C4.7708 6.61592 4.77869 6.60786 4.77869 6.59291C4.77869 6.57795 4.78658 6.56989 4.80123 6.56989C4.81588 6.56989 4.82377 6.56184 4.82377 6.54688C4.82377 6.53193 4.83166 6.52387 4.84631 6.52387C4.86096 6.52387 4.86885 6.51582 4.86885 6.50086C4.86885 6.48591 4.87674 6.47785 4.89139 6.47785C4.90604 6.47785 4.91393 6.4698 4.91393 6.45484C4.91393 6.43989 4.92182 6.43183 4.93647 6.43183C4.95113 6.43183 4.95902 6.42378 4.95902 6.40882C4.95902 6.39386 4.96691 6.38581 4.98156 6.38581C4.99959 6.38581 5.0041 6.37776 5.0041 6.34554C5.0041 6.31333 5.00861 6.30527 5.02664 6.30527C5.04129 6.30527 5.04918 6.29722 5.04918 6.28226C5.04918 6.26731 5.05707 6.25925 5.07172 6.25925C5.08637 6.25925 5.09426 6.2512 5.09426 6.23624C5.09426 6.22129 5.10215 6.21323 5.1168 6.21323C5.13145 6.21323 5.13934 6.20518 5.13934 6.19022C5.13934 6.17526 5.14723 6.16721 5.16188 6.16721C5.17654 6.16721 5.18443 6.15916 5.18443 6.1442C5.18443 6.12924 5.19232 6.12119 5.20697 6.12119C5.22162 6.12119 5.22951 6.11314 5.22951 6.09818C5.22951 6.08322 5.2374 6.07517 5.25205 6.07517C5.26895 6.07517 5.27459 6.06711 5.27459 6.0464C5.27459 6.0257 5.28022 6.01764 5.29713 6.01764C5.31516 6.01764 5.31967 6.00959 5.31967 5.97737C5.31967 5.94516 5.31516 5.93711 5.29713 5.93711C5.28248 5.93711 5.27459 5.92905 5.27459 5.91409C5.27459 5.89914 5.2667 5.89108 5.25205 5.89108C5.2374 5.89108 5.22951 5.88303 5.22951 5.86807C5.22951 5.85312 5.22162 5.84506 5.20697 5.84506C5.19232 5.84506 5.18443 5.83701 5.18443 5.82205C5.18443 5.8071 5.17654 5.79904 5.16188 5.79904C5.14723 5.79904 5.13934 5.79099 5.13934 5.77603C5.13934 5.76107 5.13145 5.75302 5.1168 5.75302C5.10215 5.75302 5.09426 5.74497 5.09426 5.73001C5.09426 5.71505 5.08637 5.707 5.07172 5.707C5.05482 5.707 5.04918 5.69895 5.04918 5.67824C5.04918 5.65753 5.04354 5.64947 5.02664 5.64947C5.01199 5.64947 5.0041 5.64142 5.0041 5.62646C5.0041 5.61151 4.99621 5.60345 4.98156 5.60345C4.96691 5.60345 4.95902 5.5954 4.95902 5.58044C4.95902 5.56548 4.95113 5.55743 4.93647 5.55743C4.92182 5.55743 4.91393 5.54938 4.91393 5.53442C4.91393 5.51946 4.90604 5.51141 4.89139 5.51141C4.87336 5.51141 4.86885 5.50336 4.86885 5.47114C4.86885 5.43893 4.86434 5.43087 4.84631 5.43087C4.83166 5.43087 4.82377 5.42282 4.82377 5.40786C4.82377 5.39291 4.81588 5.38485 4.80123 5.38485C4.78658 5.38485 4.77869 5.3768 4.77869 5.36184C4.77869 5.34688 4.7708 5.33883 4.75615 5.33883C4.7415 5.33883 4.73361 5.33078 4.73361 5.31582C4.73361 5.30086 4.72572 5.29281 4.71107 5.29281C4.69641 5.29281 4.68852 5.28476 4.68852 5.2698C4.68852 5.25484 4.68063 5.24679 4.66598 5.24679C4.65133 5.24679 4.64344 5.23874 4.64344 5.22378C4.64344 5.20882 4.63555 5.20077 4.6209 5.20077C4.60625 5.20077 4.59836 5.19271 4.59836 5.17776C4.59836 5.1628 4.59047 5.15475 4.57582 5.15475C4.56117 5.15475 4.55328 5.14669 4.55328 5.13174C4.55328 5.11678 4.54539 5.10873 4.53074 5.10873C4.51383 5.10873 4.5082 5.10067 4.5082 5.07996C4.5082 5.05925 4.50256 5.0512 4.48566 5.0512C4.471 5.0512 4.46311 5.04315 4.46311 5.02819C4.46311 5.01323 4.45522 5.00518 4.44057 5.00518C4.42592 5.00518 4.41803 4.99712 4.41803 4.98217C4.41803 4.96721 4.41014 4.95916 4.39549 4.95916C4.38084 4.95916 4.37295 4.9511 4.37295 4.93615C4.37295 4.92119 4.36506 4.91314 4.35041 4.91314C4.33576 4.91314 4.32787 4.90508 4.32787 4.89013C4.32787 4.87517 4.31998 4.86711 4.30533 4.86711C4.29068 4.86711 4.28279 4.85906 4.28279 4.8441C4.28279 4.82915 4.2749 4.82109 4.26025 4.82109C4.24221 4.82109 4.2377 4.81304 4.2377 4.78083C4.2377 4.74861 4.2332 4.74056 4.21516 4.74056C4.20051 4.74056 4.19262 4.7325 4.19262 4.71755C4.19262 4.70259 4.18473 4.69454 4.17008 4.69454C4.15543 4.69454 4.14754 4.68648 4.14754 4.67153C4.14754 4.65657 4.13965 4.64851 4.125 4.64851C4.11035 4.64851 4.10246 4.64046 4.10246 4.6255C4.10246 4.61055 4.09457 4.60249 4.07992 4.60249C4.06527 4.60249 4.05738 4.59444 4.05738 4.57948C4.05738 4.56453 4.04949 4.55647 4.03484 4.55647C4.02018 4.55647 4.01229 4.54842 4.01229 4.53346C4.01229 4.51851 4.00441 4.51045 3.98975 4.51045C3.9751 4.51045 3.96721 4.5024 3.96721 4.48744C3.96721 4.47248 3.95932 4.46443 3.94467 4.46443C3.93002 4.46443 3.92213 4.45638 3.92213 4.44142C3.92213 4.42646 3.91424 4.41841 3.89959 4.41841C3.88494 4.41841 3.87705 4.41036 3.87705 4.3954C3.87705 4.38044 3.86916 4.37239 3.85451 4.37239C3.8376 4.37239 3.83197 4.36433 3.83197 4.34363C3.83197 4.32292 3.82633 4.31486 3.80943 4.31486C3.79477 4.31486 3.78689 4.30681 3.78689 4.29185C3.78689 4.27689 3.779 4.26884 3.76434 4.26884C3.74969 4.26884 3.7418 4.26079 3.7418 4.24583C3.7418 4.23087 3.73391 4.22282 3.71926 4.22282C3.70461 4.22282 3.69672 4.21477 3.69672 4.19981C3.69672 4.18485 3.68883 4.1768 3.67418 4.1768C3.65953 4.1768 3.65164 4.16874 3.65164 4.15379C3.65164 4.13883 3.64375 4.13078 3.6291 4.13078C3.61107 4.13078 3.60656 4.12272 3.60656 4.09051C3.60656 4.05829 3.60205 4.05024 3.58402 4.05024C3.56936 4.05024 3.56148 4.04219 3.56148 4.02723C3.56148 4.01227 3.55359 4.00422 3.53893 4.00422C3.52428 4.00422 3.51639 3.99617 3.51639 3.98121C3.51639 3.96625 3.5085 3.9582 3.49385 3.9582C3.4792 3.9582 3.47131 3.95014 3.47131 3.93519C3.47131 3.92023 3.46342 3.91218 3.44877 3.91218C3.43412 3.91218 3.42623 3.90412 3.42623 3.88917C3.42623 3.87421 3.41834 3.86616 3.40369 3.86616C3.38904 3.86616 3.38115 3.8581 3.38115 3.84315C3.38115 3.82819 3.37326 3.82014 3.35861 3.82014C3.34395 3.82014 3.33607 3.81208 3.33607 3.79712C3.33607 3.78217 3.32818 3.77411 3.31352 3.77411C3.29887 3.77411 3.29098 3.76606 3.29098 3.7511C3.29098 3.73615 3.28309 3.72809 3.26844 3.72809C3.25379 3.72809 3.2459 3.72004 3.2459 3.70508C3.2459 3.69013 3.23801 3.68207 3.22336 3.68207C3.20871 3.68207 3.20082 3.67402 3.20082 3.65906C3.20082 3.6441 3.19293 3.63605 3.17828 3.63605C3.16137 3.63605 3.15574 3.628 3.15574 3.60729C3.15574 3.58658 3.1501 3.57852 3.1332 3.57852C3.11854 3.57852 3.11066 3.57047 3.11066 3.55551C3.11066 3.54056 3.10277 3.5325 3.08811 3.5325C3.07346 3.5325 3.06557 3.52445 3.06557 3.50949C3.06557 3.49454 3.05768 3.48648 3.04303 3.48648C3.02838 3.48648 3.02049 3.47843 3.02049 3.46347C3.02049 3.44851 3.0126 3.44046 2.99795 3.44046C2.9833 3.44046 2.97541 3.43241 2.97541 3.41745C2.97541 3.40249 2.96752 3.39444 2.95287 3.39444C2.93484 3.39444 2.93033 3.38639 2.93033 3.35417C2.93033 3.32196 2.92582 3.3139 2.90779 3.3139C2.89314 3.3139 2.88525 3.30585 2.88525 3.29089C2.88525 3.27594 2.87736 3.26788 2.8627 3.26788C2.84805 3.26788 2.84016 3.25983 2.84016 3.24487C2.84016 3.22991 2.83227 3.22186 2.81762 3.22186C2.80297 3.22186 2.79508 3.21381 2.79508 3.19885C2.79508 3.18389 2.78719 3.17584 2.77254 3.17584C2.75789 3.17584 2.75 3.16779 2.75 3.15283C2.75 3.13787 2.74211 3.12982 2.72746 3.12982C2.71281 3.12982 2.70492 3.12177 2.70492 3.10681C2.70492 3.09185 2.69703 3.0838 2.68238 3.0838C2.66773 3.0838 2.65984 3.07574 2.65984 3.06079C2.65984 3.04583 2.65195 3.03778 2.63729 3.03778C2.62264 3.03778 2.61475 3.02972 2.61475 3.01477C2.61475 2.99981 2.60686 2.99176 2.59221 2.99176C2.57756 2.99176 2.56967 2.9837 2.56967 2.96875C2.56967 2.95379 2.56178 2.94573 2.54713 2.94573C2.53248 2.94573 2.52459 2.93768 2.52459 2.92272C2.52459 2.90777 2.5167 2.89971 2.50205 2.89971C2.4874 2.89971 2.47951 2.89166 2.47951 2.8767C2.47951 2.86175 2.47162 2.85369 2.45697 2.85369C2.44006 2.85369 2.43443 2.84564 2.43443 2.82493C2.43443 2.80422 2.42879 2.79617 2.41189 2.79617C2.39723 2.79617 2.38934 2.78811 2.38934 2.77316C2.38934 2.7582 2.38145 2.75014 2.3668 2.75014C2.35215 2.75014 2.34426 2.74209 2.34426 2.72713C2.34426 2.71218 2.33637 2.70412 2.32172 2.70412C2.30707 2.70412 2.29918 2.69607 2.29918 2.68111C2.29918 2.66616 2.29129 2.6581 2.27664 2.6581C2.26199 2.6581 2.2541 2.65005 2.2541 2.63509C2.2541 2.62014 2.24621 2.61208 2.23156 2.61208C2.21691 2.61208 2.20902 2.60403 2.20902 2.58907C2.20902 2.57411 2.20113 2.56606 2.18648 2.56606C2.16844 2.56606 2.16393 2.55801 2.16393 2.52579C2.16393 2.49358 2.15943 2.48552 2.14139 2.48552C2.12674 2.48552 2.11885 2.47747 2.11885 2.46251C2.11885 2.44756 2.11096 2.4395 2.09631 2.4395C2.08166 2.4395 2.07377 2.43145 2.07377 2.41649C2.07377 2.40154 2.06588 2.39348 2.05123 2.39348C2.03658 2.39348 2.02869 2.38543 2.02869 2.37047C2.02869 2.35551 2.0208 2.34746 2.00615 2.34746C1.9915 2.34746 1.98361 2.33941 1.98361 2.32445C1.98361 2.30949 1.97572 2.30144 1.96107 2.30144C1.94641 2.30144 1.93852 2.29339 1.93852 2.27843C1.93852 2.26347 1.93064 2.25542 1.91598 2.25542C1.90133 2.25542 1.89344 2.24736 1.89344 2.23241C1.89344 2.21745 1.88555 2.2094 1.8709 2.2094C1.85625 2.2094 1.84836 2.20134 1.84836 2.18639C1.84836 2.17143 1.84047 2.16338 1.82582 2.16338C1.81117 2.16338 1.80328 2.15532 1.80328 2.14037C1.80328 2.12541 1.79539 2.11735 1.78074 2.11735C1.76383 2.11735 1.7582 2.1093 1.7582 2.08859C1.7582 2.06788 1.75256 2.05983 1.73566 2.05983C1.721 2.05983 1.71311 2.05177 1.71311 2.03682C1.71311 2.02186 1.70523 2.01381 1.69057 2.01381C1.67592 2.01381 1.66803 2.00575 1.66803 1.9908C1.66803 1.97584 1.66014 1.96779 1.64549 1.96779C1.63084 1.96779 1.62295 1.95973 1.62295 1.94478C1.62295 1.92982 1.61506 1.92177 1.60041 1.92177C1.58576 1.92177 1.57787 1.91371 1.57787 1.89876C1.57787 1.8838 1.56998 1.87574 1.55533 1.87574C1.54068 1.87574 1.53279 1.86769 1.53279 1.85273C1.53279 1.83778 1.5249 1.82972 1.51025 1.82972C1.49221 1.82972 1.4877 1.82167 1.4877 1.78945C1.4877 1.75724 1.4832 1.74919 1.46516 1.74919C1.45051 1.74919 1.44262 1.74113 1.44262 1.72618C1.44262 1.71122 1.43473 1.70317 1.42008 1.70317C1.40543 1.70317 1.39754 1.69511 1.39754 1.68015C1.39754 1.6652 1.38965 1.65714 1.375 1.65714C1.36035 1.65714 1.35246 1.64909 1.35246 1.63413C1.35246 1.61918 1.34457 1.61112 1.32992 1.61112C1.31527 1.61112 1.30738 1.60307 1.30738 1.58811C1.30738 1.57316 1.29949 1.5651 1.28484 1.5651C1.27018 1.5651 1.2623 1.55705 1.2623 1.54209C1.2623 1.52713 1.25441 1.51908 1.23975 1.51908C1.2251 1.51908 1.21721 1.51103 1.21721 1.49607C1.21721 1.48111 1.20932 1.47306 1.19467 1.47306C1.18002 1.47306 1.17213 1.46501 1.17213 1.45005C1.17213 1.43509 1.16424 1.42704 1.14959 1.42704C1.13494 1.42704 1.12705 1.41898 1.12705 1.40403C1.12705 1.38907 1.11916 1.38102 1.10451 1.38102C1.0876 1.38102 1.08197 1.37296 1.08197 1.35225C1.08197 1.33154 1.07633 1.32349 1.05943 1.32349C1.04477 1.32349 1.03689 1.31544 1.03689 1.30048C1.03689 1.28552 1.029 1.27747 1.01434 1.27747C0.999693 1.27747 0.991803 1.26942 0.991803 1.25446C0.991803 1.2395 0.983914 1.23145 0.969262 1.23145C0.954611 1.23145 0.946721 1.2234 0.946721 1.20844C0.946721 1.19348 0.938832 1.18543 0.92418 1.18543C0.909529 1.18543 0.901639 1.17737 0.901639 1.16242C0.901639 1.14746 0.89375 1.13941 0.879098 1.13941C0.861066 1.13941 0.856557 1.13135 0.856557 1.09914C0.856557 1.06692 0.852049 1.05887 0.834016 1.05887C0.819365 1.05887 0.811475 1.05082 0.811475 1.03586C0.811475 1.0209 0.803586 1.01285 0.788934 1.01285C0.774283 1.01285 0.766393 1.0048 0.766393 0.989839C0.766393 0.974881 0.758504 0.966827 0.743852 0.966827C0.729201 0.966827 0.721311 0.958774 0.721311 0.943817C0.721311 0.928861 0.713422 0.920807 0.69877 0.920807C0.684119 0.920807 0.676229 0.912753 0.676229 0.897796C0.676229 0.882839 0.66834 0.874785 0.653688 0.874785C0.639037 0.874785 0.631148 0.866732 0.631148 0.851775C0.631148 0.836818 0.623258 0.828764 0.608607 0.828764C0.593955 0.828764 0.586066 0.820711 0.586066 0.805754C0.586066 0.790797 0.578176 0.782743 0.563525 0.782743C0.548873 0.782743 0.540984 0.77469 0.540984 0.759733C0.540984 0.744776 0.533094 0.736722 0.518443 0.736722C0.503791 0.736722 0.495902 0.728668 0.495902 0.713712C0.495902 0.698755 0.488012 0.690701 0.473361 0.690701C0.458709 0.690701 0.45082 0.682648 0.45082 0.66769C0.45082 0.652734 0.44293 0.64468 0.428279 0.64468C0.411373 0.64468 0.405738 0.636626 0.405738 0.615917C0.405738 0.595207 0.400102 0.587153 0.383197 0.587153C0.368545 0.587153 0.360656 0.5791 0.360656 0.564143C0.360656 0.549187 0.352766 0.541133 0.338115 0.541133C0.323463 0.541133 0.315574 0.533079 0.315574 0.518122C0.315574 0.503165 0.307684 0.495111 0.293033 0.495111C0.278381 0.495111 0.270492 0.487058 0.270492 0.472101C0.270492 0.457144 0.262602 0.44909 0.247951 0.44909C0.233299 0.44909 0.22541 0.441037 0.22541 0.42608C0.22541 0.411123 0.21752 0.403069 0.202869 0.403069C0.188217 0.403069 0.180328 0.395016 0.180328 0.380059C0.180328 0.357048 0.170184 0.354747 0.116086 0.365102Z" fill="#ED028C"/>
<path d="M8.20497 4.02716C8.20497 4.04211 8.19708 4.05017 8.18243 4.05017C8.16778 4.05017 8.15989 4.05822 8.15989 4.07318C8.15989 4.08813 8.152 4.09619 8.13735 4.09619C8.1227 4.09619 8.11481 4.10424 8.11481 4.1192C8.11481 4.13416 8.10692 4.14221 8.09227 4.14221C8.07762 4.14221 8.06973 4.15026 8.06973 4.16522C8.06973 4.18018 8.06184 4.18823 8.04719 4.18823C8.03254 4.18823 8.02465 4.19628 8.02465 4.21124C8.02465 4.2262 8.01676 4.23425 8.0021 4.23425C7.98745 4.23425 7.97956 4.24231 7.97956 4.25726C7.97956 4.27222 7.97167 4.28027 7.95702 4.28027C7.94237 4.28027 7.93448 4.28833 7.93448 4.30328C7.93448 4.31824 7.92659 4.32629 7.91194 4.32629C7.89391 4.32629 7.8894 4.33435 7.8894 4.36656C7.8894 4.39878 7.88489 4.40683 7.86686 4.40683C7.85221 4.40683 7.84432 4.41488 7.84432 4.42984C7.84432 4.4448 7.83643 4.45285 7.82178 4.45285C7.80713 4.45285 7.79924 4.46091 7.79924 4.47586C7.79924 4.49082 7.79135 4.49887 7.7767 4.49887C7.76204 4.49887 7.75415 4.50693 7.75415 4.52188C7.75415 4.53684 7.74626 4.54489 7.73161 4.54489C7.71696 4.54489 7.70907 4.55295 7.70907 4.5679C7.70907 4.58286 7.70118 4.59091 7.68653 4.59091C7.67188 4.59091 7.66399 4.59897 7.66399 4.61393C7.66399 4.62888 7.6561 4.63694 7.64145 4.63694C7.62454 4.63694 7.61891 4.64499 7.61891 4.6657C7.61891 4.68641 7.61327 4.69446 7.59637 4.69446C7.58172 4.69446 7.57383 4.70252 7.57383 4.71747C7.57383 4.73243 7.56594 4.74048 7.55129 4.74048C7.53663 4.74048 7.52874 4.74854 7.52874 4.76349C7.52874 4.77845 7.52086 4.7865 7.5062 4.7865C7.49155 4.7865 7.48366 4.79456 7.48366 4.80952C7.48366 4.82447 7.47577 4.83253 7.46112 4.83253C7.44647 4.83253 7.43858 4.84058 7.43858 4.85554C7.43858 4.87049 7.43069 4.87855 7.41604 4.87855C7.40139 4.87855 7.3935 4.8866 7.3935 4.90156C7.3935 4.91651 7.38561 4.92457 7.37096 4.92457C7.35631 4.92457 7.34842 4.93262 7.34842 4.94758C7.34842 4.96254 7.34053 4.97059 7.32588 4.97059C7.31122 4.97059 7.30333 4.97864 7.30333 4.9936C7.30333 5.00856 7.29545 5.01661 7.28079 5.01661C7.26614 5.01661 7.25825 5.02466 7.25825 5.03962C7.25825 5.05458 7.25036 5.06263 7.23571 5.06263C7.22106 5.06263 7.21317 5.07068 7.21317 5.08564C7.21317 5.1006 7.20528 5.10865 7.19063 5.10865C7.1726 5.10865 7.16809 5.11671 7.16809 5.14892C7.16809 5.18114 7.16358 5.18919 7.14555 5.18919C7.1309 5.18919 7.12301 5.19724 7.12301 5.2122C7.12301 5.22716 7.11512 5.23521 7.10047 5.23521C7.08581 5.23521 7.07792 5.24326 7.07792 5.25822C7.07792 5.27318 7.07004 5.28123 7.05538 5.28123C7.04073 5.28123 7.03284 5.28929 7.03284 5.30424C7.03284 5.3192 7.02495 5.32725 7.0103 5.32725C6.99565 5.32725 6.98776 5.33531 6.98776 5.35026C6.98776 5.36522 6.97987 5.37327 6.96522 5.37327C6.95057 5.37327 6.94268 5.38133 6.94268 5.39628C6.94268 5.41124 6.93479 5.41929 6.92014 5.41929C6.90549 5.41929 6.8976 5.42735 6.8976 5.44231C6.8976 5.45726 6.88971 5.46532 6.87506 5.46532C6.85815 5.46532 6.85251 5.47337 6.85251 5.49408C6.85251 5.51479 6.84688 5.52284 6.82997 5.52284C6.81532 5.52284 6.80743 5.5309 6.80743 5.54585C6.80743 5.56081 6.79954 5.56886 6.78489 5.56886C6.77024 5.56886 6.76235 5.57692 6.76235 5.59187C6.76235 5.60683 6.75446 5.61488 6.73981 5.61488C6.72516 5.61488 6.71727 5.62294 6.71727 5.63789C6.71727 5.65285 6.70938 5.66091 6.69473 5.66091C6.68008 5.66091 6.67219 5.66896 6.67219 5.68392C6.67219 5.69887 6.6643 5.70693 6.64965 5.70693C6.63499 5.70693 6.62711 5.71498 6.62711 5.72994C6.62711 5.74489 6.61922 5.75295 6.60456 5.75295C6.58653 5.75295 6.58202 5.761 6.58202 5.79322C6.58202 5.82543 6.57752 5.83348 6.55948 5.83348C6.54483 5.83348 6.53694 5.84154 6.53694 5.8565C6.53694 5.87145 6.52905 5.87951 6.5144 5.87951C6.49975 5.87951 6.49186 5.88756 6.49186 5.90252C6.49186 5.91747 6.48397 5.92553 6.46932 5.92553C6.44903 5.92553 6.44678 5.93358 6.44678 5.99456C6.44678 6.05554 6.44903 6.06359 6.46932 6.06359C6.48397 6.06359 6.49186 6.07164 6.49186 6.0866C6.49186 6.10156 6.49975 6.10961 6.5144 6.10961C6.52905 6.10961 6.53694 6.11766 6.53694 6.13262C6.53694 6.14758 6.54483 6.15563 6.55948 6.15563C6.57413 6.15563 6.58202 6.16369 6.58202 6.17864C6.58202 6.1936 6.58991 6.20165 6.60456 6.20165C6.61922 6.20165 6.62711 6.20971 6.62711 6.22466C6.62711 6.23962 6.63499 6.24767 6.64965 6.24767C6.6643 6.24767 6.67219 6.25573 6.67219 6.27068C6.67219 6.28564 6.68008 6.2937 6.69473 6.2937C6.70938 6.2937 6.71727 6.30175 6.71727 6.31671C6.71727 6.33166 6.72516 6.33972 6.73981 6.33972C6.75446 6.33972 6.76235 6.34777 6.76235 6.36273C6.76235 6.37768 6.77024 6.38574 6.78489 6.38574C6.8018 6.38574 6.80743 6.39379 6.80743 6.4145C6.80743 6.43521 6.81307 6.44326 6.82997 6.44326C6.84463 6.44326 6.85251 6.45132 6.85251 6.46627C6.85251 6.48123 6.8604 6.48928 6.87506 6.48928C6.88971 6.48928 6.8976 6.49734 6.8976 6.5123C6.8976 6.52725 6.90549 6.53531 6.92014 6.53531C6.93479 6.53531 6.94268 6.54336 6.94268 6.55832C6.94268 6.57327 6.95057 6.58133 6.96522 6.58133C6.98325 6.58133 6.98776 6.58938 6.98776 6.6216C6.98776 6.65381 6.99227 6.66186 7.0103 6.66186C7.02495 6.66186 7.03284 6.66992 7.03284 6.68487C7.03284 6.69983 7.04073 6.70789 7.05538 6.70789C7.07004 6.70789 7.07792 6.71594 7.07792 6.7309C7.07792 6.74585 7.08581 6.75391 7.10047 6.75391C7.11512 6.75391 7.12301 6.76196 7.12301 6.77692C7.12301 6.79187 7.1309 6.79993 7.14555 6.79993C7.1602 6.79993 7.16809 6.80798 7.16809 6.82294C7.16809 6.83789 7.17598 6.84595 7.19063 6.84595C7.20528 6.84595 7.21317 6.854 7.21317 6.86896C7.21317 6.88392 7.22106 6.89197 7.23571 6.89197C7.25036 6.89197 7.25825 6.90002 7.25825 6.91498C7.25825 6.92994 7.26614 6.93799 7.28079 6.93799C7.29545 6.93799 7.30333 6.94604 7.30333 6.961C7.30333 6.97596 7.31122 6.98401 7.32588 6.98401C7.34053 6.98401 7.34842 6.99207 7.34842 7.00702C7.34842 7.02198 7.35631 7.03003 7.37096 7.03003C7.38561 7.03003 7.3935 7.03809 7.3935 7.05304C7.3935 7.068 7.40139 7.07605 7.41604 7.07605C7.43069 7.07605 7.43858 7.08411 7.43858 7.09906C7.43858 7.11402 7.44647 7.12208 7.46112 7.12208C7.47577 7.12208 7.48366 7.13013 7.48366 7.14509C7.48366 7.16004 7.49155 7.1681 7.5062 7.1681C7.52311 7.1681 7.52874 7.17615 7.52874 7.19686C7.52874 7.21757 7.53438 7.22562 7.55129 7.22562C7.56594 7.22562 7.57383 7.23368 7.57383 7.24863C7.57383 7.26359 7.58172 7.27164 7.59637 7.27164C7.61102 7.27164 7.61891 7.2797 7.61891 7.29465C7.61891 7.30961 7.6268 7.31766 7.64145 7.31766C7.6561 7.31766 7.66399 7.32572 7.66399 7.34068C7.66399 7.35563 7.67188 7.36369 7.68653 7.36369C7.70118 7.36369 7.70907 7.37174 7.70907 7.3867C7.70907 7.40165 7.71696 7.40971 7.73161 7.40971C7.74626 7.40971 7.75415 7.41776 7.75415 7.43272C7.75415 7.44767 7.76204 7.45573 7.7767 7.45573C7.79473 7.45573 7.79924 7.46378 7.79924 7.496C7.79924 7.52821 7.80374 7.53626 7.82178 7.53626C7.83643 7.53626 7.84432 7.54432 7.84432 7.55928C7.84432 7.57423 7.85221 7.58229 7.86686 7.58229C7.88151 7.58229 7.8894 7.59034 7.8894 7.6053C7.8894 7.62025 7.89729 7.62831 7.91194 7.62831C7.92659 7.62831 7.93448 7.63636 7.93448 7.65132C7.93448 7.66627 7.94237 7.67433 7.95702 7.67433C7.97167 7.67433 7.97956 7.68238 7.97956 7.69734C7.97956 7.7123 7.98745 7.72035 8.0021 7.72035C8.01676 7.72035 8.02465 7.7284 8.02465 7.74336C8.02465 7.75832 8.03254 7.76637 8.04719 7.76637C8.06184 7.76637 8.06973 7.77442 8.06973 7.78938C8.06973 7.80434 8.07762 7.81239 8.09227 7.81239C8.10692 7.81239 8.11481 7.82045 8.11481 7.8354C8.11481 7.85036 8.1227 7.85841 8.13735 7.85841C8.152 7.85841 8.15989 7.86647 8.15989 7.88142C8.15989 7.89638 8.16778 7.90443 8.18243 7.90443C8.19708 7.90443 8.20497 7.91249 8.20497 7.92629C8.20497 7.94125 8.21512 7.9493 8.23879 7.95391C8.29063 7.96541 8.34022 7.95161 8.34022 7.92629C8.34022 7.90904 8.34924 7.90443 8.3853 7.90443C8.42249 7.90443 8.43038 7.90098 8.43038 7.88142C8.43038 7.86186 8.43827 7.85841 8.47547 7.85841C8.51266 7.85841 8.52055 7.85496 8.52055 7.8354C8.52055 7.82045 8.52844 7.81239 8.54309 7.81239C8.55549 7.81239 8.56563 7.80549 8.56563 7.79628C8.56563 7.78593 8.58254 7.77673 8.61071 7.77212C8.63663 7.76752 8.65579 7.75832 8.65579 7.74911C8.65579 7.73991 8.67495 7.7307 8.70088 7.7261C8.7268 7.7215 8.74596 7.7123 8.74596 7.70309C8.74596 7.69389 8.76512 7.68468 8.79104 7.68008C8.81696 7.67548 8.83612 7.66627 8.83612 7.65707C8.83612 7.64787 8.85528 7.63866 8.8812 7.63406C8.90713 7.62946 8.92629 7.62025 8.92629 7.61105C8.92629 7.60184 8.94544 7.59264 8.97137 7.58804C9.00518 7.58229 9.01645 7.57538 9.01645 7.55812C9.01645 7.53972 9.02434 7.53626 9.06153 7.53626C9.09872 7.53626 9.10661 7.53281 9.10661 7.51325C9.10661 7.4983 9.1145 7.49024 9.12915 7.49024C9.14155 7.49024 9.15169 7.48334 9.15169 7.47414C9.15169 7.46378 9.1686 7.45458 9.19678 7.44998C9.2227 7.44537 9.24186 7.43617 9.24186 7.42696C9.24186 7.41776 9.26102 7.40856 9.28694 7.40395C9.31286 7.39935 9.33202 7.39015 9.33202 7.38094C9.33202 7.37174 9.35118 7.36254 9.3771 7.35793C9.41092 7.35218 9.42219 7.34528 9.42219 7.32802C9.42219 7.30961 9.43008 7.30616 9.46727 7.30616C9.50446 7.30616 9.51235 7.30271 9.51235 7.28315C9.51235 7.26359 9.52024 7.26014 9.55743 7.26014C9.59463 7.26014 9.60251 7.25669 9.60251 7.23713C9.60251 7.22217 9.6104 7.21412 9.62506 7.21412C9.63745 7.21412 9.6476 7.20721 9.6476 7.19801C9.6476 7.18766 9.6645 7.17845 9.69268 7.17385C9.7186 7.16925 9.73776 7.16004 9.73776 7.15084C9.73776 7.14163 9.75692 7.13243 9.78284 7.12783C9.80876 7.12323 9.82792 7.11402 9.82792 7.10482C9.82792 7.09561 9.84708 7.08641 9.87301 7.08181C9.89893 7.0772 9.91809 7.068 9.91809 7.0588C9.91809 7.04959 9.93725 7.04039 9.96317 7.03579C9.99698 7.03003 10.0083 7.02313 10.0083 7.00587C10.0083 6.98746 10.0161 6.98401 10.0533 6.98401C10.0905 6.98401 10.0984 6.98056 10.0984 6.961C10.0984 6.94144 10.1063 6.93799 10.1435 6.93799C10.1807 6.93799 10.1886 6.93454 10.1886 6.91498C10.1886 6.90002 10.1965 6.89197 10.2111 6.89197C10.2235 6.89197 10.2337 6.88507 10.2337 6.87586C10.2337 6.86551 10.2506 6.8563 10.2787 6.8517C10.3047 6.8471 10.3238 6.83789 10.3238 6.82869C10.3238 6.81949 10.343 6.81028 10.3689 6.80568C10.3948 6.80108 10.414 6.79187 10.414 6.78267C10.414 6.77347 10.4331 6.76426 10.4591 6.75966C10.4929 6.75391 10.5042 6.747 10.5042 6.72975C10.5042 6.71594 10.512 6.70789 10.5267 6.70789C10.5391 6.70789 10.5492 6.70098 10.5492 6.69178C10.5492 6.68142 10.5661 6.67222 10.5943 6.66762C10.6281 6.66186 10.6394 6.65496 10.6394 6.6377C10.6394 6.6239 10.6473 6.61584 10.6619 6.61584C10.6743 6.61584 10.6845 6.60779 10.6845 6.59859C10.6845 6.58938 10.6946 6.58133 10.707 6.58133C10.7217 6.58133 10.7296 6.57327 10.7296 6.55832C10.7296 6.54336 10.7375 6.53531 10.7521 6.53531C10.7668 6.53531 10.7746 6.52725 10.7746 6.5123C10.7746 6.49734 10.7825 6.48928 10.7972 6.48928C10.8118 6.48928 10.8197 6.48123 10.8197 6.46627C10.8197 6.45132 10.8276 6.44326 10.8423 6.44326C10.8592 6.44326 10.8648 6.43521 10.8648 6.4145C10.8648 6.39379 10.8704 6.38574 10.8874 6.38574C10.9054 6.38574 10.9099 6.37768 10.9099 6.34547C10.9099 6.31325 10.9144 6.3052 10.9324 6.3052C10.9527 6.3052 10.955 6.29715 10.955 6.23042C10.955 6.16369 10.9572 6.15563 10.9775 6.15563C10.9989 6.15563 11.0001 6.14758 11.0001 6.00031C11.0001 5.85304 10.9989 5.84499 10.9775 5.84499C10.9572 5.84499 10.955 5.83694 10.955 5.75295C10.955 5.66896 10.9527 5.66091 10.9324 5.66091C10.9133 5.66091 10.9099 5.65285 10.9099 5.61488C10.9099 5.57692 10.9065 5.56886 10.8874 5.56886C10.8682 5.56886 10.8648 5.56081 10.8648 5.52284C10.8648 5.48487 10.8614 5.47682 10.8423 5.47682C10.8276 5.47682 10.8197 5.46877 10.8197 5.45381C10.8197 5.43885 10.8118 5.4308 10.7972 5.4308C10.7825 5.4308 10.7746 5.42275 10.7746 5.40779C10.7746 5.39283 10.7668 5.38478 10.7521 5.38478C10.7375 5.38478 10.7296 5.37673 10.7296 5.36292C10.7296 5.34566 10.7183 5.33876 10.6845 5.33301C10.6586 5.3284 10.6394 5.3192 10.6394 5.30999C10.6394 5.30079 10.6202 5.29159 10.5943 5.28698C10.5661 5.28238 10.5492 5.27318 10.5492 5.26282C10.5492 5.25362 10.5391 5.24672 10.5267 5.24672C10.512 5.24672 10.5042 5.23866 10.5042 5.22371C10.5042 5.20415 10.4963 5.20069 10.4591 5.20069C10.4219 5.20069 10.414 5.19724 10.414 5.17768C10.414 5.15812 10.4061 5.15467 10.3689 5.15467C10.3317 5.15467 10.3238 5.15122 10.3238 5.13166C10.3238 5.1121 10.3159 5.10865 10.2787 5.10865C10.2416 5.10865 10.2337 5.1052 10.2337 5.08679C10.2337 5.06953 10.2224 5.06263 10.1886 5.05688C10.1627 5.05228 10.1435 5.04307 10.1435 5.03387C10.1435 5.02466 10.1243 5.01546 10.0984 5.01086C10.0725 5.00626 10.0533 4.99705 10.0533 4.98785C10.0533 4.97864 10.0342 4.96944 10.0083 4.96484C9.98233 4.96023 9.96317 4.95103 9.96317 4.94183C9.96317 4.93262 9.94401 4.92342 9.91809 4.91882C9.88991 4.91421 9.87301 4.90501 9.87301 4.89465C9.87301 4.88545 9.86286 4.87855 9.85047 4.87855C9.83581 4.87855 9.82792 4.87049 9.82792 4.85554C9.82792 4.83598 9.82003 4.83253 9.78284 4.83253C9.74565 4.83253 9.73776 4.82907 9.73776 4.81067C9.73776 4.79341 9.72649 4.7865 9.69268 4.78075C9.66676 4.77615 9.6476 4.76695 9.6476 4.75774C9.6476 4.74854 9.62844 4.73933 9.60251 4.73473C9.57659 4.73013 9.55743 4.72092 9.55743 4.71172C9.55743 4.70252 9.53827 4.69331 9.51235 4.68871C9.48643 4.68411 9.46727 4.6749 9.46727 4.6657C9.46727 4.6565 9.44811 4.64729 9.42219 4.64269C9.39401 4.63809 9.3771 4.62888 9.3771 4.61853C9.3771 4.60932 9.36696 4.60242 9.35456 4.60242C9.33991 4.60242 9.33202 4.59437 9.33202 4.57941C9.33202 4.55985 9.32413 4.5564 9.28694 4.5564C9.24975 4.5564 9.24186 4.55295 9.24186 4.53339C9.24186 4.51383 9.23397 4.51038 9.19678 4.51038C9.15958 4.51038 9.15169 4.50693 9.15169 4.48852C9.15169 4.47126 9.14042 4.46436 9.10661 4.4586C9.08069 4.454 9.06153 4.4448 9.06153 4.43559C9.06153 4.42639 9.04237 4.41719 9.01645 4.41258C8.99053 4.40798 8.97137 4.39878 8.97137 4.38957C8.97137 4.38037 8.95221 4.37116 8.92629 4.36656C8.90036 4.36196 8.8812 4.35276 8.8812 4.34355C8.8812 4.33435 8.86204 4.32514 8.83612 4.32054C8.80795 4.31594 8.79104 4.30673 8.79104 4.29638C8.79104 4.28718 8.7809 4.28027 8.7685 4.28027C8.75385 4.28027 8.74596 4.27222 8.74596 4.25726C8.74596 4.2377 8.73807 4.23425 8.70088 4.23425C8.66368 4.23425 8.65579 4.2308 8.65579 4.21239C8.65579 4.19513 8.64452 4.18823 8.61071 4.18248C8.58479 4.17788 8.56563 4.16867 8.56563 4.15947C8.56563 4.15026 8.54647 4.14106 8.52055 4.13646C8.49463 4.13185 8.47547 4.12265 8.47547 4.11345C8.47547 4.10424 8.45631 4.09504 8.43038 4.09044C8.40446 4.08583 8.3853 4.07663 8.3853 4.06743C8.3853 4.05822 8.36614 4.04902 8.34022 4.04441C8.31204 4.03981 8.29514 4.03061 8.29514 4.02025C8.29514 4.00875 8.28161 4.00415 8.25006 4.00415C8.21286 4.00415 8.20497 4.0076 8.20497 4.02716Z" fill="#ED028C"/>
<path d="M5.84155 6.62358C5.82465 6.62704 5.81563 6.63739 5.81563 6.6512C5.81563 6.665 5.80774 6.67306 5.79309 6.67306C5.77506 6.67306 5.77055 6.68111 5.77055 6.71333C5.77055 6.74554 5.76604 6.75359 5.74801 6.75359C5.73336 6.75359 5.72547 6.76165 5.72547 6.7766C5.72547 6.79156 5.71758 6.79962 5.70293 6.79962C5.68827 6.79962 5.68038 6.80767 5.68038 6.82263C5.68038 6.83758 5.67249 6.84564 5.65784 6.84564C5.64319 6.84564 5.6353 6.85369 5.6353 6.86865C5.6353 6.8836 5.62741 6.89166 5.61276 6.89166C5.59811 6.89166 5.59022 6.89971 5.59022 6.91467C5.59022 6.92962 5.58233 6.93768 5.56768 6.93768C5.55303 6.93768 5.54514 6.94573 5.54514 6.96069C5.54514 6.97565 5.53725 6.9837 5.5226 6.9837C5.50795 6.9837 5.50006 6.99175 5.50006 7.00671C5.50006 7.02167 5.49217 7.02972 5.47752 7.02972C5.46061 7.02972 5.45497 7.03777 5.45497 7.05848C5.45497 7.07919 5.44934 7.08725 5.43243 7.08725C5.41778 7.08725 5.40989 7.0953 5.40989 7.11026C5.40989 7.12521 5.402 7.13327 5.38735 7.13327C5.3727 7.13327 5.36481 7.14132 5.36481 7.15628C5.36481 7.17124 5.35692 7.17929 5.34227 7.17929C5.32762 7.17929 5.31973 7.18734 5.31973 7.2023C5.31973 7.21726 5.31184 7.22531 5.29719 7.22531C5.28254 7.22531 5.27465 7.23336 5.27465 7.24832C5.27465 7.26328 5.26676 7.27133 5.25211 7.27133C5.23745 7.27133 5.22956 7.27939 5.22956 7.29434C5.22956 7.3093 5.22167 7.31735 5.20702 7.31735C5.19237 7.31735 5.18448 7.32541 5.18448 7.34036C5.18448 7.35532 5.17659 7.36337 5.16194 7.36337C5.14729 7.36337 5.1394 7.37143 5.1394 7.38638C5.1394 7.40134 5.13151 7.40939 5.11686 7.40939C5.10221 7.40939 5.09432 7.41745 5.09432 7.43241C5.09432 7.44736 5.08643 7.45542 5.07178 7.45542C5.05374 7.45542 5.04924 7.46347 5.04924 7.49568C5.04924 7.5279 5.04473 7.53595 5.0267 7.53595C5.01204 7.53595 5.00415 7.54401 5.00415 7.55896C5.00415 7.57392 4.99626 7.58197 4.98161 7.58197C4.96696 7.58197 4.95907 7.59003 4.95907 7.60498C4.95907 7.61994 4.95118 7.628 4.93653 7.628C4.92188 7.628 4.91399 7.63605 4.91399 7.65101C4.91399 7.66596 4.9061 7.67402 4.89145 7.67402C4.8768 7.67402 4.86891 7.68207 4.86891 7.69703C4.86891 7.71198 4.86102 7.72004 4.84637 7.72004C4.82946 7.72004 4.82383 7.72809 4.82383 7.7488C4.82383 7.76951 4.81819 7.77756 4.80129 7.77756C4.78663 7.77756 4.77874 7.78562 4.77874 7.80057C4.77874 7.81553 4.77086 7.82358 4.7562 7.82358C4.74155 7.82358 4.73366 7.83164 4.73366 7.8466C4.73366 7.86155 4.72577 7.86961 4.71112 7.86961C4.69647 7.86961 4.68858 7.87766 4.68858 7.89262C4.68858 7.90757 4.68069 7.91563 4.66604 7.91563C4.65139 7.91563 4.6435 7.92368 4.6435 7.93864C4.6435 7.95359 4.63561 7.96165 4.62096 7.96165C4.60631 7.96165 4.59842 7.9697 4.59842 7.98466C4.59842 7.99962 4.59053 8.00767 4.57588 8.00767C4.56122 8.00767 4.55333 8.01572 4.55333 8.03068C4.55333 8.04564 4.54545 8.05369 4.53079 8.05369C4.51614 8.05369 4.50825 8.06174 4.50825 8.0767C4.50825 8.09166 4.50036 8.09971 4.48571 8.09971C4.47106 8.09971 4.46317 8.10776 4.46317 8.12272C4.46317 8.13768 4.45528 8.14573 4.44063 8.14573C4.42598 8.14573 4.41809 8.15379 4.41809 8.16874C4.41809 8.1837 4.4102 8.19175 4.39555 8.19175C4.3809 8.19175 4.37301 8.19981 4.37301 8.21476C4.37301 8.22972 4.36512 8.23777 4.35047 8.23777C4.33243 8.23777 4.32792 8.24583 4.32792 8.27804C4.32792 8.31026 4.32342 8.31831 4.30538 8.31831C4.29073 8.31831 4.28284 8.32637 4.28284 8.34132C4.28284 8.35628 4.27495 8.36433 4.2603 8.36433C4.24565 8.36433 4.23776 8.37239 4.23776 8.38734C4.23776 8.4023 4.22987 8.41035 4.21522 8.41035C4.20057 8.41035 4.19268 8.41841 4.19268 8.43336C4.19268 8.44832 4.18479 8.45637 4.17014 8.45637C4.15549 8.45637 4.1476 8.46443 4.1476 8.47939C4.1476 8.49434 4.13971 8.5024 4.12506 8.5024C4.10815 8.5024 4.10252 8.51045 4.10252 8.53116C4.10252 8.55187 4.09688 8.55992 4.07997 8.55992C4.06532 8.55992 4.05743 8.56798 4.05743 8.58293C4.05743 8.59789 4.04954 8.60594 4.03489 8.60594C4.02024 8.60594 4.01235 8.614 4.01235 8.62895C4.01235 8.64391 4.00446 8.65196 3.98981 8.65196C3.97516 8.65196 3.96727 8.66002 3.96727 8.67498C3.96727 8.68993 3.95938 8.69799 3.94473 8.69799C3.93008 8.69799 3.92219 8.70604 3.92219 8.721C3.92219 8.73595 3.9143 8.74401 3.89965 8.74401C3.88499 8.74401 3.87711 8.75206 3.87711 8.76702C3.87711 8.78197 3.86922 8.79003 3.85456 8.79003C3.83991 8.79003 3.83202 8.79808 3.83202 8.81304C3.83202 8.828 3.82413 8.83605 3.80948 8.83605C3.79483 8.83605 3.78694 8.8441 3.78694 8.85906C3.78694 8.87402 3.77905 8.88207 3.7644 8.88207C3.74975 8.88207 3.74186 8.89012 3.74186 8.90508C3.74186 8.92004 3.73397 8.92809 3.71932 8.92809C3.70467 8.92809 3.69678 8.93615 3.69678 8.9511C3.69678 8.96606 3.68889 8.97411 3.67424 8.97411C3.6562 8.97411 3.6517 8.98217 3.6517 9.01438C3.6517 9.0466 3.64719 9.05465 3.62915 9.05465C3.6145 9.05465 3.60661 9.0627 3.60661 9.07766C3.60661 9.09262 3.59872 9.10067 3.58407 9.10067C3.56942 9.10067 3.56153 9.10872 3.56153 9.12368C3.56153 9.13864 3.55364 9.14669 3.53899 9.14669C3.52434 9.14669 3.51645 9.15475 3.51645 9.1697C3.51645 9.18466 3.50856 9.19271 3.49391 9.19271C3.47926 9.19271 3.47137 9.20077 3.47137 9.21572C3.47137 9.23068 3.46348 9.23873 3.44883 9.23873C3.43418 9.23873 3.42629 9.24679 3.42629 9.26174C3.42629 9.2767 3.4184 9.28475 3.40374 9.28475C3.38909 9.28475 3.3812 9.29281 3.3812 9.30777C3.3812 9.32272 3.37331 9.33078 3.35866 9.33078C3.34176 9.33078 3.33612 9.33883 3.33612 9.35954C3.33612 9.38025 3.33049 9.3883 3.31358 9.3883C3.29893 9.3883 3.29104 9.39636 3.29104 9.41131C3.29104 9.42627 3.28315 9.43432 3.2685 9.43432C3.25385 9.43432 3.24596 9.44238 3.24596 9.45733C3.24596 9.47229 3.23807 9.48034 3.22342 9.48034C3.20877 9.48034 3.20088 9.4884 3.20088 9.50336C3.20088 9.51831 3.19299 9.52637 3.17833 9.52637C3.16368 9.52637 3.15579 9.53442 3.15579 9.54938C3.15579 9.56433 3.1479 9.57239 3.13325 9.57239C3.1186 9.57239 3.11071 9.58044 3.11071 9.5954C3.11071 9.61035 3.10282 9.61841 3.08817 9.61841C3.07352 9.61841 3.06563 9.62646 3.06563 9.64142C3.06563 9.65638 3.05774 9.66443 3.04309 9.66443C3.02844 9.66443 3.02055 9.67248 3.02055 9.68744C3.02055 9.7024 3.01266 9.71045 2.99801 9.71045C2.98336 9.71045 2.97547 9.7185 2.97547 9.73346C2.97547 9.74842 2.96758 9.75647 2.95292 9.75647C2.93827 9.75647 2.93038 9.76452 2.93038 9.77948C2.93038 9.79444 2.92249 9.80249 2.90784 9.80249C2.88981 9.80249 2.8853 9.81055 2.8853 9.84276C2.8853 9.87498 2.88079 9.88303 2.86276 9.88303C2.84811 9.88303 2.84022 9.89108 2.84022 9.90604C2.84022 9.921 2.83233 9.92905 2.81768 9.92905C2.80303 9.92905 2.79514 9.9371 2.79514 9.95206C2.79514 9.96702 2.78725 9.97507 2.7726 9.97507C2.75795 9.97507 2.75006 9.98312 2.75006 9.99808C2.75006 10.013 2.74217 10.0211 2.72752 10.0211C2.71286 10.0211 2.70497 10.0291 2.70497 10.0441C2.70497 10.0591 2.69708 10.0671 2.68243 10.0671C2.66778 10.0671 2.65989 10.0752 2.65989 10.0901C2.65989 10.1051 2.652 10.1131 2.63735 10.1131C2.62045 10.1131 2.61481 10.1212 2.61481 10.1419C2.61481 10.1626 2.60917 10.1707 2.59227 10.1707C2.57762 10.1707 2.56973 10.1787 2.56973 10.1937C2.56973 10.2086 2.56184 10.2167 2.54719 10.2167C2.53254 10.2167 2.52465 10.2247 2.52465 10.2397C2.52465 10.2546 2.51676 10.2627 2.50211 10.2627C2.48745 10.2627 2.47956 10.2708 2.47956 10.2857C2.47956 10.3007 2.47167 10.3087 2.45702 10.3087C2.44237 10.3087 2.43448 10.3168 2.43448 10.3317C2.43448 10.3467 2.42659 10.3547 2.41194 10.3547C2.39729 10.3547 2.3894 10.3628 2.3894 10.3778C2.3894 10.3927 2.38151 10.4008 2.36686 10.4008C2.35221 10.4008 2.34432 10.4088 2.34432 10.4238C2.34432 10.4387 2.33643 10.4468 2.32178 10.4468C2.30713 10.4468 2.29924 10.4548 2.29924 10.4698C2.29924 10.4848 2.29135 10.4928 2.2767 10.4928C2.26204 10.4928 2.25415 10.5009 2.25415 10.5158C2.25415 10.5308 2.24627 10.5388 2.23161 10.5388C2.21358 10.5388 2.20907 10.5469 2.20907 10.5791C2.20907 10.6113 2.20456 10.6194 2.18653 10.6194C2.17188 10.6194 2.16399 10.6274 2.16399 10.6424C2.16399 10.6573 2.1561 10.6654 2.14145 10.6654C2.1268 10.6654 2.11891 10.6734 2.11891 10.6884C2.11891 10.7034 2.11102 10.7114 2.09637 10.7114C2.08172 10.7114 2.07383 10.7195 2.07383 10.7344C2.07383 10.7494 2.06594 10.7574 2.05129 10.7574C2.03663 10.7574 2.02874 10.7655 2.02874 10.7804C2.02874 10.7954 2.02086 10.8035 2.0062 10.8035C1.99155 10.8035 1.98366 10.8115 1.98366 10.8265C1.98366 10.8414 1.97577 10.8495 1.96112 10.8495C1.94422 10.8495 1.93858 10.8575 1.93858 10.8782C1.93858 10.8989 1.93295 10.907 1.91604 10.907C1.90139 10.907 1.8935 10.9151 1.8935 10.93C1.8935 10.945 1.88561 10.953 1.87096 10.953C1.85631 10.953 1.84842 10.9611 1.84842 10.976C1.84842 10.991 1.84053 10.999 1.82588 10.999C1.81122 10.999 1.80333 11.0071 1.80333 11.0221C1.80333 11.037 1.79545 11.0451 1.78079 11.0451C1.76614 11.0451 1.75825 11.0531 1.75825 11.0681C1.75825 11.083 1.75036 11.0911 1.73571 11.0911C1.72106 11.0911 1.71317 11.0991 1.71317 11.1141C1.71317 11.1291 1.70528 11.1371 1.69063 11.1371C1.67598 11.1371 1.66809 11.1452 1.66809 11.1601C1.66809 11.1751 1.6602 11.1831 1.64555 11.1831C1.6309 11.1831 1.62301 11.1912 1.62301 11.2061C1.62301 11.2211 1.61512 11.2291 1.60047 11.2291C1.58581 11.2291 1.57792 11.2372 1.57792 11.2522C1.57792 11.2671 1.57004 11.2752 1.55538 11.2752C1.53735 11.2752 1.53284 11.2832 1.53284 11.3154C1.53284 11.3477 1.52833 11.3557 1.5103 11.3557C1.49565 11.3557 1.48776 11.3638 1.48776 11.3787C1.48776 11.3937 1.47987 11.4017 1.46522 11.4017C1.45057 11.4017 1.44268 11.4098 1.44268 11.4247C1.44268 11.4397 1.43479 11.4477 1.42014 11.4477C1.40549 11.4477 1.3976 11.4558 1.3976 11.4708C1.3976 11.4857 1.38971 11.4938 1.37506 11.4938C1.3604 11.4938 1.35252 11.5018 1.35252 11.5168C1.35252 11.5317 1.34463 11.5398 1.32997 11.5398C1.31532 11.5398 1.30743 11.5478 1.30743 11.5628C1.30743 11.5778 1.29954 11.5858 1.28489 11.5858C1.26799 11.5858 1.26235 11.5939 1.26235 11.6146C1.26235 11.6353 1.25672 11.6433 1.23981 11.6433C1.22516 11.6433 1.21727 11.6514 1.21727 11.6663C1.21727 11.6813 1.20938 11.6894 1.19473 11.6894C1.18008 11.6894 1.17219 11.6974 1.17219 11.7124C1.17219 11.7273 1.1643 11.7354 1.14965 11.7354C1.13499 11.7354 1.12711 11.7434 1.12711 11.7584C1.12711 11.7733 1.11922 11.7814 1.10456 11.7814C1.08991 11.7814 1.08202 11.7895 1.08202 11.8044C1.08202 11.8194 1.07413 11.8274 1.05948 11.8274C1.04483 11.8274 1.03694 11.8355 1.03694 11.8504C1.03694 11.8654 1.02905 11.8734 1.0144 11.8734C0.999749 11.8734 0.991859 11.8815 0.991859 11.8965C0.991859 11.9114 0.98397 11.9195 0.969318 11.9195C0.951286 11.9195 0.946777 11.9275 0.946777 11.9597C0.946777 11.9919 0.951286 12 0.969318 12C0.981716 12 0.991859 11.9931 0.991859 11.9839C0.991859 11.9735 1.00877 11.9643 1.03694 11.9597C1.06286 11.9551 1.08202 11.9459 1.08202 11.9367C1.08202 11.9275 1.10118 11.9183 1.12711 11.9137C1.15303 11.9091 1.17219 11.8999 1.17219 11.8907C1.17219 11.8815 1.19135 11.8723 1.21727 11.8677C1.24319 11.8631 1.26235 11.8539 1.26235 11.8447C1.26235 11.8355 1.28151 11.8263 1.30743 11.8217C1.34124 11.8159 1.35252 11.809 1.35252 11.7918C1.35252 11.7733 1.3604 11.7699 1.3976 11.7699C1.43479 11.7699 1.44268 11.7664 1.44268 11.7469C1.44268 11.7273 1.45057 11.7239 1.48776 11.7239C1.52495 11.7239 1.53284 11.7204 1.53284 11.7009C1.53284 11.6859 1.54073 11.6779 1.55538 11.6779C1.56778 11.6779 1.57792 11.6709 1.57792 11.6617C1.57792 11.6514 1.59483 11.6422 1.62301 11.6376C1.64893 11.633 1.66809 11.6238 1.66809 11.6146C1.66809 11.6054 1.68725 11.5962 1.71317 11.5916C1.73909 11.587 1.75825 11.5778 1.75825 11.5686C1.75825 11.5593 1.77741 11.5501 1.80333 11.5455C1.82926 11.5409 1.84842 11.5317 1.84842 11.5225C1.84842 11.5133 1.86758 11.5041 1.8935 11.4995C1.92731 11.4938 1.93858 11.4869 1.93858 11.4696C1.93858 11.4512 1.94647 11.4477 1.98366 11.4477C2.02086 11.4477 2.02874 11.4443 2.02874 11.4247C2.02874 11.4052 2.03663 11.4017 2.07383 11.4017C2.11102 11.4017 2.11891 11.3983 2.11891 11.3787C2.11891 11.3638 2.1268 11.3557 2.14145 11.3557C2.15385 11.3557 2.16399 11.3488 2.16399 11.3396C2.16399 11.3292 2.1809 11.32 2.20907 11.3154C2.23499 11.3108 2.25415 11.3016 2.25415 11.2924C2.25415 11.2832 2.27331 11.274 2.29924 11.2694C2.32516 11.2648 2.34432 11.2556 2.34432 11.2464C2.34432 11.2372 2.36348 11.228 2.3894 11.2234C2.41532 11.2188 2.43448 11.2096 2.43448 11.2004C2.43448 11.1912 2.45364 11.182 2.47956 11.1774C2.51338 11.1716 2.52465 11.1647 2.52465 11.1475C2.52465 11.1291 2.53254 11.1256 2.56973 11.1256C2.60692 11.1256 2.61481 11.1221 2.61481 11.1026C2.61481 11.0876 2.6227 11.0796 2.63735 11.0796C2.64975 11.0796 2.65989 11.0727 2.65989 11.0635C2.65989 11.0531 2.6768 11.0439 2.70497 11.0393C2.7309 11.0347 2.75006 11.0255 2.75006 11.0163C2.75006 11.0071 2.76922 10.9979 2.79514 10.9933C2.82106 10.9887 2.84022 10.9795 2.84022 10.9703C2.84022 10.9611 2.85938 10.9519 2.8853 10.9473C2.91122 10.9427 2.93038 10.9335 2.93038 10.9243C2.93038 10.9151 2.94954 10.9058 2.97547 10.9012C3.00928 10.8955 3.02055 10.8886 3.02055 10.8713C3.02055 10.8529 3.02844 10.8495 3.06563 10.8495C3.10282 10.8495 3.11071 10.846 3.11071 10.8265C3.11071 10.8115 3.1186 10.8035 3.13325 10.8035C3.14565 10.8035 3.15579 10.7965 3.15579 10.7873C3.15579 10.777 3.1727 10.7678 3.20088 10.7632C3.2268 10.7586 3.24596 10.7494 3.24596 10.7402C3.24596 10.731 3.26512 10.7218 3.29104 10.7172C3.31696 10.7126 3.33612 10.7034 3.33612 10.6942C3.33612 10.6849 3.35528 10.6757 3.3812 10.6711C3.40713 10.6665 3.42629 10.6573 3.42629 10.6481C3.42629 10.6389 3.44545 10.6297 3.47137 10.6251C3.49729 10.6205 3.51645 10.6113 3.51645 10.6021C3.51645 10.5929 3.53561 10.5837 3.56153 10.5791C3.59534 10.5733 3.60661 10.5664 3.60661 10.5492C3.60661 10.5308 3.6145 10.5273 3.6517 10.5273C3.68889 10.5273 3.69678 10.5239 3.69678 10.5043C3.69678 10.4894 3.70467 10.4813 3.71932 10.4813C3.73172 10.4813 3.74186 10.4744 3.74186 10.4652C3.74186 10.4548 3.75877 10.4456 3.78694 10.441C3.81286 10.4364 3.83202 10.4272 3.83202 10.418C3.83202 10.4088 3.85118 10.3996 3.87711 10.395C3.90303 10.3904 3.92219 10.3812 3.92219 10.372C3.92219 10.3628 3.94135 10.3536 3.96727 10.349C3.99319 10.3444 4.01235 10.3352 4.01235 10.326C4.01235 10.3168 4.03151 10.3076 4.05743 10.303C4.09124 10.2972 4.10252 10.2903 4.10252 10.2731C4.10252 10.2546 4.1104 10.2512 4.1476 10.2512C4.18479 10.2512 4.19268 10.2477 4.19268 10.2282C4.19268 10.2086 4.20057 10.2052 4.23776 10.2052C4.27495 10.2052 4.28284 10.2017 4.28284 10.1822C4.28284 10.1672 4.29073 10.1592 4.30538 10.1592C4.31778 10.1592 4.32792 10.1523 4.32792 10.143C4.32792 10.1327 4.34483 10.1235 4.37301 10.1189C4.39893 10.1143 4.41809 10.1051 4.41809 10.0959C4.41809 10.0867 4.43725 10.0775 4.46317 10.0729C4.48909 10.0683 4.50825 10.0591 4.50825 10.0499C4.50825 10.0407 4.52741 10.0314 4.55333 10.0268C4.57926 10.0222 4.59842 10.013 4.59842 10.0038C4.59842 9.99463 4.61758 9.98543 4.6435 9.98082C4.67731 9.97507 4.68858 9.96817 4.68858 9.95091C4.68858 9.9325 4.69647 9.92905 4.73366 9.92905C4.77086 9.92905 4.77874 9.9256 4.77874 9.90604C4.77874 9.88648 4.78663 9.88303 4.82383 9.88303C4.86102 9.88303 4.86891 9.87958 4.86891 9.86002C4.86891 9.84506 4.8768 9.83701 4.89145 9.83701C4.90385 9.83701 4.91399 9.8301 4.91399 9.8209C4.91399 9.81055 4.9309 9.80134 4.95907 9.79674C4.98499 9.79214 5.00415 9.78293 5.00415 9.77373C5.00415 9.76452 5.02331 9.75532 5.04924 9.75072C5.07516 9.74612 5.09432 9.73691 5.09432 9.72771C5.09432 9.7185 5.11348 9.7093 5.1394 9.7047C5.16532 9.7001 5.18448 9.69089 5.18448 9.68169C5.18448 9.67248 5.20364 9.66328 5.22956 9.65868C5.26338 9.65292 5.27465 9.64602 5.27465 9.62876C5.27465 9.61035 5.28254 9.6069 5.31973 9.6069C5.35692 9.6069 5.36481 9.60345 5.36481 9.58389C5.36481 9.56433 5.3727 9.56088 5.40989 9.56088C5.44708 9.56088 5.45497 9.55743 5.45497 9.53787C5.45497 9.52291 5.46286 9.51486 5.47752 9.51486C5.48991 9.51486 5.50006 9.50796 5.50006 9.49875C5.50006 9.4884 5.51696 9.47919 5.54514 9.47459C5.57106 9.46999 5.59022 9.46079 5.59022 9.45158C5.59022 9.44238 5.60938 9.43317 5.6353 9.42857C5.66122 9.42397 5.68038 9.41476 5.68038 9.40556C5.68038 9.39636 5.69954 9.38715 5.72547 9.38255C5.75139 9.37795 5.77055 9.36874 5.77055 9.35954C5.77055 9.35033 5.78971 9.34113 5.81563 9.33653C5.84944 9.33078 5.86071 9.32387 5.86071 9.30661C5.86071 9.28821 5.8686 9.28475 5.90579 9.28475C5.94299 9.28475 5.95088 9.2813 5.95088 9.26174C5.95088 9.24219 5.95877 9.23873 5.99596 9.23873C6.03315 9.23873 6.04104 9.23528 6.04104 9.21572C6.04104 9.20077 6.04893 9.19271 6.06358 9.19271C6.07598 9.19271 6.08612 9.18581 6.08612 9.17661C6.08612 9.16625 6.10303 9.15705 6.1312 9.15244C6.15713 9.14784 6.17629 9.13864 6.17629 9.12943C6.17629 9.12023 6.19545 9.11103 6.22137 9.10642C6.24729 9.10182 6.26645 9.09262 6.26645 9.08341C6.26645 9.07421 6.28561 9.065 6.31153 9.0604C6.33745 9.0558 6.35661 9.0466 6.35661 9.03739C6.35661 9.02819 6.37577 9.01898 6.4017 9.01438C6.43551 9.00863 6.44678 9.00172 6.44678 8.98447C6.44678 8.96606 6.45467 8.96261 6.49186 8.96261C6.52905 8.96261 6.53694 8.95916 6.53694 8.9396C6.53694 8.92464 6.54483 8.91659 6.55948 8.91659C6.57188 8.91659 6.58202 8.90968 6.58202 8.90048C6.58202 8.89012 6.59893 8.88092 6.62711 8.87632C6.65303 8.87172 6.67219 8.86251 6.67219 8.85331C6.67219 8.8441 6.69135 8.8349 6.71727 8.8303C6.74319 8.82569 6.76235 8.81649 6.76235 8.80729C6.76235 8.79808 6.78151 8.78888 6.80743 8.78428C6.83336 8.77967 6.85252 8.77047 6.85252 8.76126C6.85252 8.75206 6.87168 8.74286 6.8976 8.73825C6.93141 8.7325 6.94268 8.7256 6.94268 8.70834C6.94268 8.68993 6.95057 8.68648 6.98776 8.68648C7.02495 8.68648 7.03284 8.68303 7.03284 8.66347C7.03284 8.64851 7.04073 8.64046 7.05538 8.64046C7.06778 8.64046 7.07793 8.63356 7.07793 8.62435C7.07793 8.614 7.09483 8.60479 7.12301 8.60019C7.14893 8.59559 7.16809 8.58638 7.16809 8.57718C7.16809 8.56798 7.18725 8.55877 7.21317 8.55417C7.23909 8.54957 7.25825 8.54036 7.25825 8.53116C7.25825 8.52196 7.27741 8.51275 7.30333 8.50815C7.32926 8.50355 7.34842 8.49434 7.34842 8.48514C7.34842 8.47593 7.36758 8.46673 7.3935 8.46213C7.41942 8.45753 7.43858 8.44832 7.43858 8.43912C7.43858 8.42991 7.45774 8.42071 7.48366 8.41611C7.52987 8.40805 7.5479 8.37584 7.5062 8.37584C7.4893 8.37584 7.48366 8.36778 7.48366 8.34707C7.48366 8.32637 7.47803 8.31831 7.46112 8.31831C7.44309 8.31831 7.43858 8.31026 7.43858 8.27804C7.43858 8.24583 7.43407 8.23777 7.41604 8.23777C7.40139 8.23777 7.3935 8.22972 7.3935 8.21476C7.3935 8.19981 7.38561 8.19175 7.37096 8.19175C7.35631 8.19175 7.34842 8.1837 7.34842 8.16874C7.34842 8.15379 7.34053 8.14573 7.32588 8.14573C7.31122 8.14573 7.30333 8.13768 7.30333 8.12272C7.30333 8.10776 7.29545 8.09971 7.28079 8.09971C7.26614 8.09971 7.25825 8.09166 7.25825 8.0767C7.25825 8.06174 7.25036 8.05369 7.23571 8.05369C7.22106 8.05369 7.21317 8.04564 7.21317 8.03068C7.21317 8.01572 7.20528 8.00767 7.19063 8.00767C7.17598 8.00767 7.16809 7.99962 7.16809 7.98466C7.16809 7.9697 7.1602 7.96165 7.14555 7.96165C7.1309 7.96165 7.12301 7.95359 7.12301 7.93864C7.12301 7.92368 7.11512 7.91563 7.10047 7.91563C7.08581 7.91563 7.07793 7.90757 7.07793 7.89262C7.07793 7.87766 7.07004 7.86961 7.05538 7.86961C7.04073 7.86961 7.03284 7.86155 7.03284 7.8466C7.03284 7.83164 7.02495 7.82358 7.0103 7.82358C6.99565 7.82358 6.98776 7.81553 6.98776 7.80057C6.98776 7.78562 6.97987 7.77756 6.96522 7.77756C6.94831 7.77756 6.94268 7.76951 6.94268 7.7488C6.94268 7.72809 6.93704 7.72004 6.92014 7.72004C6.90549 7.72004 6.8976 7.71198 6.8976 7.69703C6.8976 7.68207 6.88971 7.67402 6.87506 7.67402C6.8604 7.67402 6.85252 7.66596 6.85252 7.65101C6.85252 7.63605 6.84463 7.628 6.82997 7.628C6.81532 7.628 6.80743 7.61994 6.80743 7.60498C6.80743 7.59003 6.79954 7.58197 6.78489 7.58197C6.77024 7.58197 6.76235 7.57392 6.76235 7.55896C6.76235 7.54401 6.75446 7.53595 6.73981 7.53595C6.72178 7.53595 6.71727 7.5279 6.71727 7.49568C6.71727 7.46347 6.71276 7.45542 6.69473 7.45542C6.68008 7.45542 6.67219 7.44736 6.67219 7.43241C6.67219 7.41745 6.6643 7.40939 6.64965 7.40939C6.63499 7.40939 6.62711 7.40134 6.62711 7.38638C6.62711 7.37143 6.61922 7.36337 6.60456 7.36337C6.58991 7.36337 6.58202 7.35532 6.58202 7.34036C6.58202 7.32541 6.57413 7.31735 6.55948 7.31735C6.54483 7.31735 6.53694 7.3093 6.53694 7.29434C6.53694 7.27939 6.52905 7.27133 6.5144 7.27133C6.49975 7.27133 6.49186 7.26328 6.49186 7.24832C6.49186 7.23336 6.48397 7.22531 6.46932 7.22531C6.45467 7.22531 6.44678 7.21726 6.44678 7.2023C6.44678 7.18734 6.43889 7.17929 6.42424 7.17929C6.40958 7.17929 6.4017 7.17124 6.4017 7.15628C6.4017 7.14132 6.39381 7.13327 6.37915 7.13327C6.36225 7.13327 6.35661 7.12521 6.35661 7.10451C6.35661 7.0838 6.35098 7.07574 6.33407 7.07574C6.31942 7.07574 6.31153 7.06769 6.31153 7.05273C6.31153 7.03777 6.30364 7.02972 6.28899 7.02972C6.27434 7.02972 6.26645 7.02167 6.26645 7.00671C6.26645 6.99175 6.25856 6.9837 6.24391 6.9837C6.22926 6.9837 6.22137 6.97565 6.22137 6.96069C6.22137 6.94573 6.21348 6.93768 6.19883 6.93768C6.18418 6.93768 6.17629 6.92962 6.17629 6.91467C6.17629 6.89971 6.1684 6.89166 6.15374 6.89166C6.13909 6.89166 6.1312 6.8836 6.1312 6.86865C6.1312 6.85369 6.12331 6.84564 6.10866 6.84564C6.09063 6.84564 6.08612 6.83758 6.08612 6.80537C6.08612 6.77315 6.08161 6.7651 6.06358 6.7651C6.04893 6.7651 6.04104 6.75705 6.04104 6.74209C6.04104 6.72713 6.03315 6.71908 6.0185 6.71908C6.00385 6.71908 5.99596 6.71102 5.99596 6.69607C5.99596 6.68111 5.98807 6.67306 5.97342 6.67306C5.95877 6.67306 5.95088 6.665 5.95088 6.6512C5.95088 6.63624 5.93961 6.62819 5.91594 6.62243C5.89678 6.61898 5.87762 6.61668 5.87311 6.61668C5.86973 6.61783 5.85508 6.62128 5.84155 6.62358Z" fill="#ED028C"/>
</svg>
