<svg width="23" height="26" viewBox="0 0 23 26" fill="none" xmlns="http://www.w3.org/2000/svg">
<path opacity="0.15" d="M2.49622 24.4599C2.49622 24.6738 3.40242 24.8789 5.01548 25.0301C6.62854 25.1814 8.81631 25.2663 11.0975 25.2663C13.3787 25.2663 15.5665 25.1814 17.1796 25.0301C18.7926 24.8789 19.6988 24.6738 19.6988 24.4599C19.6988 24.2461 18.7926 24.041 17.1796 23.8897C15.5665 23.7385 13.3787 23.6536 11.0975 23.6536C8.81631 23.6536 6.62854 23.7385 5.01548 23.8897C3.40242 24.041 2.49622 24.2461 2.49622 24.4599Z" fill="#45413C"/>
<path d="M0.345947 11.558C0.345947 14.4095 1.47871 17.1443 3.49503 19.1606C5.51135 21.1769 8.24607 22.3097 11.0976 22.3097C13.9491 22.3097 16.6838 21.1769 18.7001 19.1606C20.7165 17.1443 21.8492 14.4095 21.8492 11.558C21.8492 8.70652 20.7165 5.9718 18.7001 3.95548C16.6838 1.93915 13.9491 0.806396 11.0976 0.806396C8.24607 0.806396 5.51135 1.93915 3.49503 3.95548C1.47871 5.9718 0.345947 8.70652 0.345947 11.558Z" fill="#FFE500"/>
<path d="M11.0976 0.806396C8.97112 0.806396 6.8924 1.43697 5.1243 2.61837C3.3562 3.79978 1.97814 5.47895 1.16437 7.44356C0.350606 9.40816 0.137688 11.57 0.552542 13.6556C0.967396 15.7412 1.99139 17.6569 3.49503 19.1606C4.99868 20.6642 6.91443 21.6882 9.00005 22.1031C11.0857 22.5179 13.2475 22.305 15.2121 21.4912C17.1767 20.6775 18.8558 19.2994 20.0372 17.5313C21.2186 15.7632 21.8492 13.6845 21.8492 11.558C21.8492 8.70652 20.7165 5.9718 18.7001 3.95548C16.6838 1.93915 13.9491 0.806396 11.0976 0.806396ZM11.0976 20.6969C9.15718 20.6969 7.26035 20.1215 5.64696 19.0435C4.03357 17.9655 2.77609 16.4332 2.03353 14.6405C1.29097 12.8478 1.09668 10.8752 1.47523 8.97205C1.85379 7.06893 2.78818 5.3208 4.16026 3.94872C5.53233 2.57665 7.28046 1.64225 9.18358 1.2637C11.0867 0.885146 13.0593 1.07943 14.852 1.822C16.6447 2.56456 18.177 3.82204 19.255 5.43543C20.3331 7.04882 20.9085 8.94565 20.9085 10.8861C20.9085 13.4881 19.8748 15.9835 18.0349 17.8234C16.195 19.6633 13.6996 20.6969 11.0976 20.6969Z" fill="#EBCB00"/>
<path d="M7.87207 2.95676C7.87207 3.17063 8.2119 3.37573 8.81679 3.52695C9.42169 3.67818 10.2421 3.76314 11.0976 3.76314C11.953 3.76314 12.7734 3.67818 13.3783 3.52695C13.9832 3.37573 14.3231 3.17063 14.3231 2.95676C14.3231 2.7429 13.9832 2.5378 13.3783 2.38657C12.7734 2.23535 11.953 2.15039 11.0976 2.15039C10.2421 2.15039 9.42169 2.23535 8.81679 2.38657C8.2119 2.5378 7.87207 2.7429 7.87207 2.95676Z" fill="#FFF48C"/>
<path d="M7.33446 11.558H2.76501" stroke="#45413C" stroke-width="0.30719" stroke-linecap="round" stroke-linejoin="round"/>
<path d="M14.8606 11.558H19.43" stroke="#45413C" stroke-width="0.30719" stroke-linecap="round" stroke-linejoin="round"/>
<path d="M7.83862 15.8586C7.76598 15.859 7.69429 15.8751 7.62842 15.9057C7.56256 15.9363 7.50406 15.9808 7.45693 16.036C7.41046 16.0925 7.37601 16.1579 7.35567 16.2281C7.33534 16.2984 7.32955 16.372 7.33866 16.4446C7.48255 17.339 7.94032 18.153 8.62991 18.7405C9.3195 19.328 10.1958 19.6507 11.1017 19.6507C12.0077 19.6507 12.884 19.328 13.5736 18.7405C14.2631 18.153 14.7209 17.339 14.8648 16.4446C14.8739 16.372 14.8681 16.2984 14.8478 16.2281C14.8275 16.1579 14.793 16.0925 14.7465 16.036C14.6994 15.9808 14.6409 15.9363 14.575 15.9057C14.5092 15.8751 14.4375 15.859 14.3649 15.8586H7.83862Z" fill="#FFB0CA" stroke="#45413C" stroke-width="0.30719" stroke-linecap="round" stroke-linejoin="round"/>
<path d="M14.0912 18.1917C13.1694 17.7056 12.1387 17.4632 11.0969 17.4875C10.055 17.4632 9.0243 17.7056 8.10254 18.1917C8.46334 18.6384 8.91951 18.9987 9.43762 19.2463C9.95573 19.4938 10.5227 19.6223 11.0969 19.6223C11.6711 19.6223 12.238 19.4938 12.7561 19.2463C13.2742 18.9987 13.7304 18.6384 14.0912 18.1917Z" fill="#FF87AF" stroke="#45413C" stroke-width="0.30719" stroke-linecap="round" stroke-linejoin="round"/>
<path d="M3.84021 19.4927C4.64021 20.2251 5.54644 20.8323 6.52812 21.2936V11.558H3.84021V19.4927Z" fill="#4AEFF7" stroke="#45413C" stroke-width="0.30719" stroke-linecap="round" stroke-linejoin="round"/>
<path d="M18.3549 19.4927C17.5549 20.2251 16.6487 20.8323 15.667 21.2936V11.558H18.3549V19.4927Z" fill="#4AEFF7" stroke="#45413C" stroke-width="0.30719" stroke-linecap="round" stroke-linejoin="round"/>
<path d="M0.345947 11.558C0.345947 14.4095 1.47871 17.1443 3.49503 19.1606C5.51135 21.1769 8.24607 22.3097 11.0976 22.3097C13.9491 22.3097 16.6838 21.1769 18.7001 19.1606C20.7165 17.1443 21.8492 14.4095 21.8492 11.558C21.8492 8.70652 20.7165 5.9718 18.7001 3.95548C16.6838 1.93915 13.9491 0.806396 11.0976 0.806396C8.24607 0.806396 5.51135 1.93915 3.49503 3.95548C1.47871 5.9718 0.345947 8.70652 0.345947 11.558V11.558Z" stroke="#45413C" stroke-width="0.30719" stroke-linecap="round" stroke-linejoin="round"/>
</svg>
