<svg width="83" height="52" viewBox="0 0 83 52" fill="none" xmlns="http://www.w3.org/2000/svg">
<rect width="83" height="52" rx="4" fill="#E24A35"/>
<path d="M46.8859 20.1009C46.2689 18.9935 45.4205 18.1504 44.3407 17.5716C43.261 16.9927 42.0013 16.7033 40.5616 16.7033C38.9677 16.7033 37.5537 17.0556 36.3197 17.7603C35.0857 18.465 34.1217 19.4717 33.4275 20.7804C32.7334 22.0891 32.3864 23.5992 32.3864 25.3106C32.3864 27.0723 32.7334 28.6075 33.4275 29.9162C34.1474 31.225 35.1371 32.2317 36.3969 32.9363C37.6566 33.641 39.1219 33.9934 40.793 33.9934C42.8497 33.9934 44.5336 33.4649 45.8447 32.4078C47.1558 31.3256 48.017 29.8282 48.4284 27.9154H39.1734V23.876H53.75V28.4817C53.3901 30.3189 52.6188 32.0177 51.4363 33.5781C50.2537 35.1385 48.724 36.3969 46.8473 37.3532C44.9963 38.2844 42.9139 38.75 40.6002 38.75C38.0036 38.75 35.6513 38.1838 33.5432 37.0512C31.4609 35.8935 29.8155 34.2954 28.6072 32.2568C27.4246 30.2183 26.8333 27.9028 26.8333 25.3106C26.8333 22.7183 27.4246 20.4029 28.6072 18.3643C29.8155 16.3006 31.4609 14.7025 33.5432 13.5699C35.6513 12.4122 37.9908 11.8334 40.5616 11.8334C43.5952 11.8334 46.2303 12.5632 48.4669 14.0229C50.7036 15.4575 52.2461 17.4835 53.0944 20.1009H46.8859Z" fill="white"/>
</svg>
