<svg width="23" height="26" viewBox="0 0 23 26" fill="none" xmlns="http://www.w3.org/2000/svg">
<path d="M0.796509 11.558C0.796509 14.4095 1.92927 17.1443 3.94559 19.1606C5.96191 21.1769 8.69663 22.3097 11.5481 22.3097C14.3997 22.3097 17.1344 21.1769 19.1507 19.1606C21.167 17.1443 22.2998 14.4095 22.2998 11.558C22.2998 8.70652 21.167 5.9718 19.1507 3.95548C17.1344 1.93915 14.3997 0.806396 11.5481 0.806396C8.69663 0.806396 5.96191 1.93915 3.94559 3.95548C1.92927 5.9718 0.796509 8.70652 0.796509 11.558Z" fill="#FFE500"/>
<path d="M11.5481 0.806396C9.42168 0.806396 7.34296 1.43697 5.57486 2.61837C3.80676 3.79978 2.4287 5.47895 1.61493 7.44356C0.801167 9.40816 0.588249 11.57 1.0031 13.6556C1.41796 15.7412 2.44195 17.6569 3.94559 19.1606C5.44924 20.6642 7.365 21.6882 9.45061 22.1031C11.5362 22.5179 13.698 22.305 15.6626 21.4912C17.6272 20.6775 19.3064 19.2994 20.4878 17.5313C21.6692 15.7632 22.2998 13.6845 22.2998 11.558C22.2998 8.70652 21.167 5.9718 19.1507 3.95548C17.1344 1.93915 14.3997 0.806396 11.5481 0.806396ZM11.5481 20.6969C9.60774 20.6969 7.71091 20.1215 6.09752 19.0435C4.48413 17.9655 3.22665 16.4332 2.48409 14.6405C1.74153 12.8478 1.54724 10.8752 1.92579 8.97205C2.30435 7.06893 3.23874 5.3208 4.61082 3.94872C5.98289 2.57665 7.73102 1.64225 9.63414 1.2637C11.5373 0.885146 13.5099 1.07943 15.3026 1.822C17.0953 2.56456 18.6276 3.82204 19.7056 5.43543C20.7836 7.04882 21.359 8.94565 21.359 10.8861C21.359 13.4881 20.3254 15.9835 18.4855 17.8234C16.6456 19.6633 14.1502 20.6969 11.5481 20.6969Z" fill="#EBCB00"/>
<path d="M8.32263 2.95676C8.32263 3.17063 8.66246 3.37573 9.26736 3.52695C9.87225 3.67818 10.6927 3.76314 11.5481 3.76314C12.4036 3.76314 13.224 3.67818 13.8289 3.52695C14.4338 3.37573 14.7736 3.17063 14.7736 2.95676C14.7736 2.7429 14.4338 2.5378 13.8289 2.38657C13.224 2.23535 12.4036 2.15039 11.5481 2.15039C10.6927 2.15039 9.87225 2.23535 9.26736 2.38657C8.66246 2.5378 8.32263 2.7429 8.32263 2.95676Z" fill="#FFF48C"/>
<path opacity="0.15" d="M2.94678 24.4599C2.94678 24.6738 3.85298 24.8789 5.46604 25.0301C7.0791 25.1814 9.26688 25.2663 11.5481 25.2663C13.8293 25.2663 16.0171 25.1814 17.6301 25.0301C19.2432 24.8789 20.1494 24.6738 20.1494 24.4599C20.1494 24.2461 19.2432 24.041 17.6301 23.8897C16.0171 23.7385 13.8293 23.6536 11.5481 23.6536C9.26688 23.6536 7.0791 23.7385 5.46604 23.8897C3.85298 24.041 2.94678 24.2461 2.94678 24.4599Z" fill="#45413C"/>
<path d="M0.796509 11.558C0.796509 14.4095 1.92927 17.1443 3.94559 19.1606C5.96191 21.1769 8.69663 22.3097 11.5481 22.3097C14.3997 22.3097 17.1344 21.1769 19.1507 19.1606C21.167 17.1443 22.2998 14.4095 22.2998 11.558C22.2998 8.70652 21.167 5.9718 19.1507 3.95548C17.1344 1.93915 14.3997 0.806396 11.5481 0.806396C8.69663 0.806396 5.96191 1.93915 3.94559 3.95548C1.92927 5.9718 0.796509 8.70652 0.796509 11.558V11.558Z" stroke="#45413C" stroke-width="0.30719" stroke-linecap="round" stroke-linejoin="round"/>
<path d="M19.3431 14.2459C19.3431 14.6921 18.741 15.0523 17.9991 15.0523C17.2572 15.0523 16.6552 14.6921 16.6552 14.2459C16.6552 13.7998 17.2572 13.4396 17.9991 13.4396C18.741 13.4396 19.3431 13.7998 19.3431 14.2459Z" fill="#FFAA54"/>
<path d="M3.75317 14.2459C3.75317 14.6921 4.35527 15.0523 5.09713 15.0523C5.83899 15.0523 6.44108 14.6921 6.44108 14.2459C6.44108 13.7998 5.83899 13.4396 5.09713 13.4396C4.35527 13.4396 3.75317 13.7998 3.75317 14.2459Z" fill="#FFAA54"/>
<path d="M8.28918 15.8586C8.21654 15.859 8.14485 15.8751 8.07899 15.9057C8.01312 15.9363 7.95463 15.9808 7.90749 16.036C7.86103 16.0925 7.82657 16.1579 7.80623 16.2281C7.7859 16.2984 7.78011 16.372 7.78923 16.4446C7.93311 17.339 8.39089 18.153 9.08047 18.7405C9.77006 19.328 10.6464 19.6507 11.5523 19.6507C12.4582 19.6507 13.3345 19.328 14.0241 18.7405C14.7137 18.153 15.1715 17.339 15.3154 16.4446C15.3245 16.372 15.3187 16.2984 15.2984 16.2281C15.278 16.1579 15.2436 16.0925 15.1971 16.036C15.15 15.9808 15.0915 15.9363 15.0256 15.9057C14.9597 15.8751 14.8881 15.859 14.8154 15.8586H8.28918Z" fill="#FFB0CA" stroke="#45413C" stroke-width="0.30719" stroke-linecap="round" stroke-linejoin="round"/>
<path d="M14.5418 18.1917C13.62 17.7056 12.5893 17.4632 11.5474 17.4875C10.5056 17.4632 9.47486 17.7056 8.5531 18.1917C8.9139 18.6384 9.37007 18.9987 9.88818 19.2463C10.4063 19.4938 10.9732 19.6223 11.5474 19.6223C12.1216 19.6223 12.6886 19.4938 13.2067 19.2463C13.7248 18.9987 14.181 18.6384 14.5418 18.1917Z" fill="#FF87AF" stroke="#45413C" stroke-width="0.30719" stroke-linecap="round" stroke-linejoin="round"/>
<path d="M18.1381 9.67651L16.4125 10.542C16.3244 10.5871 16.2505 10.6557 16.1989 10.7401C16.1473 10.8245 16.12 10.9215 16.12 11.0205C16.12 11.1194 16.1473 11.2164 16.1989 11.3008C16.2505 11.3853 16.3244 11.4538 16.4125 11.4989L18.1381 12.3644" stroke="#45413C" stroke-width="0.30719" stroke-linecap="round" stroke-linejoin="round"/>
<path d="M4.95801 9.67651L6.71052 10.542C6.79858 10.5871 6.87248 10.6557 6.92408 10.7401C6.97568 10.8245 7.00299 10.9215 7.00299 11.0205C7.00299 11.1194 6.97568 11.2164 6.92408 11.3008C6.87248 11.3853 6.79858 11.4538 6.71052 11.4989L4.95801 12.3644" stroke="#45413C" stroke-width="0.30719" stroke-linecap="round" stroke-linejoin="round"/>
</svg>
