<svg width="15" height="15" viewBox="0 0 15 15" fill="none" xmlns="http://www.w3.org/2000/svg">
<path d="M1.04281 4.63235C0.771199 2.9501 2.02621 1.34853 3.84634 1.05448C5.5329 0.782405 7.13734 1.73095 7.56412 3.25279" stroke="#6F6F6F" stroke-width="0.65108" stroke-miterlimit="2.61313"/>
<path d="M14.0277 4.50444C14.2206 2.85898 12.9843 1.33236 11.2271 1.04641C9.55246 0.774331 7.95951 1.72334 7.53613 3.24517" stroke="#6F6F6F" stroke-width="0.65108" stroke-miterlimit="2.61313"/>
<path d="M1 4.44737C1.01057 4.56336 1.02107 4.67928 1.18471 5.30593C1.34828 5.93251 1.83156 7.02349 2.93311 8.52605C4.03473 10.0286 5.90885 12.1475 6.5891 12.8366C7.26928 13.5256 7.3673 13.5538 7.56017 13.7441C7.75173 13.5733 7.90689 13.5048 8.65964 12.8108C9.41245 12.1168 11.9441 9.28157 12.9501 7.72287C13.9561 6.16409 13.9757 5.23235 14.0445 4.30493" stroke="#6F6F6F" stroke-width="0.65108" stroke-miterlimit="2.61313"/>
</svg>
