<svg width="37" height="35" viewBox="0 0 37 35" fill="none" xmlns="http://www.w3.org/2000/svg">
<path d="M35.3092 17.5342L18.8688 0.341797C18.7776 0.227865 18.6637 0.142415 18.527 0.0854492C18.3902 0.0284831 18.2421 0 18.0826 0C17.7864 0 17.5244 0.113932 17.2965 0.341797L0.787706 17.5342C0.650987 17.6937 0.559842 17.8646 0.514269 18.0469C0.468696 18.2292 0.474392 18.4172 0.531359 18.6108C0.588325 18.8045 0.685167 18.9697 0.821886 19.1064C0.935818 19.1976 1.06114 19.2716 1.19786 19.3286C1.33458 19.3856 1.4713 19.4084 1.60802 19.397C1.74474 19.3856 1.88146 19.3514 2.01817 19.2944C2.15489 19.2375 2.26883 19.1634 2.35997 19.0723L3.86388 17.5342V33.9062C3.86388 34.2025 3.96642 34.4588 4.1715 34.6753C4.37657 34.8918 4.63862 35 4.95763 35H12.5797C12.6708 35 12.7563 34.9886 12.836 34.9658C12.9158 34.943 12.9899 34.9146 13.0582 34.8804C13.1266 34.8462 13.1949 34.8006 13.2633 34.7437C13.3317 34.6867 13.3886 34.6297 13.4342 34.5728C13.4798 34.5158 13.5196 34.4531 13.5538 34.3848C13.588 34.3164 13.6165 34.2367 13.6393 34.1455C13.6621 34.0544 13.6734 33.9746 13.6734 33.9062L13.7076 22.9688H22.4234V33.9062C22.4234 34.2025 22.5317 34.4588 22.7482 34.6753C22.9646 34.8918 23.221 35 23.5172 35H31.1734C31.4697 35 31.726 34.8918 31.9425 34.6753C32.159 34.4588 32.2672 34.2025 32.2672 33.9062V17.5342L33.7369 19.0723C33.942 19.3001 34.204 19.4141 34.5231 19.4141C34.8193 19.4141 35.0699 19.3115 35.275 19.1064C35.4801 18.8786 35.5883 18.6165 35.5997 18.3203C35.6111 18.0241 35.5143 17.762 35.3092 17.5342ZM30.0797 15.5518V32.8125H24.6109V21.875C24.6109 21.5788 24.5027 21.3224 24.2862 21.106C24.0698 20.8895 23.8134 20.7812 23.5172 20.7812H12.6139C12.3177 20.7812 12.0613 20.8895 11.8448 21.106C11.6284 21.3224 11.5201 21.5788 11.5201 21.875L11.4859 32.8125H6.05138V15.5518C6.05138 15.4606 6.03998 15.3695 6.0172 15.2783L18.0826 2.7002L30.1139 15.2783C30.0911 15.3695 30.0797 15.4606 30.0797 15.5518Z" fill="white"/>
</svg>
