<svg width="25" height="26" viewBox="0 0 25 26" fill="none" xmlns="http://www.w3.org/2000/svg">
<path d="M0.353638 11.558C0.353638 14.4095 1.4864 17.1443 3.50272 19.1606C5.51904 21.1769 8.25376 22.3097 11.1053 22.3097C13.9568 22.3097 16.6915 21.1769 18.7078 19.1606C20.7241 17.1443 21.8569 14.4095 21.8569 11.558C21.8569 8.70652 20.7241 5.9718 18.7078 3.95548C16.6915 1.93915 13.9568 0.806396 11.1053 0.806396C8.25376 0.806396 5.51904 1.93915 3.50272 3.95548C1.4864 5.9718 0.353638 8.70652 0.353638 11.558Z" fill="#FFE500"/>
<path d="M11.1053 0.806396C8.97881 0.806396 6.90009 1.43697 5.13199 2.61837C3.36389 3.79978 1.98583 5.47895 1.17206 7.44356C0.358296 9.40816 0.145378 11.57 0.560232 13.6556C0.975086 15.7412 1.99908 17.6569 3.50272 19.1606C5.00637 20.6642 6.92213 21.6882 9.00774 22.1031C11.0934 22.5179 13.2551 22.305 15.2198 21.4912C17.1844 20.6775 18.8635 19.2994 20.0449 17.5313C21.2263 15.7632 21.8569 13.6845 21.8569 11.558C21.8569 10.1461 21.5788 8.74801 21.0385 7.44356C20.4982 6.13911 19.7062 4.95386 18.7078 3.95548C17.7094 2.9571 16.5242 2.16514 15.2198 1.62482C13.9153 1.0845 12.5172 0.806396 11.1053 0.806396ZM11.1053 20.6969C9.16487 20.6969 7.26804 20.1215 5.65465 19.0435C4.04126 17.9655 2.78378 16.4332 2.04122 14.6405C1.29866 12.8478 1.10437 10.8752 1.48292 8.97205C1.86148 7.06893 2.79587 5.3208 4.16795 3.94872C5.54002 2.57665 7.28815 1.64225 9.19127 1.2637C11.0944 0.885146 13.067 1.07943 14.8597 1.822C16.6524 2.56456 18.1847 3.82204 19.2627 5.43543C20.3407 7.04882 20.9161 8.94565 20.9161 10.8861C20.9161 13.4881 19.8825 15.9835 18.0426 17.8234C16.2027 19.6633 13.7073 20.6969 11.1053 20.6969Z" fill="#EBCB00"/>
<path d="M7.87976 2.95664C7.87976 3.1705 8.21959 3.37561 8.82448 3.52683C9.42938 3.67806 10.2498 3.76301 11.1053 3.76301C11.9607 3.76301 12.7811 3.67806 13.386 3.52683C13.9909 3.37561 14.3307 3.1705 14.3307 2.95664C14.3307 2.74278 13.9909 2.53767 13.386 2.38645C12.7811 2.23523 11.9607 2.15027 11.1053 2.15027C10.2498 2.15027 9.42938 2.23523 8.82448 2.38645C8.21959 2.53767 7.87976 2.74278 7.87976 2.95664Z" fill="#FFF48C"/>
<path d="M20.7218 16.3641C19.7526 18.3074 18.2177 19.9117 16.319 20.9658L15.717 19.5573L15.4213 18.8638C15.22 18.3606 15.1238 17.8216 15.1386 17.2798C15.1534 16.7381 15.2788 16.2051 15.5073 15.7136C15.6937 15.2734 15.9803 14.8828 16.3442 14.573C16.7082 14.2631 17.1396 14.0425 17.6039 13.9288C18.0613 13.82 18.5407 13.8482 18.9823 14.0097C19.4239 14.1712 19.8082 14.459 20.0875 14.8373C20.2733 15.0745 20.4169 15.3418 20.5122 15.6276L20.7218 16.3641Z" fill="#EBCB00"/>
<path opacity="0.15" d="M2.50391 24.4599C2.50391 24.6738 3.41011 24.8789 5.02317 25.0301C6.63623 25.1814 8.824 25.2663 11.1052 25.2663C13.3864 25.2663 15.5742 25.1814 17.1873 25.0301C18.8003 24.8789 19.7065 24.6738 19.7065 24.4599C19.7065 24.2461 18.8003 24.041 17.1873 23.8897C15.5742 23.7385 13.3864 23.6536 11.1052 23.6536C8.824 23.6536 6.63623 23.7385 5.02317 23.8897C3.41011 24.041 2.50391 24.2461 2.50391 24.4599Z" fill="#45413C"/>
<path d="M0.353638 11.558C0.353638 14.4095 1.4864 17.1443 3.50272 19.1606C5.51904 21.1769 8.25376 22.3097 11.1053 22.3097C13.9568 22.3097 16.6915 21.1769 18.7078 19.1606C20.7241 17.1443 21.8569 14.4095 21.8569 11.558C21.8569 8.70652 20.7241 5.9718 18.7078 3.95548C16.6915 1.93915 13.9568 0.806396 11.1053 0.806396C8.25376 0.806396 5.51904 1.93915 3.50272 3.95548C1.4864 5.9718 0.353638 8.70652 0.353638 11.558V11.558Z" stroke="#45413C" stroke-width="0.30719" stroke-linecap="round" stroke-linejoin="round"/>
<path d="M24.2768 16.0629C24.4524 16.4046 24.5467 16.7823 24.5523 17.1665C24.5579 17.5507 24.4747 17.931 24.3091 18.2777C24.133 18.6766 23.8779 19.0357 23.5591 19.3332C23.2403 19.6307 22.8645 19.8605 22.4544 20.0087L18.0194 21.5032L16.2131 17.2025C16.0517 16.7972 15.9742 16.3634 15.9853 15.9272C15.9964 15.4911 16.0958 15.0617 16.2776 14.6652C16.4296 14.3106 16.6616 13.9961 16.9553 13.7462C17.2491 13.4962 17.5967 13.3177 17.971 13.2244C18.463 13.1102 18.98 13.1901 19.4146 13.4474C19.8492 13.7047 20.1678 14.1197 20.3041 14.606L20.6482 15.7134L21.7233 15.235C22.1745 15.0227 22.6895 14.9902 23.1638 15.144C23.6381 15.2977 24.0361 15.6263 24.2768 16.0629Z" fill="#FF6242"/>
<path d="M17.0235 15.2727C17.517 15.1576 18.0359 15.2383 18.4711 15.498C18.9063 15.7577 19.2237 16.1761 19.3566 16.6651L19.7007 17.7402L20.7758 17.2618C21.2303 17.0405 21.7527 17.0037 22.2337 17.159C22.7148 17.3143 23.117 17.6498 23.3562 18.0951C23.5486 18.4494 23.645 18.8478 23.6358 19.2509C23.9153 18.9686 24.1428 18.6392 24.3077 18.2778C24.4733 17.9311 24.5565 17.5508 24.5509 17.1666C24.5454 16.7824 24.4511 16.4047 24.2755 16.063C24.0353 15.6187 23.633 15.2841 23.1524 15.1289C22.6717 14.9737 22.1498 15.0098 21.6951 15.2297L20.6199 15.7082L20.2759 14.6008C20.1395 14.1145 19.8209 13.6995 19.3864 13.4422C18.9518 13.1848 18.4347 13.105 17.9428 13.2192C17.5685 13.3124 17.2209 13.491 16.9271 13.7409C16.6333 13.9909 16.4014 14.3054 16.2494 14.6599C16.0828 15.0312 15.9879 15.4307 15.9698 15.8372C16.2643 15.5582 16.6281 15.3633 17.0235 15.2727Z" fill="#FF866E"/>
<path d="M24.2768 16.0629C24.4524 16.4046 24.5467 16.7823 24.5523 17.1665C24.5579 17.5507 24.4747 17.931 24.3091 18.2777C24.133 18.6766 23.8779 19.0357 23.5591 19.3332C23.2403 19.6307 22.8645 19.8605 22.4544 20.0087L18.0194 21.5032L16.2131 17.2025C16.0517 16.7972 15.9742 16.3634 15.9853 15.9272C15.9964 15.4911 16.0958 15.0617 16.2776 14.6652C16.4296 14.3106 16.6616 13.9961 16.9553 13.7462C17.2491 13.4962 17.5967 13.3177 17.971 13.2244C18.463 13.1102 18.98 13.1901 19.4146 13.4474C19.8492 13.7047 20.1678 14.1197 20.3041 14.606L20.6482 15.7134L21.7233 15.235C22.1745 15.0227 22.6895 14.9902 23.1638 15.144C23.6381 15.2977 24.0361 15.6263 24.2768 16.0629V16.0629Z" stroke="#45413C" stroke-width="0.30719" stroke-linecap="round" stroke-linejoin="round"/>
<path d="M11.11 15.1974C11.2733 15.1026 11.4587 15.0526 11.6476 15.0522C11.9327 15.0522 12.2062 15.1655 12.4078 15.3672C12.6095 15.5688 12.7227 15.8423 12.7227 16.1274C12.7227 16.4126 12.6095 16.686 12.4078 16.8877C12.2062 17.0893 11.9327 17.2026 11.6476 17.2026C11.9327 17.2026 12.2062 17.3158 12.4078 17.5175C12.6095 17.7191 12.7227 17.9926 12.7227 18.2777C12.7227 18.5629 12.6095 18.8364 12.4078 19.038C12.2062 19.2396 11.9327 19.3529 11.6476 19.3529C11.4587 19.3526 11.2733 19.3025 11.11 19.2078" stroke="#45413C" stroke-width="0.30719" stroke-linecap="round" stroke-linejoin="round"/>
<path d="M3.3103 14.2459C3.3103 14.6921 3.91239 15.0523 4.65426 15.0523C5.39612 15.0523 5.99821 14.6921 5.99821 14.2459C5.99821 13.7998 5.39612 13.4396 4.65426 13.4396C3.91239 13.4396 3.3103 13.7998 3.3103 14.2459Z" fill="#FFAA54"/>
<path d="M18.6313 11.0204C18.6313 11.2699 18.5322 11.5092 18.3557 11.6856C18.1793 11.862 17.94 11.9612 17.6905 11.9612C17.441 11.9612 17.2017 11.862 17.0253 11.6856C16.8489 11.5092 16.7498 11.2699 16.7498 11.0204" stroke="#45413C" stroke-width="0.30719" stroke-linecap="round" stroke-linejoin="round"/>
<path d="M5.46064 11.0204C5.46064 11.2699 5.36152 11.5092 5.18509 11.6856C5.00867 11.862 4.76938 11.9612 4.51987 11.9612C4.27036 11.9612 4.03107 11.862 3.85465 11.6856C3.67822 11.5092 3.5791 11.2699 3.5791 11.0204" stroke="#45413C" stroke-width="0.30719" stroke-linecap="round" stroke-linejoin="round"/>
</svg>
