<svg width="83" height="52" viewBox="0 0 83 52" fill="none" xmlns="http://www.w3.org/2000/svg">
<rect width="83" height="52" rx="4" fill="#0B85C7"/>
<path d="M46.6667 20.3334C48.921 20.3334 51.083 21.2289 52.6771 22.823C54.2711 24.417 55.1667 26.579 55.1667 28.8334V38.75H49.5V28.8334C49.5 28.0819 49.2015 27.3613 48.6701 26.8299C48.1388 26.2986 47.4181 26 46.6667 26C45.9152 26 45.1945 26.2986 44.6632 26.8299C44.1318 27.3613 43.8333 28.0819 43.8333 28.8334V38.75H38.1667V28.8334C38.1667 26.579 39.0622 24.417 40.6562 22.823C42.2503 21.2289 44.4123 20.3334 46.6667 20.3334Z" fill="white"/>
<path d="M32.5 21.75H26.8333V38.75H32.5V21.75Z" fill="white"/>
<path d="M29.6667 17.5C31.2315 17.5 32.5 16.2315 32.5 14.6667C32.5 13.1019 31.2315 11.8334 29.6667 11.8334C28.1019 11.8334 26.8333 13.1019 26.8333 14.6667C26.8333 16.2315 28.1019 17.5 29.6667 17.5Z" fill="white"/>
</svg>
