<svg width="21" height="20" viewBox="0 0 21 20" fill="none" xmlns="http://www.w3.org/2000/svg">
<path d="M16.9486 12.8029C16.9059 9.93472 16.2418 7.24381 15.0681 5.19757C14.1721 3.63574 13.0522 2.57543 11.8221 2.09683C11.7711 0.90956 11.1214 0 10.3008 0C9.45969 0 8.81874 0.893299 8.77791 2.09747C7.54804 2.5765 6.42838 3.637 5.53272 5.19926C4.35941 7.24539 3.69572 9.93567 3.65295 12.8029C1.48809 13.4744 0.300781 14.4381 0.300781 15.5318C0.300781 16.4395 1.54024 16.9804 4.31966 17.2858C5.34978 17.399 6.44863 17.4616 7.4265 17.4956C7.61354 18.9069 8.83081 20 10.3008 20C11.7708 20 12.988 18.9069 13.175 17.4956C14.1529 17.4615 15.2519 17.3989 16.2821 17.2857C19.0614 16.9804 20.3008 16.4394 20.3008 15.5318C20.3008 14.4379 19.1136 13.4741 16.9486 12.8029ZM10.3008 0.784287C10.5887 0.784287 10.9054 1.22742 10.9986 1.86689C10.7684 1.82728 10.5357 1.8068 10.3008 1.8068C10.0649 1.8068 9.83107 1.82747 9.60019 1.8674C9.68929 1.22877 10.0096 0.784287 10.3008 0.784287ZM10.3008 19.2157C9.28018 19.2157 8.42773 18.4843 8.23972 17.5185C8.79158 17.5305 9.27652 17.534 9.64823 17.534C10.0226 17.534 10.2571 17.5305 10.3008 17.5298C10.3446 17.5305 10.5786 17.534 10.9533 17.534C11.3251 17.534 11.81 17.5305 12.3618 17.5185C12.1739 18.4842 11.3215 19.2157 10.3008 19.2157ZM16.193 16.5111C15.0813 16.6332 13.8849 16.697 12.8542 16.7291C12.8366 16.7268 12.819 16.7252 12.8009 16.7252C12.7734 16.7252 12.7465 16.7279 12.7206 16.7331C12.0198 16.7534 11.403 16.7592 10.9534 16.7592C10.5531 16.7592 10.3104 16.7647 10.308 16.7647C10.3057 16.7647 10.3033 16.7647 10.3008 16.7647C10.2986 16.7647 10.2961 16.7647 10.2937 16.7647C10.2913 16.7647 10.0484 16.7592 9.64835 16.7592C9.19562 16.7592 8.57372 16.7526 7.86716 16.731C7.8455 16.7275 7.82352 16.7252 7.8009 16.7252C7.78625 16.7252 7.77181 16.726 7.75769 16.7275C6.72477 16.6941 5.52409 16.6288 4.40886 16.5063C1.13857 16.147 1.10077 15.5379 1.10077 15.5318C1.10077 14.8107 2.24973 14.0296 4.10407 13.4876C4.29973 13.462 4.45077 13.2977 4.45077 13.0987C4.45077 10.2535 5.08269 7.58458 6.23003 5.58365C7.33653 3.6538 8.78222 2.59119 10.3008 2.59119C11.8189 2.59119 13.2644 3.65338 14.3708 5.58206C15.518 7.58204 16.1508 10.2499 16.1508 13.0942C16.1508 13.1021 16.1509 13.1107 16.1513 13.1187C16.1607 13.3047 16.3009 13.4533 16.4813 13.4839C18.3453 14.026 19.5008 14.8107 19.5008 15.5341C19.5008 15.5402 19.463 16.1518 16.193 16.5111Z" fill="#F8F8F8"/>
</svg>
