<svg width="15" height="20" viewBox="0 0 15 20" fill="none" xmlns="http://www.w3.org/2000/svg">
<path d="M13.9131 0.966107H12.5605V0.386413C12.5605 0.172982 12.3874 0 12.174 0H8.21267C7.99924 0 7.82614 0.172982 7.82614 0.386413V0.966107H0.386502C0.17307 0.966107 0 1.13921 0 1.35264V19.6136C0 19.827 0.17307 20 0.386502 20H13.9131C14.1266 20 14.2996 19.827 14.2996 19.6136V1.35264C14.2996 1.13921 14.1266 0.966107 13.9131 0.966107H13.9131ZM8.59906 0.772915H11.7876V6.94478L10.5141 5.05006C10.4422 4.94323 10.322 4.87919 10.1934 4.87919C10.0647 4.87919 9.94438 4.94323 9.87253 5.05006L8.59906 6.94478V0.772915ZM0.773033 1.73917H2.17392V19.2271H0.773033V1.73917ZM13.5266 19.2271H2.94695V1.73917H7.82614V8.21255C7.82614 8.38263 7.93725 8.53268 8.09988 8.5822C8.26275 8.63183 8.43851 8.5692 8.53336 8.42819L10.1934 5.95853L11.8532 8.42819C11.9264 8.537 12.0477 8.59906 12.1741 8.59906C12.2115 8.59906 12.2495 8.59359 12.2867 8.5822C12.4494 8.53268 12.5605 8.38262 12.5605 8.21255V1.73917H13.5266V19.2271Z" fill="#F8F8F8"/>
</svg>
