<svg width="17" height="19" viewBox="0 0 17 19" fill="none" xmlns="http://www.w3.org/2000/svg">
<path d="M15.3577 13.3158C14.6906 12.0071 13.7713 10.8691 12.623 9.92666C13.6021 8.87154 14.2015 7.46184 14.2015 5.91509C14.2015 2.65353 11.5378 0 8.26354 0C4.98943 0 2.32566 2.65352 2.32566 5.91509C2.32566 7.4616 2.92483 8.87128 3.90379 9.92628C2.75554 10.869 1.83625 12.007 1.16941 13.3159C0.393446 14.8389 0 16.5187 0 18.3087C0 18.5272 0.177169 18.7045 0.395789 18.7045C0.614419 18.7045 0.791711 18.5273 0.791711 18.3087C0.791711 15.1618 2.10052 12.391 4.48401 10.4738C5.51157 11.3206 6.82899 11.8301 8.26354 11.8301C9.69809 11.8301 11.0153 11.3207 12.0428 10.4742C14.4267 12.3911 15.7355 15.1618 15.7355 18.3087C15.7355 18.5272 15.9128 18.7045 16.1314 18.7045C16.35 18.7045 16.5272 18.5273 16.5272 18.3087C16.5272 16.5187 16.1337 14.8389 15.3577 13.3158ZM3.11738 5.91509C3.11738 3.09004 5.42594 0.791688 8.26354 0.791688C11.1013 0.791688 13.4098 3.09004 13.4098 5.91509C13.4098 8.74014 11.1013 11.0384 8.26354 11.0384C5.42594 11.0384 3.11738 8.74002 3.11738 5.91509Z" fill="#F8F8F8"/>
</svg>
