<svg width="23" height="17" viewBox="0 0 23 17" fill="none" xmlns="http://www.w3.org/2000/svg">
<path d="M22.6911 4.36583C22.6911 1.95851 20.7326 0 18.3253 0C16.8848 0 15.6051 0.701375 14.8095 1.78042H0.691012C0.68998 1.78042 0.689065 1.78055 0.688033 1.78055C0.679996 1.78068 0.671842 1.78136 0.663805 1.78187C0.658875 1.78226 0.653955 1.78224 0.649025 1.78276C0.641893 1.78354 0.63477 1.78498 0.627513 1.78615C0.62194 1.78706 0.616368 1.78769 0.610922 1.78872C0.605086 1.79001 0.59925 1.7917 0.593541 1.79326C0.586936 1.79495 0.580449 1.79638 0.573971 1.79833C0.568788 1.80002 0.563742 1.80221 0.558433 1.80403C0.551829 1.80649 0.545078 1.80868 0.5386 1.8114C0.531995 1.81412 0.525508 1.81765 0.51903 1.82088C0.514237 1.82321 0.509311 1.82514 0.504645 1.82773C0.498556 1.8311 0.492721 1.83487 0.486885 1.83862C0.481955 1.8416 0.476903 1.84433 0.472237 1.84758C0.467307 1.85082 0.462781 1.85471 0.458115 1.85808C0.452542 1.86235 0.446838 1.86634 0.441392 1.87075C0.437505 1.87412 0.433868 1.87775 0.430118 1.88112C0.424155 1.88643 0.418325 1.89178 0.412753 1.89735C0.4121 1.89813 0.411327 1.89864 0.410548 1.89942C0.407566 1.90253 0.404975 1.90589 0.40212 1.909C0.397064 1.9147 0.392018 1.92025 0.387225 1.92609C0.383464 1.93075 0.379958 1.9357 0.376461 1.9405C0.372447 1.94595 0.368431 1.95123 0.364807 1.95693C0.36131 1.96224 0.358067 1.96771 0.354833 1.97316C0.351726 1.97873 0.348482 1.98404 0.345501 1.98975C0.34252 1.99545 0.339797 2.00114 0.337205 2.00697C0.334488 2.0128 0.331902 2.01851 0.329437 2.02435C0.327109 2.03018 0.325159 2.03613 0.323083 2.04196C0.320882 2.04805 0.318811 2.05428 0.316862 2.06049C0.315176 2.06645 0.313752 2.07254 0.312319 2.07863C0.31076 2.08486 0.309209 2.09107 0.30804 2.09743C0.30687 2.10403 0.305967 2.11051 0.305061 2.11711C0.304155 2.12307 0.30324 2.12903 0.302723 2.13525C0.30207 2.14263 0.301818 2.14991 0.301555 2.15731C0.301291 2.16185 0.300781 2.16623 0.300781 2.17064V16.6096C0.300781 16.6226 0.301428 16.6356 0.302723 16.6484C0.30324 16.654 0.304292 16.6593 0.305061 16.6648C0.306093 16.6718 0.30687 16.679 0.308303 16.6861C0.309599 16.6926 0.311402 16.6988 0.312961 16.705C0.31452 16.7111 0.315824 16.7172 0.317635 16.7232C0.319447 16.7294 0.321787 16.7353 0.323989 16.7414C0.326064 16.7474 0.327992 16.7534 0.330457 16.7592C0.332785 16.7649 0.335525 16.7703 0.338242 16.7758C0.34096 16.7819 0.343682 16.788 0.346916 16.7938C0.349634 16.799 0.352878 16.8041 0.355985 16.8091C0.359356 16.8151 0.362726 16.8209 0.366486 16.8266C0.370247 16.832 0.37439 16.8373 0.378288 16.8426C0.381911 16.8474 0.385275 16.8525 0.389299 16.8573C0.396683 16.8664 0.404606 16.8749 0.41277 16.8832C0.413549 16.8841 0.414196 16.8849 0.414975 16.8858C0.416007 16.8867 0.417037 16.8875 0.418069 16.8885C0.426233 16.8966 0.434671 16.9042 0.443614 16.9116C0.448281 16.9155 0.453196 16.9187 0.457999 16.9223C0.463308 16.9264 0.468623 16.9307 0.474195 16.9343C0.479894 16.9382 0.485603 16.9414 0.491428 16.9448C0.496611 16.9479 0.501673 16.9511 0.506982 16.954C0.512818 16.957 0.518779 16.9597 0.524741 16.9625C0.53044 16.9651 0.535891 16.968 0.541727 16.9703C0.547426 16.9728 0.553256 16.9746 0.559092 16.9768C0.56518 16.9789 0.571268 16.9813 0.577756 16.9833C0.583455 16.9851 0.589417 16.9863 0.595253 16.9878C0.601731 16.9894 0.608212 16.9912 0.614691 16.9926C0.621559 16.9939 0.628298 16.9947 0.635166 16.9957C0.641002 16.9965 0.646574 16.9975 0.652399 16.9982C0.665355 16.9994 0.678182 17 0.691012 17H21.4716C21.4845 17 21.4972 16.9994 21.5101 16.9981C21.5159 16.9975 21.5215 16.9965 21.5272 16.9957C21.534 16.9947 21.541 16.9939 21.5479 16.9925C21.5544 16.9912 21.5606 16.9894 21.567 16.9878C21.5729 16.9864 21.579 16.985 21.585 16.9831C21.5911 16.9813 21.597 16.979 21.6031 16.9768C21.6091 16.9747 21.615 16.9728 21.621 16.9702C21.6264 16.968 21.6318 16.9653 21.6372 16.9628C21.6434 16.9598 21.6497 16.9571 21.6556 16.9538C21.6607 16.9511 21.6653 16.9482 21.6702 16.9452C21.6763 16.9417 21.6824 16.9382 21.6884 16.9342C21.6936 16.9308 21.6982 16.927 21.7032 16.9234C21.7085 16.9194 21.7139 16.9156 21.7191 16.9114C21.7261 16.9057 21.7327 16.8993 21.7393 16.8931C21.742 16.8906 21.7449 16.8883 21.7475 16.8857C21.7503 16.883 21.7527 16.88 21.7553 16.8771C21.7614 16.8707 21.7676 16.8642 21.7733 16.8573C21.7777 16.852 21.7816 16.8462 21.7857 16.8406C21.7891 16.8359 21.7927 16.8315 21.796 16.8267C21.8001 16.8205 21.8037 16.814 21.8074 16.8077C21.8102 16.803 21.8131 16.7986 21.8157 16.7939C21.8189 16.7876 21.8219 16.7811 21.8249 16.7746C21.8272 16.7696 21.8298 16.7645 21.832 16.7592C21.8346 16.7531 21.8367 16.7468 21.8389 16.7404C21.8409 16.7347 21.8431 16.729 21.8449 16.7232C21.8469 16.717 21.8482 16.7105 21.8499 16.7041C21.8513 16.6982 21.853 16.6922 21.8543 16.6861C21.8557 16.6787 21.8566 16.6712 21.8577 16.6638C21.8584 16.6587 21.8593 16.6536 21.8599 16.6484C21.8612 16.6354 21.8618 16.6225 21.8618 16.6095V6.95331C21.8158 7.00606 21.7682 7.05749 21.7199 7.10803C22.3268 6.3579 22.6911 5.40366 22.6911 4.36583ZM18.3253 0.780429C20.3022 0.780429 21.9107 2.38891 21.9107 4.36583C21.9107 6.34288 20.3022 7.9512 18.3253 7.9512C16.3482 7.9512 14.7399 6.34288 14.7399 4.36583C14.7399 2.38892 16.3482 0.780429 18.3253 0.780429ZM14.3502 2.56102C14.0993 3.1113 13.9593 3.72262 13.9593 4.36583C13.9593 5.62204 14.4929 6.75589 15.3449 7.55305L11.0813 11.6765L1.6559 2.56102H14.3502ZM1.08124 3.09107L7.47466 9.27429L1.08124 15.6677V3.09107ZM1.63322 16.2195L8.03571 9.81705L10.8101 12.5C10.8137 12.5036 10.8176 12.5066 10.8212 12.5099C10.8259 12.514 10.8304 12.5182 10.8351 12.522C10.8405 12.5265 10.8462 12.5306 10.8518 12.5346C10.8567 12.5382 10.8616 12.542 10.8667 12.5454C10.8725 12.5491 10.8785 12.5526 10.8844 12.5561C10.8896 12.5591 10.8947 12.5622 10.8999 12.5649C10.9061 12.5683 10.9127 12.5712 10.9192 12.5742C10.9242 12.5765 10.9293 12.579 10.9343 12.581C10.9413 12.5839 10.9485 12.5861 10.9555 12.5885C10.9604 12.5902 10.9652 12.5921 10.9701 12.5936C10.9777 12.5958 10.9855 12.5976 10.9933 12.5993C10.9977 12.6003 11.0021 12.6018 11.0066 12.6025C11.0153 12.6042 11.0243 12.6054 11.0331 12.6064C11.0367 12.6069 11.0402 12.6076 11.0438 12.608C11.0563 12.6092 11.0687 12.6098 11.0813 12.6098C11.0937 12.6098 11.1063 12.6092 11.1187 12.608C11.1224 12.6076 11.126 12.6069 11.1296 12.6064C11.1383 12.6052 11.1471 12.6042 11.1559 12.6025C11.1606 12.6016 11.165 12.6004 11.1696 12.5993C11.1772 12.5975 11.185 12.5958 11.1925 12.5936C11.1976 12.5921 11.2025 12.5902 11.2074 12.5885C11.2144 12.5861 11.2214 12.5839 11.2281 12.5812C11.2334 12.579 11.2385 12.5765 11.2437 12.5742C11.25 12.5712 11.2565 12.5683 11.2627 12.5651C11.2681 12.5623 11.2732 12.5591 11.2784 12.556C11.2843 12.5526 11.2901 12.5491 11.2958 12.5454C11.301 12.542 11.306 12.5383 11.3111 12.5345C11.3165 12.5305 11.3221 12.5265 11.3274 12.5221C11.3322 12.5182 11.3369 12.5139 11.3417 12.5096C11.3452 12.5064 11.3491 12.5034 11.3526 12.5001L14.1269 9.81695L20.5294 16.2196H1.63322V16.2195ZM14.6881 9.27429L15.9663 8.03804C16.647 8.47686 17.457 8.73176 18.3253 8.73176C19.3695 8.73176 20.3292 8.36306 21.0814 7.74915V15.6677L14.6881 9.27429Z" fill="#F8F8F8"/>
<path d="M18.4803 6.54361C19.1564 6.54361 19.6305 6.39443 19.9028 6.27144L19.7621 5.71831C19.4812 5.8413 19.1388 5.93811 18.5856 5.93811C17.8042 5.93811 17.1457 5.48789 17.1282 4.4634H20.1134C20.131 4.36581 20.1397 4.26122 20.1397 4.1031C20.1397 3.32162 19.7798 2.10986 18.3837 2.10986C17.1457 2.10986 16.3906 3.11074 16.3906 4.39262C16.3906 5.67449 17.172 6.54361 18.4803 6.54361H18.4803ZM18.3222 2.67998C19.1914 2.67998 19.4022 3.43905 19.3934 3.92686H17.137C17.1984 3.39019 17.532 2.67998 18.3222 2.67998Z" fill="#F8F8F8"/>
</svg>
