<svg width="15" height="24" viewBox="0 0 15 24" fill="none" xmlns="http://www.w3.org/2000/svg">
<path d="M9.60149 1.1071C9.31634 0.818386 8.92817 0.654772 8.52239 0.652251C8.1166 0.649731 7.72644 0.808511 7.43772 1.09366C7.14901 1.37881 6.98539 1.76698 6.98287 2.17276C6.98035 2.57855 7.13913 2.96871 7.42428 3.25743C8.98217 4.83613 10.1477 6.75847 10.8272 8.86978C9.93753 8.00349 8.79774 7.43924 7.56943 7.25704C6.66168 7.10083 5.73116 7.13837 4.83895 7.36722C3.94674 7.59606 3.11302 8.01102 2.39252 8.58486C2.19417 8.76148 2.04515 8.98662 1.96006 9.23821C1.87497 9.48979 1.85673 9.75917 1.90715 10.0199C1.95757 10.2807 2.0749 10.5238 2.24764 10.7256C2.42037 10.9273 2.64258 11.0807 2.89247 11.1706C3.17104 11.277 3.47269 11.3081 3.76711 11.2609C4.06152 11.2137 4.33834 11.0899 4.56972 10.9018C4.96029 10.6405 5.40103 10.4635 5.86383 10.3821C6.32663 10.3006 6.80132 10.3165 7.25763 10.4288C7.98905 10.5892 8.62678 11.0335 9.03055 11.6642C9.43432 12.2948 9.57105 13.0599 9.41065 13.7913C9.25025 14.5228 8.80587 15.1605 8.17526 15.5643C7.54466 15.968 6.77949 16.1048 6.04807 15.9444C5.41152 15.7997 4.83383 15.4654 4.39134 14.9854C3.94885 14.5055 3.6624 13.9026 3.56982 13.2564C3.55743 12.8866 3.42151 12.5316 3.18376 12.2481C2.94601 11.9645 2.62013 11.7688 2.25812 11.6921C2.04312 11.6287 1.81646 11.6155 1.59554 11.6534C1.37462 11.6912 1.1653 11.7792 0.983648 11.9105C0.801996 12.0418 0.652834 12.213 0.547604 12.4109C0.442374 12.6088 0.383872 12.8281 0.376587 13.0522C0.376587 16.8744 3.53219 21.4008 8.44031 20.7127C12.5367 20.1321 13.9236 18.9656 14.4774 13.794C14.8053 9.93419 13.1979 4.80566 9.60149 1.1071Z" fill="#FFE500"/>
<path d="M7.60201 2.92952C7.89341 2.67532 8.27067 2.54161 8.65712 2.55559C9.04356 2.56957 9.41018 2.73019 9.68245 3.00478C12.348 5.77304 14.0455 9.33008 14.5207 13.1436C14.6282 9.3805 13.0047 4.6014 9.60719 1.10712C9.47058 0.959928 9.30633 0.841082 9.12379 0.75737C8.94126 0.673657 8.74402 0.626716 8.54335 0.619229C8.13807 0.604106 7.74338 0.7506 7.44611 1.02648C7.14884 1.30237 6.97334 1.68504 6.95822 2.09032C6.9431 2.4956 7.08959 2.89029 7.36547 3.18756C7.4342 3.09279 7.51356 3.00622 7.60201 2.92952Z" fill="#FFF48C"/>
<path opacity="0.15" d="M1.72058 22.4598C1.72058 22.6737 2.37192 22.8788 3.5313 23.03C4.69069 23.1812 6.26315 23.2662 7.90277 23.2662C9.54239 23.2662 11.1149 23.1812 12.2742 23.03C13.4336 22.8788 14.085 22.6737 14.085 22.4598C14.085 22.246 13.4336 22.0408 12.2742 21.8896C11.1149 21.7384 9.54239 21.6534 7.90277 21.6534C6.26315 21.6534 4.69069 21.7384 3.5313 21.8896C2.37192 22.0408 1.72058 22.246 1.72058 22.4598Z" fill="#45413C"/>
<path d="M7.58083 7.25171C8.79769 7.44035 9.9253 8.00416 10.8063 8.86446C10.2109 7.01473 9.24108 5.3074 7.95714 3.84882C7.84341 3.71848 7.70211 3.61506 7.54349 3.54605C7.38486 3.47705 7.21287 3.44418 7.03997 3.44984C6.86708 3.4555 6.69761 3.49954 6.54383 3.57878C6.39006 3.65801 6.25583 3.77045 6.15087 3.90796C5.99007 4.12192 5.90814 4.38486 5.91891 4.65229C5.92969 4.91972 6.03252 5.17522 6.21 5.37556C6.72558 5.95592 7.1846 6.58415 7.58083 7.25171Z" fill="#FFE500"/>
<path d="M6.05957 4.08536C6.27012 4.03323 6.49099 4.04028 6.69779 4.10573C6.90459 4.17119 7.08929 4.2925 7.2315 4.45629C8.13253 5.47901 8.88039 6.62706 9.45171 7.86456C9.95553 8.13093 10.4189 8.4676 10.8279 8.86446C10.2325 7.01473 9.26268 5.3074 7.97874 3.84882C7.86501 3.71848 7.72371 3.61506 7.56508 3.54605C7.40645 3.47705 7.23447 3.44418 7.06157 3.44984C6.88868 3.4555 6.7192 3.49954 6.56543 3.57878C6.41165 3.65801 6.27742 3.77045 6.17246 3.90796C6.13101 3.96457 6.0933 4.02383 6.05957 4.08536Z" fill="#EBCB00"/>
<path d="M7.58083 7.25171C8.79769 7.44035 9.9253 8.00416 10.8063 8.86446C10.2109 7.01473 9.24108 5.3074 7.95714 3.84882C7.84341 3.71848 7.70211 3.61506 7.54349 3.54605C7.38486 3.47705 7.21287 3.44418 7.03997 3.44984C6.86708 3.4555 6.69761 3.49954 6.54383 3.57878C6.39006 3.65801 6.25583 3.77045 6.15087 3.90796V3.90796C5.99007 4.12192 5.90814 4.38486 5.91891 4.65229C5.92969 4.91972 6.03252 5.17522 6.21 5.37556C6.72558 5.95592 7.1846 6.58415 7.58083 7.25171V7.25171Z" stroke="#45413C" stroke-width="0.30719" stroke-linecap="round" stroke-linejoin="round"/>
<path d="M7.56913 9.16539C8.8217 9.34817 11.4827 10.4395 12.359 11.2888C12.0084 10.2409 11.376 9.30971 10.531 8.59753C9.6861 7.88536 8.66132 7.41968 7.56913 7.2516C6.66138 7.09539 5.73086 7.13294 4.83865 7.36178C3.94644 7.59062 3.11272 8.00559 2.39222 8.57943C2.10273 8.83991 1.92246 9.20022 1.88756 9.58808C1.85266 9.97594 1.96573 10.3626 2.20407 10.6706C3.45663 9.4073 5.58545 8.8751 7.56913 9.16539Z" fill="#FFF48C"/>
<path d="M10.8282 8.86438C11.4083 9.42096 11.8704 10.0885 12.1872 10.8273C12.504 11.5662 12.6689 12.3612 12.6722 13.165" stroke="#45413C" stroke-width="0.30719" stroke-linecap="round" stroke-linejoin="round"/>
<path d="M9.60149 1.1071C9.31634 0.818386 8.92817 0.654772 8.52239 0.652251C8.1166 0.649731 7.72644 0.808511 7.43772 1.09366C7.14901 1.37881 6.98539 1.76698 6.98287 2.17276C6.98035 2.57855 7.13913 2.96871 7.42428 3.25743C8.98216 4.83613 10.1477 6.75847 10.8272 8.86978C9.93753 8.00349 8.79774 7.43924 7.56943 7.25704C6.66168 7.10083 5.73116 7.13837 4.83895 7.36722C3.94674 7.59606 3.11302 8.01102 2.39252 8.58486C2.19417 8.76148 2.04515 8.98662 1.96006 9.23821C1.87497 9.48979 1.85673 9.75917 1.90715 10.0199C1.95757 10.2807 2.0749 10.5238 2.24764 10.7256C2.42037 10.9273 2.64258 11.0807 2.89247 11.1706C3.17104 11.277 3.47269 11.3081 3.76711 11.2609C4.06152 11.2137 4.33834 11.0899 4.56972 10.9018C4.96029 10.6405 5.40103 10.4635 5.86383 10.3821C6.32663 10.3006 6.80132 10.3165 7.25763 10.4288C7.98905 10.5892 8.62678 11.0335 9.03055 11.6642C9.43432 12.2948 9.57105 13.0599 9.41065 13.7913C9.25025 14.5228 8.80587 15.1605 8.17526 15.5643C7.54466 15.968 6.77949 16.1048 6.04807 15.9444C5.41152 15.7997 4.83383 15.4654 4.39134 14.9854C3.94885 14.5055 3.6624 13.9026 3.56982 13.2564C3.55743 12.8866 3.42151 12.5316 3.18376 12.2481C2.94601 11.9645 2.62013 11.7688 2.25812 11.6921C2.04312 11.6287 1.81646 11.6155 1.59554 11.6534C1.37462 11.6912 1.1653 11.7792 0.983648 11.9105C0.801996 12.0418 0.652834 12.213 0.547604 12.4109C0.442374 12.6088 0.383872 12.8281 0.376587 13.0522V13.0522C0.376587 16.8744 3.53219 21.4008 8.44031 20.7127C12.5367 20.1321 13.9236 18.9656 14.4774 13.794C14.8053 9.93419 13.1979 4.80566 9.60149 1.1071Z" stroke="#45413C" stroke-width="0.30719" stroke-linecap="round" stroke-linejoin="round"/>
</svg>
