<svg width="42" height="47" viewBox="0 0 42 47" fill="none" xmlns="http://www.w3.org/2000/svg">
<path d="M3.61426 0.532328C3.61426 0.567848 3.65299 0.598927 3.70032 0.598927C3.75627 0.598927 3.78639 0.630007 3.78639 0.687725C3.78639 0.745445 3.81651 0.776524 3.87245 0.776524C3.9284 0.776524 3.95852 0.807604 3.95852 0.865322C3.95852 0.923042 3.98864 0.954121 4.04459 0.954121C4.10053 0.954121 4.13065 0.985201 4.13065 1.04292C4.13065 1.10064 4.16077 1.13172 4.21672 1.13172C4.27266 1.13172 4.30278 1.1628 4.30278 1.22052C4.30278 1.27824 4.33291 1.30931 4.38885 1.30931C4.44479 1.30931 4.47491 1.34039 4.47491 1.39811C4.47491 1.45583 4.50504 1.48691 4.56098 1.48691C4.61692 1.48691 4.64705 1.51799 4.64705 1.57571C4.64705 1.63343 4.67717 1.66451 4.73311 1.66451C4.79766 1.66451 4.81918 1.69559 4.81918 1.77551C4.81918 1.85543 4.84069 1.88651 4.90524 1.88651C4.96118 1.88651 4.99131 1.91759 4.99131 1.97531C4.99131 2.03302 5.02143 2.0641 5.07737 2.0641C5.13332 2.0641 5.16344 2.09518 5.16344 2.1529C5.16344 2.21062 5.19356 2.2417 5.2495 2.2417C5.30545 2.2417 5.33557 2.27278 5.33557 2.3305C5.33557 2.38822 5.36569 2.4193 5.42164 2.4193C5.47758 2.4193 5.5077 2.45038 5.5077 2.5081C5.5077 2.56581 5.53782 2.5969 5.59377 2.5969C5.66262 2.5969 5.67983 2.62797 5.67983 2.75229C5.67983 2.87661 5.69705 2.90769 5.7659 2.90769C5.82184 2.90769 5.85196 2.93877 5.85196 2.99649C5.85196 3.05421 5.88209 3.08529 5.93803 3.08529C5.99397 3.08529 6.0241 3.11637 6.0241 3.17409C6.0241 3.2318 6.05422 3.26288 6.11016 3.26288C6.1661 3.26288 6.19623 3.29396 6.19623 3.35168C6.19623 3.4094 6.22635 3.44048 6.28229 3.44048C6.33823 3.44048 6.36836 3.47156 6.36836 3.52928C6.36836 3.587 6.39848 3.61808 6.45442 3.61808C6.51037 3.61808 6.54049 3.64916 6.54049 3.70688C6.54049 3.7646 6.57061 3.79568 6.62655 3.79568C6.6825 3.79568 6.71262 3.82676 6.71262 3.88447C6.71262 3.94219 6.74274 3.97327 6.79869 3.97327C6.85463 3.97327 6.88475 4.00435 6.88475 4.06207C6.88475 4.11979 6.91487 4.15087 6.97082 4.15087C7.02676 4.15087 7.05688 4.18195 7.05688 4.23967C7.05688 4.29739 7.08701 4.32847 7.14295 4.32847C7.2075 4.32847 7.22901 4.35955 7.22901 4.43946C7.22901 4.51938 7.25053 4.55046 7.31508 4.55046C7.37102 4.55046 7.40115 4.58154 7.40115 4.63926C7.40115 4.69698 7.43127 4.72806 7.48721 4.72806C7.54315 4.72806 7.57328 4.75914 7.57328 4.81686C7.57328 4.87458 7.6034 4.90566 7.65934 4.90566C7.71528 4.90566 7.74541 4.93674 7.74541 4.99446C7.74541 5.05218 7.77553 5.08325 7.83147 5.08325C7.88742 5.08325 7.91754 5.11433 7.91754 5.17205C7.91754 5.22977 7.94766 5.26085 8.0036 5.26085C8.05955 5.26085 8.08967 5.29193 8.08967 5.34965C8.08967 5.40737 8.11979 5.43845 8.17574 5.43845C8.24459 5.43845 8.2618 5.46953 8.2618 5.59385C8.2618 5.71816 8.27901 5.74924 8.34787 5.74924C8.40381 5.74924 8.43393 5.78032 8.43393 5.83804C8.43393 5.89576 8.46406 5.92684 8.52 5.92684C8.57594 5.92684 8.60606 5.95792 8.60606 6.01564C8.60606 6.07336 8.63619 6.10444 8.69213 6.10444C8.74807 6.10444 8.7782 6.13552 8.7782 6.19324C8.7782 6.25096 8.80832 6.28203 8.86426 6.28203C8.9202 6.28203 8.95033 6.31312 8.95033 6.37083C8.95033 6.42855 8.98045 6.45963 9.03639 6.45963C9.09233 6.45963 9.12246 6.49071 9.12246 6.54843C9.12246 6.60615 9.15258 6.63723 9.20852 6.63723C9.26447 6.63723 9.29459 6.66831 9.29459 6.72603C9.29459 6.78375 9.32471 6.81483 9.38065 6.81483C9.4366 6.81483 9.46672 6.84591 9.46672 6.90363C9.46672 6.96134 9.49684 6.99242 9.55279 6.99242C9.60873 6.99242 9.63885 7.0235 9.63885 7.08122C9.63885 7.13894 9.66897 7.17002 9.72492 7.17002C9.78947 7.17002 9.81098 7.2011 9.81098 7.28102C9.81098 7.36094 9.8325 7.39202 9.89705 7.39202C9.95299 7.39202 9.98311 7.4231 9.98311 7.48082C9.98311 7.53854 10.0132 7.56961 10.0692 7.56961C10.1251 7.56961 10.1552 7.60069 10.1552 7.65841C10.1552 7.71613 10.1854 7.74721 10.2413 7.74721C10.2973 7.74721 10.3274 7.77829 10.3274 7.83601C10.3274 7.89373 10.3575 7.92481 10.4134 7.92481C10.4694 7.92481 10.4995 7.95589 10.4995 8.01361C10.4995 8.07133 10.5296 8.10241 10.5856 8.10241C10.6415 8.10241 10.6716 8.13349 10.6716 8.19121C10.6716 8.24892 10.7018 8.28 10.7577 8.28C10.8266 8.28 10.8438 8.31108 10.8438 8.4354C10.8438 8.55972 10.861 8.5908 10.9298 8.5908C10.9858 8.5908 11.0159 8.62188 11.0159 8.6796C11.0159 8.73732 11.046 8.7684 11.102 8.7684C11.1579 8.7684 11.188 8.79947 11.188 8.85719C11.188 8.91491 11.2182 8.94599 11.2741 8.94599C11.33 8.94599 11.3602 8.97707 11.3602 9.03479C11.3602 9.09251 11.3903 9.12359 11.4462 9.12359C11.5022 9.12359 11.5323 9.15467 11.5323 9.21239C11.5323 9.27011 11.5624 9.30119 11.6184 9.30119C11.6743 9.30119 11.7044 9.33227 11.7044 9.38999C11.7044 9.4477 11.7345 9.47878 11.7905 9.47878C11.8464 9.47878 11.8766 9.50986 11.8766 9.56758C11.8766 9.6253 11.9067 9.65638 11.9626 9.65638C12.0186 9.65638 12.0487 9.68746 12.0487 9.74518C12.0487 9.8029 12.0788 9.83398 12.1348 9.83398C12.1907 9.83398 12.2208 9.86506 12.2208 9.92278C12.2208 9.9805 12.2509 10.0116 12.3069 10.0116C12.3628 10.0116 12.393 10.0427 12.393 10.1004C12.393 10.1581 12.4231 10.1892 12.479 10.1892C12.535 10.1892 12.5651 10.2203 12.5651 10.278C12.5651 10.3357 12.5952 10.3668 12.6511 10.3668C12.7157 10.3668 12.7372 10.3978 12.7372 10.4778C12.7372 10.5577 12.7587 10.5888 12.8233 10.5888C12.8792 10.5888 12.9093 10.6198 12.9093 10.6776C12.9093 10.7353 12.9395 10.7664 12.9954 10.7664C13.0514 10.7664 13.0815 10.7974 13.0815 10.8552C13.0815 10.9129 13.1116 10.944 13.1675 10.944C13.2235 10.944 13.2536 10.975 13.2536 11.0328C13.2536 11.0905 13.2837 11.1216 13.3397 11.1216C13.3956 11.1216 13.4257 11.1526 13.4257 11.2104C13.4257 11.2681 13.4559 11.2992 13.5118 11.2992C13.5807 11.2992 13.5979 11.3302 13.5979 11.4546C13.5979 11.5789 13.6151 11.61 13.6839 11.61C13.7399 11.61 13.77 11.641 13.77 11.6987C13.77 11.7565 13.8001 11.7875 13.8561 11.7875C13.912 11.7875 13.9421 11.8186 13.9421 11.8763C13.9421 11.9341 13.9723 11.9651 14.0282 11.9651C14.0841 11.9651 14.1143 11.9962 14.1143 12.0539C14.1143 12.1117 14.1444 12.1427 14.2003 12.1427C14.2563 12.1427 14.2864 12.1738 14.2864 12.2315C14.2864 12.2893 14.3165 12.3203 14.3725 12.3203C14.4284 12.3203 14.4585 12.3514 14.4585 12.4091C14.4585 12.4669 14.4886 12.4979 14.5446 12.4979C14.6005 12.4979 14.6307 12.529 14.6307 12.5867C14.6307 12.6445 14.6608 12.6755 14.7167 12.6755C14.7727 12.6755 14.8028 12.7066 14.8028 12.7643C14.8028 12.8221 14.8329 12.8531 14.8889 12.8531C14.9448 12.8531 14.9749 12.8842 14.9749 12.9419C14.9749 12.9996 15.005 13.0307 15.061 13.0307C15.1169 13.0307 15.1471 13.0618 15.1471 13.1195C15.1471 13.1772 15.1772 13.2083 15.2331 13.2083C15.2977 13.2083 15.3192 13.2394 15.3192 13.3193C15.3192 13.3992 15.3407 13.4303 15.4052 13.4303C15.4612 13.4303 15.4913 13.4614 15.4913 13.5191C15.4913 13.5768 15.5214 13.6079 15.5774 13.6079C15.6333 13.6079 15.6634 13.639 15.6634 13.6967C15.6634 13.7544 15.6936 13.7855 15.7495 13.7855C15.8055 13.7855 15.8356 13.8166 15.8356 13.8743C15.8356 13.932 15.8657 13.9631 15.9216 13.9631C15.9776 13.9631 16.0077 13.9942 16.0077 14.0519C16.0077 14.1096 16.0378 14.1407 16.0938 14.1407C16.1497 14.1407 16.1798 14.1718 16.1798 14.2295C16.1798 14.2872 16.21 14.3183 16.2659 14.3183C16.3348 14.3183 16.352 14.3494 16.352 14.4737C16.352 14.598 16.3692 14.6291 16.438 14.6291C16.494 14.6291 16.5241 14.6602 16.5241 14.7179C16.5241 14.7756 16.5542 14.8067 16.6102 14.8067C16.6661 14.8067 16.6962 14.8378 16.6962 14.8955C16.6962 14.9532 16.7264 14.9843 16.7823 14.9843C16.8382 14.9843 16.8684 15.0154 16.8684 15.0731C16.8684 15.1308 16.8985 15.1619 16.9544 15.1619C17.0104 15.1619 17.0405 15.193 17.0405 15.2507C17.0405 15.3084 17.0706 15.3395 17.1266 15.3395C17.1825 15.3395 17.2126 15.3706 17.2126 15.4283C17.2126 15.486 17.2427 15.5171 17.2987 15.5171C17.3546 15.5171 17.3848 15.5482 17.3848 15.6059C17.3848 15.6636 17.4149 15.6947 17.4708 15.6947C17.5268 15.6947 17.5569 15.7258 17.5569 15.7835C17.5569 15.8412 17.587 15.8723 17.643 15.8723C17.6989 15.8723 17.729 15.9034 17.729 15.9611C17.729 16.0188 17.7591 16.0499 17.8151 16.0499C17.871 16.0499 17.9012 16.081 17.9012 16.1387C17.9012 16.1964 17.9313 16.2275 17.9872 16.2275C18.0518 16.2275 18.0733 16.2586 18.0733 16.3385C18.0733 16.4184 18.0948 16.4495 18.1593 16.4495C18.2153 16.4495 18.2454 16.4806 18.2454 16.5383C18.2454 16.596 18.2755 16.6271 18.3315 16.6271C18.3874 16.6271 18.4175 16.6581 18.4175 16.7159C18.4175 16.7736 18.4477 16.8047 18.5036 16.8047C18.5725 16.8047 18.5897 16.8357 18.5897 16.9601C18.5897 17.0844 18.6069 17.1155 18.6757 17.1155C18.7317 17.1155 18.7618 17.1465 18.7618 17.2043C18.7618 17.262 18.7919 17.2931 18.8479 17.2931C18.9038 17.2931 18.9339 17.3241 18.9339 17.3819C18.9339 17.4396 18.9641 17.4707 19.02 17.4707C19.0759 17.4707 19.1061 17.5017 19.1061 17.5595C19.1061 17.6172 19.1362 17.6483 19.1921 17.6483C19.2481 17.6483 19.2782 17.6793 19.2782 17.7371C19.2782 17.7948 19.3083 17.8258 19.3643 17.8258C19.4202 17.8258 19.4503 17.8569 19.4503 17.9146C19.4503 17.9724 19.4805 18.0034 19.5364 18.0034C19.5923 18.0034 19.6225 18.0345 19.6225 18.0922C19.6225 18.15 19.6526 18.181 19.7085 18.181C19.7645 18.181 19.7946 18.2121 19.7946 18.2698C19.7946 18.3276 19.8247 18.3586 19.8807 18.3586C19.9366 18.3586 19.9667 18.3897 19.9667 18.4474C19.9667 18.5052 19.9968 18.5362 20.0528 18.5362C20.1087 18.5362 20.1389 18.5673 20.1389 18.625C20.1389 18.6828 20.169 18.7138 20.2249 18.7138C20.2809 18.7138 20.311 18.7449 20.311 18.8026C20.311 18.8604 20.3411 18.8914 20.3971 18.8914C20.453 18.8914 20.4831 18.9225 20.4831 18.9802C20.4831 19.038 20.5132 19.069 20.5692 19.069C20.6337 19.069 20.6553 19.1001 20.6553 19.18C20.6553 19.2599 20.6768 19.291 20.7413 19.291C20.7973 19.291 20.8274 19.3221 20.8274 19.3798C20.8274 19.4375 20.8575 19.4686 20.9134 19.4686C20.9694 19.4686 20.9995 19.4997 20.9995 19.5574C20.9995 19.6151 21.0296 19.6462 21.0856 19.6462C21.1415 19.6462 21.1716 19.6773 21.1716 19.735C21.1716 19.7927 21.2018 19.8238 21.2577 19.8238C21.3137 19.8238 21.3438 19.8549 21.3438 19.9126C21.3438 19.9703 21.3739 20.0014 21.4298 20.0014C21.4858 20.0014 21.5159 20.0325 21.5159 20.0902C21.5159 20.1479 21.546 20.179 21.602 20.179C21.6579 20.179 21.688 20.2101 21.688 20.2678C21.688 20.3255 21.7182 20.3566 21.7741 20.3566C21.843 20.3566 21.8602 20.3877 21.8602 20.512C21.8602 20.6363 21.8774 20.6674 21.9462 20.6674C22.0022 20.6674 22.0323 20.6985 22.0323 20.7562C22.0323 20.8139 22.0624 20.845 22.1184 20.845C22.1743 20.845 22.2044 20.8761 22.2044 20.9338C22.2044 20.9915 22.2346 21.0226 22.2905 21.0226C22.3464 21.0226 22.3766 21.0537 22.3766 21.1114C22.3766 21.1691 22.4067 21.2002 22.4626 21.2002C22.5186 21.2002 22.5487 21.1691 22.5487 21.1114C22.5487 21.0537 22.5788 21.0226 22.6348 21.0226C22.6907 21.0226 22.7208 20.9915 22.7208 20.9338C22.7208 20.8761 22.7509 20.845 22.8069 20.845C22.8628 20.845 22.893 20.8139 22.893 20.7562C22.893 20.6985 22.9231 20.6674 22.979 20.6674C23.035 20.6674 23.0651 20.6363 23.0651 20.5786C23.0651 20.5209 23.0952 20.4898 23.1512 20.4898C23.2071 20.4898 23.2372 20.4587 23.2372 20.401C23.2372 20.3433 23.2673 20.3122 23.3233 20.3122C23.3792 20.3122 23.4094 20.2811 23.4094 20.2234C23.4094 20.1657 23.4395 20.1346 23.4954 20.1346C23.5514 20.1346 23.5815 20.1035 23.5815 20.0458C23.5815 19.9881 23.6116 19.957 23.6675 19.957C23.7235 19.957 23.7536 19.9259 23.7536 19.8682C23.7536 19.8105 23.7837 19.7794 23.8397 19.7794C23.8956 19.7794 23.9257 19.7483 23.9257 19.6906C23.9257 19.6329 23.9559 19.6018 24.0118 19.6018C24.0807 19.6018 24.0979 19.5707 24.0979 19.4464C24.0979 19.3221 24.1151 19.291 24.1839 19.291C24.2399 19.291 24.27 19.2599 24.27 19.2022C24.27 19.1445 24.3001 19.1134 24.3561 19.1134C24.412 19.1134 24.4421 19.0823 24.4421 19.0246C24.4421 18.9669 24.4723 18.9358 24.5282 18.9358C24.5841 18.9358 24.6143 18.9048 24.6143 18.847C24.6143 18.7893 24.6444 18.7582 24.7003 18.7582C24.7649 18.7582 24.7864 18.7272 24.7864 18.6472C24.7864 18.5673 24.8079 18.5362 24.8725 18.5362C24.9284 18.5362 24.9585 18.5052 24.9585 18.4474C24.9585 18.3897 24.9887 18.3586 25.0446 18.3586C25.1005 18.3586 25.1307 18.3276 25.1307 18.2698C25.1307 18.2121 25.1608 18.181 25.2167 18.181C25.2727 18.181 25.3028 18.15 25.3028 18.0922C25.3028 18.0345 25.3329 18.0034 25.3889 18.0034C25.4448 18.0034 25.4749 17.9724 25.4749 17.9146C25.4749 17.8569 25.505 17.8258 25.561 17.8258C25.6169 17.8258 25.6471 17.7948 25.6471 17.7371C25.6471 17.6793 25.6772 17.6483 25.7331 17.6483C25.7891 17.6483 25.8192 17.6172 25.8192 17.5595C25.8192 17.5017 25.8493 17.4707 25.9053 17.4707C25.9741 17.4707 25.9913 17.4396 25.9913 17.3153C25.9913 17.1909 26.0085 17.1599 26.0774 17.1599C26.1333 17.1599 26.1635 17.1288 26.1635 17.0711C26.1635 17.0133 26.1936 16.9823 26.2495 16.9823C26.3055 16.9823 26.3356 16.9512 26.3356 16.8935C26.3356 16.8357 26.3657 16.8047 26.4216 16.8047C26.4776 16.8047 26.5077 16.7736 26.5077 16.7159C26.5077 16.6581 26.5378 16.6271 26.5938 16.6271C26.6497 16.6271 26.6798 16.596 26.6798 16.5383C26.6798 16.4806 26.71 16.4495 26.7659 16.4495C26.8305 16.4495 26.852 16.4184 26.852 16.3385C26.852 16.2586 26.8735 16.2275 26.938 16.2275C26.994 16.2275 27.0241 16.1964 27.0241 16.1387C27.0241 16.081 27.0542 16.0499 27.1102 16.0499C27.1661 16.0499 27.1962 16.0188 27.1962 15.9611C27.1962 15.9034 27.2264 15.8723 27.2823 15.8723C27.3382 15.8723 27.3684 15.8412 27.3684 15.7835C27.3684 15.7258 27.3985 15.6947 27.4544 15.6947C27.5104 15.6947 27.5405 15.6636 27.5405 15.6059C27.5405 15.5482 27.5706 15.5171 27.6266 15.5171C27.6825 15.5171 27.7126 15.486 27.7126 15.4283C27.7126 15.3706 27.7428 15.3395 27.7987 15.3395C27.8546 15.3395 27.8848 15.3084 27.8848 15.2507C27.8848 15.193 27.9149 15.1619 27.9708 15.1619C28.0268 15.1619 28.0569 15.1308 28.0569 15.0731C28.0569 15.0154 28.087 14.9843 28.143 14.9843C28.1989 14.9843 28.229 14.9532 28.229 14.8955C28.229 14.8378 28.2591 14.8067 28.3151 14.8067C28.371 14.8067 28.4012 14.7756 28.4012 14.7179C28.4012 14.6602 28.4313 14.6291 28.4872 14.6291C28.5604 14.6291 28.5733 14.598 28.5733 14.4515C28.5733 14.305 28.5862 14.2739 28.6594 14.2739C28.7067 14.2739 28.7454 14.2428 28.7454 14.2073C28.7454 14.1585 28.6981 14.1407 28.5733 14.1407C28.4313 14.1407 28.4012 14.1274 28.4012 14.0564C28.4012 13.9898 28.3581 13.9631 28.229 13.9409C28.1301 13.9232 28.0569 13.8876 28.0569 13.8521C28.0569 13.8166 27.9837 13.7811 27.8848 13.7633C27.7858 13.7456 27.7126 13.71 27.7126 13.6745C27.7126 13.639 27.6395 13.6035 27.5405 13.5857C27.4415 13.568 27.3684 13.5324 27.3684 13.4969C27.3684 13.4614 27.2952 13.4259 27.1962 13.4081C27.0973 13.3904 27.0241 13.3548 27.0241 13.3193C27.0241 13.2838 26.951 13.2483 26.852 13.2305C26.7444 13.2128 26.6798 13.1772 26.6798 13.1373C26.6798 13.1018 26.6411 13.0751 26.5938 13.0751C26.5378 13.0751 26.5077 13.044 26.5077 12.9863C26.5077 12.9108 26.4776 12.8975 26.3356 12.8975C26.1936 12.8975 26.1635 12.8842 26.1635 12.8087C26.1635 12.7333 26.1333 12.7199 25.9913 12.7199C25.8493 12.7199 25.8192 12.7066 25.8192 12.6356C25.8192 12.569 25.7762 12.5423 25.6471 12.5201C25.5481 12.5024 25.4749 12.4669 25.4749 12.4313C25.4749 12.3958 25.4018 12.3603 25.3028 12.3425C25.2038 12.3248 25.1307 12.2893 25.1307 12.2537C25.1307 12.2182 25.0575 12.1827 24.9585 12.1649C24.8596 12.1472 24.7864 12.1117 24.7864 12.0761C24.7864 12.0406 24.7132 12.0051 24.6143 11.9873C24.5067 11.9696 24.4421 11.9341 24.4421 11.8941C24.4421 11.8586 24.4034 11.8319 24.3561 11.8319C24.3001 11.8319 24.27 11.8009 24.27 11.7431C24.27 11.6677 24.2399 11.6543 24.0979 11.6543C23.9559 11.6543 23.9257 11.641 23.9257 11.5655C23.9257 11.4901 23.8956 11.4768 23.7536 11.4768C23.6116 11.4768 23.5815 11.4634 23.5815 11.3924C23.5815 11.3258 23.5385 11.2992 23.4094 11.277C23.3104 11.2592 23.2372 11.2237 23.2372 11.1882C23.2372 11.1526 23.1641 11.1171 23.0651 11.0994C22.9661 11.0816 22.893 11.0461 22.893 11.0106C22.893 10.975 22.8198 10.9395 22.7208 10.9218C22.6219 10.904 22.5487 10.8685 22.5487 10.833C22.5487 10.7974 22.4755 10.7619 22.3766 10.7442C22.269 10.7264 22.2044 10.6909 22.2044 10.6509C22.2044 10.6154 22.1657 10.5888 22.1184 10.5888C22.0624 10.5888 22.0323 10.5577 22.0323 10.5C22.0323 10.4245 22.0022 10.4112 21.8602 10.4112C21.7182 10.4112 21.688 10.3978 21.688 10.3224C21.688 10.2469 21.6579 10.2336 21.5159 10.2336C21.3739 10.2336 21.3438 10.2203 21.3438 10.1492C21.3438 10.0826 21.3007 10.056 21.1716 10.0338C21.0727 10.016 20.9995 9.9805 20.9995 9.94498C20.9995 9.90946 20.9264 9.87394 20.8274 9.85618C20.7284 9.83842 20.6553 9.8029 20.6553 9.76738C20.6553 9.73186 20.5821 9.69634 20.4831 9.67858C20.3841 9.66082 20.311 9.6253 20.311 9.58978C20.311 9.55426 20.2378 9.51874 20.1389 9.50098C20.0313 9.48322 19.9667 9.4477 19.9667 9.40775C19.9667 9.37223 19.928 9.34559 19.8807 9.34559C19.8247 9.34559 19.7946 9.31451 19.7946 9.25679C19.7946 9.18131 19.7645 9.16799 19.6225 9.16799C19.4805 9.16799 19.4503 9.15467 19.4503 9.08363C19.4503 9.01703 19.4073 8.99039 19.2782 8.96819C19.1792 8.95043 19.1061 8.91491 19.1061 8.87939C19.1061 8.84387 19.0329 8.80835 18.9339 8.7906C18.835 8.77283 18.7618 8.73732 18.7618 8.7018C18.7618 8.66628 18.6887 8.63076 18.5897 8.613C18.4907 8.59524 18.4175 8.55972 18.4175 8.5242C18.4175 8.48868 18.3444 8.45316 18.2454 8.4354C18.1378 8.41764 18.0733 8.38212 18.0733 8.34216C18.0733 8.30664 18.0346 8.28 17.9872 8.28C17.9313 8.28 17.9012 8.24892 17.9012 8.19121C17.9012 8.11573 17.871 8.10241 17.729 8.10241C17.587 8.10241 17.5569 8.08909 17.5569 8.01361C17.5569 7.93813 17.5268 7.92481 17.3848 7.92481C17.2427 7.92481 17.2126 7.91149 17.2126 7.84045C17.2126 7.77385 17.1696 7.74721 17.0405 7.72501C16.9415 7.70725 16.8684 7.67173 16.8684 7.63621C16.8684 7.60069 16.7952 7.56518 16.6962 7.54741C16.5973 7.52966 16.5241 7.49414 16.5241 7.45862C16.5241 7.4231 16.4509 7.38758 16.352 7.36982C16.253 7.35206 16.1798 7.31654 16.1798 7.28102C16.1798 7.2455 16.1067 7.20998 16.0077 7.19222C15.9001 7.17446 15.8356 7.13894 15.8356 7.09898C15.8356 7.06346 15.7968 7.03682 15.7495 7.03682C15.6936 7.03682 15.6634 7.00574 15.6634 6.94802C15.6634 6.87255 15.6333 6.85923 15.4913 6.85923C15.3493 6.85923 15.3192 6.84591 15.3192 6.77043C15.3192 6.69495 15.2891 6.68163 15.1471 6.68163C15.005 6.68163 14.9749 6.66831 14.9749 6.59727C14.9749 6.53067 14.9319 6.50403 14.8028 6.48183C14.7038 6.46407 14.6307 6.42855 14.6307 6.39303C14.6307 6.35751 14.5575 6.32199 14.4585 6.30423C14.3596 6.28648 14.2864 6.25096 14.2864 6.21544C14.2864 6.17992 14.2132 6.1444 14.1143 6.12664C14.0153 6.10888 13.9421 6.07336 13.9421 6.03784C13.9421 6.00232 13.869 5.9668 13.77 5.94904C13.671 5.93128 13.5979 5.89576 13.5979 5.86024C13.5979 5.82472 13.5247 5.7892 13.4257 5.77144C13.3182 5.75368 13.2536 5.71816 13.2536 5.67821C13.2536 5.64269 13.2149 5.61605 13.1675 5.61605C13.1116 5.61605 13.0815 5.58497 13.0815 5.52725C13.0815 5.45177 13.0514 5.43845 12.9093 5.43845C12.7673 5.43845 12.7372 5.42513 12.7372 5.34965C12.7372 5.27417 12.7071 5.26085 12.5651 5.26085C12.4231 5.26085 12.393 5.24753 12.393 5.17649C12.393 5.10989 12.3499 5.08325 12.2208 5.06105C12.1218 5.04329 12.0487 5.00778 12.0487 4.97226C12.0487 4.93674 11.9755 4.90122 11.8766 4.88346C11.7776 4.8657 11.7044 4.83018 11.7044 4.79466C11.7044 4.75914 11.6313 4.72362 11.5323 4.70586C11.4247 4.6881 11.3602 4.65258 11.3602 4.61262C11.3602 4.5771 11.3214 4.55046 11.2741 4.55046C11.2182 4.55046 11.188 4.51938 11.188 4.46166C11.188 4.38619 11.1579 4.37287 11.0159 4.37287C10.8739 4.37287 10.8438 4.35955 10.8438 4.28851C10.8438 4.22191 10.8007 4.19527 10.6716 4.17307C10.5727 4.15531 10.4995 4.11979 10.4995 4.08427C10.4995 4.04875 10.4264 4.01323 10.3274 3.99547C10.2284 3.97771 10.1552 3.94219 10.1552 3.90667C10.1552 3.87115 10.0821 3.83563 9.98311 3.81787C9.88414 3.80012 9.81098 3.7646 9.81098 3.72908C9.81098 3.69356 9.73783 3.65804 9.63885 3.64028C9.53988 3.62252 9.46672 3.587 9.46672 3.55148C9.46672 3.51596 9.39356 3.48044 9.29459 3.46268C9.18701 3.44492 9.12246 3.4094 9.12246 3.36944C9.12246 3.33392 9.08373 3.30728 9.03639 3.30728C8.98045 3.30728 8.95033 3.2762 8.95033 3.21848C8.95033 3.14301 8.9202 3.12969 8.7782 3.12969C8.63619 3.12969 8.60606 3.11637 8.60606 3.04533C8.60606 2.97873 8.56303 2.95209 8.43393 2.92989C8.33496 2.91213 8.2618 2.87661 8.2618 2.84109C8.2618 2.80557 8.18865 2.77005 8.08967 2.75229C7.99069 2.73453 7.91754 2.69901 7.91754 2.66349C7.91754 2.62797 7.84438 2.59245 7.74541 2.5747C7.64643 2.55693 7.57328 2.52142 7.57328 2.4859C7.57328 2.45038 7.50012 2.41486 7.40115 2.3971C7.29356 2.37934 7.22901 2.34382 7.22901 2.30386C7.22901 2.26834 7.19028 2.2417 7.14295 2.2417C7.08701 2.2417 7.05688 2.21062 7.05688 2.1529C7.05688 2.07742 7.02676 2.0641 6.88475 2.0641C6.74274 2.0641 6.71262 2.05078 6.71262 1.97974C6.71262 1.91315 6.66959 1.88651 6.54049 1.86431C6.44151 1.84655 6.36836 1.81103 6.36836 1.77551C6.36836 1.73999 6.2952 1.70447 6.19623 1.68671C6.09725 1.66895 6.0241 1.63343 6.0241 1.59791C6.0241 1.56239 5.95094 1.52687 5.85196 1.50911C5.75299 1.49135 5.67983 1.45583 5.67983 1.42031C5.67983 1.38479 5.60668 1.34928 5.5077 1.33151C5.40012 1.31376 5.33557 1.27824 5.33557 1.23828C5.33557 1.20276 5.29684 1.17612 5.2495 1.17612C5.19356 1.17612 5.16344 1.14504 5.16344 1.08732C5.16344 1.01184 5.13332 0.99852 4.99131 0.99852C4.8493 0.99852 4.81918 0.985201 4.81918 0.909721C4.81918 0.834244 4.78905 0.820923 4.64705 0.820923C4.50504 0.820923 4.47491 0.807604 4.47491 0.736565C4.47491 0.669966 4.43188 0.643326 4.30278 0.621126C4.1952 0.603367 4.13065 0.567848 4.13065 0.527887C4.13065 0.483488 4.0661 0.465729 3.87245 0.465729C3.6702 0.465729 3.61426 0.479048 3.61426 0.532328Z" fill="white"/>
<path d="M0.443237 1.87328C0.361475 1.89104 0.344262 1.92212 0.344262 2.06864C0.344262 2.21072 0.331352 2.24179 0.258197 2.24179C0.180738 2.24179 0.172131 2.27288 0.172131 2.48599C0.172131 2.69911 0.163525 2.73019 0.0860655 2.73019C0 2.73019 0 2.76127 0 23.5313C0 44.3013 0 44.3324 0.0860655 44.3324C0.163525 44.3324 0.172131 44.3635 0.172131 44.5988C0.172131 44.8341 0.180738 44.8652 0.258197 44.8652C0.331352 44.8652 0.344262 44.8962 0.344262 45.0428C0.344262 45.1893 0.357172 45.2204 0.430328 45.2204C0.490574 45.2204 0.516393 45.2514 0.516393 45.3136C0.516393 45.398 0.533606 45.4068 0.649795 45.3802C0.72295 45.3669 0.800409 45.3536 0.821926 45.3536C0.843442 45.3536 0.860655 45.3136 0.860655 45.2648C0.860655 45.207 0.890778 45.176 0.946721 45.176C1.01557 45.176 1.03279 45.1449 1.03279 45.0206C1.03279 44.8962 1.05 44.8652 1.11885 44.8652C1.17479 44.8652 1.20492 44.8341 1.20492 44.7764C1.20492 44.7187 1.23504 44.6876 1.29098 44.6876C1.34693 44.6876 1.37705 44.6565 1.37705 44.5988C1.37705 44.5411 1.40717 44.51 1.46311 44.51C1.51906 44.51 1.54918 44.4789 1.54918 44.4212C1.54918 44.3635 1.5793 44.3324 1.63525 44.3324C1.69119 44.3324 1.72131 44.3013 1.72131 44.2436C1.72131 44.1859 1.75143 44.1548 1.80738 44.1548C1.87193 44.1548 1.89344 44.1237 1.89344 44.0438C1.89344 43.9639 1.91496 43.9328 1.97951 43.9328C2.03545 43.9328 2.06557 43.9017 2.06557 43.844C2.06557 43.7863 2.0957 43.7552 2.15164 43.7552C2.20758 43.7552 2.2377 43.7241 2.2377 43.6664C2.2377 43.6087 2.26783 43.5776 2.32377 43.5776C2.37971 43.5776 2.40983 43.5465 2.40983 43.4888C2.40983 43.4311 2.43996 43.4 2.4959 43.4C2.55184 43.4 2.58197 43.3689 2.58197 43.3112C2.58197 43.2535 2.61209 43.2224 2.66803 43.2224C2.72397 43.2224 2.7541 43.1913 2.7541 43.1336C2.7541 43.0759 2.78422 43.0448 2.84016 43.0448C2.89611 43.0448 2.92623 43.0137 2.92623 42.956C2.92623 42.8983 2.95635 42.8672 3.01229 42.8672C3.06824 42.8672 3.09836 42.8361 3.09836 42.7784C3.09836 42.7207 3.12848 42.6896 3.18442 42.6896C3.25328 42.6896 3.27049 42.6585 3.27049 42.5342C3.27049 42.4099 3.2877 42.3788 3.35656 42.3788C3.4125 42.3788 3.44262 42.3477 3.44262 42.29C3.44262 42.2323 3.47274 42.2012 3.52869 42.2012C3.58463 42.2012 3.61475 42.1701 3.61475 42.1124C3.61475 42.0547 3.64488 42.0236 3.70082 42.0236C3.75676 42.0236 3.78688 41.9925 3.78688 41.9348C3.78688 41.8771 3.81701 41.846 3.87295 41.846C3.92889 41.846 3.95901 41.8149 3.95901 41.7572C3.95901 41.6995 3.98914 41.6684 4.04508 41.6684C4.10963 41.6684 4.13115 41.6373 4.13115 41.5574C4.13115 41.4775 4.15266 41.4464 4.21721 41.4464C4.27315 41.4464 4.30328 41.4153 4.30328 41.3576C4.30328 41.2999 4.3334 41.2688 4.38934 41.2688C4.44528 41.2688 4.47541 41.2377 4.47541 41.18C4.47541 41.1223 4.50553 41.0912 4.56147 41.0912C4.61742 41.0912 4.64754 41.0601 4.64754 41.0024C4.64754 40.9447 4.67766 40.9136 4.7336 40.9136C4.78955 40.9136 4.81967 40.8825 4.81967 40.8248C4.81967 40.7671 4.84979 40.736 4.90574 40.736C4.96168 40.736 4.9918 40.705 4.9918 40.6472C4.9918 40.5895 5.02192 40.5584 5.07787 40.5584C5.13381 40.5584 5.16393 40.5274 5.16393 40.4696C5.16393 40.4119 5.19405 40.3808 5.25 40.3808C5.30594 40.3808 5.33606 40.3498 5.33606 40.292C5.33606 40.2343 5.36619 40.2032 5.42213 40.2032C5.47807 40.2032 5.50819 40.1722 5.50819 40.1144C5.50819 40.0567 5.53832 40.0256 5.59426 40.0256C5.66311 40.0256 5.68033 39.9946 5.68033 39.8702C5.68033 39.7459 5.69754 39.7148 5.76639 39.7148C5.82233 39.7148 5.85246 39.6838 5.85246 39.626C5.85246 39.5683 5.88258 39.5372 5.93852 39.5372C5.99446 39.5372 6.02459 39.5062 6.02459 39.4484C6.02459 39.3907 6.05471 39.3597 6.11065 39.3597C6.1666 39.3597 6.19672 39.3286 6.19672 39.2709C6.19672 39.2131 6.22684 39.1821 6.28278 39.1821C6.33873 39.1821 6.36885 39.151 6.36885 39.0933C6.36885 39.0355 6.39897 39.0045 6.45492 39.0045C6.51946 39.0045 6.54098 38.9734 6.54098 38.8935C6.54098 38.8135 6.5625 38.7825 6.62705 38.7825C6.68299 38.7825 6.71311 38.7514 6.71311 38.6937C6.71311 38.6359 6.74323 38.6049 6.79918 38.6049C6.85512 38.6049 6.88524 38.5738 6.88524 38.5161C6.88524 38.4583 6.91537 38.4273 6.97131 38.4273C7.02725 38.4273 7.05737 38.3962 7.05737 38.3385C7.05737 38.2807 7.0875 38.2497 7.14344 38.2497C7.19938 38.2497 7.2295 38.2186 7.2295 38.1609C7.2295 38.1031 7.25963 38.0721 7.31557 38.0721C7.37151 38.0721 7.40164 38.041 7.40164 37.9833C7.40164 37.9256 7.43176 37.8945 7.4877 37.8945C7.54364 37.8945 7.57377 37.8634 7.57377 37.8057C7.57377 37.748 7.60389 37.7169 7.65983 37.7169C7.71578 37.7169 7.7459 37.6858 7.7459 37.6281C7.7459 37.5704 7.77602 37.5393 7.83196 37.5393C7.90082 37.5393 7.91803 37.5082 7.91803 37.3839C7.91803 37.2596 7.93524 37.2285 8.00409 37.2285C8.06004 37.2285 8.09016 37.1974 8.09016 37.1397C8.09016 37.082 8.12028 37.0509 8.17623 37.0509C8.23217 37.0509 8.26229 37.0198 8.26229 36.9621C8.26229 36.9044 8.29241 36.8733 8.34836 36.8733C8.4043 36.8733 8.43442 36.8422 8.43442 36.7845C8.43442 36.7268 8.46455 36.6957 8.52049 36.6957C8.57643 36.6957 8.60655 36.6646 8.60655 36.6069C8.60655 36.5492 8.63668 36.5181 8.69262 36.5181C8.75717 36.5181 8.77868 36.487 8.77868 36.4071C8.77868 36.3272 8.8002 36.2961 8.86475 36.2961C8.92069 36.2961 8.95082 36.265 8.95082 36.2073C8.95082 36.1496 8.98094 36.1185 9.03688 36.1185C9.09282 36.1185 9.12295 36.0874 9.12295 36.0297C9.12295 35.972 9.15307 35.9409 9.20901 35.9409C9.26495 35.9409 9.29508 35.9098 9.29508 35.8521C9.29508 35.7944 9.3252 35.7633 9.38114 35.7633C9.43709 35.7633 9.46721 35.7322 9.46721 35.6745C9.46721 35.6168 9.49733 35.5857 9.55327 35.5857C9.60922 35.5857 9.63934 35.5546 9.63934 35.4969C9.63934 35.4392 9.66946 35.4081 9.7254 35.4081C9.78135 35.4081 9.81147 35.377 9.81147 35.3193C9.81147 35.2616 9.84159 35.2305 9.89754 35.2305C9.95348 35.2305 9.9836 35.1994 9.9836 35.1417C9.9836 35.084 10.0137 35.0529 10.0697 35.0529C10.1385 35.0529 10.1557 35.0218 10.1557 34.8975C10.1557 34.7732 10.1729 34.7421 10.2418 34.7421C10.2977 34.7421 10.3279 34.711 10.3279 34.6533C10.3279 34.5956 10.358 34.5645 10.4139 34.5645C10.4699 34.5645 10.5 34.5334 10.5 34.4757C10.5 34.418 10.5301 34.3869 10.5861 34.3869C10.642 34.3869 10.6721 34.3558 10.6721 34.2981C10.6721 34.2404 10.7022 34.2093 10.7582 34.2093C10.8141 34.2093 10.8443 34.1782 10.8443 34.1205C10.8443 34.0628 10.8744 34.0317 10.9303 34.0317C10.9949 34.0317 11.0164 34.0006 11.0164 33.9207C11.0164 33.8408 11.0379 33.8097 11.1025 33.8097C11.1584 33.8097 11.1885 33.7787 11.1885 33.7209C11.1885 33.6632 11.2186 33.6321 11.2746 33.6321C11.3305 33.6321 11.3607 33.6011 11.3607 33.5433C11.3607 33.4856 11.3908 33.4545 11.4467 33.4545C11.5027 33.4545 11.5328 33.4235 11.5328 33.3657C11.5328 33.308 11.5629 33.2769 11.6188 33.2769C11.6748 33.2769 11.7049 33.2459 11.7049 33.1881C11.7049 33.1304 11.735 33.0993 11.791 33.0993C11.8469 33.0993 11.877 33.0683 11.877 33.0105C11.877 32.9528 11.9072 32.9217 11.9631 32.9217C12.0191 32.9217 12.0492 32.8907 12.0492 32.8329C12.0492 32.7752 12.0793 32.7441 12.1352 32.7441C12.2041 32.7441 12.2213 32.7131 12.2213 32.5932C12.2213 32.4511 12.2299 32.4378 12.3934 32.4112C12.557 32.3845 12.5656 32.3712 12.5656 32.2291C12.5656 32.1092 12.5828 32.0782 12.6516 32.0782C12.7076 32.0782 12.7377 32.0471 12.7377 31.9894C12.7377 31.9316 12.7678 31.9006 12.8238 31.9006C12.8797 31.9006 12.9098 31.8695 12.9098 31.8118C12.9098 31.754 12.94 31.723 12.9959 31.723C13.0604 31.723 13.082 31.6919 13.082 31.612C13.082 31.532 13.1035 31.501 13.168 31.501C13.224 31.501 13.2541 31.4699 13.2541 31.4122C13.2541 31.3544 13.2842 31.3234 13.3402 31.3234C13.3961 31.3234 13.4262 31.2923 13.4262 31.2346C13.4262 31.1769 13.4563 31.1458 13.5123 31.1458C13.5682 31.1458 13.5984 31.1147 13.5984 31.057C13.5984 30.9993 13.6285 30.9682 13.6844 30.9682C13.7404 30.9682 13.7705 30.9371 13.7705 30.8794C13.7705 30.8217 13.8006 30.7906 13.8566 30.7906C13.9125 30.7906 13.9426 30.7595 13.9426 30.7018C13.9426 30.6441 13.9727 30.613 14.0287 30.613C14.0846 30.613 14.1147 30.5819 14.1147 30.5242C14.1147 30.4665 14.1449 30.4354 14.2008 30.4354C14.2568 30.4354 14.2869 30.4043 14.2869 30.3466C14.2869 30.2889 14.317 30.2578 14.3729 30.2578C14.4418 30.2578 14.459 30.2267 14.459 30.1024C14.459 29.9781 14.4762 29.947 14.5451 29.947C14.601 29.947 14.6311 29.9159 14.6311 29.8582C14.6311 29.8005 14.6613 29.7694 14.7172 29.7694C14.7731 29.7694 14.8033 29.7383 14.8033 29.6806C14.8033 29.6229 14.8334 29.5918 14.8893 29.5918C14.9453 29.5918 14.9754 29.5607 14.9754 29.503C14.9754 29.4453 15.0055 29.4142 15.0615 29.4142C15.1174 29.4142 15.1475 29.3831 15.1475 29.3254C15.1475 29.2677 15.1777 29.2366 15.2336 29.2366C15.2981 29.2366 15.3197 29.2055 15.3197 29.1256C15.3197 29.0457 15.3412 29.0146 15.4057 29.0146C15.4617 29.0146 15.4918 28.9835 15.4918 28.9258C15.4918 28.8681 15.5219 28.837 15.5779 28.837C15.6338 28.837 15.6639 28.8059 15.6639 28.7482C15.6639 28.6905 15.694 28.6594 15.75 28.6594C15.8059 28.6594 15.8361 28.6283 15.8361 28.5706C15.8361 28.5129 15.8662 28.4818 15.9221 28.4818C15.9781 28.4818 16.0082 28.4507 16.0082 28.393C16.0082 28.3353 16.0383 28.3042 16.0943 28.3042C16.1502 28.3042 16.1803 28.2731 16.1803 28.2154C16.1803 28.1577 16.2104 28.1266 16.2664 28.1266C16.3223 28.1266 16.3525 28.0955 16.3525 28.0378C16.3525 27.9801 16.3826 27.949 16.4385 27.949C16.4945 27.949 16.5246 27.9179 16.5246 27.8602C16.5246 27.8025 16.5547 27.7714 16.6106 27.7714C16.6666 27.7714 16.6967 27.7403 16.6967 27.6826C16.6967 27.6249 16.7268 27.5938 16.7828 27.5938C16.8387 27.5938 16.8688 27.5627 16.8688 27.505C16.8688 27.4473 16.899 27.4162 16.9549 27.4162C17.0238 27.4162 17.041 27.3851 17.041 27.2608C17.041 27.1365 17.0582 27.1054 17.127 27.1054C17.183 27.1054 17.2131 27.0744 17.2131 27.0166C17.2131 26.9589 17.2432 26.9278 17.2992 26.9278C17.3551 26.9278 17.3852 26.8968 17.3852 26.839C17.3852 26.7813 17.4154 26.7502 17.4713 26.7502C17.5272 26.7502 17.5574 26.7192 17.5574 26.6614C17.5574 26.6037 17.5875 26.5726 17.6434 26.5726C17.708 26.5726 17.7295 26.5416 17.7295 26.4616C17.7295 26.3817 17.751 26.3506 17.8156 26.3506C17.8715 26.3506 17.9016 26.3196 17.9016 26.2618C17.9016 26.2041 17.9318 26.173 17.9877 26.173C18.0436 26.173 18.0738 26.142 18.0738 26.0842C18.0738 26.0265 18.1039 25.9954 18.1598 25.9954C18.2158 25.9954 18.2459 25.9644 18.2459 25.9066C18.2459 25.8489 18.276 25.8178 18.332 25.8178C18.3879 25.8178 18.418 25.7868 18.418 25.729C18.418 25.6713 18.4481 25.6403 18.5041 25.6403C18.56 25.6403 18.5902 25.6092 18.5902 25.5515C18.5902 25.4937 18.6203 25.4627 18.6762 25.4627C18.7322 25.4627 18.7623 25.4316 18.7623 25.3739C18.7623 25.3161 18.7924 25.2851 18.8484 25.2851C18.9043 25.2851 18.9344 25.254 18.9344 25.1963C18.9344 25.1385 18.9645 25.1075 19.0205 25.1075C19.0893 25.1075 19.1065 25.0764 19.1065 24.9521C19.1065 24.8277 19.1238 24.7967 19.1926 24.7967C19.2486 24.7967 19.2787 24.7656 19.2787 24.7079C19.2787 24.6501 19.3088 24.6191 19.3647 24.6191C19.4207 24.6191 19.4508 24.588 19.4508 24.5303C19.4508 24.4725 19.4809 24.4415 19.5369 24.4415C19.5928 24.4415 19.6229 24.4104 19.6229 24.3527C19.6229 24.295 19.6531 24.2639 19.709 24.2639C19.7649 24.2639 19.7951 24.2328 19.7951 24.1751C19.7951 24.1174 19.8252 24.0863 19.8811 24.0863C19.9371 24.0863 19.9672 24.0552 19.9672 23.9975C19.9672 23.9398 19.9973 23.9087 20.0533 23.9087C20.1178 23.9087 20.1393 23.8776 20.1393 23.7977C20.1393 23.7178 20.1609 23.6867 20.2254 23.6867C20.2943 23.6867 20.3115 23.6556 20.3115 23.5313C20.3115 23.407 20.2943 23.3759 20.2254 23.3759C20.1695 23.3759 20.1393 23.3448 20.1393 23.2871C20.1393 23.2294 20.1092 23.1983 20.0533 23.1983C19.9973 23.1983 19.9672 23.1672 19.9672 23.1095C19.9672 23.0518 19.9371 23.0207 19.8811 23.0207C19.8252 23.0207 19.7951 22.9896 19.7951 22.9319C19.7951 22.8742 19.7649 22.8431 19.709 22.8431C19.6531 22.8431 19.6229 22.812 19.6229 22.7543C19.6229 22.6966 19.5928 22.6655 19.5369 22.6655C19.4809 22.6655 19.4508 22.6344 19.4508 22.5767C19.4508 22.519 19.4207 22.4879 19.3647 22.4879C19.3002 22.4879 19.2787 22.4568 19.2787 22.3769C19.2787 22.297 19.2572 22.2659 19.1926 22.2659C19.1367 22.2659 19.1065 22.2348 19.1065 22.1771C19.1065 22.1194 19.0764 22.0883 19.0205 22.0883C18.9645 22.0883 18.9344 22.0572 18.9344 21.9995C18.9344 21.9418 18.9043 21.9107 18.8484 21.9107C18.7924 21.9107 18.7623 21.8796 18.7623 21.8219C18.7623 21.7642 18.7322 21.7331 18.6762 21.7331C18.6074 21.7331 18.5902 21.702 18.5902 21.5777C18.5902 21.4534 18.5729 21.4223 18.5041 21.4223C18.4481 21.4223 18.418 21.3912 18.418 21.3335C18.418 21.2758 18.3879 21.2447 18.332 21.2447C18.276 21.2447 18.2459 21.2136 18.2459 21.1559C18.2459 21.0982 18.2158 21.0671 18.1598 21.0671C18.1039 21.0671 18.0738 21.036 18.0738 20.9783C18.0738 20.9206 18.0436 20.8895 17.9877 20.8895C17.9318 20.8895 17.9016 20.8584 17.9016 20.8007C17.9016 20.743 17.8715 20.7119 17.8156 20.7119C17.7596 20.7119 17.7295 20.6808 17.7295 20.6231C17.7295 20.5654 17.6994 20.5343 17.6434 20.5343C17.5875 20.5343 17.5574 20.5032 17.5574 20.4455C17.5574 20.3878 17.5272 20.3567 17.4713 20.3567C17.4154 20.3567 17.3852 20.3256 17.3852 20.2679C17.3852 20.2102 17.3551 20.1791 17.2992 20.1791C17.2346 20.1791 17.2131 20.1481 17.2131 20.0681C17.2131 19.9882 17.1916 19.9571 17.127 19.9571C17.0711 19.9571 17.041 19.9261 17.041 19.8683C17.041 19.8106 17.0109 19.7795 16.9549 19.7795C16.899 19.7795 16.8688 19.7485 16.8688 19.6907C16.8688 19.633 16.8387 19.6019 16.7828 19.6019C16.7268 19.6019 16.6967 19.5709 16.6967 19.5131C16.6967 19.4554 16.6666 19.4243 16.6106 19.4243C16.5547 19.4243 16.5246 19.3933 16.5246 19.3355C16.5246 19.2778 16.4945 19.2467 16.4385 19.2467C16.3826 19.2467 16.3525 19.2157 16.3525 19.1579C16.3525 19.1002 16.3223 19.0691 16.2664 19.0691C16.1975 19.0691 16.1803 19.0381 16.1803 18.9137C16.1803 18.7894 16.1631 18.7584 16.0943 18.7584C16.0383 18.7584 16.0082 18.7273 16.0082 18.6696C16.0082 18.6118 15.9781 18.5808 15.9221 18.5808C15.8662 18.5808 15.8361 18.5497 15.8361 18.492C15.8361 18.4342 15.8059 18.4032 15.75 18.4032C15.694 18.4032 15.6639 18.3721 15.6639 18.3144C15.6639 18.2566 15.6338 18.2256 15.5779 18.2256C15.5219 18.2256 15.4918 18.1945 15.4918 18.1368C15.4918 18.079 15.4617 18.048 15.4057 18.048C15.3498 18.048 15.3197 18.0169 15.3197 17.9592C15.3197 17.9014 15.2895 17.8704 15.2336 17.8704C15.1777 17.8704 15.1475 17.8393 15.1475 17.7816C15.1475 17.7238 15.1174 17.6928 15.0615 17.6928C15.0055 17.6928 14.9754 17.6617 14.9754 17.604C14.9754 17.5462 14.9453 17.5152 14.8893 17.5152C14.8334 17.5152 14.8033 17.4841 14.8033 17.4264C14.8033 17.3687 14.7731 17.3376 14.7172 17.3376C14.6527 17.3376 14.6311 17.3065 14.6311 17.2266C14.6311 17.1467 14.6096 17.1156 14.5451 17.1156C14.4891 17.1156 14.459 17.0845 14.459 17.0268C14.459 16.9691 14.4289 16.938 14.3729 16.938C14.317 16.938 14.2869 16.9069 14.2869 16.8492C14.2869 16.7915 14.2568 16.7604 14.2008 16.7604C14.1449 16.7604 14.1147 16.7293 14.1147 16.6716C14.1147 16.6139 14.0846 16.5828 14.0287 16.5828C13.9727 16.5828 13.9426 16.5517 13.9426 16.494C13.9426 16.4363 13.9125 16.4052 13.8566 16.4052C13.7877 16.4052 13.7705 16.3741 13.7705 16.2498C13.7705 16.1255 13.7533 16.0944 13.6844 16.0944C13.6285 16.0944 13.5984 16.0633 13.5984 16.0056C13.5984 15.9479 13.5682 15.9168 13.5123 15.9168C13.4563 15.9168 13.4262 15.8857 13.4262 15.828C13.4262 15.7703 13.3961 15.7392 13.3402 15.7392C13.2842 15.7392 13.2541 15.7081 13.2541 15.6504C13.2541 15.5927 13.224 15.5616 13.168 15.5616C13.1121 15.5616 13.082 15.5305 13.082 15.4728C13.082 15.4151 13.0518 15.384 12.9959 15.384C12.94 15.384 12.9098 15.3529 12.9098 15.2952C12.9098 15.2375 12.8797 15.2064 12.8238 15.2064C12.7678 15.2064 12.7377 15.1753 12.7377 15.1176C12.7377 15.0599 12.7076 15.0288 12.6516 15.0288C12.5957 15.0288 12.5656 14.9977 12.5656 14.94C12.5656 14.8823 12.5354 14.8512 12.4795 14.8512C12.4236 14.8512 12.3934 14.8201 12.3934 14.7624C12.3934 14.7047 12.3633 14.6736 12.3074 14.6736C12.2514 14.6736 12.2213 14.6425 12.2213 14.5848C12.2213 14.5271 12.1912 14.496 12.1352 14.496C12.0707 14.496 12.0492 14.4649 12.0492 14.385C12.0492 14.3051 12.0277 14.274 11.9631 14.274C11.9072 14.274 11.877 14.2429 11.877 14.1852C11.877 14.1275 11.8469 14.0964 11.791 14.0964C11.735 14.0964 11.7049 14.0653 11.7049 14.0076C11.7049 13.9499 11.6748 13.9188 11.6188 13.9188C11.5629 13.9188 11.5328 13.8877 11.5328 13.83C11.5328 13.7723 11.5027 13.7412 11.4467 13.7412C11.3908 13.7412 11.3607 13.7101 11.3607 13.6524C11.3607 13.5947 11.3305 13.5636 11.2746 13.5636C11.2057 13.5636 11.1885 13.5325 11.1885 13.4082C11.1885 13.2839 11.1713 13.2528 11.1025 13.2528C11.0465 13.2528 11.0164 13.2218 11.0164 13.164C11.0164 13.1063 10.9863 13.0752 10.9303 13.0752C10.8744 13.0752 10.8443 13.0442 10.8443 12.9864C10.8443 12.9287 10.8141 12.8976 10.7582 12.8976C10.7022 12.8976 10.6721 12.8666 10.6721 12.8088C10.6721 12.7511 10.642 12.72 10.5861 12.72C10.5301 12.72 10.5 12.689 10.5 12.6312C10.5 12.5735 10.4699 12.5424 10.4139 12.5424C10.358 12.5424 10.3279 12.5114 10.3279 12.4536C10.3279 12.3959 10.2977 12.3648 10.2418 12.3648C10.1859 12.3648 10.1557 12.3338 10.1557 12.276C10.1557 12.2183 10.1256 12.1872 10.0697 12.1872C10.0137 12.1872 9.9836 12.1562 9.9836 12.0984C9.9836 12.0407 9.95348 12.0097 9.89754 12.0097C9.84159 12.0097 9.81147 11.9786 9.81147 11.9209C9.81147 11.8631 9.78135 11.8321 9.7254 11.8321C9.66946 11.8321 9.63934 11.801 9.63934 11.7433C9.63934 11.6855 9.60922 11.6545 9.55327 11.6545C9.49733 11.6545 9.46721 11.6234 9.46721 11.5657C9.46721 11.5079 9.43709 11.4769 9.38114 11.4769C9.31659 11.4769 9.29508 11.4458 9.29508 11.3659C9.29508 11.2859 9.27356 11.2549 9.20901 11.2549C9.15307 11.2549 9.12295 11.2238 9.12295 11.1661C9.12295 11.1083 9.09282 11.0773 9.03688 11.0773C8.98094 11.0773 8.95082 11.0462 8.95082 10.9885C8.95082 10.9307 8.92069 10.8997 8.86475 10.8997C8.80881 10.8997 8.77868 10.8686 8.77868 10.8109C8.77868 10.7532 8.74856 10.7221 8.69262 10.7221C8.63668 10.7221 8.60655 10.691 8.60655 10.6333C8.60655 10.5756 8.57643 10.5445 8.52049 10.5445C8.46455 10.5445 8.43442 10.5134 8.43442 10.4557C8.43442 10.398 8.4043 10.3669 8.34836 10.3669C8.2795 10.3669 8.26229 10.3358 8.26229 10.2115C8.26229 10.0872 8.24508 10.0561 8.17623 10.0561C8.12028 10.0561 8.09016 10.025 8.09016 9.96728C8.09016 9.90956 8.06004 9.87848 8.00409 9.87848C7.94815 9.87848 7.91803 9.8474 7.91803 9.78968C7.91803 9.73196 7.88791 9.70089 7.83196 9.70089C7.77602 9.70089 7.7459 9.66981 7.7459 9.61209C7.7459 9.55437 7.71578 9.52329 7.65983 9.52329C7.60389 9.52329 7.57377 9.49221 7.57377 9.43449C7.57377 9.37677 7.54364 9.34569 7.4877 9.34569C7.43176 9.34569 7.40164 9.31461 7.40164 9.25689C7.40164 9.19917 7.37151 9.16809 7.31557 9.16809C7.25963 9.16809 7.2295 9.13701 7.2295 9.0793C7.2295 9.02158 7.19938 8.9905 7.14344 8.9905C7.0875 8.9905 7.05737 8.95942 7.05737 8.9017C7.05737 8.84398 7.02725 8.8129 6.97131 8.8129C6.91537 8.8129 6.88524 8.78182 6.88524 8.7241C6.88524 8.66638 6.85512 8.6353 6.79918 8.6353C6.73463 8.6353 6.71311 8.60422 6.71311 8.5243C6.71311 8.44439 6.6916 8.4133 6.62705 8.4133C6.5711 8.4133 6.54098 8.38223 6.54098 8.3245C6.54098 8.26679 6.51086 8.23571 6.45492 8.23571C6.39897 8.23571 6.36885 8.20463 6.36885 8.14691C6.36885 8.08919 6.33873 8.05811 6.28278 8.05811C6.22684 8.05811 6.19672 8.02703 6.19672 7.96931C6.19672 7.91159 6.1666 7.88051 6.11065 7.88051C6.05471 7.88051 6.02459 7.84943 6.02459 7.79171C6.02459 7.73399 5.99446 7.70292 5.93852 7.70292C5.88258 7.70292 5.85246 7.67184 5.85246 7.61412C5.85246 7.5564 5.82233 7.52532 5.76639 7.52532C5.69754 7.52532 5.68033 7.49424 5.68033 7.36992C5.68033 7.2456 5.66311 7.21452 5.59426 7.21452C5.53832 7.21452 5.50819 7.18344 5.50819 7.12572C5.50819 7.068 5.47807 7.03693 5.42213 7.03693C5.36619 7.03693 5.33606 7.00584 5.33606 6.94813C5.33606 6.89041 5.30594 6.85933 5.25 6.85933C5.19405 6.85933 5.16393 6.82825 5.16393 6.77053C5.16393 6.71281 5.13381 6.68173 5.07787 6.68173C5.02192 6.68173 4.9918 6.65065 4.9918 6.59293C4.9918 6.53521 4.96168 6.50413 4.90574 6.50413C4.84979 6.50413 4.81967 6.47305 4.81967 6.41533C4.81967 6.35762 4.78955 6.32653 4.7336 6.32653C4.67766 6.32653 4.64754 6.29546 4.64754 6.23774C4.64754 6.18002 4.61742 6.14894 4.56147 6.14894C4.50553 6.14894 4.47541 6.11786 4.47541 6.06014C4.47541 6.00242 4.44528 5.97134 4.38934 5.97134C4.3334 5.97134 4.30328 5.94026 4.30328 5.88254C4.30328 5.82482 4.27315 5.79374 4.21721 5.79374C4.15266 5.79374 4.13115 5.76266 4.13115 5.68274C4.13115 5.60283 4.10963 5.57175 4.04508 5.57175C3.98914 5.57175 3.95901 5.54067 3.95901 5.48295C3.95901 5.42523 3.92889 5.39415 3.87295 5.39415C3.81701 5.39415 3.78688 5.36307 3.78688 5.30535C3.78688 5.24763 3.75676 5.21655 3.70082 5.21655C3.64488 5.21655 3.61475 5.18547 3.61475 5.12775C3.61475 5.07003 3.58463 5.03896 3.52869 5.03896C3.47274 5.03896 3.44262 5.00787 3.44262 4.95016C3.44262 4.89244 3.4125 4.86136 3.35656 4.86136C3.2877 4.86136 3.27049 4.83028 3.27049 4.70596C3.27049 4.58164 3.25328 4.55056 3.18442 4.55056C3.12848 4.55056 3.09836 4.51948 3.09836 4.46176C3.09836 4.40405 3.06824 4.37296 3.01229 4.37296C2.95635 4.37296 2.92623 4.34188 2.92623 4.28416C2.92623 4.22645 2.89611 4.19537 2.84016 4.19537C2.78422 4.19537 2.7541 4.16429 2.7541 4.10657C2.7541 4.04885 2.72397 4.01777 2.66803 4.01777C2.61209 4.01777 2.58197 3.98669 2.58197 3.92897C2.58197 3.87125 2.55184 3.84017 2.4959 3.84017C2.43996 3.84017 2.40983 3.80909 2.40983 3.75137C2.40983 3.69365 2.37971 3.66257 2.32377 3.66257C2.26783 3.66257 2.2377 3.6315 2.2377 3.57378C2.2377 3.51606 2.20758 3.48498 2.15164 3.48498C2.0957 3.48498 2.06557 3.4539 2.06557 3.39618C2.06557 3.33846 2.03545 3.30738 1.97951 3.30738C1.92356 3.30738 1.89344 3.2763 1.89344 3.21858C1.89344 3.16086 1.86332 3.12978 1.80738 3.12978C1.75143 3.12978 1.72131 3.0987 1.72131 3.04099C1.72131 2.98326 1.69119 2.95219 1.63525 2.95219C1.5707 2.95219 1.54918 2.9211 1.54918 2.84119C1.54918 2.76127 1.52766 2.73019 1.46311 2.73019C1.40717 2.73019 1.37705 2.69911 1.37705 2.64139C1.37705 2.58367 1.34693 2.55259 1.29098 2.55259C1.23504 2.55259 1.20492 2.52151 1.20492 2.46379C1.20492 2.40607 1.17479 2.37499 1.11885 2.37499C1.06291 2.37499 1.03279 2.34391 1.03279 2.28619C1.03279 2.22848 1.00266 2.1974 0.946721 2.1974C0.890778 2.1974 0.860655 2.16632 0.860655 2.1086C0.860655 2.05088 0.830532 2.0198 0.77459 2.0198C0.718647 2.0198 0.688524 1.98872 0.688524 1.931C0.688524 1.8422 0.649795 1.83332 0.443237 1.87328Z" fill="white"/>
<path d="M31.3274 16.0056C31.3274 16.0633 31.2972 16.0944 31.2413 16.0944C31.1854 16.0944 31.1552 16.1255 31.1552 16.1832C31.1552 16.2409 31.1251 16.272 31.0692 16.272C31.0132 16.272 30.9831 16.3031 30.9831 16.3608C30.9831 16.4185 30.953 16.4496 30.897 16.4496C30.8411 16.4496 30.811 16.4806 30.811 16.5384C30.811 16.5961 30.7809 16.6272 30.7249 16.6272C30.669 16.6272 30.6388 16.6582 30.6388 16.716C30.6388 16.7737 30.6087 16.8048 30.5528 16.8048C30.4968 16.8048 30.4667 16.8358 30.4667 16.8936C30.4667 16.9513 30.4366 16.9824 30.3806 16.9824C30.3247 16.9824 30.2946 17.0134 30.2946 17.0712C30.2946 17.1289 30.2645 17.16 30.2085 17.16C30.1397 17.16 30.1224 17.191 30.1224 17.3153C30.1224 17.4397 30.1052 17.4707 30.0364 17.4707C29.9804 17.4707 29.9503 17.5018 29.9503 17.5595C29.9503 17.6173 29.9202 17.6483 29.8643 17.6483C29.8083 17.6483 29.7782 17.6794 29.7782 17.7371C29.7782 17.7949 29.7481 17.8259 29.6921 17.8259C29.6362 17.8259 29.6061 17.857 29.6061 17.9147C29.6061 17.9725 29.5759 18.0035 29.52 18.0035C29.464 18.0035 29.4339 18.0346 29.4339 18.0923C29.4339 18.1501 29.4038 18.1811 29.3479 18.1811C29.2919 18.1811 29.2618 18.2122 29.2618 18.2699C29.2618 18.3276 29.2317 18.3587 29.1757 18.3587C29.1112 18.3587 29.0897 18.3898 29.0897 18.4697C29.0897 18.5496 29.0681 18.5807 29.0036 18.5807C28.9477 18.5807 28.9175 18.6118 28.9175 18.6695C28.9175 18.7272 28.8874 18.7583 28.8315 18.7583C28.7755 18.7583 28.7454 18.7894 28.7454 18.8471C28.7454 18.9048 28.7153 18.9359 28.6593 18.9359C28.6034 18.9359 28.5733 18.967 28.5733 19.0247C28.5733 19.0824 28.5431 19.1135 28.4872 19.1135C28.4313 19.1135 28.4011 19.1446 28.4011 19.2023C28.4011 19.26 28.371 19.2911 28.3151 19.2911C28.2591 19.2911 28.229 19.3222 28.229 19.3799C28.229 19.4376 28.1989 19.4687 28.1429 19.4687C28.087 19.4687 28.0569 19.4998 28.0569 19.5575C28.0569 19.6152 28.0268 19.6463 27.9708 19.6463C27.9149 19.6463 27.8847 19.6774 27.8847 19.7351C27.8847 19.7928 27.8546 19.8239 27.7987 19.8239C27.7427 19.8239 27.7126 19.855 27.7126 19.9127C27.7126 19.9704 27.6825 20.0015 27.6266 20.0015C27.5706 20.0015 27.5405 20.0326 27.5405 20.0903C27.5405 20.148 27.5104 20.1791 27.4544 20.1791C27.3856 20.1791 27.3684 20.2102 27.3684 20.3345C27.3684 20.4588 27.3511 20.4899 27.2823 20.4899C27.2263 20.4899 27.1962 20.521 27.1962 20.5787C27.1962 20.6364 27.1661 20.6675 27.1102 20.6675C27.0542 20.6675 27.0241 20.6986 27.0241 20.7563C27.0241 20.814 26.994 20.8451 26.938 20.8451C26.8821 20.8451 26.852 20.8762 26.852 20.9339C26.852 20.9916 26.8218 21.0227 26.7659 21.0227C26.71 21.0227 26.6798 21.0538 26.6798 21.1115C26.6798 21.1692 26.6497 21.2003 26.5938 21.2003C26.5378 21.2003 26.5077 21.2313 26.5077 21.2891C26.5077 21.3468 26.4776 21.3779 26.4216 21.3779C26.3657 21.3779 26.3356 21.4089 26.3356 21.4667C26.3356 21.5244 26.3054 21.5555 26.2495 21.5555C26.185 21.5555 26.1634 21.5865 26.1634 21.6665C26.1634 21.7464 26.1419 21.7775 26.0774 21.7775C26.0214 21.7775 25.9913 21.8085 25.9913 21.8663C25.9913 21.924 25.9612 21.9551 25.9052 21.9551C25.8493 21.9551 25.8192 21.9861 25.8192 22.0438C25.8192 22.1016 25.7891 22.1326 25.7331 22.1326C25.6772 22.1326 25.647 22.1637 25.647 22.2214C25.647 22.2792 25.6169 22.3102 25.561 22.3102C25.505 22.3102 25.4749 22.3413 25.4749 22.399C25.4749 22.4568 25.4448 22.4878 25.3888 22.4878C25.3329 22.4878 25.3028 22.5189 25.3028 22.5766C25.3028 22.6344 25.2727 22.6654 25.2167 22.6654C25.1479 22.6654 25.1307 22.6965 25.1307 22.8208C25.1307 22.9452 25.1134 22.9762 25.0446 22.9762C24.9886 22.9762 24.9585 23.0073 24.9585 23.065C24.9585 23.1227 24.9284 23.1538 24.8725 23.1538C24.8165 23.1538 24.7864 23.1849 24.7864 23.2426C24.7864 23.3003 24.7563 23.3314 24.7003 23.3314C24.6229 23.3314 24.6143 23.3625 24.6143 23.5978C24.6143 23.8331 24.6229 23.8642 24.7003 23.8642C24.7563 23.8642 24.7864 23.8953 24.7864 23.953C24.7864 24.0107 24.8165 24.0418 24.8725 24.0418C24.9284 24.0418 24.9585 24.0729 24.9585 24.1306C24.9585 24.1883 24.9886 24.2194 25.0446 24.2194C25.1005 24.2194 25.1307 24.2505 25.1307 24.3082C25.1307 24.3659 25.1608 24.397 25.2167 24.397C25.2727 24.397 25.3028 24.4281 25.3028 24.4858C25.3028 24.5435 25.3329 24.5746 25.3888 24.5746C25.4448 24.5746 25.4749 24.6057 25.4749 24.6634C25.4749 24.7211 25.505 24.7522 25.561 24.7522C25.6169 24.7522 25.647 24.7833 25.647 24.841C25.647 24.8987 25.6772 24.9298 25.7331 24.9298C25.7891 24.9298 25.8192 24.9609 25.8192 25.0186C25.8192 25.0763 25.8493 25.1074 25.9052 25.1074C25.9698 25.1074 25.9913 25.1385 25.9913 25.2184C25.9913 25.2983 26.0128 25.3294 26.0774 25.3294C26.1333 25.3294 26.1634 25.3605 26.1634 25.4182C26.1634 25.4759 26.1936 25.507 26.2495 25.507C26.3054 25.507 26.3356 25.5381 26.3356 25.5958C26.3356 25.6535 26.3657 25.6846 26.4216 25.6846C26.4776 25.6846 26.5077 25.7157 26.5077 25.7734C26.5077 25.8311 26.5378 25.8622 26.5938 25.8622C26.6626 25.8622 26.6798 25.8932 26.6798 26.0176C26.6798 26.1419 26.697 26.173 26.7659 26.173C26.8218 26.173 26.852 26.204 26.852 26.2618C26.852 26.3195 26.8821 26.3506 26.938 26.3506C26.994 26.3506 27.0241 26.3816 27.0241 26.4394C27.0241 26.4971 27.0542 26.5282 27.1102 26.5282C27.1661 26.5282 27.1962 26.5592 27.1962 26.617C27.1962 26.6747 27.2263 26.7058 27.2823 26.7058C27.3382 26.7058 27.3684 26.7368 27.3684 26.7945C27.3684 26.8523 27.3985 26.8833 27.4544 26.8833C27.5104 26.8833 27.5405 26.9144 27.5405 26.9721C27.5405 27.0299 27.5706 27.0609 27.6266 27.0609C27.6825 27.0609 27.7126 27.092 27.7126 27.1497C27.7126 27.2075 27.7427 27.2385 27.7987 27.2385C27.8546 27.2385 27.8847 27.2696 27.8847 27.3273C27.8847 27.3851 27.9149 27.4161 27.9708 27.4161C28.0268 27.4161 28.0569 27.4472 28.0569 27.5049C28.0569 27.5627 28.087 27.5937 28.1429 27.5937C28.1989 27.5937 28.229 27.6248 28.229 27.6825C28.229 27.7402 28.2591 27.7713 28.3151 27.7713C28.371 27.7713 28.4011 27.8024 28.4011 27.8601C28.4011 27.9178 28.4313 27.9489 28.4872 27.9489C28.5431 27.9489 28.5733 27.98 28.5733 28.0377C28.5733 28.0954 28.6034 28.1265 28.6593 28.1265C28.7239 28.1265 28.7454 28.1576 28.7454 28.2375C28.7454 28.3174 28.7669 28.3485 28.8315 28.3485C28.8874 28.3485 28.9175 28.3796 28.9175 28.4373C28.9175 28.495 28.9477 28.5261 29.0036 28.5261C29.0595 28.5261 29.0897 28.5572 29.0897 28.6149C29.0897 28.6726 29.1198 28.7037 29.1757 28.7037C29.2317 28.7037 29.2618 28.7348 29.2618 28.7925C29.2618 28.8502 29.2919 28.8813 29.3479 28.8813C29.4038 28.8813 29.4339 28.9124 29.4339 28.9701C29.4339 29.0278 29.464 29.0589 29.52 29.0589C29.5759 29.0589 29.6061 29.09 29.6061 29.1477C29.6061 29.2054 29.6362 29.2365 29.6921 29.2365C29.761 29.2365 29.7782 29.2676 29.7782 29.3919C29.7782 29.5162 29.7954 29.5473 29.8643 29.5473C29.9202 29.5473 29.9503 29.5784 29.9503 29.6361C29.9503 29.6938 29.9804 29.7249 30.0364 29.7249C30.0923 29.7249 30.1224 29.756 30.1224 29.8137C30.1224 29.8714 30.1526 29.9025 30.2085 29.9025C30.2645 29.9025 30.2946 29.9336 30.2946 29.9913C30.2946 30.049 30.3247 30.0801 30.3806 30.0801C30.4366 30.0801 30.4667 30.1112 30.4667 30.1689C30.4667 30.2266 30.4968 30.2577 30.5528 30.2577C30.6087 30.2577 30.6388 30.2888 30.6388 30.3465C30.6388 30.4042 30.669 30.4353 30.7249 30.4353C30.7809 30.4353 30.811 30.4664 30.811 30.5241C30.811 30.5818 30.8411 30.6129 30.897 30.6129C30.953 30.6129 30.9831 30.6439 30.9831 30.7017C30.9831 30.7594 31.0132 30.7905 31.0692 30.7905C31.1251 30.7905 31.1552 30.8215 31.1552 30.8793C31.1552 30.937 31.1854 30.9681 31.2413 30.9681C31.2972 30.9681 31.3274 30.9991 31.3274 31.0524C31.3274 31.1101 31.3661 31.1412 31.4565 31.159C31.6544 31.2034 31.8438 31.1501 31.8438 31.0524C31.8438 30.9858 31.8782 30.9681 32.0159 30.9681C32.1579 30.9681 32.188 30.9547 32.188 30.8793C32.188 30.8038 32.2181 30.7905 32.3602 30.7905C32.5022 30.7905 32.5323 30.7771 32.5323 30.7017C32.5323 30.6439 32.5624 30.6129 32.6184 30.6129C32.6657 30.6129 32.7044 30.5862 32.7044 30.5507C32.7044 30.5108 32.769 30.4752 32.8765 30.4575C32.9755 30.4397 33.0487 30.4042 33.0487 30.3687C33.0487 30.3332 33.1218 30.2976 33.2208 30.2799C33.3198 30.2621 33.3929 30.2266 33.3929 30.1911C33.3929 30.1556 33.4661 30.12 33.5651 30.1023C33.664 30.0845 33.7372 30.049 33.7372 30.0135C33.7372 29.978 33.8104 29.9424 33.9093 29.9247C34.0083 29.9069 34.0815 29.8714 34.0815 29.8359C34.0815 29.8004 34.1546 29.7648 34.2536 29.7471C34.3827 29.7249 34.4257 29.6982 34.4257 29.6316C34.4257 29.5606 34.4558 29.5473 34.5979 29.5473C34.7399 29.5473 34.77 29.534 34.77 29.4585C34.77 29.4008 34.8001 29.3697 34.8561 29.3697C34.9034 29.3697 34.9421 29.3431 34.9421 29.3075C34.9421 29.2676 35.0067 29.2321 35.1142 29.2143C35.2132 29.1965 35.2864 29.161 35.2864 29.1255C35.2864 29.09 35.3595 29.0545 35.4585 29.0367C35.5575 29.0189 35.6306 28.9834 35.6306 28.9479C35.6306 28.9124 35.7038 28.8769 35.8028 28.8591C35.9319 28.8369 35.9749 28.8103 35.9749 28.7437C35.9749 28.6726 36.005 28.6593 36.147 28.6593C36.289 28.6593 36.3192 28.646 36.3192 28.5705C36.3192 28.495 36.3493 28.4817 36.4913 28.4817C36.6333 28.4817 36.6634 28.4684 36.6634 28.3929C36.6634 28.3352 36.6936 28.3041 36.7495 28.3041C36.7968 28.3041 36.8356 28.2775 36.8356 28.242C36.8356 28.202 36.9001 28.1665 37.0077 28.1487C37.1067 28.131 37.1798 28.0954 37.1798 28.0599C37.1798 28.0244 37.253 27.9889 37.352 27.9711C37.4509 27.9534 37.5241 27.9178 37.5241 27.8823C37.5241 27.8468 37.5972 27.8113 37.6962 27.7935C37.7952 27.7758 37.8683 27.7402 37.8683 27.7047C37.8683 27.6692 37.9415 27.6337 38.0405 27.6159C38.1696 27.5937 38.2126 27.5671 38.2126 27.5005C38.2126 27.4295 38.2427 27.4161 38.3847 27.4161C38.5267 27.4161 38.5569 27.4028 38.5569 27.3273C38.5569 27.2519 38.587 27.2385 38.729 27.2385C38.871 27.2385 38.9011 27.2252 38.9011 27.1497C38.9011 27.092 38.9313 27.0609 38.9872 27.0609C39.0345 27.0609 39.0733 27.0343 39.0733 26.9988C39.0733 26.9588 39.1378 26.9233 39.2454 26.9055C39.3444 26.8878 39.4175 26.8523 39.4175 26.8167C39.4175 26.7812 39.4907 26.7457 39.5897 26.728C39.6886 26.7102 39.7618 26.6747 39.7618 26.6392C39.7618 26.6036 39.8349 26.5681 39.9339 26.5504C40.063 26.5282 40.106 26.5015 40.106 26.4349C40.106 26.3816 40.1362 26.3506 40.1921 26.3506C40.2394 26.3506 40.2782 26.3239 40.2782 26.2884C40.2782 26.2484 40.3427 26.2129 40.4503 26.1952C40.5794 26.173 40.6224 26.1463 40.6224 26.0797C40.6224 26.0264 40.6526 25.9954 40.7085 25.9954C40.7558 25.9954 40.7946 25.9643 40.7946 25.9288C40.7946 25.8932 40.8333 25.8622 40.8806 25.8622C40.9366 25.8622 40.9667 25.8311 40.9667 25.7734C40.9667 25.7157 40.9968 25.6846 41.0528 25.6846C41.1087 25.6846 41.1388 25.6535 41.1388 25.5958C41.1388 25.5381 41.169 25.507 41.2249 25.507C41.2808 25.507 41.311 25.4759 41.311 25.4182C41.311 25.3605 41.3411 25.3294 41.397 25.3294C41.4616 25.3294 41.4831 25.2983 41.4831 25.2184C41.4831 25.1385 41.5046 25.1074 41.5692 25.1074C41.638 25.1074 41.6552 25.0763 41.6552 24.952C41.6552 24.8277 41.6724 24.7966 41.7413 24.7966C41.8188 24.7966 41.8274 24.7655 41.8274 24.508C41.8274 24.2505 41.836 24.2194 41.9134 24.2194C41.9952 24.2194 41.9995 24.1883 41.9995 23.62C41.9995 23.0517 41.9952 23.0206 41.9134 23.0206C41.836 23.0206 41.8274 22.9895 41.8274 22.6654C41.8274 22.3413 41.8188 22.3102 41.7413 22.3102C41.6681 22.3102 41.6552 22.2792 41.6552 22.1326C41.6552 21.9861 41.6423 21.9551 41.5692 21.9551C41.496 21.9551 41.4831 21.924 41.4831 21.7775C41.4831 21.6309 41.4702 21.5999 41.397 21.5999C41.3411 21.5999 41.311 21.5688 41.311 21.5111C41.311 21.4533 41.2808 21.4223 41.2249 21.4223C41.169 21.4223 41.1388 21.3912 41.1388 21.3335C41.1388 21.2757 41.1087 21.2447 41.0528 21.2447C40.9968 21.2447 40.9667 21.2136 40.9667 21.1603C40.9667 21.0937 40.9237 21.0671 40.7946 21.0449C40.6956 21.0271 40.6224 20.9916 40.6224 20.9561C40.6224 20.9206 40.5493 20.885 40.4503 20.8673C40.3427 20.8495 40.2782 20.814 40.2782 20.774C40.2782 20.7385 40.2394 20.7119 40.1921 20.7119C40.1362 20.7119 40.106 20.6808 40.106 20.6231C40.106 20.5476 40.0759 20.5343 39.9339 20.5343C39.7919 20.5343 39.7618 20.521 39.7618 20.4455C39.7618 20.37 39.7317 20.3567 39.5897 20.3567C39.4476 20.3567 39.4175 20.3434 39.4175 20.2679C39.4175 20.1924 39.3874 20.1791 39.2454 20.1791C39.1034 20.1791 39.0733 20.1658 39.0733 20.0947C39.0733 20.0281 39.0302 20.0015 38.9011 19.9793C38.8022 19.9615 38.729 19.926 38.729 19.8905C38.729 19.855 38.6558 19.8195 38.5569 19.8017C38.4579 19.7839 38.3847 19.7484 38.3847 19.7129C38.3847 19.6774 38.3116 19.6419 38.2126 19.6241C38.1136 19.6063 38.0405 19.5708 38.0405 19.5353C38.0405 19.4998 37.9673 19.4643 37.8683 19.4465C37.7608 19.4287 37.6962 19.3932 37.6962 19.3533C37.6962 19.3177 37.6575 19.2911 37.6101 19.2911C37.5542 19.2911 37.5241 19.26 37.5241 19.2023C37.5241 19.1268 37.494 19.1135 37.352 19.1135C37.2099 19.1135 37.1798 19.1002 37.1798 19.0292C37.1798 18.9626 37.1368 18.9359 37.0077 18.9137C36.9087 18.896 36.8356 18.8604 36.8356 18.8249C36.8356 18.7894 36.7624 18.7539 36.6634 18.7361C36.5645 18.7184 36.4913 18.6828 36.4913 18.6473C36.4913 18.6118 36.4181 18.5763 36.3192 18.5585C36.2202 18.5408 36.147 18.5052 36.147 18.4697C36.147 18.4342 36.0739 18.3987 35.9749 18.3809C35.8673 18.3632 35.8028 18.3276 35.8028 18.2877C35.8028 18.2522 35.764 18.2255 35.7167 18.2255C35.6608 18.2255 35.6306 18.1945 35.6306 18.1367C35.6306 18.0613 35.6005 18.0479 35.4585 18.0479C35.3165 18.0479 35.2864 18.0346 35.2864 17.9591C35.2864 17.8837 35.2563 17.8703 35.1142 17.8703C34.9722 17.8703 34.9421 17.857 34.9421 17.786C34.9421 17.7194 34.8991 17.6927 34.77 17.6705C34.671 17.6528 34.5979 17.6173 34.5979 17.5817C34.5979 17.5462 34.5247 17.5107 34.4257 17.4929C34.3267 17.4752 34.2536 17.4397 34.2536 17.4041C34.2536 17.3686 34.1804 17.3331 34.0815 17.3153C33.9825 17.2976 33.9093 17.2621 33.9093 17.2266C33.9093 17.191 33.8362 17.1555 33.7372 17.1378C33.6296 17.12 33.5651 17.0845 33.5651 17.0445C33.5651 17.009 33.5263 16.9824 33.479 16.9824C33.4231 16.9824 33.3929 16.9513 33.3929 16.8936C33.3929 16.8181 33.3628 16.8048 33.2208 16.8048C33.0788 16.8048 33.0487 16.7914 33.0487 16.7204C33.0487 16.6538 33.0056 16.6272 32.8765 16.605C32.7776 16.5872 32.7044 16.5517 32.7044 16.5162C32.7044 16.4806 32.6313 16.4451 32.5323 16.4274C32.4333 16.4096 32.3602 16.3741 32.3602 16.3386C32.3602 16.3031 32.287 16.2675 32.188 16.2498C32.089 16.232 32.0159 16.1965 32.0159 16.161C32.0159 16.1255 31.9427 16.0899 31.8438 16.0722C31.7362 16.0544 31.6716 16.0189 31.6716 15.9789C31.6716 15.9345 31.62 15.9168 31.4995 15.9168C31.3575 15.9168 31.3274 15.9301 31.3274 16.0056Z" fill="white"/>
<path d="M22.3034 26.0265C22.2388 26.0399 22.2044 26.0798 22.2044 26.1331C22.2044 26.1864 22.1743 26.2174 22.1184 26.2174C22.0495 26.2174 22.0323 26.2485 22.0323 26.3728C22.0323 26.4972 22.0151 26.5282 21.9462 26.5282C21.8903 26.5282 21.8602 26.5593 21.8602 26.617C21.8602 26.6748 21.83 26.7058 21.7741 26.7058C21.7181 26.7058 21.688 26.7369 21.688 26.7946C21.688 26.8524 21.6579 26.8834 21.602 26.8834C21.546 26.8834 21.5159 26.9145 21.5159 26.9722C21.5159 27.03 21.4858 27.061 21.4298 27.061C21.3739 27.061 21.3438 27.0921 21.3438 27.1498C21.3438 27.2076 21.3136 27.2386 21.2577 27.2386C21.2018 27.2386 21.1716 27.2697 21.1716 27.3274C21.1716 27.3852 21.1415 27.4162 21.0856 27.4162C21.0296 27.4162 20.9995 27.4473 20.9995 27.505C20.9995 27.5628 20.9694 27.5938 20.9134 27.5938C20.8489 27.5938 20.8274 27.6249 20.8274 27.7048C20.8274 27.7848 20.8059 27.8158 20.7413 27.8158C20.6854 27.8158 20.6552 27.8469 20.6552 27.9046C20.6552 27.9624 20.6251 27.9934 20.5692 27.9934C20.5132 27.9934 20.4831 28.0245 20.4831 28.0822C20.4831 28.1399 20.453 28.171 20.397 28.171C20.3411 28.171 20.311 28.2021 20.311 28.2598C20.311 28.3175 20.2809 28.3486 20.2249 28.3486C20.169 28.3486 20.1388 28.3797 20.1388 28.4374C20.1388 28.4951 20.1087 28.5262 20.0528 28.5262C19.9968 28.5262 19.9667 28.5573 19.9667 28.615C19.9667 28.6727 19.9366 28.7038 19.8806 28.7038C19.8247 28.7038 19.7946 28.7349 19.7946 28.7926C19.7946 28.8503 19.7645 28.8814 19.7085 28.8814C19.6526 28.8814 19.6225 28.9125 19.6225 28.9702C19.6225 29.0279 19.5923 29.059 19.5364 29.059C19.4804 29.059 19.4503 29.0901 19.4503 29.1478C19.4503 29.2055 19.4202 29.2366 19.3643 29.2366C19.2954 29.2366 19.2782 29.2677 19.2782 29.392C19.2782 29.5163 19.261 29.5474 19.1921 29.5474C19.1362 29.5474 19.1061 29.5785 19.1061 29.6362C19.1061 29.6939 19.0759 29.725 19.02 29.725C18.9641 29.725 18.9339 29.7561 18.9339 29.8138C18.9339 29.8715 18.9038 29.9026 18.8479 29.9026C18.7919 29.9026 18.7618 29.9337 18.7618 29.9914C18.7618 30.0491 18.7317 30.0802 18.6757 30.0802C18.6198 30.0802 18.5897 30.1113 18.5897 30.169C18.5897 30.2267 18.5595 30.2578 18.5036 30.2578C18.4391 30.2578 18.4175 30.2889 18.4175 30.3688C18.4175 30.4487 18.396 30.4798 18.3315 30.4798C18.2755 30.4798 18.2454 30.5109 18.2454 30.5686C18.2454 30.6263 18.2153 30.6574 18.1593 30.6574C18.1034 30.6574 18.0733 30.6885 18.0733 30.7462C18.0733 30.8039 18.0431 30.835 17.9872 30.835C17.9313 30.835 17.9011 30.8661 17.9011 30.9238C17.9011 30.9815 17.871 31.0126 17.8151 31.0126C17.7591 31.0126 17.729 31.0437 17.729 31.1014C17.729 31.1591 17.6989 31.1902 17.6429 31.1902C17.587 31.1902 17.5569 31.2213 17.5569 31.279C17.5569 31.3367 17.5268 31.3678 17.4708 31.3678C17.4149 31.3678 17.3847 31.3989 17.3847 31.4566C17.3847 31.5143 17.3546 31.5454 17.2987 31.5454C17.2427 31.5454 17.2126 31.5765 17.2126 31.6342C17.2126 31.6919 17.1825 31.723 17.1266 31.723C17.0706 31.723 17.0405 31.7541 17.0405 31.8118C17.0405 31.8695 17.0104 31.9006 16.9544 31.9006C16.8985 31.9006 16.8684 31.9317 16.8684 31.9894C16.8684 32.0471 16.8382 32.0782 16.7823 32.0782C16.7263 32.0782 16.6962 32.1093 16.6962 32.167C16.6962 32.2247 16.6661 32.2558 16.6102 32.2558C16.5413 32.2558 16.5241 32.2869 16.5241 32.4112C16.5241 32.5355 16.5069 32.5666 16.438 32.5666C16.3821 32.5666 16.352 32.5977 16.352 32.6554C16.352 32.7131 16.3218 32.7442 16.2659 32.7442C16.21 32.7442 16.1798 32.7753 16.1798 32.833C16.1798 32.8907 16.1497 32.9218 16.0938 32.9218C16.0378 32.9218 16.0077 32.9529 16.0077 33.0106C16.0077 33.0683 15.9776 33.0994 15.9216 33.0994C15.8657 33.0994 15.8356 33.1305 15.8356 33.1882C15.8356 33.2459 15.8054 33.277 15.7495 33.277C15.685 33.277 15.6634 33.308 15.6634 33.388C15.6634 33.4679 15.6419 33.499 15.5774 33.499C15.5214 33.499 15.4913 33.53 15.4913 33.5878C15.4913 33.6455 15.4612 33.6766 15.4052 33.6766C15.3493 33.6766 15.3192 33.7076 15.3192 33.7654C15.3192 33.8231 15.2891 33.8542 15.2331 33.8542C15.1772 33.8542 15.147 33.8852 15.147 33.943C15.147 34.0007 15.1169 34.0318 15.061 34.0318C15.005 34.0318 14.9749 34.0628 14.9749 34.1206C14.9749 34.1783 14.9448 34.2094 14.8888 34.2094C14.8329 34.2094 14.8028 34.2404 14.8028 34.2982C14.8028 34.3559 14.7727 34.387 14.7167 34.387C14.6608 34.387 14.6307 34.418 14.6307 34.4758C14.6307 34.5335 14.6005 34.5646 14.5446 34.5646C14.4886 34.5646 14.4585 34.5956 14.4585 34.6534C14.4585 34.7111 14.4284 34.7422 14.3725 34.7422C14.3165 34.7422 14.2864 34.7732 14.2864 34.831C14.2864 34.8887 14.2563 34.9198 14.2003 34.9198C14.1444 34.9198 14.1143 34.9508 14.1143 35.0085C14.1143 35.0663 14.0841 35.0973 14.0282 35.0973C13.9593 35.0973 13.9421 35.1284 13.9421 35.2527C13.9421 35.3771 13.9249 35.4081 13.8561 35.4081C13.8001 35.4081 13.77 35.4392 13.77 35.4969C13.77 35.5547 13.7399 35.5857 13.6839 35.5857C13.628 35.5857 13.5979 35.6168 13.5979 35.6745C13.5979 35.7323 13.5677 35.7633 13.5118 35.7633C13.4559 35.7633 13.4257 35.7944 13.4257 35.8521C13.4257 35.9099 13.3956 35.9409 13.3397 35.9409C13.2837 35.9409 13.2536 35.972 13.2536 36.0297C13.2536 36.0875 13.2235 36.1185 13.1675 36.1185C13.1116 36.1185 13.0815 36.1496 13.0815 36.2073C13.0815 36.2651 13.0513 36.2961 12.9954 36.2961C12.9395 36.2961 12.9093 36.3272 12.9093 36.3849C12.9093 36.4427 12.8792 36.4737 12.8233 36.4737C12.7587 36.4737 12.7372 36.5048 12.7372 36.5847C12.7372 36.6646 12.7157 36.6957 12.6511 36.6957C12.5952 36.6957 12.5651 36.7268 12.5651 36.7845C12.5651 36.8422 12.535 36.8733 12.479 36.8733C12.4231 36.8733 12.3929 36.9044 12.3929 36.9621C12.3929 37.0198 12.3628 37.0509 12.3069 37.0509C12.2509 37.0509 12.2208 37.082 12.2208 37.1397C12.2208 37.1974 12.1907 37.2285 12.1347 37.2285C12.0788 37.2285 12.0487 37.2596 12.0487 37.3173C12.0487 37.375 12.0186 37.4061 11.9626 37.4061C11.9067 37.4061 11.8766 37.4372 11.8766 37.4949C11.8766 37.5526 11.8464 37.5837 11.7905 37.5837C11.7345 37.5837 11.7044 37.6148 11.7044 37.6725C11.7044 37.7302 11.6743 37.7613 11.6184 37.7613C11.5624 37.7613 11.5323 37.7924 11.5323 37.8501C11.5323 37.9078 11.5022 37.9389 11.4462 37.9389C11.3903 37.9389 11.3602 37.97 11.3602 38.0277C11.3602 38.0854 11.33 38.1165 11.2741 38.1165C11.2182 38.1165 11.188 38.1476 11.188 38.2053C11.188 38.263 11.1579 38.2941 11.102 38.2941C11.0331 38.2941 11.0159 38.3252 11.0159 38.4495C11.0159 38.5738 10.9987 38.6049 10.9298 38.6049C10.8739 38.6049 10.8438 38.636 10.8438 38.6937C10.8438 38.7514 10.8136 38.7825 10.7577 38.7825C10.7018 38.7825 10.6716 38.8136 10.6716 38.8713C10.6716 38.929 10.6415 38.9601 10.5856 38.9601C10.5296 38.9601 10.4995 38.9912 10.4995 39.0489C10.4995 39.1066 10.4694 39.1377 10.4134 39.1377C10.3575 39.1377 10.3274 39.1688 10.3274 39.2265C10.3274 39.2842 10.2972 39.3153 10.2413 39.3153C10.1854 39.3153 10.1552 39.3464 10.1552 39.4041C10.1552 39.4618 10.1251 39.4929 10.0692 39.4929C10.0046 39.4929 9.98311 39.524 9.98311 39.6039C9.98311 39.6838 9.96159 39.7149 9.89704 39.7149C9.8411 39.7149 9.81098 39.746 9.81098 39.8037C9.81098 39.8614 9.78086 39.8925 9.72491 39.8925C9.66897 39.8925 9.63885 39.9236 9.63885 39.9813C9.63885 40.039 9.60872 40.0701 9.55278 40.0701C9.49684 40.0701 9.46672 40.1012 9.46672 40.1589C9.46672 40.2166 9.43659 40.2477 9.38065 40.2477C9.32471 40.2477 9.29459 40.2788 9.29459 40.3365C9.29459 40.3942 9.26446 40.4253 9.20852 40.4253C9.15258 40.4253 9.12245 40.4564 9.12245 40.5141C9.12245 40.5718 9.09233 40.6029 9.03639 40.6029C8.98045 40.6029 8.95032 40.634 8.95032 40.6917C8.95032 40.7494 8.9202 40.7805 8.86426 40.7805C8.80831 40.7805 8.77819 40.8116 8.77819 40.8693C8.77819 40.927 8.74807 40.9581 8.69213 40.9581C8.63618 40.9581 8.60606 40.9892 8.60606 41.0469C8.60606 41.1046 8.57594 41.1357 8.52 41.1357C8.45114 41.1357 8.43393 41.1668 8.43393 41.2911C8.43393 41.4154 8.41672 41.4465 8.34786 41.4465C8.29192 41.4465 8.2618 41.4776 8.2618 41.5353C8.2618 41.593 8.23168 41.6241 8.17573 41.6241C8.11979 41.6241 8.08967 41.6552 8.08967 41.7129C8.08967 41.7706 8.05954 41.8017 8.0036 41.8017C7.94766 41.8017 7.91754 41.8328 7.91754 41.8905C7.91754 41.9482 7.88741 41.9793 7.83147 41.9793C7.77553 41.9793 7.74541 42.0103 7.74541 42.0681C7.74541 42.1258 7.71528 42.1569 7.65934 42.1569C7.6034 42.1569 7.57327 42.1879 7.57327 42.2457C7.57327 42.3034 7.54315 42.3345 7.48721 42.3345C7.42266 42.3345 7.40114 42.3655 7.40114 42.4455C7.40114 42.5254 7.37963 42.5565 7.31508 42.5565C7.25913 42.5565 7.22901 42.5875 7.22901 42.6453C7.22901 42.703 7.19889 42.7341 7.14295 42.7341C7.087 42.7341 7.05688 42.7651 7.05688 42.8229C7.05688 42.8806 7.02676 42.9117 6.97081 42.9117C6.91487 42.9117 6.88475 42.9427 6.88475 43.0005C6.88475 43.0582 6.85463 43.0893 6.79868 43.0893C6.74274 43.0893 6.71262 43.1203 6.71262 43.1781C6.71262 43.2358 6.6825 43.2669 6.62655 43.2669C6.57061 43.2669 6.54049 43.2979 6.54049 43.3557C6.54049 43.4134 6.51036 43.4445 6.45442 43.4445C6.39848 43.4445 6.36836 43.4755 6.36836 43.5333C6.36836 43.591 6.33823 43.6221 6.28229 43.6221C6.22635 43.6221 6.19622 43.6531 6.19622 43.7108C6.19622 43.7686 6.1661 43.7996 6.11016 43.7996C6.05422 43.7996 6.02409 43.8307 6.02409 43.8884C6.02409 43.9462 5.99397 43.9772 5.93803 43.9772C5.86918 43.9772 5.85196 44.0083 5.85196 44.1326C5.85196 44.257 5.83475 44.288 5.7659 44.288C5.70995 44.288 5.67983 44.3191 5.67983 44.3768C5.67983 44.4346 5.64971 44.4656 5.59377 44.4656C5.53782 44.4656 5.5077 44.4967 5.5077 44.5544C5.5077 44.6122 5.47758 44.6432 5.42163 44.6432C5.36569 44.6432 5.33557 44.6743 5.33557 44.732C5.33557 44.7898 5.30545 44.8208 5.2495 44.8208C5.19356 44.8208 5.16344 44.8519 5.16344 44.9096C5.16344 44.9674 5.13332 44.9984 5.07737 44.9984C5.02143 44.9984 4.99131 45.0295 4.99131 45.0872C4.99131 45.145 4.96118 45.176 4.90524 45.176C4.84069 45.176 4.81918 45.2071 4.81918 45.287C4.81918 45.367 4.79766 45.398 4.73311 45.398C4.67717 45.398 4.64704 45.4291 4.64704 45.4868C4.64704 45.5445 4.61692 45.5756 4.56098 45.5756C4.50504 45.5756 4.47491 45.6067 4.47491 45.6644C4.47491 45.7221 4.44479 45.7532 4.38885 45.7532C4.33291 45.7532 4.30278 45.7843 4.30278 45.842C4.30278 45.8997 4.27266 45.9308 4.21672 45.9308C4.16077 45.9308 4.13065 45.9619 4.13065 46.0196C4.13065 46.0773 4.10053 46.1084 4.04459 46.1084C3.98864 46.1084 3.95852 46.1395 3.95852 46.1972C3.95852 46.2549 3.9284 46.286 3.87245 46.286C3.81651 46.286 3.78639 46.3171 3.78639 46.3748C3.78639 46.4325 3.75627 46.4636 3.70032 46.4636C3.63147 46.4636 3.61426 46.4947 3.61426 46.619C3.61426 46.7433 3.63147 46.7744 3.70032 46.7744C3.74766 46.7744 3.78639 46.7478 3.78639 46.7123C3.78639 46.6723 3.85094 46.6368 3.95852 46.619C4.0575 46.6013 4.13065 46.5657 4.13065 46.5302C4.13065 46.4947 4.20381 46.4592 4.30278 46.4414C4.40176 46.4237 4.47491 46.3881 4.47491 46.3526C4.47491 46.3171 4.54807 46.2816 4.64704 46.2638C4.74602 46.2461 4.81918 46.2105 4.81918 46.175C4.81918 46.1395 4.89233 46.104 4.99131 46.0862C5.12041 46.064 5.16344 46.0374 5.16344 45.9708C5.16344 45.8997 5.19356 45.8864 5.33557 45.8864C5.47758 45.8864 5.5077 45.8731 5.5077 45.7976C5.5077 45.7221 5.53782 45.7088 5.67983 45.7088C5.82184 45.7088 5.85196 45.6955 5.85196 45.62C5.85196 45.5623 5.88209 45.5312 5.93803 45.5312C5.98536 45.5312 6.02409 45.5046 6.02409 45.4691C6.02409 45.4291 6.08864 45.3936 6.19622 45.3758C6.2952 45.3581 6.36836 45.3226 6.36836 45.287C6.36836 45.2515 6.44151 45.216 6.54049 45.1982C6.63946 45.1805 6.71262 45.145 6.71262 45.1094C6.71262 45.0739 6.78577 45.0384 6.88475 45.0206C6.98372 45.0029 7.05688 44.9674 7.05688 44.9318C7.05688 44.8963 7.13004 44.8608 7.22901 44.843C7.35811 44.8208 7.40114 44.7942 7.40114 44.7276C7.40114 44.6566 7.43127 44.6432 7.57327 44.6432C7.71528 44.6432 7.74541 44.6299 7.74541 44.5544C7.74541 44.479 7.77553 44.4656 7.91754 44.4656C8.05954 44.4656 8.08967 44.4523 8.08967 44.3768C8.08967 44.3191 8.11979 44.288 8.17573 44.288C8.22307 44.288 8.2618 44.2614 8.2618 44.2259C8.2618 44.1859 8.32635 44.1504 8.43393 44.1326C8.53291 44.1149 8.60606 44.0794 8.60606 44.0438C8.60606 44.0083 8.67922 43.9728 8.77819 43.955C8.87717 43.9373 8.95032 43.9018 8.95032 43.8662C8.95032 43.8307 9.02348 43.7952 9.12245 43.7774C9.22143 43.7597 9.29459 43.7242 9.29459 43.6886C9.29459 43.6531 9.36774 43.6176 9.46672 43.5999C9.59581 43.5777 9.63885 43.551 9.63885 43.4844C9.63885 43.4134 9.66897 43.4001 9.81098 43.4001C9.95299 43.4001 9.98311 43.3867 9.98311 43.3113C9.98311 43.2535 10.0132 43.2225 10.0692 43.2225C10.1165 43.2225 10.1552 43.1958 10.1552 43.1603C10.1552 43.1203 10.2198 43.0848 10.3274 43.0671C10.4263 43.0493 10.4995 43.0138 10.4995 42.9783C10.4995 42.9427 10.5727 42.9072 10.6716 42.8895C10.7706 42.8717 10.8438 42.8362 10.8438 42.8007C10.8438 42.7651 10.9169 42.7296 11.0159 42.7119C11.1149 42.6941 11.188 42.6586 11.188 42.6231C11.188 42.5875 11.2612 42.552 11.3602 42.5343C11.4893 42.5121 11.5323 42.4854 11.5323 42.4188C11.5323 42.3478 11.5624 42.3345 11.7044 42.3345C11.8464 42.3345 11.8766 42.3211 11.8766 42.2457C11.8766 42.1879 11.9067 42.1569 11.9626 42.1569C12.01 42.1569 12.0487 42.1302 12.0487 42.0947C12.0487 42.0547 12.1132 42.0192 12.2208 42.0015C12.3198 41.9837 12.3929 41.9482 12.3929 41.9127C12.3929 41.8772 12.4661 41.8416 12.5651 41.8239C12.6641 41.8061 12.7372 41.7706 12.7372 41.7351C12.7372 41.6996 12.8104 41.664 12.9093 41.6463C13.0083 41.6285 13.0815 41.593 13.0815 41.5575C13.0815 41.522 13.1546 41.4864 13.2536 41.4687C13.3526 41.4509 13.4257 41.4154 13.4257 41.3799C13.4257 41.3444 13.4989 41.3088 13.5979 41.2911C13.727 41.2689 13.77 41.2422 13.77 41.1756C13.77 41.1046 13.8001 41.0913 13.9421 41.0913C14.0841 41.0913 14.1143 41.078 14.1143 41.0025C14.1143 40.9448 14.1444 40.9137 14.2003 40.9137C14.2477 40.9137 14.2864 40.887 14.2864 40.8515C14.2864 40.8116 14.3509 40.776 14.4585 40.7583C14.5575 40.7405 14.6307 40.705 14.6307 40.6695C14.6307 40.634 14.7038 40.5984 14.8028 40.5807C14.9018 40.5629 14.9749 40.5274 14.9749 40.4919C14.9749 40.4564 15.0481 40.4208 15.147 40.4031C15.246 40.3853 15.3192 40.3498 15.3192 40.3143C15.3192 40.2788 15.3923 40.2432 15.4913 40.2255C15.6204 40.2033 15.6634 40.1766 15.6634 40.1101C15.6634 40.039 15.6936 40.0257 15.8356 40.0257C15.9776 40.0257 16.0077 40.0124 16.0077 39.9369C16.0077 39.8614 16.0378 39.8481 16.1798 39.8481C16.3218 39.8481 16.352 39.8348 16.352 39.7593C16.352 39.7016 16.3821 39.6705 16.438 39.6705C16.4854 39.6705 16.5241 39.6439 16.5241 39.6083C16.5241 39.5684 16.5886 39.5329 16.6962 39.5151C16.7952 39.4973 16.8684 39.4618 16.8684 39.4263C16.8684 39.3908 16.9415 39.3553 17.0405 39.3375C17.1395 39.3197 17.2126 39.2842 17.2126 39.2487C17.2126 39.2132 17.2858 39.1777 17.3847 39.1599C17.4837 39.1421 17.5569 39.1066 17.5569 39.0711C17.5569 39.0356 17.63 39.0001 17.729 38.9823C17.8581 38.9601 17.9011 38.9335 17.9011 38.8669C17.9011 38.7958 17.9313 38.7825 18.0733 38.7825C18.2153 38.7825 18.2454 38.7692 18.2454 38.6937C18.2454 38.6182 18.2755 38.6049 18.4175 38.6049C18.5595 38.6049 18.5897 38.5916 18.5897 38.5161C18.5897 38.4584 18.6198 38.4273 18.6757 38.4273C18.7231 38.4273 18.7618 38.4007 18.7618 38.3652C18.7618 38.3252 18.8263 38.2897 18.9339 38.2719C19.0329 38.2542 19.1061 38.2186 19.1061 38.1831C19.1061 38.1476 19.1792 38.1121 19.2782 38.0943C19.3772 38.0766 19.4503 38.041 19.4503 38.0055C19.4503 37.97 19.5235 37.9345 19.6225 37.9167C19.7214 37.899 19.7946 37.8634 19.7946 37.8279C19.7946 37.7924 19.8677 37.7569 19.9667 37.7391C20.0958 37.7169 20.1388 37.6903 20.1388 37.6237C20.1388 37.5526 20.169 37.5393 20.311 37.5393C20.453 37.5393 20.4831 37.526 20.4831 37.4505C20.4831 37.375 20.5132 37.3617 20.6552 37.3617C20.7972 37.3617 20.8274 37.3484 20.8274 37.2729C20.8274 37.2152 20.8575 37.1841 20.9134 37.1841C20.9608 37.1841 20.9995 37.1575 20.9995 37.122C20.9995 37.082 21.0641 37.0465 21.1716 37.0287C21.2706 37.011 21.3438 36.9754 21.3438 36.9399C21.3438 36.9044 21.4169 36.8689 21.5159 36.8511C21.6149 36.8334 21.688 36.7978 21.688 36.7623C21.688 36.7268 21.7612 36.6913 21.8602 36.6735C21.9591 36.6558 22.0323 36.6203 22.0323 36.5847C22.0323 36.5492 22.1054 36.5137 22.2044 36.4959C22.3335 36.4737 22.3766 36.4471 22.3766 36.3805C22.3766 36.3095 22.4067 36.2961 22.5487 36.2961C22.6907 36.2961 22.7208 36.2828 22.7208 36.2073C22.7208 36.1319 22.7509 36.1185 22.8929 36.1185C23.035 36.1185 23.0651 36.1052 23.0651 36.0297C23.0651 35.972 23.0952 35.9409 23.1511 35.9409C23.1985 35.9409 23.2372 35.9143 23.2372 35.8788C23.2372 35.8388 23.3018 35.8033 23.4093 35.7855C23.5083 35.7678 23.5815 35.7323 23.5815 35.6967C23.5815 35.6612 23.6546 35.6257 23.7536 35.6079C23.8526 35.5902 23.9257 35.5547 23.9257 35.5191C23.9257 35.4836 23.9989 35.4481 24.0979 35.4303C24.1968 35.4126 24.27 35.3771 24.27 35.3415C24.27 35.306 24.3431 35.2705 24.4421 35.2527C24.5712 35.2305 24.6143 35.2039 24.6143 35.1373C24.6143 35.0663 24.6444 35.0529 24.7864 35.0529C24.9284 35.0529 24.9585 35.0396 24.9585 34.9641C24.9585 34.9064 24.9886 34.8754 25.0446 34.8754C25.0919 34.8754 25.1306 34.8487 25.1306 34.8132C25.1306 34.7732 25.1952 34.7377 25.3028 34.72C25.4018 34.7022 25.4749 34.6667 25.4749 34.6312C25.4749 34.5956 25.5481 34.5601 25.647 34.5424C25.746 34.5246 25.8192 34.4891 25.8192 34.4536C25.8192 34.418 25.8923 34.3825 25.9913 34.3648C26.0903 34.347 26.1634 34.3115 26.1634 34.276C26.1634 34.2404 26.2366 34.2049 26.3356 34.1872C26.4647 34.165 26.5077 34.1383 26.5077 34.0717C26.5077 34.0007 26.5378 33.9874 26.6798 33.9874C26.8218 33.9874 26.852 33.974 26.852 33.8986C26.852 33.8408 26.8821 33.8098 26.938 33.8098C26.9854 33.8098 27.0241 33.7831 27.0241 33.7476C27.0241 33.7076 27.0886 33.6721 27.1962 33.6544C27.2952 33.6366 27.3684 33.6011 27.3684 33.5656C27.3684 33.53 27.4415 33.4945 27.5405 33.4768C27.6395 33.459 27.7126 33.4235 27.7126 33.388C27.7126 33.3524 27.7858 33.3169 27.8847 33.2992C27.9837 33.2814 28.0569 33.2459 28.0569 33.2104C28.0569 33.1749 28.13 33.1393 28.229 33.1216C28.328 33.1038 28.4011 33.0683 28.4011 33.0328C28.4011 32.9973 28.4743 32.9617 28.5733 32.944C28.7497 32.9129 28.8186 32.7886 28.6593 32.7886C28.5948 32.7886 28.5733 32.7575 28.5733 32.6776C28.5733 32.5977 28.5518 32.5666 28.4872 32.5666C28.4184 32.5666 28.4011 32.5355 28.4011 32.4112C28.4011 32.2869 28.3839 32.2558 28.3151 32.2558C28.2591 32.2558 28.229 32.2247 28.229 32.167C28.229 32.1093 28.1989 32.0782 28.1429 32.0782C28.087 32.0782 28.0569 32.0471 28.0569 31.9894C28.0569 31.9317 28.0268 31.9006 27.9708 31.9006C27.9149 31.9006 27.8847 31.8695 27.8847 31.8118C27.8847 31.7541 27.8546 31.723 27.7987 31.723C27.7427 31.723 27.7126 31.6919 27.7126 31.6342C27.7126 31.5765 27.6825 31.5454 27.6266 31.5454C27.5706 31.5454 27.5405 31.5143 27.5405 31.4566C27.5405 31.3989 27.5104 31.3678 27.4544 31.3678C27.3985 31.3678 27.3684 31.3367 27.3684 31.279C27.3684 31.2213 27.3382 31.1902 27.2823 31.1902C27.2263 31.1902 27.1962 31.1591 27.1962 31.1014C27.1962 31.0437 27.1661 31.0126 27.1102 31.0126C27.0542 31.0126 27.0241 30.9815 27.0241 30.9238C27.0241 30.8661 26.994 30.835 26.938 30.835C26.8821 30.835 26.852 30.8039 26.852 30.7462C26.852 30.6885 26.8218 30.6574 26.7659 30.6574C26.71 30.6574 26.6798 30.6263 26.6798 30.5686C26.6798 30.5109 26.6497 30.4798 26.5938 30.4798C26.5292 30.4798 26.5077 30.4487 26.5077 30.3688C26.5077 30.2889 26.4862 30.2578 26.4216 30.2578C26.3657 30.2578 26.3356 30.2267 26.3356 30.169C26.3356 30.1113 26.3054 30.0802 26.2495 30.0802C26.1936 30.0802 26.1634 30.0491 26.1634 29.9914C26.1634 29.9337 26.1333 29.9026 26.0774 29.9026C26.0214 29.9026 25.9913 29.8715 25.9913 29.8138C25.9913 29.7561 25.9612 29.725 25.9052 29.725C25.8493 29.725 25.8192 29.6939 25.8192 29.6362C25.8192 29.5785 25.7891 29.5474 25.7331 29.5474C25.6643 29.5474 25.647 29.5163 25.647 29.392C25.647 29.2677 25.6298 29.2366 25.561 29.2366C25.505 29.2366 25.4749 29.2055 25.4749 29.1478C25.4749 29.0901 25.4448 29.059 25.3888 29.059C25.3329 29.059 25.3028 29.0279 25.3028 28.9702C25.3028 28.9125 25.2727 28.8814 25.2167 28.8814C25.1608 28.8814 25.1306 28.8503 25.1306 28.7926C25.1306 28.7349 25.1005 28.7038 25.0446 28.7038C24.9886 28.7038 24.9585 28.6727 24.9585 28.615C24.9585 28.5573 24.9284 28.5262 24.8725 28.5262C24.8165 28.5262 24.7864 28.4951 24.7864 28.4374C24.7864 28.3797 24.7563 28.3486 24.7003 28.3486C24.6444 28.3486 24.6143 28.3175 24.6143 28.2598C24.6143 28.2021 24.5841 28.171 24.5282 28.171C24.4722 28.171 24.4421 28.1399 24.4421 28.0822C24.4421 28.0245 24.412 27.9934 24.3561 27.9934C24.2915 27.9934 24.27 27.9624 24.27 27.8824C24.27 27.8025 24.2485 27.7714 24.1839 27.7714C24.128 27.7714 24.0979 27.7404 24.0979 27.6826C24.0979 27.6249 24.0677 27.5938 24.0118 27.5938C23.9559 27.5938 23.9257 27.5628 23.9257 27.505C23.9257 27.4473 23.8956 27.4162 23.8397 27.4162C23.7837 27.4162 23.7536 27.3852 23.7536 27.3274C23.7536 27.2697 23.7235 27.2386 23.6675 27.2386C23.6116 27.2386 23.5815 27.2076 23.5815 27.1498C23.5815 27.0921 23.5513 27.061 23.4954 27.061C23.4395 27.061 23.4093 27.03 23.4093 26.9722C23.4093 26.9145 23.3792 26.8834 23.3233 26.8834C23.2544 26.8834 23.2372 26.8524 23.2372 26.728C23.2372 26.6037 23.22 26.5726 23.1511 26.5726C23.0952 26.5726 23.0651 26.5416 23.0651 26.4838C23.0651 26.4261 23.035 26.395 22.979 26.395C22.9231 26.395 22.8929 26.364 22.8929 26.3062C22.8929 26.2485 22.8628 26.2174 22.8069 26.2174C22.7509 26.2174 22.7208 26.1864 22.7208 26.1331C22.7208 26.0754 22.6778 26.0443 22.5874 26.0221C22.5143 26.0088 22.4411 25.9999 22.4239 25.9999C22.411 26.0043 22.355 26.0177 22.3034 26.0265Z" fill="white"/>
</svg>
