<svg width="17" height="16" viewBox="0 0 17 16" fill="none" xmlns="http://www.w3.org/2000/svg">
<path d="M12.7718 9.46281C11.4719 9.46281 10.3464 10.2221 9.81747 11.3195L6.17955 9.60018C6.44701 9.12691 6.59986 8.58099 6.59986 8C6.59986 7.70437 6.56018 7.418 6.48602 7.14549L10.2289 5.32698C10.8301 6.06486 11.7467 6.53722 12.7718 6.53722C14.5781 6.53722 16.0477 5.07096 16.0477 3.26857C16.0477 1.46629 14.5781 0 12.7718 0C10.9653 0 9.49573 1.46629 9.49573 3.26857C9.49573 3.83918 9.64315 4.37593 9.9018 4.84322L6.28412 6.60094C5.75779 5.49661 4.62879 4.73135 3.32391 4.73135C1.51745 4.73135 0.0478516 6.19761 0.0478516 8C0.0478516 9.80228 1.51745 11.2686 3.32391 11.2686C4.33782 11.2686 5.24569 10.8066 5.84709 10.0825L9.61353 11.8625C9.53688 12.1393 9.49573 12.4306 9.49573 12.7313C9.49573 14.5337 10.9654 16 12.7718 16C14.5783 16 16.0479 14.5337 16.0479 12.7313C16.0479 10.929 14.5783 9.46281 12.7718 9.46281ZM12.7718 0.577846C14.2588 0.577846 15.4686 1.78492 15.4686 3.26857C15.4686 4.75233 14.2588 5.9594 12.7718 5.9594C11.2848 5.9594 10.075 4.75233 10.075 3.26857C10.075 1.78492 11.2848 0.577846 12.7718 0.577846ZM3.32391 10.6908C1.8368 10.6908 0.62699 9.48368 0.62699 8.00003C0.62699 6.51627 1.8368 5.30928 3.32391 5.30928C4.81091 5.30928 6.02073 6.51627 6.02073 8.00003C6.02073 9.48368 4.81091 10.6908 3.32391 10.6908ZM12.7718 15.4221C11.2848 15.4221 10.075 14.215 10.075 12.7313C10.075 11.2477 11.2848 10.0406 12.7718 10.0406C14.2588 10.0406 15.4686 11.2477 15.4686 12.7313C15.4686 14.215 14.2588 15.4221 12.7718 15.4221Z" fill="#6F6F6F"/>
</svg>
