<svg width="17" height="18" viewBox="0 0 17 18" fill="none" xmlns="http://www.w3.org/2000/svg">
<path d="M1.37524 0.0253572C1.37524 0.0388889 1.39 0.0507288 1.40803 0.0507288C1.42934 0.0507288 1.44082 0.0625691 1.44082 0.084558C1.44082 0.106547 1.4523 0.118387 1.47361 0.118387C1.49492 0.118387 1.5064 0.130228 1.5064 0.152216C1.5064 0.174206 1.51787 0.186046 1.53918 0.186046C1.5605 0.186046 1.57197 0.197886 1.57197 0.219875C1.57197 0.241864 1.58345 0.253704 1.60476 0.253704C1.62607 0.253704 1.63755 0.265544 1.63755 0.287534C1.63755 0.309523 1.64902 0.321363 1.67034 0.321363C1.69165 0.321363 1.70312 0.333203 1.70312 0.355192C1.70312 0.377181 1.7146 0.389021 1.73591 0.389021C1.75723 0.389021 1.7687 0.400861 1.7687 0.422851C1.7687 0.444839 1.78018 0.45668 1.80149 0.45668C1.82608 0.45668 1.83428 0.46852 1.83428 0.498966C1.83428 0.529412 1.84247 0.541253 1.86707 0.541253C1.88838 0.541253 1.89985 0.553093 1.89985 0.575082C1.89985 0.597071 1.91133 0.608911 1.93264 0.608911C1.95395 0.608911 1.96543 0.620751 1.96543 0.64274C1.96543 0.66473 1.97691 0.676569 1.99822 0.676569C2.01953 0.676569 2.03101 0.68841 2.03101 0.710399C2.03101 0.732388 2.04248 0.744228 2.06379 0.744228C2.08511 0.744228 2.09658 0.756068 2.09658 0.778057C2.09658 0.800046 2.10806 0.811886 2.12937 0.811886C2.1556 0.811886 2.16216 0.823727 2.16216 0.871088C2.16216 0.918448 2.16872 0.930289 2.19495 0.930289C2.21626 0.930289 2.22773 0.942129 2.22773 0.964118C2.22773 0.986107 2.23921 0.997947 2.26052 0.997947C2.28183 0.997947 2.29331 1.00979 2.29331 1.03178C2.29331 1.05377 2.30479 1.06561 2.3261 1.06561C2.34741 1.06561 2.35889 1.07745 2.35889 1.09943C2.35889 1.12142 2.37036 1.13326 2.39167 1.13326C2.41299 1.13326 2.42446 1.1451 2.42446 1.16709C2.42446 1.18908 2.43594 1.20092 2.45725 1.20092C2.47856 1.20092 2.49004 1.21276 2.49004 1.23475C2.49004 1.25674 2.50151 1.26858 2.52283 1.26858C2.54414 1.26858 2.55561 1.28042 2.55561 1.30241C2.55561 1.3244 2.56709 1.33624 2.5884 1.33624C2.60971 1.33624 2.62119 1.34808 2.62119 1.37007C2.62119 1.39206 2.63267 1.4039 2.65398 1.4039C2.67529 1.4039 2.68677 1.41574 2.68677 1.43773C2.68677 1.45972 2.69824 1.47156 2.71955 1.47156C2.74415 1.47156 2.75234 1.4834 2.75234 1.51384C2.75234 1.54429 2.76054 1.55613 2.78513 1.55613C2.80644 1.55613 2.81792 1.56797 2.81792 1.58996C2.81792 1.61195 2.82939 1.62379 2.85071 1.62379C2.87202 1.62379 2.8835 1.63563 2.8835 1.65762C2.8835 1.67961 2.89497 1.69145 2.91628 1.69145C2.9376 1.69145 2.94907 1.70329 2.94907 1.72528C2.94907 1.74726 2.96055 1.7591 2.98186 1.7591C3.00317 1.7591 3.01465 1.77095 3.01465 1.79293C3.01465 1.81492 3.02612 1.82676 3.04744 1.82676C3.06875 1.82676 3.08022 1.8386 3.08022 1.86059C3.08022 1.88258 3.0917 1.89442 3.11301 1.89442C3.13924 1.89442 3.1458 1.90626 3.1458 1.95362C3.1458 2.00098 3.15236 2.01282 3.17859 2.01282C3.1999 2.01282 3.21138 2.02466 3.21138 2.04665C3.21138 2.06864 3.22285 2.08048 3.24416 2.08048C3.26548 2.08048 3.27695 2.09232 3.27695 2.11431C3.27695 2.1363 3.28843 2.14814 3.30974 2.14814C3.33105 2.14814 3.34253 2.15998 3.34253 2.18197C3.34253 2.20396 3.354 2.2158 3.37532 2.2158C3.39663 2.2158 3.4081 2.22764 3.4081 2.24963C3.4081 2.27162 3.41958 2.28346 3.44089 2.28346C3.4622 2.28346 3.47368 2.2953 3.47368 2.31729C3.47368 2.33928 3.48516 2.35112 3.50647 2.35112C3.52778 2.35112 3.53926 2.36296 3.53926 2.38495C3.53926 2.40693 3.55073 2.41877 3.57204 2.41877C3.59336 2.41877 3.60483 2.43061 3.60483 2.4526C3.60483 2.47459 3.61631 2.48643 3.63762 2.48643C3.65893 2.48643 3.67041 2.49827 3.67041 2.52026C3.67041 2.54225 3.68188 2.55409 3.7032 2.55409C3.72779 2.55409 3.73598 2.56593 3.73598 2.59638C3.73598 2.62682 3.74418 2.63866 3.76877 2.63866C3.79009 2.63866 3.80156 2.6505 3.80156 2.67249C3.80156 2.69448 3.81304 2.70632 3.83435 2.70632C3.85566 2.70632 3.86714 2.71816 3.86714 2.74015C3.86714 2.76214 3.87861 2.77398 3.89992 2.77398C3.92124 2.77398 3.93271 2.78582 3.93271 2.80781C3.93271 2.8298 3.94419 2.84164 3.9655 2.84164C3.98681 2.84164 3.99829 2.85348 3.99829 2.87547C3.99829 2.89746 4.00977 2.9093 4.03108 2.9093C4.05239 2.9093 4.06387 2.92114 4.06387 2.94313C4.06387 2.96512 4.07534 2.97696 4.09665 2.97696C4.12288 2.97696 4.12944 2.9888 4.12944 3.03616C4.12944 3.08352 4.136 3.09536 4.16223 3.09536C4.18354 3.09536 4.19502 3.1072 4.19502 3.12919C4.19502 3.15118 4.20649 3.16302 4.22781 3.16302C4.24912 3.16302 4.26059 3.17486 4.26059 3.19685C4.26059 3.21884 4.27207 3.23068 4.29338 3.23068C4.31469 3.23068 4.32617 3.24252 4.32617 3.26451C4.32617 3.28649 4.33765 3.29833 4.35896 3.29833C4.38027 3.29833 4.39175 3.31017 4.39175 3.33216C4.39175 3.35415 4.40322 3.36599 4.42453 3.36599C4.44585 3.36599 4.45732 3.37783 4.45732 3.39982C4.45732 3.42181 4.4688 3.43365 4.49011 3.43365C4.51142 3.43365 4.5229 3.44549 4.5229 3.46748C4.5229 3.48947 4.53437 3.50131 4.55569 3.50131C4.577 3.50131 4.58847 3.51315 4.58847 3.53514C4.58847 3.55713 4.59995 3.56897 4.62126 3.56897C4.64257 3.56897 4.65405 3.58081 4.65405 3.6028C4.65405 3.62479 4.66553 3.63663 4.68684 3.63663C4.70815 3.63663 4.71963 3.64847 4.71963 3.67046C4.71963 3.69244 4.7311 3.70429 4.75241 3.70429C4.77373 3.70429 4.7852 3.71613 4.7852 3.73811C4.7852 3.7601 4.79668 3.77194 4.81799 3.77194C4.84258 3.77194 4.85078 3.78378 4.85078 3.81423C4.85078 3.84468 4.85898 3.85652 4.88357 3.85652C4.90488 3.85652 4.91635 3.86836 4.91635 3.89035C4.91635 3.91233 4.92783 3.92418 4.94914 3.92418C4.97046 3.92418 4.98193 3.93602 4.98193 3.958C4.98193 3.97999 4.99341 3.99183 5.01472 3.99183C5.03603 3.99183 5.04751 4.00367 5.04751 4.02566C5.04751 4.04765 5.05898 4.05949 5.0803 4.05949C5.10161 4.05949 5.11308 4.07133 5.11308 4.09332C5.11308 4.11531 5.12456 4.12715 5.14587 4.12715C5.1721 4.12715 5.17866 4.13899 5.17866 4.18635C5.17866 4.23371 5.18522 4.24555 5.21145 4.24555C5.23276 4.24555 5.24424 4.25739 5.24424 4.27938C5.24424 4.30137 5.25571 4.31321 5.27702 4.31321C5.29834 4.31321 5.30981 4.32505 5.30981 4.34704C5.30981 4.36903 5.32129 4.38087 5.3426 4.38087C5.36391 4.38087 5.37539 4.39271 5.37539 4.4147C5.37539 4.43669 5.38686 4.44853 5.40818 4.44853C5.42949 4.44853 5.44096 4.46037 5.44096 4.48236C5.44096 4.50435 5.45244 4.51619 5.47375 4.51619C5.49506 4.51619 5.50654 4.52803 5.50654 4.55002C5.50654 4.572 5.51802 4.58384 5.53933 4.58384C5.56064 4.58384 5.57212 4.59569 5.57212 4.61767C5.57212 4.63966 5.58359 4.6515 5.6049 4.6515C5.62622 4.6515 5.63769 4.66334 5.63769 4.68533C5.63769 4.70732 5.64917 4.71916 5.67048 4.71916C5.69179 4.71916 5.70327 4.731 5.70327 4.75299C5.70327 4.77498 5.71474 4.78682 5.73606 4.78682C5.75737 4.78682 5.76884 4.79866 5.76884 4.82065C5.76884 4.84264 5.78032 4.85448 5.80163 4.85448C5.82622 4.85448 5.83442 4.86632 5.83442 4.89677C5.83442 4.92721 5.84262 4.93905 5.86721 4.93905C5.88852 4.93905 5.9 4.95089 5.9 4.97288C5.9 4.99487 5.91147 5.00671 5.93279 5.00671C5.9541 5.00671 5.96557 5.01855 5.96557 5.04054C5.96557 5.06253 5.97705 5.07437 5.99836 5.07437C6.01967 5.07437 6.03115 5.08621 6.03115 5.1082C6.03115 5.13019 6.04262 5.14203 6.06394 5.14203C6.08525 5.14203 6.09673 5.15387 6.09673 5.17586C6.09673 5.19785 6.1082 5.20969 6.12951 5.20969C6.15083 5.20969 6.1623 5.22153 6.1623 5.24351C6.1623 5.2655 6.17378 5.27734 6.19509 5.27734C6.22132 5.27734 6.22788 5.28918 6.22788 5.33655C6.22788 5.38391 6.23444 5.39575 6.26067 5.39575C6.28198 5.39575 6.29345 5.40759 6.29345 5.42958C6.29345 5.45156 6.30493 5.4634 6.32624 5.4634C6.34755 5.4634 6.35903 5.47524 6.35903 5.49723C6.35903 5.51922 6.37051 5.53106 6.39182 5.53106C6.41313 5.53106 6.42461 5.5429 6.42461 5.56489C6.42461 5.58688 6.43608 5.59872 6.45739 5.59872C6.47871 5.59872 6.49018 5.61056 6.49018 5.63255C6.49018 5.65454 6.50166 5.66638 6.52297 5.66638C6.54428 5.66638 6.55576 5.67822 6.55576 5.70021C6.55576 5.7222 6.56723 5.73404 6.58855 5.73404C6.60986 5.73404 6.62133 5.74588 6.62133 5.76787C6.62133 5.78986 6.63281 5.8017 6.65412 5.8017C6.67543 5.8017 6.68691 5.81354 6.68691 5.83553C6.68691 5.85752 6.69839 5.86936 6.7197 5.86936C6.74101 5.86936 6.75249 5.8812 6.75249 5.90318C6.75249 5.92517 6.76396 5.93701 6.78527 5.93701C6.80659 5.93701 6.81806 5.94885 6.81806 5.97084C6.81806 5.99283 6.82954 6.00467 6.85085 6.00467C6.87544 6.00467 6.88364 6.01651 6.88364 6.04696C6.88364 6.07741 6.89184 6.08925 6.91643 6.08925C6.93774 6.08925 6.94921 6.10109 6.94921 6.12307C6.94921 6.14506 6.96069 6.1569 6.982 6.1569C7.00332 6.1569 7.01479 6.16874 7.01479 6.19073C7.01479 6.21272 7.02627 6.22456 7.04758 6.22456C7.07381 6.22456 7.08037 6.2364 7.08037 6.28376C7.08037 6.33112 7.08692 6.34296 7.11316 6.34296C7.13447 6.34296 7.14594 6.3548 7.14594 6.37679C7.14594 6.39878 7.15742 6.41062 7.17873 6.41062C7.20004 6.41062 7.21152 6.42246 7.21152 6.44445C7.21152 6.46644 7.223 6.47828 7.24431 6.47828C7.26562 6.47828 7.2771 6.49012 7.2771 6.51211C7.2771 6.5341 7.28857 6.54594 7.30988 6.54594C7.3312 6.54594 7.34267 6.55778 7.34267 6.57977C7.34267 6.60176 7.35415 6.6136 7.37546 6.6136C7.39677 6.6136 7.40825 6.62544 7.40825 6.64743C7.40825 6.66942 7.41972 6.68126 7.44104 6.68126C7.46235 6.68126 7.47382 6.6931 7.47382 6.71509C7.47382 6.73708 7.4853 6.74892 7.50661 6.74892C7.52792 6.74892 7.5394 6.76076 7.5394 6.78274C7.5394 6.80473 7.55088 6.81657 7.57219 6.81657C7.5935 6.81657 7.60498 6.82841 7.60498 6.8504C7.60498 6.87239 7.61645 6.88423 7.63776 6.88423C7.65908 6.88423 7.67055 6.89607 7.67055 6.91806C7.67055 6.94005 7.68203 6.95189 7.70334 6.95189C7.72465 6.95189 7.73613 6.96373 7.73613 6.98572C7.73613 7.00771 7.7476 7.01955 7.76892 7.01955C7.79023 7.01955 7.8017 7.03139 7.8017 7.05338C7.8017 7.07537 7.81318 7.08721 7.83449 7.08721C7.85908 7.08721 7.86728 7.09905 7.86728 7.12949C7.86728 7.15994 7.87548 7.17178 7.90007 7.17178C7.92138 7.17178 7.93286 7.18362 7.93286 7.20561C7.93286 7.2276 7.94433 7.23944 7.96564 7.23944C7.98696 7.23944 7.99843 7.25128 7.99843 7.27327C7.99843 7.29526 8.00991 7.3071 8.03122 7.3071C8.05253 7.3071 8.06401 7.31894 8.06401 7.34093C8.06401 7.36292 8.07548 7.37476 8.0968 7.37476C8.11811 7.37476 8.12959 7.3866 8.12959 7.40859C8.12959 7.43057 8.14106 7.44241 8.16237 7.44241C8.18369 7.44241 8.19516 7.45425 8.19516 7.47624C8.19516 7.49823 8.20664 7.51007 8.22795 7.51007C8.24926 7.51007 8.26074 7.52191 8.26074 7.5439C8.26074 7.56589 8.27221 7.57773 8.29353 7.57773C8.31976 7.57773 8.32631 7.58957 8.32631 7.63693C8.32631 7.68429 8.33287 7.69613 8.3591 7.69613C8.38041 7.69613 8.39189 7.70797 8.39189 7.72996C8.39189 7.75195 8.40337 7.76379 8.42468 7.76379C8.44599 7.76379 8.45747 7.77563 8.45747 7.79762C8.45747 7.81961 8.46894 7.83145 8.49025 7.83145C8.51157 7.83145 8.52304 7.84329 8.52304 7.86528C8.52304 7.88727 8.53452 7.89911 8.55583 7.89911C8.57714 7.89911 8.58862 7.88727 8.58862 7.86528C8.58862 7.84329 8.60009 7.83145 8.62141 7.83145C8.64272 7.83145 8.65419 7.81961 8.65419 7.79762C8.65419 7.77563 8.66567 7.76379 8.68698 7.76379C8.70829 7.76379 8.71977 7.75195 8.71977 7.72996C8.71977 7.70797 8.73125 7.69613 8.75256 7.69613C8.77387 7.69613 8.78535 7.68429 8.78535 7.6623C8.78535 7.64032 8.79682 7.62848 8.81813 7.62848C8.83945 7.62848 8.85092 7.61663 8.85092 7.59465C8.85092 7.57266 8.8624 7.56082 8.88371 7.56082C8.90502 7.56082 8.9165 7.54898 8.9165 7.52699C8.9165 7.505 8.92797 7.49316 8.94929 7.49316C8.9706 7.49316 8.98207 7.48132 8.98207 7.45933C8.98207 7.43734 8.99355 7.4255 9.01486 7.4255C9.03618 7.4255 9.04765 7.41366 9.04765 7.39167C9.04765 7.36968 9.05913 7.35784 9.08044 7.35784C9.10175 7.35784 9.11323 7.346 9.11323 7.32401C9.11323 7.30202 9.1247 7.29018 9.14602 7.29018C9.17225 7.29018 9.1788 7.27834 9.1788 7.23098C9.1788 7.18362 9.18536 7.17178 9.21159 7.17178C9.2329 7.17178 9.24438 7.15994 9.24438 7.13795C9.24438 7.11596 9.25586 7.10412 9.27717 7.10412C9.29848 7.10412 9.30996 7.09228 9.30996 7.07029C9.30996 7.0483 9.32143 7.03646 9.34274 7.03646C9.36406 7.03646 9.37553 7.02462 9.37553 7.00263C9.37553 6.98065 9.38701 6.96881 9.40832 6.96881C9.43291 6.96881 9.44111 6.95697 9.44111 6.92652C9.44111 6.89607 9.4493 6.88423 9.4739 6.88423C9.49521 6.88423 9.50668 6.87239 9.50668 6.8504C9.50668 6.82841 9.51816 6.81657 9.53947 6.81657C9.56078 6.81657 9.57226 6.80473 9.57226 6.78274C9.57226 6.76076 9.58374 6.74892 9.60505 6.74892C9.62636 6.74892 9.63784 6.73708 9.63784 6.71509C9.63784 6.6931 9.64931 6.68126 9.67062 6.68126C9.69194 6.68126 9.70341 6.66942 9.70341 6.64743C9.70341 6.62544 9.71489 6.6136 9.7362 6.6136C9.75751 6.6136 9.76899 6.60176 9.76899 6.57977C9.76899 6.55778 9.78046 6.54594 9.80178 6.54594C9.82309 6.54594 9.83456 6.5341 9.83456 6.51211C9.83456 6.49012 9.84604 6.47828 9.86735 6.47828C9.89358 6.47828 9.90014 6.46644 9.90014 6.41908C9.90014 6.37172 9.9067 6.35988 9.93293 6.35988C9.95424 6.35988 9.96572 6.34804 9.96572 6.32605C9.96572 6.30406 9.97719 6.29222 9.9985 6.29222C10.0198 6.29222 10.0313 6.28038 10.0313 6.25839C10.0313 6.2364 10.0428 6.22456 10.0641 6.22456C10.0854 6.22456 10.0969 6.21272 10.0969 6.19073C10.0969 6.16874 10.1083 6.1569 10.1297 6.1569C10.151 6.1569 10.1624 6.14506 10.1624 6.12307C10.1624 6.10109 10.1739 6.08925 10.1952 6.08925C10.2198 6.08925 10.228 6.07741 10.228 6.04696C10.228 6.01651 10.2362 6.00467 10.2608 6.00467C10.2821 6.00467 10.2936 5.99283 10.2936 5.97084C10.2936 5.94885 10.3051 5.93701 10.3264 5.93701C10.3477 5.93701 10.3592 5.92517 10.3592 5.90318C10.3592 5.8812 10.3706 5.86936 10.392 5.86936C10.4133 5.86936 10.4247 5.85752 10.4247 5.83553C10.4247 5.81354 10.4362 5.8017 10.4575 5.8017C10.4789 5.8017 10.4903 5.78986 10.4903 5.76787C10.4903 5.74588 10.5018 5.73404 10.5231 5.73404C10.5444 5.73404 10.5559 5.7222 10.5559 5.70021C10.5559 5.67822 10.5674 5.66638 10.5887 5.66638C10.61 5.66638 10.6215 5.65454 10.6215 5.63255C10.6215 5.61056 10.633 5.59872 10.6543 5.59872C10.6756 5.59872 10.6871 5.58688 10.6871 5.56489C10.6871 5.5429 10.6985 5.53106 10.7198 5.53106C10.7412 5.53106 10.7526 5.51922 10.7526 5.49723C10.7526 5.47524 10.7641 5.4634 10.7854 5.4634C10.8067 5.4634 10.8182 5.45156 10.8182 5.42958C10.8182 5.40759 10.8297 5.39575 10.851 5.39575C10.8789 5.39575 10.8838 5.38391 10.8838 5.32809C10.8838 5.27227 10.8887 5.26043 10.9166 5.26043C10.9346 5.26043 10.9494 5.24859 10.9494 5.23506C10.9494 5.21645 10.9313 5.20969 10.8838 5.20969C10.8297 5.20969 10.8182 5.20461 10.8182 5.17755C10.8182 5.15218 10.8018 5.14203 10.7526 5.13357C10.7149 5.1268 10.6871 5.11327 10.6871 5.09974C10.6871 5.08621 10.6592 5.07268 10.6215 5.06591C10.5838 5.05915 10.5559 5.04561 10.5559 5.03208C10.5559 5.01855 10.528 5.00502 10.4903 4.99825C10.4526 4.99149 10.4247 4.97796 10.4247 4.96442C10.4247 4.95089 10.3969 4.93736 10.3592 4.93059C10.3215 4.92383 10.2936 4.9103 10.2936 4.89677C10.2936 4.88323 10.2657 4.8697 10.228 4.86294C10.187 4.85617 10.1624 4.84264 10.1624 4.82742C10.1624 4.81388 10.1477 4.80374 10.1297 4.80374C10.1083 4.80374 10.0969 4.79189 10.0969 4.76991C10.0969 4.74115 10.0854 4.73608 10.0313 4.73608C9.97719 4.73608 9.96572 4.731 9.96572 4.70225C9.96572 4.67349 9.95424 4.66842 9.90014 4.66842C9.84604 4.66842 9.83456 4.66334 9.83456 4.63628C9.83456 4.61091 9.81817 4.60076 9.76899 4.5923C9.73128 4.58554 9.70341 4.572 9.70341 4.55847C9.70341 4.54494 9.67554 4.53141 9.63784 4.52464C9.60013 4.51788 9.57226 4.50435 9.57226 4.49081C9.57226 4.47728 9.54439 4.46375 9.50668 4.45699C9.46898 4.45022 9.44111 4.43669 9.44111 4.42316C9.44111 4.40962 9.41324 4.39609 9.37553 4.38933C9.33455 4.38256 9.30996 4.36903 9.30996 4.35381C9.30996 4.34027 9.2952 4.33013 9.27717 4.33013C9.25586 4.33013 9.24438 4.31829 9.24438 4.2963C9.24438 4.26754 9.2329 4.26247 9.1788 4.26247C9.1247 4.26247 9.11323 4.25739 9.11323 4.22864C9.11323 4.19988 9.10175 4.19481 9.04765 4.19481C8.99355 4.19481 8.98207 4.18973 8.98207 4.16267C8.98207 4.1373 8.96568 4.12715 8.9165 4.11869C8.87879 4.11193 8.85092 4.0984 8.85092 4.08486C8.85092 4.07133 8.82305 4.0578 8.78535 4.05103C8.74764 4.04427 8.71977 4.03074 8.71977 4.01721C8.71977 4.00367 8.6919 3.99014 8.65419 3.98338C8.61649 3.97661 8.58862 3.96308 8.58862 3.94955C8.58862 3.93602 8.56075 3.92248 8.52304 3.91572C8.48206 3.90895 8.45747 3.89542 8.45747 3.8802C8.45747 3.86667 8.44271 3.85652 8.42468 3.85652C8.40337 3.85652 8.39189 3.84468 8.39189 3.82269C8.39189 3.79393 8.38041 3.78886 8.32631 3.78886C8.27221 3.78886 8.26074 3.78378 8.26074 3.75503C8.26074 3.72627 8.24926 3.7212 8.19516 3.7212C8.14106 3.7212 8.12959 3.71613 8.12959 3.68906C8.12959 3.66369 8.11319 3.65354 8.06401 3.64508C8.0263 3.63832 7.99843 3.62479 7.99843 3.61125C7.99843 3.59772 7.97056 3.58419 7.93286 3.57743C7.89515 3.57066 7.86728 3.55713 7.86728 3.5436C7.86728 3.53006 7.83941 3.51653 7.8017 3.50977C7.764 3.503 7.73613 3.48947 7.73613 3.47594C7.73613 3.46241 7.70826 3.44887 7.67055 3.44211C7.62957 3.43534 7.60498 3.42181 7.60498 3.40659C7.60498 3.39306 7.59022 3.38291 7.57219 3.38291C7.55088 3.38291 7.5394 3.37107 7.5394 3.34908C7.5394 3.32032 7.52792 3.31525 7.47382 3.31525C7.41972 3.31525 7.40825 3.31017 7.40825 3.28311C7.40825 3.25774 7.39185 3.24759 7.34267 3.23913C7.30497 3.23237 7.2771 3.21884 7.2771 3.2053C7.2771 3.19177 7.24923 3.17824 7.21152 3.17147C7.17381 3.16471 7.14594 3.15118 7.14594 3.13765C7.14594 3.12411 7.11807 3.11058 7.08037 3.10382C7.04266 3.09705 7.01479 3.08352 7.01479 3.06999C7.01479 3.05646 6.98692 3.04292 6.94921 3.03616C6.90823 3.02939 6.88364 3.01586 6.88364 3.00064C6.88364 2.98711 6.86888 2.97696 6.85085 2.97696C6.82954 2.97696 6.81806 2.96512 6.81806 2.94313C6.81806 2.91437 6.80659 2.9093 6.75249 2.9093C6.69839 2.9093 6.68691 2.90422 6.68691 2.87547C6.68691 2.84671 6.67543 2.84164 6.62133 2.84164C6.56723 2.84164 6.55576 2.83657 6.55576 2.8095C6.55576 2.78413 6.53936 2.77398 6.49018 2.76552C6.45248 2.75876 6.42461 2.74523 6.42461 2.7317C6.42461 2.71816 6.39674 2.70463 6.35903 2.69787C6.32132 2.6911 6.29345 2.67757 6.29345 2.66404C6.29345 2.6505 6.26558 2.63697 6.22788 2.63021C6.19017 2.62344 6.1623 2.60991 6.1623 2.59638C6.1623 2.58285 6.13443 2.56931 6.09673 2.56255C6.05574 2.55578 6.03115 2.54225 6.03115 2.52703C6.03115 2.5135 6.01639 2.50335 5.99836 2.50335C5.97705 2.50335 5.96557 2.49151 5.96557 2.46952C5.96557 2.44076 5.9541 2.43569 5.9 2.43569C5.8459 2.43569 5.83442 2.43061 5.83442 2.40186C5.83442 2.37311 5.82295 2.36803 5.76884 2.36803C5.71474 2.36803 5.70327 2.36296 5.70327 2.33589C5.70327 2.31052 5.68687 2.30037 5.63769 2.29191C5.59999 2.28515 5.57212 2.27162 5.57212 2.25809C5.57212 2.24455 5.54425 2.23102 5.50654 2.22426C5.46883 2.21749 5.44096 2.20396 5.44096 2.19043C5.44096 2.1769 5.41309 2.16336 5.37539 2.1566C5.33768 2.14983 5.30981 2.1363 5.30981 2.12277C5.30981 2.10924 5.28194 2.09571 5.24424 2.08894C5.20653 2.08217 5.17866 2.06864 5.17866 2.05511C5.17866 2.04158 5.15079 2.02805 5.11308 2.02128C5.0721 2.01452 5.04751 2.00098 5.04751 1.98576C5.04751 1.97223 5.03275 1.96208 5.01472 1.96208C4.99341 1.96208 4.98193 1.95024 4.98193 1.92825C4.98193 1.8995 4.97046 1.89442 4.91635 1.89442C4.86225 1.89442 4.85078 1.88935 4.85078 1.86059C4.85078 1.83184 4.8393 1.82676 4.7852 1.82676C4.7311 1.82676 4.71963 1.82169 4.71963 1.79463C4.71963 1.76925 4.70323 1.7591 4.65405 1.75065C4.61634 1.74388 4.58847 1.73035 4.58847 1.71682C4.58847 1.70329 4.5606 1.68975 4.5229 1.68299C4.48519 1.67622 4.45732 1.66269 4.45732 1.64916C4.45732 1.63563 4.42945 1.6221 4.39175 1.61533C4.35076 1.60856 4.32617 1.59503 4.32617 1.57981C4.32617 1.56628 4.31142 1.55613 4.29338 1.55613C4.27207 1.55613 4.26059 1.54429 4.26059 1.5223C4.26059 1.49355 4.24912 1.48847 4.19502 1.48847C4.14092 1.48847 4.12944 1.4834 4.12944 1.45633C4.12944 1.43096 4.11305 1.42081 4.06387 1.41236C4.02616 1.40559 3.99829 1.39206 3.99829 1.37853C3.99829 1.36499 3.97042 1.35146 3.93271 1.3447C3.89501 1.33793 3.86714 1.3244 3.86714 1.31087C3.86714 1.29734 3.83927 1.2838 3.80156 1.27704C3.76385 1.27027 3.73598 1.25674 3.73598 1.24321C3.73598 1.22968 3.70811 1.21615 3.67041 1.20938C3.6327 1.20261 3.60483 1.18908 3.60483 1.17555C3.60483 1.16202 3.57696 1.14849 3.53926 1.14172C3.49827 1.13496 3.47368 1.12142 3.47368 1.1062C3.47368 1.09267 3.45893 1.08252 3.44089 1.08252C3.41958 1.08252 3.4081 1.07068 3.4081 1.04869C3.4081 1.01994 3.39663 1.01486 3.34253 1.01486C3.28843 1.01486 3.27695 1.00979 3.27695 0.982724C3.27695 0.957352 3.26056 0.947203 3.21138 0.938746C3.17367 0.93198 3.1458 0.918448 3.1458 0.904917C3.1458 0.891385 3.11793 0.877853 3.08022 0.871088C3.04252 0.864322 3.01465 0.85079 3.01465 0.837258C3.01465 0.823727 2.98678 0.810195 2.94907 0.803429C2.91136 0.796663 2.8835 0.783132 2.8835 0.7696C2.8835 0.756068 2.85563 0.742537 2.81792 0.735771C2.77693 0.729005 2.75234 0.715473 2.75234 0.70025C2.75234 0.686718 2.73759 0.676569 2.71955 0.676569C2.69824 0.676569 2.68677 0.66473 2.68677 0.64274C2.68677 0.613986 2.67529 0.608911 2.62119 0.608911C2.56709 0.608911 2.55561 0.603837 2.55561 0.576773C2.55561 0.551402 2.53922 0.541253 2.49004 0.532795C2.45233 0.52603 2.42446 0.512498 2.42446 0.498966C2.42446 0.485435 2.39659 0.471903 2.35889 0.465137C2.32118 0.458371 2.29331 0.444839 2.29331 0.431308C2.29331 0.417776 2.26544 0.404244 2.22773 0.397479C2.19003 0.390713 2.16216 0.377181 2.16216 0.363649C2.16216 0.350118 2.13429 0.336586 2.09658 0.32982C2.0556 0.323054 2.03101 0.309523 2.03101 0.2943C2.03101 0.280768 2.01625 0.270619 1.99822 0.270619C1.97691 0.270619 1.96543 0.258779 1.96543 0.23679C1.96543 0.208035 1.95395 0.20296 1.89985 0.20296C1.84575 0.20296 1.83428 0.197886 1.83428 0.169131C1.83428 0.140377 1.8228 0.135302 1.7687 0.135302C1.7146 0.135302 1.70312 0.130228 1.70312 0.103164C1.70312 0.0777922 1.68673 0.0676436 1.63755 0.0591865C1.59656 0.0524206 1.57197 0.0388889 1.57197 0.0236654C1.57197 0.00675106 1.54738 -1.4782e-05 1.47361 -1.4782e-05C1.39656 -1.4782e-05 1.37524 0.00505972 1.37524 0.0253572Z" fill="white"/>
<path d="M0.168858 0.536167C0.13771 0.542933 0.131152 0.554773 0.131152 0.610592C0.131152 0.664719 0.126234 0.676559 0.0983641 0.676559C0.0688549 0.676559 0.0655761 0.688398 0.0655761 0.769588C0.0655761 0.850779 0.0622973 0.862619 0.032788 0.862619C0 0.862619 0 0.87446 0 8.78713C0 16.6998 0 16.7116 0.032788 16.7116C0.0622973 16.7116 0.0655761 16.7235 0.0655761 16.8131C0.0655761 16.9028 0.0688549 16.9146 0.0983641 16.9146C0.126234 16.9146 0.131152 16.9264 0.131152 16.9823C0.131152 17.0381 0.13607 17.0499 0.16394 17.0499C0.186892 17.0499 0.196728 17.0618 0.196728 17.0854C0.196728 17.1176 0.203286 17.121 0.24755 17.1108C0.275419 17.1057 0.304929 17.1007 0.313126 17.1007C0.321323 17.1007 0.32788 17.0854 0.32788 17.0668C0.32788 17.0449 0.339356 17.033 0.360668 17.033C0.386899 17.033 0.393456 17.0212 0.393456 16.9738C0.393456 16.9264 0.400014 16.9146 0.426244 16.9146C0.447557 16.9146 0.459032 16.9028 0.459032 16.8808C0.459032 16.8588 0.470508 16.847 0.49182 16.847C0.513133 16.847 0.524608 16.8351 0.524608 16.8131C0.524608 16.7911 0.536084 16.7793 0.557397 16.7793C0.578709 16.7793 0.590185 16.7675 0.590185 16.7455C0.590185 16.7235 0.60166 16.7116 0.622973 16.7116C0.644285 16.7116 0.655761 16.6998 0.655761 16.6778C0.655761 16.6558 0.667236 16.644 0.688549 16.644C0.71314 16.644 0.721337 16.6321 0.721337 16.6017C0.721337 16.5712 0.729534 16.5594 0.754125 16.5594C0.775437 16.5594 0.786913 16.5476 0.786913 16.5256C0.786913 16.5036 0.798389 16.4917 0.819701 16.4917C0.841013 16.4917 0.852489 16.4799 0.852489 16.4579C0.852489 16.4359 0.863965 16.4241 0.885277 16.4241C0.906589 16.4241 0.918065 16.4122 0.918065 16.3903C0.918065 16.3683 0.929541 16.3564 0.950853 16.3564C0.972165 16.3564 0.983641 16.3446 0.983641 16.3226C0.983641 16.3006 0.995117 16.2888 1.01643 16.2888C1.03774 16.2888 1.04922 16.2769 1.04922 16.2549C1.04922 16.2329 1.06069 16.2211 1.08201 16.2211C1.10332 16.2211 1.11479 16.2093 1.11479 16.1873C1.11479 16.1653 1.12627 16.1535 1.14758 16.1535C1.16889 16.1535 1.18037 16.1416 1.18037 16.1196C1.18037 16.0976 1.19184 16.0858 1.21316 16.0858C1.23939 16.0858 1.24595 16.074 1.24595 16.0266C1.24595 15.9792 1.2525 15.9674 1.27873 15.9674C1.30005 15.9674 1.31152 15.9555 1.31152 15.9336C1.31152 15.9116 1.323 15.8997 1.34431 15.8997C1.36562 15.8997 1.3771 15.8879 1.3771 15.8659C1.3771 15.8439 1.38857 15.8321 1.40989 15.8321C1.4312 15.8321 1.44267 15.8202 1.44267 15.7982C1.44267 15.7763 1.45415 15.7644 1.47546 15.7644C1.49677 15.7644 1.50825 15.7526 1.50825 15.7306C1.50825 15.7086 1.51973 15.6968 1.54104 15.6968C1.56563 15.6968 1.57383 15.6849 1.57383 15.6545C1.57383 15.624 1.58202 15.6122 1.60661 15.6122C1.62793 15.6122 1.6394 15.6003 1.6394 15.5784C1.6394 15.5564 1.65088 15.5445 1.67219 15.5445C1.6935 15.5445 1.70498 15.5327 1.70498 15.5107C1.70498 15.4887 1.71645 15.4769 1.73777 15.4769C1.75908 15.4769 1.77055 15.465 1.77055 15.443C1.77055 15.421 1.78203 15.4092 1.80334 15.4092C1.82465 15.4092 1.83613 15.3974 1.83613 15.3754C1.83613 15.3534 1.84761 15.3415 1.86892 15.3415C1.89023 15.3415 1.90171 15.3297 1.90171 15.3077C1.90171 15.2857 1.91318 15.2739 1.93449 15.2739C1.95581 15.2739 1.96728 15.262 1.96728 15.2401C1.96728 15.2181 1.97876 15.2062 2.00007 15.2062C2.02138 15.2062 2.03286 15.1944 2.03286 15.1724C2.03286 15.1504 2.04433 15.1386 2.06565 15.1386C2.08696 15.1386 2.09843 15.1267 2.09843 15.1047C2.09843 15.0828 2.10991 15.0709 2.13122 15.0709C2.15745 15.0709 2.16401 15.0591 2.16401 15.0117C2.16401 14.9644 2.17057 14.9525 2.1968 14.9525C2.21811 14.9525 2.22959 14.9407 2.22959 14.9187C2.22959 14.8967 2.24106 14.8849 2.26237 14.8849C2.28369 14.8849 2.29516 14.873 2.29516 14.851C2.29516 14.829 2.30664 14.8172 2.32795 14.8172C2.34926 14.8172 2.36074 14.8054 2.36074 14.7834C2.36074 14.7614 2.37221 14.7495 2.39353 14.7495C2.41484 14.7495 2.42631 14.7377 2.42631 14.7157C2.42631 14.6937 2.43779 14.6819 2.4591 14.6819C2.48369 14.6819 2.49189 14.67 2.49189 14.6396C2.49189 14.6091 2.50009 14.5973 2.52468 14.5973C2.54599 14.5973 2.55747 14.5855 2.55747 14.5635C2.55747 14.5415 2.56894 14.5296 2.59025 14.5296C2.61157 14.5296 2.62304 14.5178 2.62304 14.4958C2.62304 14.4738 2.63452 14.462 2.65583 14.462C2.67714 14.462 2.68862 14.4501 2.68862 14.4282C2.68862 14.4062 2.70009 14.3943 2.72141 14.3943C2.74272 14.3943 2.75419 14.3825 2.75419 14.3605C2.75419 14.3385 2.76567 14.3267 2.78698 14.3267C2.80829 14.3267 2.81977 14.3148 2.81977 14.2928C2.81977 14.2709 2.83125 14.259 2.85256 14.259C2.87387 14.259 2.88535 14.2472 2.88535 14.2252C2.88535 14.2032 2.89682 14.1914 2.91813 14.1914C2.93945 14.1914 2.95092 14.1795 2.95092 14.1575C2.95092 14.1355 2.9624 14.1237 2.98371 14.1237C3.00994 14.1237 3.0165 14.1119 3.0165 14.0645C3.0165 14.0171 3.02306 14.0053 3.04929 14.0053C3.0706 14.0053 3.08207 13.9935 3.08207 13.9715C3.08207 13.9495 3.09355 13.9376 3.11486 13.9376C3.13618 13.9376 3.14765 13.9258 3.14765 13.9038C3.14765 13.8818 3.15913 13.87 3.18044 13.87C3.20175 13.87 3.21323 13.8581 3.21323 13.8361C3.21323 13.8142 3.2247 13.8023 3.24602 13.8023C3.26733 13.8023 3.2788 13.7905 3.2788 13.7685C3.2788 13.7465 3.29028 13.7347 3.31159 13.7347C3.33618 13.7347 3.34438 13.7228 3.34438 13.6924C3.34438 13.6619 3.35258 13.6501 3.37717 13.6501C3.39848 13.6501 3.40996 13.6382 3.40996 13.6163C3.40996 13.5943 3.42143 13.5824 3.44274 13.5824C3.46406 13.5824 3.47553 13.5706 3.47553 13.5486C3.47553 13.5266 3.48701 13.5148 3.50832 13.5148C3.52963 13.5148 3.54111 13.5029 3.54111 13.4809C3.54111 13.4589 3.55258 13.4471 3.5739 13.4471C3.59521 13.4471 3.60668 13.4353 3.60668 13.4133C3.60668 13.3913 3.61816 13.3795 3.63947 13.3795C3.66078 13.3795 3.67226 13.3676 3.67226 13.3456C3.67226 13.3236 3.68374 13.3118 3.70505 13.3118C3.72636 13.3118 3.73784 13.3 3.73784 13.278C3.73784 13.256 3.74931 13.2441 3.77062 13.2441C3.79194 13.2441 3.80341 13.2323 3.80341 13.2103C3.80341 13.1883 3.81489 13.1765 3.8362 13.1765C3.86243 13.1765 3.86899 13.1646 3.86899 13.1173C3.86899 13.0699 3.87555 13.0581 3.90178 13.0581C3.92309 13.0581 3.93456 13.0462 3.93456 13.0242C3.93456 13.0023 3.94604 12.9904 3.96735 12.9904C3.98866 12.9904 4.00014 12.9786 4.00014 12.9566C4.00014 12.9346 4.01162 12.9228 4.03293 12.9228C4.05424 12.9228 4.06572 12.9109 4.06572 12.8889C4.06572 12.8669 4.07719 12.8551 4.0985 12.8551C4.11982 12.8551 4.13129 12.8433 4.13129 12.8213C4.13129 12.7993 4.14277 12.7874 4.16408 12.7874C4.18867 12.7874 4.19687 12.7756 4.19687 12.7452C4.19687 12.7147 4.20506 12.7029 4.22966 12.7029C4.25097 12.7029 4.26244 12.691 4.26244 12.669C4.26244 12.647 4.27392 12.6352 4.29523 12.6352C4.31654 12.6352 4.32802 12.6234 4.32802 12.6014C4.32802 12.5794 4.3395 12.5675 4.36081 12.5675C4.38212 12.5675 4.3936 12.5557 4.3936 12.5337C4.3936 12.5117 4.40507 12.4999 4.42638 12.4999C4.4477 12.4999 4.45917 12.488 4.45917 12.4661C4.45917 12.4441 4.47065 12.4322 4.49196 12.4322C4.51327 12.4322 4.52475 12.4204 4.52475 12.3984C4.52475 12.3764 4.53622 12.3646 4.55754 12.3646C4.57885 12.3646 4.59032 12.3527 4.59032 12.3307C4.59032 12.3088 4.6018 12.2969 4.62311 12.2969C4.64934 12.2969 4.6559 12.2851 4.6559 12.2394C4.6559 12.1853 4.65918 12.1802 4.72148 12.1701C4.78377 12.1599 4.78705 12.1548 4.78705 12.1007C4.78705 12.055 4.79361 12.0432 4.81984 12.0432C4.84115 12.0432 4.85263 12.0314 4.85263 12.0094C4.85263 11.9874 4.8641 11.9755 4.88542 11.9755C4.90673 11.9755 4.9182 11.9637 4.9182 11.9417C4.9182 11.9197 4.92968 11.9079 4.95099 11.9079C4.97558 11.9079 4.98378 11.896 4.98378 11.8656C4.98378 11.8351 4.99198 11.8233 5.01657 11.8233C5.03788 11.8233 5.04936 11.8115 5.04936 11.7895C5.04936 11.7675 5.06083 11.7556 5.08214 11.7556C5.10346 11.7556 5.11493 11.7438 5.11493 11.7218C5.11493 11.6998 5.12641 11.688 5.14772 11.688C5.16903 11.688 5.18051 11.6761 5.18051 11.6542C5.18051 11.6322 5.19198 11.6203 5.2133 11.6203C5.23461 11.6203 5.24609 11.6085 5.24609 11.5865C5.24609 11.5645 5.25756 11.5527 5.27887 11.5527C5.30019 11.5527 5.31166 11.5408 5.31166 11.5188C5.31166 11.4969 5.32314 11.485 5.34445 11.485C5.36576 11.485 5.37724 11.4732 5.37724 11.4512C5.37724 11.4292 5.38871 11.4174 5.41003 11.4174C5.43134 11.4174 5.44281 11.4055 5.44281 11.3835C5.44281 11.3615 5.45429 11.3497 5.4756 11.3497C5.50183 11.3497 5.50839 11.3379 5.50839 11.2905C5.50839 11.2431 5.51495 11.2313 5.54118 11.2313C5.56249 11.2313 5.57397 11.2195 5.57397 11.1975C5.57397 11.1755 5.58544 11.1636 5.60675 11.1636C5.62807 11.1636 5.63954 11.1518 5.63954 11.1298C5.63954 11.1078 5.65102 11.096 5.67233 11.096C5.69364 11.096 5.70512 11.0841 5.70512 11.0621C5.70512 11.0402 5.71659 11.0283 5.73791 11.0283C5.75922 11.0283 5.77069 11.0165 5.77069 10.9945C5.77069 10.9725 5.78217 10.9607 5.80348 10.9607C5.82807 10.9607 5.83627 10.9488 5.83627 10.9184C5.83627 10.8879 5.84447 10.8761 5.86906 10.8761C5.89037 10.8761 5.90185 10.8642 5.90185 10.8423C5.90185 10.8203 5.91332 10.8084 5.93463 10.8084C5.95595 10.8084 5.96742 10.7966 5.96742 10.7746C5.96742 10.7526 5.9789 10.7408 6.00021 10.7408C6.02152 10.7408 6.033 10.7289 6.033 10.7069C6.033 10.6849 6.04447 10.6731 6.06579 10.6731C6.0871 10.6731 6.09857 10.6613 6.09857 10.6393C6.09857 10.6173 6.11005 10.6054 6.13136 10.6054C6.15267 10.6054 6.16415 10.5936 6.16415 10.5716C6.16415 10.5496 6.17563 10.5378 6.19694 10.5378C6.21825 10.5378 6.22973 10.526 6.22973 10.504C6.22973 10.482 6.2412 10.4701 6.26251 10.4701C6.28383 10.4701 6.2953 10.4583 6.2953 10.4363C6.2953 10.4143 6.30678 10.4025 6.32809 10.4025C6.3494 10.4025 6.36088 10.3906 6.36088 10.3686C6.36088 10.3467 6.37235 10.3348 6.39367 10.3348C6.41498 10.3348 6.42645 10.323 6.42645 10.301C6.42645 10.279 6.43793 10.2672 6.45924 10.2672C6.48547 10.2672 6.49203 10.2553 6.49203 10.208C6.49203 10.1606 6.49859 10.1488 6.52482 10.1488C6.54613 10.1488 6.55761 10.1369 6.55761 10.1149C6.55761 10.0929 6.56908 10.0811 6.59039 10.0811C6.61171 10.0811 6.62318 10.0693 6.62318 10.0473C6.62318 10.0253 6.63466 10.0134 6.65597 10.0134C6.67728 10.0134 6.68876 10.0016 6.68876 9.97961C6.68876 9.95762 6.70023 9.94578 6.72155 9.94578C6.74614 9.94578 6.75433 9.93394 6.75433 9.90349C6.75433 9.87305 6.76253 9.86121 6.78712 9.86121C6.80843 9.86121 6.81991 9.84937 6.81991 9.82738C6.81991 9.80539 6.83139 9.79355 6.8527 9.79355C6.87401 9.79355 6.88549 9.78171 6.88549 9.75972C6.88549 9.73773 6.89696 9.72589 6.91827 9.72589C6.93959 9.72589 6.95106 9.71405 6.95106 9.69206C6.95106 9.67007 6.96254 9.65823 6.98385 9.65823C7.00516 9.65823 7.01664 9.64639 7.01664 9.6244C7.01664 9.60241 7.02811 9.59057 7.04943 9.59057C7.07074 9.59057 7.08221 9.57873 7.08221 9.55674C7.08221 9.53475 7.09369 9.52291 7.115 9.52291C7.13631 9.52291 7.14779 9.51107 7.14779 9.48908C7.14779 9.46709 7.15927 9.45525 7.18058 9.45525C7.20189 9.45525 7.21337 9.44341 7.21337 9.42142C7.21337 9.39944 7.22484 9.3876 7.24615 9.3876C7.27239 9.3876 7.27894 9.37576 7.27894 9.32839C7.27894 9.28103 7.2855 9.26919 7.31173 9.26919C7.33304 9.26919 7.34452 9.25735 7.34452 9.23536C7.34452 9.21338 7.35599 9.20153 7.37731 9.20153C7.39862 9.20153 7.41009 9.18969 7.41009 9.16771C7.41009 9.14572 7.42157 9.13388 7.44288 9.13388C7.4642 9.13388 7.47567 9.12204 7.47567 9.10005C7.47567 9.07806 7.48715 9.06622 7.50846 9.06622C7.52977 9.06622 7.54125 9.05438 7.54125 9.03239C7.54125 9.0104 7.55272 8.99856 7.57404 8.99856C7.59535 8.99856 7.60682 8.98672 7.60682 8.96473C7.60682 8.94274 7.6183 8.9309 7.63961 8.9309C7.6642 8.9309 7.6724 8.91906 7.6724 8.88861C7.6724 8.85817 7.6806 8.84633 7.70519 8.84633C7.73142 8.84633 7.73798 8.83449 7.73798 8.78713C7.73798 8.73977 7.73142 8.72793 7.70519 8.72793C7.68388 8.72793 7.6724 8.71608 7.6724 8.6941C7.6724 8.67211 7.66092 8.66027 7.63961 8.66027C7.6183 8.66027 7.60682 8.64843 7.60682 8.62644C7.60682 8.60445 7.59535 8.59261 7.57404 8.59261C7.55272 8.59261 7.54125 8.58077 7.54125 8.55878C7.54125 8.53679 7.52977 8.52495 7.50846 8.52495C7.48715 8.52495 7.47567 8.51311 7.47567 8.49112C7.47567 8.46913 7.4642 8.45729 7.44288 8.45729C7.42157 8.45729 7.41009 8.44545 7.41009 8.42346C7.41009 8.40147 7.39862 8.38963 7.37731 8.38963C7.35272 8.38963 7.34452 8.37779 7.34452 8.34735C7.34452 8.3169 7.33632 8.30506 7.31173 8.30506C7.29042 8.30506 7.27894 8.29322 7.27894 8.27123C7.27894 8.24924 7.26747 8.2374 7.24615 8.2374C7.22484 8.2374 7.21337 8.22556 7.21337 8.20357C7.21337 8.18158 7.20189 8.16974 7.18058 8.16974C7.15927 8.16974 7.14779 8.1579 7.14779 8.13591C7.14779 8.11392 7.13631 8.10208 7.115 8.10208C7.08877 8.10208 7.08221 8.09024 7.08221 8.04288C7.08221 7.99552 7.07566 7.98368 7.04943 7.98368C7.02811 7.98368 7.01664 7.97184 7.01664 7.94985C7.01664 7.92786 7.00516 7.91602 6.98385 7.91602C6.96254 7.91602 6.95106 7.90418 6.95106 7.88219C6.95106 7.8602 6.93959 7.84836 6.91827 7.84836C6.89696 7.84836 6.88549 7.83652 6.88549 7.81453C6.88549 7.79255 6.87401 7.78071 6.8527 7.78071C6.83139 7.78071 6.81991 7.76887 6.81991 7.74688C6.81991 7.72489 6.80843 7.71305 6.78712 7.71305C6.76581 7.71305 6.75433 7.70121 6.75433 7.67922C6.75433 7.65723 6.74286 7.64539 6.72155 7.64539C6.70023 7.64539 6.68876 7.63355 6.68876 7.61156C6.68876 7.58957 6.67728 7.57773 6.65597 7.57773C6.63466 7.57773 6.62318 7.56589 6.62318 7.5439C6.62318 7.52191 6.61171 7.51007 6.59039 7.51007C6.5658 7.51007 6.55761 7.49823 6.55761 7.46778C6.55761 7.43734 6.54941 7.4255 6.52482 7.4255C6.50351 7.4255 6.49203 7.41366 6.49203 7.39167C6.49203 7.36968 6.48055 7.35784 6.45924 7.35784C6.43793 7.35784 6.42645 7.346 6.42645 7.32401C6.42645 7.30202 6.41498 7.29018 6.39367 7.29018C6.37235 7.29018 6.36088 7.27834 6.36088 7.25635C6.36088 7.23436 6.3494 7.22252 6.32809 7.22252C6.30678 7.22252 6.2953 7.21068 6.2953 7.18869C6.2953 7.1667 6.28383 7.15486 6.26251 7.15486C6.2412 7.15486 6.22973 7.14302 6.22973 7.12103C6.22973 7.09905 6.21825 7.0872 6.19694 7.0872C6.17071 7.0872 6.16415 7.07537 6.16415 7.028C6.16415 6.98064 6.15759 6.9688 6.13136 6.9688C6.11005 6.9688 6.09857 6.95696 6.09857 6.93497C6.09857 6.91298 6.0871 6.90114 6.06579 6.90114C6.04447 6.90114 6.033 6.8893 6.033 6.86732C6.033 6.84533 6.02152 6.83349 6.00021 6.83349C5.9789 6.83349 5.96742 6.82165 5.96742 6.79966C5.96742 6.77767 5.95595 6.76583 5.93463 6.76583C5.91332 6.76583 5.90185 6.75399 5.90185 6.732C5.90185 6.71001 5.89037 6.69817 5.86906 6.69817C5.84775 6.69817 5.83627 6.68633 5.83627 6.66434C5.83627 6.64235 5.82479 6.63051 5.80348 6.63051C5.78217 6.63051 5.77069 6.61867 5.77069 6.59668C5.77069 6.57469 5.75922 6.56285 5.73791 6.56285C5.71659 6.56285 5.70512 6.55101 5.70512 6.52902C5.70512 6.50703 5.69364 6.49519 5.67233 6.49519C5.65102 6.49519 5.63954 6.48335 5.63954 6.46136C5.63954 6.43937 5.62807 6.42753 5.60675 6.42753C5.58216 6.42753 5.57397 6.41569 5.57397 6.38525C5.57397 6.3548 5.56577 6.34296 5.54118 6.34296C5.51987 6.34296 5.50839 6.33112 5.50839 6.30913C5.50839 6.28714 5.49691 6.2753 5.4756 6.2753C5.45429 6.2753 5.44281 6.26346 5.44281 6.24147C5.44281 6.21948 5.43134 6.20764 5.41003 6.20764C5.38871 6.20764 5.37724 6.1958 5.37724 6.17381C5.37724 6.15183 5.36576 6.13999 5.34445 6.13999C5.32314 6.13999 5.31166 6.12815 5.31166 6.10616C5.31166 6.08417 5.30019 6.07233 5.27887 6.07233C5.25264 6.07233 5.24609 6.06049 5.24609 6.01313C5.24609 5.96576 5.23953 5.95393 5.2133 5.95393C5.19198 5.95393 5.18051 5.94208 5.18051 5.9201C5.18051 5.89811 5.16903 5.88627 5.14772 5.88627C5.12641 5.88627 5.11493 5.87443 5.11493 5.85244C5.11493 5.83045 5.10346 5.81861 5.08214 5.81861C5.06083 5.81861 5.04936 5.80677 5.04936 5.78478C5.04936 5.76279 5.03788 5.75095 5.01657 5.75095C4.99526 5.75095 4.98378 5.73911 4.98378 5.71712C4.98378 5.69513 4.9723 5.68329 4.95099 5.68329C4.92968 5.68329 4.9182 5.67145 4.9182 5.64946C4.9182 5.62747 4.90673 5.61563 4.88542 5.61563C4.8641 5.61563 4.85263 5.60379 4.85263 5.5818C4.85263 5.55981 4.84115 5.54797 4.81984 5.54797C4.79853 5.54797 4.78705 5.53613 4.78705 5.51414C4.78705 5.49216 4.77558 5.48032 4.75426 5.48032C4.73295 5.48032 4.72148 5.46847 4.72148 5.44649C4.72148 5.4245 4.71 5.41266 4.68869 5.41266C4.66738 5.41266 4.6559 5.40082 4.6559 5.37883C4.6559 5.35684 4.64442 5.345 4.62311 5.345C4.59852 5.345 4.59032 5.33316 4.59032 5.30271C4.59032 5.27227 4.58213 5.26042 4.55754 5.26042C4.53622 5.26042 4.52475 5.24858 4.52475 5.2266C4.52475 5.20461 4.51327 5.19277 4.49196 5.19277C4.47065 5.19277 4.45917 5.18093 4.45917 5.15894C4.45917 5.13695 4.4477 5.12511 4.42638 5.12511C4.40507 5.12511 4.3936 5.11327 4.3936 5.09128C4.3936 5.06929 4.38212 5.05745 4.36081 5.05745C4.3395 5.05745 4.32802 5.04561 4.32802 5.02362C4.32802 5.00163 4.31654 4.98979 4.29523 4.98979C4.269 4.98979 4.26244 4.97795 4.26244 4.93059C4.26244 4.88323 4.25589 4.87139 4.22966 4.87139C4.20834 4.87139 4.19687 4.85955 4.19687 4.83756C4.19687 4.81557 4.18539 4.80373 4.16408 4.80373C4.14277 4.80373 4.13129 4.79189 4.13129 4.7699C4.13129 4.74791 4.11982 4.73607 4.0985 4.73607C4.07719 4.73607 4.06572 4.72423 4.06572 4.70224C4.06572 4.68025 4.05424 4.66841 4.03293 4.66841C4.01162 4.66841 4.00014 4.65657 4.00014 4.63458C4.00014 4.61259 3.98866 4.60075 3.96735 4.60075C3.94604 4.60075 3.93456 4.58891 3.93456 4.56693C3.93456 4.54494 3.92309 4.5331 3.90178 4.5331C3.88046 4.5331 3.86899 4.52126 3.86899 4.49927C3.86899 4.47728 3.85751 4.46544 3.8362 4.46544C3.81489 4.46544 3.80341 4.4536 3.80341 4.43161C3.80341 4.40962 3.79194 4.39778 3.77062 4.39778C3.74931 4.39778 3.73784 4.38594 3.73784 4.36395C3.73784 4.34196 3.72636 4.33012 3.70505 4.33012C3.68374 4.33012 3.67226 4.31828 3.67226 4.29629C3.67226 4.2743 3.66078 4.26246 3.63947 4.26246C3.61816 4.26246 3.60668 4.25062 3.60668 4.22863C3.60668 4.20664 3.59521 4.1948 3.5739 4.1948C3.5493 4.1948 3.54111 4.18296 3.54111 4.15252C3.54111 4.12207 3.53291 4.11023 3.50832 4.11023C3.48701 4.11023 3.47553 4.09839 3.47553 4.0764C3.47553 4.05441 3.46406 4.04257 3.44274 4.04257C3.42143 4.04257 3.40996 4.03073 3.40996 4.00874C3.40996 3.98675 3.39848 3.97491 3.37717 3.97491C3.35585 3.97491 3.34438 3.96307 3.34438 3.94108C3.34438 3.91909 3.3329 3.90725 3.31159 3.90725C3.29028 3.90725 3.2788 3.89541 3.2788 3.87342C3.2788 3.85144 3.26733 3.8396 3.24602 3.8396C3.2247 3.8396 3.21323 3.82775 3.21323 3.80577C3.21323 3.78378 3.20175 3.77194 3.18044 3.77194C3.15421 3.77194 3.14765 3.7601 3.14765 3.71274C3.14765 3.66537 3.14109 3.65353 3.11486 3.65353C3.09355 3.65353 3.08207 3.64169 3.08207 3.61971C3.08207 3.59772 3.0706 3.58588 3.04929 3.58588C3.02797 3.58588 3.0165 3.57404 3.0165 3.55205C3.0165 3.53006 3.00502 3.51822 2.98371 3.51822C2.9624 3.51822 2.95092 3.50638 2.95092 3.48439C2.95092 3.4624 2.93945 3.45056 2.91813 3.45056C2.89682 3.45056 2.88535 3.43872 2.88535 3.41673C2.88535 3.39474 2.87387 3.3829 2.85256 3.3829C2.83125 3.3829 2.81977 3.37106 2.81977 3.34907C2.81977 3.32708 2.80829 3.31524 2.78698 3.31524C2.76567 3.31524 2.75419 3.3034 2.75419 3.28141C2.75419 3.25942 2.74272 3.24758 2.72141 3.24758C2.70009 3.24758 2.68862 3.23574 2.68862 3.21375C2.68862 3.19176 2.67714 3.17992 2.65583 3.17992C2.63452 3.17992 2.62304 3.16808 2.62304 3.1461C2.62304 3.12411 2.61157 3.11227 2.59025 3.11227C2.56566 3.11227 2.55747 3.10043 2.55747 3.06998C2.55747 3.03953 2.54927 3.02769 2.52468 3.02769C2.50337 3.02769 2.49189 3.01585 2.49189 2.99386C2.49189 2.97187 2.48041 2.96003 2.4591 2.96003C2.43779 2.96003 2.42631 2.94819 2.42631 2.9262C2.42631 2.90422 2.41484 2.89238 2.39353 2.89238C2.37221 2.89238 2.36074 2.88054 2.36074 2.85855C2.36074 2.83656 2.34926 2.82472 2.32795 2.82472C2.30664 2.82472 2.29516 2.81288 2.29516 2.79089C2.29516 2.7689 2.28369 2.75706 2.26237 2.75706C2.24106 2.75706 2.22959 2.74522 2.22959 2.72323C2.22959 2.70124 2.21811 2.6894 2.1968 2.6894C2.17057 2.6894 2.16401 2.67756 2.16401 2.6302C2.16401 2.58284 2.15745 2.571 2.13122 2.571C2.10991 2.571 2.09843 2.55916 2.09843 2.53717C2.09843 2.51518 2.08696 2.50334 2.06565 2.50334C2.04433 2.50334 2.03286 2.4915 2.03286 2.46951C2.03286 2.44752 2.02138 2.43568 2.00007 2.43568C1.97876 2.43568 1.96728 2.42384 1.96728 2.40185C1.96728 2.37986 1.95581 2.36802 1.93449 2.36802C1.91318 2.36802 1.90171 2.35618 1.90171 2.33419C1.90171 2.3122 1.89023 2.30036 1.86892 2.30036C1.84761 2.30036 1.83613 2.28852 1.83613 2.26653C1.83613 2.24454 1.82465 2.23271 1.80334 2.23271C1.78203 2.23271 1.77055 2.22087 1.77055 2.19888C1.77055 2.17689 1.75908 2.16505 1.73777 2.16505C1.71645 2.16505 1.70498 2.15321 1.70498 2.13122C1.70498 2.10923 1.6935 2.09739 1.67219 2.09739C1.65088 2.09739 1.6394 2.08555 1.6394 2.06356C1.6394 2.04157 1.62793 2.02973 1.60661 2.02973C1.58202 2.02973 1.57383 2.01789 1.57383 1.98744C1.57383 1.957 1.56563 1.94516 1.54104 1.94516C1.51973 1.94516 1.50825 1.93332 1.50825 1.91133C1.50825 1.88934 1.49677 1.8775 1.47546 1.8775C1.45415 1.8775 1.44267 1.86566 1.44267 1.84367C1.44267 1.82168 1.4312 1.80984 1.40989 1.80984C1.38857 1.80984 1.3771 1.798 1.3771 1.77601C1.3771 1.75402 1.36562 1.74218 1.34431 1.74218C1.323 1.74218 1.31152 1.73034 1.31152 1.70835C1.31152 1.68636 1.30005 1.67452 1.27873 1.67452C1.2525 1.67452 1.24595 1.66268 1.24595 1.61532C1.24595 1.56796 1.23939 1.55612 1.21316 1.55612C1.19184 1.55612 1.18037 1.54428 1.18037 1.52229C1.18037 1.5003 1.16889 1.48846 1.14758 1.48846C1.12627 1.48846 1.11479 1.47662 1.11479 1.45463C1.11479 1.43264 1.10332 1.4208 1.08201 1.4208C1.06069 1.4208 1.04922 1.40896 1.04922 1.38697C1.04922 1.36498 1.03774 1.35314 1.01643 1.35314C0.995117 1.35314 0.983641 1.3413 0.983641 1.31931C0.983641 1.29733 0.972165 1.28549 0.950853 1.28549C0.929541 1.28549 0.918065 1.27365 0.918065 1.25166C0.918065 1.22967 0.906589 1.21783 0.885277 1.21783C0.863965 1.21783 0.852489 1.20599 0.852489 1.184C0.852489 1.16201 0.841013 1.15017 0.819701 1.15017C0.798389 1.15017 0.786913 1.13833 0.786913 1.11634C0.786913 1.09435 0.775437 1.08251 0.754125 1.08251C0.732812 1.08251 0.721337 1.07067 0.721337 1.04868C0.721337 1.02669 0.709861 1.01485 0.688549 1.01485C0.667236 1.01485 0.655761 1.00301 0.655761 0.981022C0.655761 0.959032 0.644285 0.947193 0.622973 0.947193C0.598382 0.947193 0.590185 0.935352 0.590185 0.904905C0.590185 0.87446 0.581988 0.862619 0.557397 0.862619C0.536084 0.862619 0.524608 0.850779 0.524608 0.828791C0.524608 0.806801 0.513133 0.794962 0.49182 0.794962C0.470508 0.794962 0.459032 0.783121 0.459032 0.761131C0.459032 0.739143 0.447557 0.727303 0.426244 0.727303C0.404932 0.727303 0.393456 0.715462 0.393456 0.693474C0.393456 0.671484 0.381981 0.659643 0.360668 0.659643C0.339356 0.659643 0.32788 0.647804 0.32788 0.625814C0.32788 0.603827 0.316404 0.591986 0.295092 0.591986C0.27378 0.591986 0.262304 0.580145 0.262304 0.558157C0.262304 0.524326 0.24755 0.520945 0.168858 0.536167Z" fill="white"/>
<path d="M11.9358 5.92014C11.9358 5.94213 11.9243 5.95397 11.903 5.95397C11.8817 5.95397 11.8702 5.96581 11.8702 5.9878C11.8702 6.00979 11.8587 6.02163 11.8374 6.02163C11.8161 6.02163 11.8046 6.03347 11.8046 6.05545C11.8046 6.07744 11.7931 6.08928 11.7718 6.08928C11.7505 6.08928 11.739 6.10112 11.739 6.12311C11.739 6.1451 11.7276 6.15694 11.7062 6.15694C11.6849 6.15694 11.6735 6.16878 11.6735 6.19077C11.6735 6.21276 11.662 6.2246 11.6407 6.2246C11.6194 6.2246 11.6079 6.23644 11.6079 6.25843C11.6079 6.28042 11.5964 6.29226 11.5751 6.29226C11.5538 6.29226 11.5423 6.3041 11.5423 6.32609C11.5423 6.34808 11.5308 6.35992 11.5095 6.35992C11.4833 6.35992 11.4767 6.37176 11.4767 6.41912C11.4767 6.46648 11.4702 6.47832 11.4439 6.47832C11.4226 6.47832 11.4112 6.49016 11.4112 6.51215C11.4112 6.53414 11.3997 6.54598 11.3784 6.54598C11.3571 6.54598 11.3456 6.55782 11.3456 6.57981C11.3456 6.60179 11.3341 6.61363 11.3128 6.61363C11.2915 6.61363 11.28 6.62547 11.28 6.64746C11.28 6.66945 11.2685 6.68129 11.2472 6.68129C11.2259 6.68129 11.2144 6.69313 11.2144 6.71512C11.2144 6.73711 11.2029 6.74895 11.1816 6.74895C11.1603 6.74895 11.1488 6.76079 11.1488 6.78278C11.1488 6.80477 11.1374 6.81661 11.1161 6.81661C11.0915 6.81661 11.0833 6.82845 11.0833 6.85889C11.0833 6.88934 11.0751 6.90118 11.0505 6.90118C11.0292 6.90118 11.0177 6.91302 11.0177 6.93501C11.0177 6.957 11.0062 6.96884 10.9849 6.96884C10.9636 6.96884 10.9521 6.98068 10.9521 7.00267C10.9521 7.02466 10.9406 7.0365 10.9193 7.0365C10.898 7.0365 10.8865 7.04834 10.8865 7.07033C10.8865 7.09232 10.8751 7.10416 10.8538 7.10416C10.8324 7.10416 10.821 7.116 10.821 7.13798C10.821 7.15997 10.8095 7.17181 10.7882 7.17181C10.7669 7.17181 10.7554 7.18365 10.7554 7.20564C10.7554 7.22763 10.7439 7.23947 10.7226 7.23947C10.7013 7.23947 10.6898 7.25131 10.6898 7.2733C10.6898 7.29529 10.6783 7.30713 10.657 7.30713C10.6357 7.30713 10.6242 7.31897 10.6242 7.34096C10.6242 7.36295 10.6128 7.37479 10.5915 7.37479C10.5701 7.37479 10.5587 7.38663 10.5587 7.40862C10.5587 7.43061 10.5472 7.44245 10.5259 7.44245C10.5046 7.44245 10.4931 7.45429 10.4931 7.47627C10.4931 7.49826 10.4816 7.5101 10.4603 7.5101C10.4341 7.5101 10.4275 7.52194 10.4275 7.5693C10.4275 7.61667 10.421 7.62851 10.3947 7.62851C10.3734 7.62851 10.3619 7.64035 10.3619 7.66233C10.3619 7.68432 10.3505 7.69616 10.3291 7.69616C10.3078 7.69616 10.2964 7.708 10.2964 7.72999C10.2964 7.75198 10.2849 7.76382 10.2636 7.76382C10.2423 7.76382 10.2308 7.77566 10.2308 7.79765C10.2308 7.81964 10.2193 7.83148 10.198 7.83148C10.1767 7.83148 10.1652 7.84332 10.1652 7.86531C10.1652 7.8873 10.1537 7.89914 10.1324 7.89914C10.1111 7.89914 10.0996 7.91098 10.0996 7.93297C10.0996 7.95496 10.0882 7.9668 10.0668 7.9668C10.0455 7.9668 10.0341 7.97864 10.0341 8.00063C10.0341 8.02261 10.0226 8.03445 10.0013 8.03445C9.97668 8.03445 9.96848 8.04629 9.96848 8.07674C9.96848 8.10719 9.96028 8.11903 9.93569 8.11903C9.91438 8.11903 9.9029 8.13087 9.9029 8.15286C9.9029 8.17485 9.89143 8.18669 9.87012 8.18669C9.8488 8.18669 9.83733 8.19853 9.83733 8.22051C9.83733 8.2425 9.82585 8.25434 9.80454 8.25434C9.78323 8.25434 9.77175 8.26618 9.77175 8.28817C9.77175 8.31016 9.76028 8.322 9.73896 8.322C9.71765 8.322 9.70618 8.33384 9.70618 8.35583C9.70618 8.37782 9.6947 8.38966 9.67339 8.38966C9.65208 8.38966 9.6406 8.4015 9.6406 8.42349C9.6406 8.44548 9.62912 8.45732 9.60781 8.45732C9.58158 8.45732 9.57502 8.46916 9.57502 8.51652C9.57502 8.56388 9.56847 8.57572 9.54224 8.57572C9.52092 8.57572 9.50945 8.58756 9.50945 8.60955C9.50945 8.63154 9.49797 8.64338 9.47666 8.64338C9.45535 8.64338 9.44387 8.65522 9.44387 8.67721C9.44387 8.6992 9.4324 8.71104 9.41108 8.71104C9.38157 8.71104 9.3783 8.72288 9.3783 8.81252C9.3783 8.90217 9.38157 8.91401 9.41108 8.91401C9.4324 8.91401 9.44387 8.92585 9.44387 8.94784C9.44387 8.96983 9.45535 8.98167 9.47666 8.98167C9.49797 8.98167 9.50945 8.99351 9.50945 9.0155C9.50945 9.03749 9.52092 9.04933 9.54224 9.04933C9.56355 9.04933 9.57502 9.06117 9.57502 9.08316C9.57502 9.10514 9.5865 9.11698 9.60781 9.11698C9.62912 9.11698 9.6406 9.12882 9.6406 9.15081C9.6406 9.1728 9.65208 9.18464 9.67339 9.18464C9.6947 9.18464 9.70618 9.19648 9.70618 9.21847C9.70618 9.24046 9.71765 9.2523 9.73896 9.2523C9.76028 9.2523 9.77175 9.26414 9.77175 9.28613C9.77175 9.30812 9.78323 9.31996 9.80454 9.31996C9.82585 9.31996 9.83733 9.3318 9.83733 9.35379C9.83733 9.37578 9.8488 9.38762 9.87012 9.38762C9.89471 9.38762 9.9029 9.39946 9.9029 9.4299C9.9029 9.46035 9.9111 9.47219 9.93569 9.47219C9.957 9.47219 9.96848 9.48403 9.96848 9.50602C9.96848 9.52801 9.97996 9.53985 10.0013 9.53985C10.0226 9.53985 10.0341 9.55169 10.0341 9.57368C10.0341 9.59567 10.0455 9.60751 10.0668 9.60751C10.0882 9.60751 10.0996 9.61935 10.0996 9.64133C10.0996 9.66332 10.1111 9.67516 10.1324 9.67516C10.1587 9.67516 10.1652 9.687 10.1652 9.73436C10.1652 9.78173 10.1718 9.79357 10.198 9.79357C10.2193 9.79357 10.2308 9.80541 10.2308 9.82739C10.2308 9.84938 10.2423 9.86122 10.2636 9.86122C10.2849 9.86122 10.2964 9.87306 10.2964 9.89505C10.2964 9.91704 10.3078 9.92888 10.3291 9.92888C10.3505 9.92888 10.3619 9.94072 10.3619 9.96271C10.3619 9.9847 10.3734 9.99654 10.3947 9.99654C10.416 9.99654 10.4275 10.0084 10.4275 10.0304C10.4275 10.0524 10.439 10.0642 10.4603 10.0642C10.4816 10.0642 10.4931 10.076 10.4931 10.098C10.4931 10.12 10.5046 10.1319 10.5259 10.1319C10.5472 10.1319 10.5587 10.1437 10.5587 10.1657C10.5587 10.1877 10.5701 10.1995 10.5915 10.1995C10.6128 10.1995 10.6242 10.2114 10.6242 10.2333C10.6242 10.2553 10.6357 10.2672 10.657 10.2672C10.6783 10.2672 10.6898 10.279 10.6898 10.301C10.6898 10.323 10.7013 10.3348 10.7226 10.3348C10.7439 10.3348 10.7554 10.3467 10.7554 10.3687C10.7554 10.3906 10.7669 10.4025 10.7882 10.4025C10.8095 10.4025 10.821 10.4143 10.821 10.4363C10.821 10.4583 10.8324 10.4701 10.8538 10.4701C10.8751 10.4701 10.8865 10.482 10.8865 10.504C10.8865 10.526 10.898 10.5378 10.9193 10.5378C10.9439 10.5378 10.9521 10.5496 10.9521 10.5801C10.9521 10.6105 10.9603 10.6224 10.9849 10.6224C11.0062 10.6224 11.0177 10.6342 11.0177 10.6562C11.0177 10.6782 11.0292 10.69 11.0505 10.69C11.0718 10.69 11.0833 10.7019 11.0833 10.7239C11.0833 10.7459 11.0947 10.7577 11.1161 10.7577C11.1374 10.7577 11.1488 10.7695 11.1488 10.7915C11.1488 10.8135 11.1603 10.8254 11.1816 10.8254C11.2029 10.8254 11.2144 10.8372 11.2144 10.8592C11.2144 10.8812 11.2259 10.893 11.2472 10.893C11.2685 10.893 11.28 10.9048 11.28 10.9268C11.28 10.9488 11.2915 10.9607 11.3128 10.9607C11.339 10.9607 11.3456 10.9725 11.3456 11.0199C11.3456 11.0672 11.3521 11.0791 11.3784 11.0791C11.3997 11.0791 11.4112 11.0909 11.4112 11.1129C11.4112 11.1349 11.4226 11.1467 11.4439 11.1467C11.4653 11.1467 11.4767 11.1586 11.4767 11.1806C11.4767 11.2025 11.4882 11.2144 11.5095 11.2144C11.5308 11.2144 11.5423 11.2262 11.5423 11.2482C11.5423 11.2702 11.5538 11.282 11.5751 11.282C11.5964 11.282 11.6079 11.2939 11.6079 11.3159C11.6079 11.3379 11.6194 11.3497 11.6407 11.3497C11.662 11.3497 11.6735 11.3615 11.6735 11.3835C11.6735 11.4055 11.6849 11.4174 11.7062 11.4174C11.7276 11.4174 11.739 11.4292 11.739 11.4512C11.739 11.4732 11.7505 11.485 11.7718 11.485C11.7931 11.485 11.8046 11.4969 11.8046 11.5188C11.8046 11.5408 11.8161 11.5527 11.8374 11.5527C11.8587 11.5527 11.8702 11.5645 11.8702 11.5865C11.8702 11.6085 11.8817 11.6203 11.903 11.6203C11.9243 11.6203 11.9358 11.6322 11.9358 11.6525C11.9358 11.6745 11.9505 11.6863 11.9849 11.6931C12.0604 11.71 12.1325 11.6897 12.1325 11.6525C12.1325 11.6271 12.1456 11.6203 12.1981 11.6203C12.2522 11.6203 12.2636 11.6153 12.2636 11.5865C12.2636 11.5578 12.2751 11.5527 12.3292 11.5527C12.3833 11.5527 12.3948 11.5476 12.3948 11.5188C12.3948 11.4969 12.4063 11.485 12.4276 11.485C12.4456 11.485 12.4604 11.4749 12.4604 11.4613C12.4604 11.4461 12.485 11.4326 12.5259 11.4258C12.5637 11.4191 12.5915 11.4055 12.5915 11.392C12.5915 11.3785 12.6194 11.3649 12.6571 11.3582C12.6948 11.3514 12.7227 11.3379 12.7227 11.3243C12.7227 11.3108 12.7505 11.2973 12.7882 11.2905C12.826 11.2837 12.8538 11.2702 12.8538 11.2567C12.8538 11.2431 12.8817 11.2296 12.9194 11.2228C12.9571 11.2161 12.985 11.2025 12.985 11.189C12.985 11.1755 13.0128 11.162 13.0506 11.1552C13.0997 11.1467 13.1161 11.1366 13.1161 11.1112C13.1161 11.0841 13.1276 11.0791 13.1817 11.0791C13.2358 11.0791 13.2473 11.074 13.2473 11.0452C13.2473 11.0233 13.2588 11.0114 13.2801 11.0114C13.2981 11.0114 13.3129 11.0013 13.3129 10.9877C13.3129 10.9725 13.3374 10.959 13.3784 10.9522C13.4161 10.9454 13.444 10.9319 13.444 10.9184C13.444 10.9048 13.4719 10.8913 13.5096 10.8846C13.5473 10.8778 13.5752 10.8643 13.5752 10.8507C13.5752 10.8372 13.603 10.8237 13.6407 10.8169C13.6899 10.8084 13.7063 10.7983 13.7063 10.7729C13.7063 10.7459 13.7178 10.7408 13.7719 10.7408C13.826 10.7408 13.8375 10.7357 13.8375 10.7069C13.8375 10.6782 13.8489 10.6731 13.903 10.6731C13.9571 10.6731 13.9686 10.668 13.9686 10.6393C13.9686 10.6173 13.9801 10.6055 14.0014 10.6055C14.0194 10.6055 14.0342 10.5953 14.0342 10.5818C14.0342 10.5666 14.0588 10.553 14.0998 10.5463C14.1375 10.5395 14.1653 10.526 14.1653 10.5124C14.1653 10.4989 14.1932 10.4854 14.2309 10.4786C14.2686 10.4718 14.2965 10.4583 14.2965 10.4448C14.2965 10.4312 14.3244 10.4177 14.3621 10.4109C14.3998 10.4042 14.4277 10.3906 14.4277 10.3771C14.4277 10.3636 14.4555 10.3501 14.4932 10.3433C14.5424 10.3348 14.5588 10.3247 14.5588 10.2993C14.5588 10.2722 14.5703 10.2672 14.6244 10.2672C14.6785 10.2672 14.69 10.2621 14.69 10.2333C14.69 10.2046 14.7014 10.1995 14.7555 10.1995C14.8096 10.1995 14.8211 10.1944 14.8211 10.1657C14.8211 10.1437 14.8326 10.1319 14.8539 10.1319C14.8719 10.1319 14.8867 10.1217 14.8867 10.1082C14.8867 10.093 14.9113 10.0794 14.9523 10.0727C14.99 10.0659 15.0178 10.0524 15.0178 10.0388C15.0178 10.0253 15.0457 10.0118 15.0834 10.005C15.1211 9.99823 15.149 9.9847 15.149 9.97117C15.149 9.95764 15.1769 9.9441 15.2146 9.93734C15.2637 9.92888 15.2801 9.91873 15.2801 9.89336C15.2801 9.87306 15.2916 9.86122 15.3129 9.86122C15.331 9.86122 15.3457 9.85107 15.3457 9.83754C15.3457 9.82232 15.3703 9.80879 15.4113 9.80202C15.4605 9.79357 15.4769 9.78342 15.4769 9.75804C15.4769 9.73775 15.4883 9.72591 15.5097 9.72591C15.5277 9.72591 15.5424 9.71407 15.5424 9.70054C15.5424 9.687 15.5572 9.67516 15.5752 9.67516C15.5965 9.67516 15.608 9.66332 15.608 9.64133C15.608 9.61935 15.6195 9.60751 15.6408 9.60751C15.6621 9.60751 15.6736 9.59567 15.6736 9.57368C15.6736 9.55169 15.6851 9.53985 15.7064 9.53985C15.7277 9.53985 15.7392 9.52801 15.7392 9.50602C15.7392 9.48403 15.7506 9.47219 15.772 9.47219C15.7966 9.47219 15.8047 9.46035 15.8047 9.4299C15.8047 9.39946 15.8129 9.38762 15.8375 9.38762C15.8638 9.38762 15.8703 9.37578 15.8703 9.32842C15.8703 9.28106 15.8769 9.26922 15.9031 9.26922C15.9326 9.26922 15.9359 9.25737 15.9359 9.15927C15.9359 9.06117 15.9392 9.04933 15.9687 9.04933C15.9998 9.04933 16.0015 9.03749 16.0015 8.82098C16.0015 8.60447 15.9998 8.59263 15.9687 8.59263C15.9392 8.59263 15.9359 8.58079 15.9359 8.45732C15.9359 8.33384 15.9326 8.322 15.9031 8.322C15.8752 8.322 15.8703 8.31016 15.8703 8.25434C15.8703 8.19853 15.8654 8.18669 15.8375 8.18669C15.8097 8.18669 15.8047 8.17485 15.8047 8.11903C15.8047 8.06321 15.7998 8.05137 15.772 8.05137C15.7506 8.05137 15.7392 8.03953 15.7392 8.01754C15.7392 7.99555 15.7277 7.98371 15.7064 7.98371C15.6851 7.98371 15.6736 7.97187 15.6736 7.94988C15.6736 7.92789 15.6621 7.91605 15.6408 7.91605C15.6195 7.91605 15.608 7.90421 15.608 7.88392C15.608 7.85854 15.5916 7.84839 15.5424 7.83994C15.5047 7.83317 15.4769 7.81964 15.4769 7.80611C15.4769 7.79258 15.449 7.77905 15.4113 7.77228C15.3703 7.76551 15.3457 7.75198 15.3457 7.73676C15.3457 7.72323 15.331 7.71308 15.3129 7.71308C15.2916 7.71308 15.2801 7.70124 15.2801 7.67925C15.2801 7.65049 15.2687 7.64542 15.2146 7.64542C15.1605 7.64542 15.149 7.64035 15.149 7.61159C15.149 7.58284 15.1375 7.57776 15.0834 7.57776C15.0293 7.57776 15.0178 7.57269 15.0178 7.54393C15.0178 7.51518 15.0064 7.5101 14.9523 7.5101C14.8982 7.5101 14.8867 7.50503 14.8867 7.47797C14.8867 7.45259 14.8703 7.44245 14.8211 7.43399C14.7834 7.42722 14.7555 7.41369 14.7555 7.40016C14.7555 7.38663 14.7277 7.3731 14.69 7.36633C14.6522 7.35956 14.6244 7.34603 14.6244 7.3325C14.6244 7.31897 14.5965 7.30544 14.5588 7.29867C14.5211 7.29191 14.4932 7.27838 14.4932 7.26484C14.4932 7.25131 14.4654 7.23778 14.4277 7.23101C14.3867 7.22425 14.3621 7.21072 14.3621 7.19549C14.3621 7.18196 14.3473 7.17181 14.3293 7.17181C14.308 7.17181 14.2965 7.15997 14.2965 7.13798C14.2965 7.10923 14.285 7.10416 14.2309 7.10416C14.1768 7.10416 14.1653 7.09908 14.1653 7.07202C14.1653 7.04665 14.149 7.0365 14.0998 7.02804C14.0621 7.02127 14.0342 7.00774 14.0342 6.99421C14.0342 6.98068 14.0063 6.96715 13.9686 6.96038C13.9309 6.95362 13.903 6.94008 13.903 6.92655C13.903 6.91302 13.8752 6.89949 13.8375 6.89272C13.7998 6.88596 13.7719 6.87243 13.7719 6.85889C13.7719 6.84536 13.744 6.83183 13.7063 6.82507C13.6653 6.8183 13.6407 6.80477 13.6407 6.78955C13.6407 6.77601 13.626 6.76586 13.608 6.76586C13.5866 6.76586 13.5752 6.75402 13.5752 6.73204C13.5752 6.70328 13.5637 6.69821 13.5096 6.69821C13.4555 6.69821 13.444 6.69313 13.444 6.66438C13.444 6.63562 13.4325 6.63055 13.3784 6.63055C13.3243 6.63055 13.3129 6.62547 13.3129 6.59841C13.3129 6.57304 13.2965 6.56289 13.2473 6.55443C13.2096 6.54767 13.1817 6.53414 13.1817 6.5206C13.1817 6.50707 13.1538 6.49354 13.1161 6.48678C13.0784 6.48001 13.0506 6.46648 13.0506 6.45295C13.0506 6.43941 13.0227 6.42588 12.985 6.41912C12.9473 6.41235 12.9194 6.39882 12.9194 6.38529C12.9194 6.37176 12.8915 6.35822 12.8538 6.35146C12.8128 6.34469 12.7882 6.33116 12.7882 6.31594C12.7882 6.30241 12.7735 6.29226 12.7555 6.29226C12.7341 6.29226 12.7227 6.28042 12.7227 6.25843C12.7227 6.22967 12.7112 6.2246 12.6571 6.2246C12.603 6.2246 12.5915 6.21953 12.5915 6.19246C12.5915 6.16709 12.5751 6.15694 12.5259 6.14848C12.4882 6.14172 12.4604 6.12819 12.4604 6.11466C12.4604 6.10112 12.4325 6.08759 12.3948 6.08083C12.3571 6.07406 12.3292 6.06053 12.3292 6.047C12.3292 6.03347 12.3013 6.01993 12.2636 6.01317C12.2259 6.0064 12.1981 5.99287 12.1981 5.97934C12.1981 5.96581 12.1702 5.95228 12.1325 5.94551C12.0915 5.93874 12.0669 5.92521 12.0669 5.90999C12.0669 5.89308 12.0472 5.88631 12.0013 5.88631C11.9472 5.88631 11.9358 5.89138 11.9358 5.92014Z" fill="white"/>
<path d="M8.49517 9.73773C8.47058 9.74281 8.45746 9.75803 8.45746 9.77833C8.45746 9.79863 8.44599 9.81047 8.42467 9.81047C8.39844 9.81047 8.39189 9.82231 8.39189 9.86967C8.39189 9.91703 8.38533 9.92887 8.3591 9.92887C8.33778 9.92887 8.32631 9.94071 8.32631 9.9627C8.32631 9.98469 8.31483 9.99653 8.29352 9.99653C8.27221 9.99653 8.26073 10.0084 8.26073 10.0304C8.26073 10.0523 8.24926 10.0642 8.22794 10.0642C8.20663 10.0642 8.19516 10.076 8.19516 10.098C8.19516 10.12 8.18368 10.1318 8.16237 10.1318C8.14106 10.1318 8.12958 10.1437 8.12958 10.1657C8.12958 10.1877 8.1181 10.1995 8.09679 10.1995C8.07548 10.1995 8.064 10.2113 8.064 10.2333C8.064 10.2553 8.05253 10.2672 8.03122 10.2672C8.0099 10.2672 7.99843 10.279 7.99843 10.301C7.99843 10.323 7.98695 10.3348 7.96564 10.3348C7.94105 10.3348 7.93285 10.3467 7.93285 10.3771C7.93285 10.4076 7.92466 10.4194 7.90006 10.4194C7.87875 10.4194 7.86728 10.4312 7.86728 10.4532C7.86728 10.4752 7.8558 10.4871 7.83449 10.4871C7.81318 10.4871 7.8017 10.4989 7.8017 10.5209C7.8017 10.5429 7.79022 10.5547 7.76891 10.5547C7.7476 10.5547 7.73612 10.5666 7.73612 10.5885C7.73612 10.6105 7.72465 10.6224 7.70334 10.6224C7.68202 10.6224 7.67055 10.6342 7.67055 10.6562C7.67055 10.6782 7.65907 10.69 7.63776 10.69C7.61645 10.69 7.60497 10.7019 7.60497 10.7239C7.60497 10.7458 7.5935 10.7577 7.57218 10.7577C7.55087 10.7577 7.5394 10.7695 7.5394 10.7915C7.5394 10.8135 7.52792 10.8253 7.50661 10.8253C7.4853 10.8253 7.47382 10.8372 7.47382 10.8592C7.47382 10.8812 7.46234 10.893 7.44103 10.893C7.41972 10.893 7.40824 10.9048 7.40824 10.9268C7.40824 10.9488 7.39677 10.9607 7.37546 10.9607C7.34923 10.9607 7.34267 10.9725 7.34267 11.0199C7.34267 11.0672 7.33611 11.0791 7.30988 11.0791C7.28857 11.0791 7.27709 11.0909 7.27709 11.1129C7.27709 11.1349 7.26562 11.1467 7.2443 11.1467C7.22299 11.1467 7.21152 11.1586 7.21152 11.1806C7.21152 11.2025 7.20004 11.2144 7.17873 11.2144C7.15742 11.2144 7.14594 11.2262 7.14594 11.2482C7.14594 11.2702 7.13446 11.282 7.11315 11.282C7.09184 11.282 7.08036 11.2939 7.08036 11.3159C7.08036 11.3379 7.06889 11.3497 7.04758 11.3497C7.02298 11.3497 7.01479 11.3615 7.01479 11.392C7.01479 11.4224 7.00659 11.4343 6.982 11.4343C6.96069 11.4343 6.94921 11.4461 6.94921 11.4681C6.94921 11.4901 6.93774 11.5019 6.91642 11.5019C6.89511 11.5019 6.88364 11.5138 6.88364 11.5358C6.88364 11.5578 6.87216 11.5696 6.85085 11.5696C6.82954 11.5696 6.81806 11.5814 6.81806 11.6034C6.81806 11.6254 6.80658 11.6373 6.78527 11.6373C6.76396 11.6373 6.75248 11.6491 6.75248 11.6711C6.75248 11.6931 6.74101 11.7049 6.7197 11.7049C6.69838 11.7049 6.68691 11.7168 6.68691 11.7387C6.68691 11.7607 6.67543 11.7726 6.65412 11.7726C6.63281 11.7726 6.62133 11.7844 6.62133 11.8064C6.62133 11.8284 6.60986 11.8402 6.58854 11.8402C6.56723 11.8402 6.55575 11.8521 6.55575 11.8741C6.55575 11.896 6.54428 11.9079 6.52297 11.9079C6.50165 11.9079 6.49018 11.9197 6.49018 11.9417C6.49018 11.9637 6.4787 11.9755 6.45739 11.9755C6.43608 11.9755 6.4246 11.9874 6.4246 12.0094C6.4246 12.0314 6.41313 12.0432 6.39181 12.0432C6.3705 12.0432 6.35903 12.055 6.35903 12.077C6.35903 12.099 6.34755 12.1109 6.32624 12.1109C6.30001 12.1109 6.29345 12.1227 6.29345 12.1701C6.29345 12.2174 6.28689 12.2293 6.26066 12.2293C6.23935 12.2293 6.22787 12.2411 6.22787 12.2631C6.22787 12.2851 6.2164 12.2969 6.19509 12.2969C6.17377 12.2969 6.1623 12.3088 6.1623 12.3308C6.1623 12.3527 6.15082 12.3646 6.12951 12.3646C6.1082 12.3646 6.09672 12.3764 6.09672 12.3984C6.09672 12.4204 6.08525 12.4322 6.06393 12.4322C6.04262 12.4322 6.03115 12.4441 6.03115 12.4661C6.03115 12.4881 6.01967 12.4999 5.99836 12.4999C5.97377 12.4999 5.96557 12.5117 5.96557 12.5422C5.96557 12.5726 5.95737 12.5845 5.93278 12.5845C5.91147 12.5845 5.89999 12.5963 5.89999 12.6183C5.89999 12.6403 5.88852 12.6521 5.86721 12.6521C5.84589 12.6521 5.83442 12.664 5.83442 12.686C5.83442 12.708 5.82294 12.7198 5.80163 12.7198C5.78032 12.7198 5.76884 12.7316 5.76884 12.7536C5.76884 12.7756 5.75737 12.7875 5.73605 12.7875C5.71474 12.7875 5.70327 12.7993 5.70327 12.8213C5.70327 12.8433 5.69179 12.8551 5.67048 12.8551C5.64917 12.8551 5.63769 12.867 5.63769 12.8889C5.63769 12.9109 5.62621 12.9228 5.6049 12.9228C5.58359 12.9228 5.57211 12.9346 5.57211 12.9566C5.57211 12.9786 5.56064 12.9904 5.53933 12.9904C5.51801 12.9904 5.50654 13.0023 5.50654 13.0243C5.50654 13.0462 5.49506 13.0581 5.47375 13.0581C5.45244 13.0581 5.44096 13.0699 5.44096 13.0919C5.44096 13.1139 5.42949 13.1257 5.40817 13.1257C5.38686 13.1257 5.37539 13.1376 5.37539 13.1596C5.37539 13.1816 5.36391 13.1934 5.3426 13.1934C5.31637 13.1934 5.30981 13.2052 5.30981 13.2526C5.30981 13.3 5.30325 13.3118 5.27702 13.3118C5.25571 13.3118 5.24423 13.3236 5.24423 13.3456C5.24423 13.3676 5.23276 13.3795 5.21145 13.3795C5.19013 13.3795 5.17866 13.3913 5.17866 13.4133C5.17866 13.4353 5.16718 13.4471 5.14587 13.4471C5.12456 13.4471 5.11308 13.459 5.11308 13.481C5.11308 13.5029 5.10161 13.5148 5.08029 13.5148C5.05898 13.5148 5.0475 13.5266 5.0475 13.5486C5.0475 13.5706 5.03603 13.5824 5.01472 13.5824C4.9934 13.5824 4.98193 13.5943 4.98193 13.6163C4.98193 13.6383 4.97045 13.6501 4.94914 13.6501C4.92783 13.6501 4.91635 13.6619 4.91635 13.6839C4.91635 13.7059 4.90488 13.7178 4.88356 13.7178C4.85897 13.7178 4.85078 13.7296 4.85078 13.76C4.85078 13.7905 4.84258 13.8023 4.81799 13.8023C4.79668 13.8023 4.7852 13.8142 4.7852 13.8362C4.7852 13.8582 4.77372 13.87 4.75241 13.87C4.7311 13.87 4.71962 13.8818 4.71962 13.9038C4.71962 13.9258 4.70815 13.9377 4.68684 13.9377C4.66552 13.9377 4.65405 13.9495 4.65405 13.9715C4.65405 13.9935 4.64257 14.0053 4.62126 14.0053C4.59995 14.0053 4.58847 14.0171 4.58847 14.0391C4.58847 14.0611 4.577 14.073 4.55568 14.073C4.53437 14.073 4.5229 14.0848 4.5229 14.1068C4.5229 14.1288 4.51142 14.1406 4.49011 14.1406C4.4688 14.1406 4.45732 14.1525 4.45732 14.1745C4.45732 14.1964 4.44584 14.2083 4.42453 14.2083C4.40322 14.2083 4.39174 14.2201 4.39174 14.2421C4.39174 14.2641 4.38027 14.2759 4.35896 14.2759C4.33764 14.2759 4.32617 14.2878 4.32617 14.3098C4.32617 14.3318 4.31469 14.3436 4.29338 14.3436C4.27207 14.3436 4.26059 14.3554 4.26059 14.3774C4.26059 14.3994 4.24912 14.4113 4.2278 14.4113C4.20157 14.4113 4.19502 14.4231 4.19502 14.4705C4.19502 14.5178 4.18846 14.5297 4.16223 14.5297C4.14092 14.5297 4.12944 14.5415 4.12944 14.5635C4.12944 14.5855 4.11796 14.5973 4.09665 14.5973C4.07534 14.5973 4.06386 14.6092 4.06386 14.6312C4.06386 14.6531 4.05239 14.665 4.03108 14.665C4.00976 14.665 3.99829 14.6768 3.99829 14.6988C3.99829 14.7208 3.98681 14.7326 3.9655 14.7326C3.94419 14.7326 3.93271 14.7445 3.93271 14.7665C3.93271 14.7885 3.92124 14.8003 3.89992 14.8003C3.87861 14.8003 3.86714 14.8121 3.86714 14.8341C3.86714 14.8561 3.85566 14.868 3.83435 14.868C3.80976 14.868 3.80156 14.8798 3.80156 14.9102C3.80156 14.9407 3.79336 14.9525 3.76877 14.9525C3.74746 14.9525 3.73598 14.9644 3.73598 14.9864C3.73598 15.0084 3.72451 15.0202 3.7032 15.0202C3.68188 15.0202 3.67041 15.032 3.67041 15.054C3.67041 15.076 3.65893 15.0878 3.63762 15.0878C3.61631 15.0878 3.60483 15.0997 3.60483 15.1217C3.60483 15.1437 3.59336 15.1555 3.57204 15.1555C3.55073 15.1555 3.53925 15.1673 3.53925 15.1893C3.53925 15.2113 3.52778 15.2232 3.50647 15.2232C3.48515 15.2232 3.47368 15.235 3.47368 15.257C3.47368 15.279 3.4622 15.2908 3.44089 15.2908C3.41958 15.2908 3.4081 15.3027 3.4081 15.3247C3.4081 15.3466 3.39663 15.3585 3.37531 15.3585C3.354 15.3585 3.34253 15.3703 3.34253 15.3923C3.34253 15.4143 3.33105 15.4261 3.30974 15.4261C3.28843 15.4261 3.27695 15.438 3.27695 15.46C3.27695 15.482 3.26547 15.4938 3.24416 15.4938C3.21793 15.4938 3.21137 15.5056 3.21137 15.553C3.21137 15.6004 3.20482 15.6122 3.17859 15.6122C3.15727 15.6122 3.1458 15.624 3.1458 15.646C3.1458 15.668 3.13432 15.6799 3.11301 15.6799C3.0917 15.6799 3.08022 15.6917 3.08022 15.7137C3.08022 15.7357 3.06875 15.7475 3.04743 15.7475C3.02612 15.7475 3.01465 15.7594 3.01465 15.7814C3.01465 15.8033 3.00317 15.8152 2.98186 15.8152C2.96055 15.8152 2.94907 15.827 2.94907 15.849C2.94907 15.871 2.93759 15.8828 2.91628 15.8828C2.89497 15.8828 2.88349 15.8947 2.88349 15.9167C2.88349 15.9387 2.87202 15.9505 2.85071 15.9505C2.82612 15.9505 2.81792 15.9623 2.81792 15.9928C2.81792 16.0232 2.80972 16.0351 2.78513 16.0351C2.76382 16.0351 2.75234 16.0469 2.75234 16.0689C2.75234 16.0909 2.74087 16.1027 2.71955 16.1027C2.69824 16.1027 2.68677 16.1146 2.68677 16.1366C2.68677 16.1585 2.67529 16.1704 2.65398 16.1704C2.63267 16.1704 2.62119 16.1822 2.62119 16.2042C2.62119 16.2262 2.60971 16.238 2.5884 16.238C2.56709 16.238 2.55561 16.2499 2.55561 16.2719C2.55561 16.2939 2.54414 16.3057 2.52283 16.3057C2.50151 16.3057 2.49004 16.3175 2.49004 16.3395C2.49004 16.3615 2.47856 16.3734 2.45725 16.3734C2.43594 16.3734 2.42446 16.3852 2.42446 16.4072C2.42446 16.4292 2.41299 16.441 2.39167 16.441C2.37036 16.441 2.35889 16.4529 2.35889 16.4749C2.35889 16.4968 2.34741 16.5087 2.3261 16.5087C2.30479 16.5087 2.29331 16.5205 2.29331 16.5425C2.29331 16.5645 2.28183 16.5763 2.26052 16.5763C2.23429 16.5763 2.22773 16.5882 2.22773 16.6355C2.22773 16.6829 2.22118 16.6947 2.19495 16.6947C2.17363 16.6947 2.16216 16.7066 2.16216 16.7286C2.16216 16.7506 2.15068 16.7624 2.12937 16.7624C2.10806 16.7624 2.09658 16.7742 2.09658 16.7962C2.09658 16.8182 2.08511 16.8301 2.06379 16.8301C2.04248 16.8301 2.031 16.8419 2.031 16.8639C2.031 16.8859 2.01953 16.8977 1.99822 16.8977C1.9769 16.8977 1.96543 16.9096 1.96543 16.9316C1.96543 16.9535 1.95395 16.9654 1.93264 16.9654C1.91133 16.9654 1.89985 16.9772 1.89985 16.9992C1.89985 17.0212 1.88838 17.033 1.86706 17.033C1.84247 17.033 1.83428 17.0449 1.83428 17.0753C1.83428 17.1058 1.82608 17.1176 1.80149 17.1176C1.78018 17.1176 1.7687 17.1295 1.7687 17.1514C1.7687 17.1734 1.75722 17.1853 1.73591 17.1853C1.7146 17.1853 1.70312 17.1971 1.70312 17.2191C1.70312 17.2411 1.69165 17.2529 1.67034 17.2529C1.64902 17.2529 1.63755 17.2648 1.63755 17.2868C1.63755 17.3087 1.62607 17.3206 1.60476 17.3206C1.58345 17.3206 1.57197 17.3324 1.57197 17.3544C1.57197 17.3764 1.5605 17.3882 1.53918 17.3882C1.51787 17.3882 1.5064 17.4001 1.5064 17.4221C1.5064 17.4441 1.49492 17.4559 1.47361 17.4559C1.4523 17.4559 1.44082 17.4677 1.44082 17.4897C1.44082 17.5117 1.42934 17.5236 1.40803 17.5236C1.3818 17.5236 1.37524 17.5354 1.37524 17.5828C1.37524 17.6301 1.3818 17.642 1.40803 17.642C1.42607 17.642 1.44082 17.6318 1.44082 17.6183C1.44082 17.6031 1.46541 17.5895 1.5064 17.5828C1.5441 17.576 1.57197 17.5625 1.57197 17.5489C1.57197 17.5354 1.59984 17.5219 1.63755 17.5151C1.67525 17.5083 1.70312 17.4948 1.70312 17.4813C1.70312 17.4677 1.73099 17.4542 1.7687 17.4474C1.80641 17.4407 1.83428 17.4272 1.83428 17.4136C1.83428 17.4001 1.86215 17.3866 1.89985 17.3798C1.94903 17.3713 1.96543 17.3612 1.96543 17.3358C1.96543 17.3087 1.9769 17.3037 2.031 17.3037C2.08511 17.3037 2.09658 17.2986 2.09658 17.2698C2.09658 17.2411 2.10806 17.236 2.16216 17.236C2.21626 17.236 2.22773 17.2309 2.22773 17.2022C2.22773 17.1802 2.23921 17.1684 2.26052 17.1684C2.27855 17.1684 2.29331 17.1582 2.29331 17.1447C2.29331 17.1295 2.3179 17.1159 2.35889 17.1092C2.39659 17.1024 2.42446 17.0889 2.42446 17.0753C2.42446 17.0618 2.45233 17.0483 2.49004 17.0415C2.52774 17.0347 2.55561 17.0212 2.55561 17.0077C2.55561 16.9941 2.58348 16.9806 2.62119 16.9738C2.6589 16.9671 2.68677 16.9535 2.68677 16.94C2.68677 16.9265 2.71464 16.9129 2.75234 16.9062C2.80152 16.8977 2.81792 16.8876 2.81792 16.8622C2.81792 16.8351 2.82939 16.8301 2.88349 16.8301C2.93759 16.8301 2.94907 16.825 2.94907 16.7962C2.94907 16.7675 2.96055 16.7624 3.01465 16.7624C3.06875 16.7624 3.08022 16.7573 3.08022 16.7286C3.08022 16.7066 3.0917 16.6947 3.11301 16.6947C3.13104 16.6947 3.1458 16.6846 3.1458 16.6711C3.1458 16.6558 3.17039 16.6423 3.21137 16.6355C3.24908 16.6288 3.27695 16.6152 3.27695 16.6017C3.27695 16.5882 3.30482 16.5747 3.34253 16.5679C3.38023 16.5611 3.4081 16.5476 3.4081 16.5341C3.4081 16.5205 3.43597 16.507 3.47368 16.5002C3.51139 16.4935 3.53925 16.4799 3.53925 16.4664C3.53925 16.4529 3.56712 16.4393 3.60483 16.4326C3.65401 16.4241 3.67041 16.414 3.67041 16.3886C3.67041 16.3615 3.68188 16.3565 3.73598 16.3565C3.79008 16.3565 3.80156 16.3514 3.80156 16.3226C3.80156 16.3006 3.81304 16.2888 3.83435 16.2888C3.85238 16.2888 3.86714 16.2786 3.86714 16.2651C3.86714 16.2499 3.89173 16.2364 3.93271 16.2296C3.97042 16.2228 3.99829 16.2093 3.99829 16.1958C3.99829 16.1822 4.02616 16.1687 4.06386 16.1619C4.10157 16.1552 4.12944 16.1416 4.12944 16.1281C4.12944 16.1146 4.15731 16.101 4.19502 16.0943C4.23272 16.0875 4.26059 16.074 4.26059 16.0604C4.26059 16.0469 4.28846 16.0334 4.32617 16.0266C4.37535 16.0182 4.39174 16.008 4.39174 15.9826C4.39174 15.9556 4.40322 15.9505 4.45732 15.9505C4.51142 15.9505 4.5229 15.9454 4.5229 15.9167C4.5229 15.8947 4.53437 15.8828 4.55568 15.8828C4.57372 15.8828 4.58847 15.8727 4.58847 15.8592C4.58847 15.8439 4.61306 15.8304 4.65405 15.8236C4.69175 15.8169 4.71962 15.8033 4.71962 15.7898C4.71962 15.7763 4.74749 15.7627 4.7852 15.756C4.82291 15.7492 4.85078 15.7357 4.85078 15.7222C4.85078 15.7086 4.87865 15.6951 4.91635 15.6883C4.95406 15.6816 4.98193 15.668 4.98193 15.6545C4.98193 15.641 5.0098 15.6274 5.0475 15.6207C5.08521 15.6139 5.11308 15.6004 5.11308 15.5868C5.11308 15.5733 5.14095 15.5598 5.17866 15.553C5.22784 15.5445 5.24423 15.5344 5.24423 15.509C5.24423 15.482 5.25571 15.4769 5.30981 15.4769C5.36391 15.4769 5.37539 15.4718 5.37539 15.4431C5.37539 15.4211 5.38686 15.4092 5.40817 15.4092C5.42621 15.4092 5.44096 15.3991 5.44096 15.3855C5.44096 15.3703 5.46555 15.3568 5.50654 15.35C5.54424 15.3433 5.57211 15.3297 5.57211 15.3162C5.57211 15.3027 5.59998 15.2891 5.63769 15.2824C5.6754 15.2756 5.70327 15.2621 5.70327 15.2485C5.70327 15.235 5.73114 15.2215 5.76884 15.2147C5.80655 15.2079 5.83442 15.1944 5.83442 15.1809C5.83442 15.1673 5.86229 15.1538 5.89999 15.1471C5.94918 15.1386 5.96557 15.1284 5.96557 15.1031C5.96557 15.076 5.97705 15.0709 6.03115 15.0709C6.08525 15.0709 6.09672 15.0659 6.09672 15.0371C6.09672 15.0084 6.1082 15.0033 6.1623 15.0033C6.2164 15.0033 6.22787 14.9982 6.22787 14.9694C6.22787 14.9475 6.23935 14.9356 6.26066 14.9356C6.2787 14.9356 6.29345 14.9255 6.29345 14.9119C6.29345 14.8967 6.31804 14.8832 6.35903 14.8764C6.39673 14.8697 6.4246 14.8561 6.4246 14.8426C6.4246 14.8291 6.45247 14.8155 6.49018 14.8088C6.52788 14.802 6.55575 14.7885 6.55575 14.7749C6.55575 14.7614 6.58362 14.7479 6.62133 14.7411C6.65904 14.7343 6.68691 14.7208 6.68691 14.7073C6.68691 14.6937 6.71478 14.6802 6.75248 14.6734C6.80167 14.665 6.81806 14.6548 6.81806 14.6295C6.81806 14.6024 6.82954 14.5973 6.88364 14.5973C6.93774 14.5973 6.94921 14.5922 6.94921 14.5635C6.94921 14.5347 6.96069 14.5297 7.01479 14.5297C7.06889 14.5297 7.08036 14.5246 7.08036 14.4958C7.08036 14.4738 7.09184 14.462 7.11315 14.462C7.13119 14.462 7.14594 14.4519 7.14594 14.4383C7.14594 14.4231 7.17053 14.4096 7.21152 14.4028C7.24922 14.396 7.27709 14.3825 7.27709 14.369C7.27709 14.3554 7.30496 14.3419 7.34267 14.3351C7.38037 14.3284 7.40824 14.3148 7.40824 14.3013C7.40824 14.2878 7.43611 14.2743 7.47382 14.2675C7.51153 14.2607 7.5394 14.2472 7.5394 14.2337C7.5394 14.2201 7.56727 14.2066 7.60497 14.1998C7.65415 14.1914 7.67055 14.1812 7.67055 14.1559C7.67055 14.1288 7.68202 14.1237 7.73612 14.1237C7.79022 14.1237 7.8017 14.1186 7.8017 14.0899C7.8017 14.0611 7.81318 14.0561 7.86728 14.0561C7.92138 14.0561 7.93285 14.051 7.93285 14.0222C7.93285 14.0002 7.94433 13.9884 7.96564 13.9884C7.98367 13.9884 7.99843 13.9782 7.99843 13.9647C7.99843 13.9495 8.02302 13.936 8.064 13.9292C8.10171 13.9224 8.12958 13.9089 8.12958 13.8954C8.12958 13.8818 8.15745 13.8683 8.19516 13.8615C8.23286 13.8548 8.26073 13.8412 8.26073 13.8277C8.26073 13.8142 8.2886 13.8006 8.32631 13.7939C8.36402 13.7871 8.39189 13.7736 8.39189 13.76C8.39189 13.7465 8.41975 13.733 8.45746 13.7262C8.50664 13.7178 8.52304 13.7076 8.52304 13.6822C8.52304 13.6552 8.53451 13.6501 8.58861 13.6501C8.64271 13.6501 8.65419 13.645 8.65419 13.6163C8.65419 13.5875 8.66567 13.5824 8.71977 13.5824C8.77387 13.5824 8.78534 13.5774 8.78534 13.5486C8.78534 13.5266 8.79682 13.5148 8.81813 13.5148C8.83616 13.5148 8.85092 13.5046 8.85092 13.4911C8.85092 13.4759 8.87551 13.4623 8.91649 13.4556C8.9542 13.4488 8.98207 13.4353 8.98207 13.4218C8.98207 13.4082 9.00994 13.3947 9.04765 13.3879C9.08535 13.3812 9.11322 13.3676 9.11322 13.3541C9.11322 13.3406 9.14109 13.327 9.1788 13.3203C9.2165 13.3135 9.24437 13.3 9.24437 13.2864C9.24437 13.2729 9.27224 13.2594 9.30995 13.2526C9.35913 13.2441 9.37553 13.234 9.37553 13.2086C9.37553 13.1816 9.387 13.1765 9.4411 13.1765C9.4952 13.1765 9.50668 13.1714 9.50668 13.1427C9.50668 13.1207 9.51815 13.1088 9.53947 13.1088C9.5575 13.1088 9.57226 13.0987 9.57226 13.0852C9.57226 13.0699 9.59685 13.0564 9.63783 13.0496C9.67554 13.0429 9.70341 13.0293 9.70341 13.0158C9.70341 13.0023 9.73128 12.9887 9.76898 12.982C9.80669 12.9752 9.83456 12.9617 9.83456 12.9481C9.83456 12.9346 9.86243 12.9211 9.90014 12.9143C9.93784 12.9075 9.96571 12.894 9.96571 12.8805C9.96571 12.867 9.99358 12.8534 10.0313 12.8467C10.0805 12.8382 10.0969 12.828 10.0969 12.8027C10.0969 12.7756 10.1083 12.7705 10.1624 12.7705C10.2165 12.7705 10.228 12.7655 10.228 12.7367C10.228 12.7147 10.2395 12.7029 10.2608 12.7029C10.2788 12.7029 10.2936 12.6927 10.2936 12.6792C10.2936 12.664 10.3182 12.6504 10.3592 12.6437C10.3969 12.6369 10.4247 12.6234 10.4247 12.6098C10.4247 12.5963 10.4526 12.5828 10.4903 12.576C10.528 12.5693 10.5559 12.5557 10.5559 12.5422C10.5559 12.5287 10.5838 12.5151 10.6215 12.5084C10.6592 12.5016 10.687 12.4881 10.687 12.4745C10.687 12.461 10.7149 12.4475 10.7526 12.4407C10.7903 12.4339 10.8182 12.4204 10.8182 12.4069C10.8182 12.3933 10.8461 12.3798 10.8838 12.373C10.951 12.3612 10.9772 12.3138 10.9166 12.3138C10.892 12.3138 10.8838 12.302 10.8838 12.2716C10.8838 12.2411 10.8756 12.2293 10.851 12.2293C10.8248 12.2293 10.8182 12.2174 10.8182 12.1701C10.8182 12.1227 10.8116 12.1109 10.7854 12.1109C10.7641 12.1109 10.7526 12.099 10.7526 12.077C10.7526 12.055 10.7411 12.0432 10.7198 12.0432C10.6985 12.0432 10.687 12.0314 10.687 12.0094C10.687 11.9874 10.6756 11.9755 10.6543 11.9755C10.6329 11.9755 10.6215 11.9637 10.6215 11.9417C10.6215 11.9197 10.61 11.9079 10.5887 11.9079C10.5674 11.9079 10.5559 11.896 10.5559 11.8741C10.5559 11.8521 10.5444 11.8402 10.5231 11.8402C10.5018 11.8402 10.4903 11.8284 10.4903 11.8064C10.4903 11.7844 10.4788 11.7726 10.4575 11.7726C10.4362 11.7726 10.4247 11.7607 10.4247 11.7387C10.4247 11.7168 10.4133 11.7049 10.392 11.7049C10.3706 11.7049 10.3592 11.6931 10.3592 11.6711C10.3592 11.6491 10.3477 11.6373 10.3264 11.6373C10.3051 11.6373 10.2936 11.6254 10.2936 11.6034C10.2936 11.5814 10.2821 11.5696 10.2608 11.5696C10.2395 11.5696 10.228 11.5578 10.228 11.5358C10.228 11.5138 10.2165 11.5019 10.1952 11.5019C10.1739 11.5019 10.1624 11.4901 10.1624 11.4681C10.1624 11.4461 10.151 11.4343 10.1297 11.4343C10.1051 11.4343 10.0969 11.4224 10.0969 11.392C10.0969 11.3615 10.0887 11.3497 10.0641 11.3497C10.0428 11.3497 10.0313 11.3379 10.0313 11.3159C10.0313 11.2939 10.0198 11.282 9.9985 11.282C9.97719 11.282 9.96571 11.2702 9.96571 11.2482C9.96571 11.2262 9.95424 11.2144 9.93292 11.2144C9.91161 11.2144 9.90014 11.2025 9.90014 11.1806C9.90014 11.1586 9.88866 11.1467 9.86735 11.1467C9.84604 11.1467 9.83456 11.1349 9.83456 11.1129C9.83456 11.0909 9.82308 11.0791 9.80177 11.0791C9.77554 11.0791 9.76898 11.0672 9.76898 11.0199C9.76898 10.9725 9.76243 10.9607 9.73619 10.9607C9.71488 10.9607 9.70341 10.9488 9.70341 10.9268C9.70341 10.9048 9.69193 10.893 9.67062 10.893C9.64931 10.893 9.63783 10.8812 9.63783 10.8592C9.63783 10.8372 9.62636 10.8253 9.60504 10.8253C9.58373 10.8253 9.57226 10.8135 9.57226 10.7915C9.57226 10.7695 9.56078 10.7577 9.53947 10.7577C9.51815 10.7577 9.50668 10.7458 9.50668 10.7239C9.50668 10.7019 9.4952 10.69 9.47389 10.69C9.45258 10.69 9.4411 10.6782 9.4411 10.6562C9.4411 10.6342 9.42963 10.6224 9.40831 10.6224C9.387 10.6224 9.37553 10.6105 9.37553 10.5885C9.37553 10.5666 9.36405 10.5547 9.34274 10.5547C9.32143 10.5547 9.30995 10.5429 9.30995 10.5209C9.30995 10.4989 9.29847 10.4871 9.27716 10.4871C9.25257 10.4871 9.24437 10.4752 9.24437 10.4448C9.24437 10.4143 9.23618 10.4025 9.21159 10.4025C9.19027 10.4025 9.1788 10.3906 9.1788 10.3687C9.1788 10.3467 9.16732 10.3348 9.14601 10.3348C9.1247 10.3348 9.11322 10.323 9.11322 10.301C9.11322 10.279 9.10175 10.2672 9.08043 10.2672C9.05912 10.2672 9.04765 10.2553 9.04765 10.2333C9.04765 10.2113 9.03617 10.1995 9.01486 10.1995C8.99355 10.1995 8.98207 10.1877 8.98207 10.1657C8.98207 10.1437 8.97059 10.1318 8.94928 10.1318C8.92797 10.1318 8.91649 10.12 8.91649 10.098C8.91649 10.076 8.90502 10.0642 8.88371 10.0642C8.85748 10.0642 8.85092 10.0523 8.85092 10.005C8.85092 9.95762 8.84436 9.94578 8.81813 9.94578C8.79682 9.94578 8.78534 9.93394 8.78534 9.91195C8.78534 9.88997 8.77387 9.87813 8.75255 9.87813C8.73124 9.87813 8.71977 9.86628 8.71977 9.8443C8.71977 9.82231 8.70829 9.81047 8.68698 9.81047C8.66567 9.81047 8.65419 9.79863 8.65419 9.77833C8.65419 9.75634 8.6378 9.7445 8.60337 9.73604C8.5755 9.73097 8.54763 9.72758 8.54107 9.72758C8.53615 9.72928 8.51484 9.73435 8.49517 9.73773Z" fill="white"/>
</svg>
