<svg width="24" height="24" viewBox="0 0 24 24" fill="none" xmlns="http://www.w3.org/2000/svg">
<path d="M12.75 9.0675V4.371L16.1895 7.8105L17.25 6.75L12 1.5L6.75 6.75L7.8105 7.8105L11.25 4.371V9.0675C10.2011 9.24283 9.2484 9.78443 8.56122 10.596C7.87404 11.4076 7.49693 12.4366 7.49693 13.5C7.49693 14.5634 7.87404 15.5924 8.56122 16.404C9.2484 17.2156 10.2011 17.7572 11.25 17.9325V21H12.75V17.9325C13.7989 17.7572 14.7516 17.2156 15.4388 16.404C16.126 15.5924 16.5031 14.5634 16.5031 13.5C16.5031 12.4366 16.126 11.4076 15.4388 10.596C14.7516 9.78443 13.7989 9.24283 12.75 9.0675ZM12 16.5C11.4067 16.5 10.8266 16.3241 10.3333 15.9944C9.83994 15.6648 9.45542 15.1962 9.22836 14.6481C9.0013 14.0999 8.94189 13.4967 9.05764 12.9147C9.1734 12.3328 9.45912 11.7982 9.87868 11.3787C10.2982 10.9591 10.8328 10.6734 11.4147 10.5576C11.9967 10.4419 12.5999 10.5013 13.148 10.7284C13.6962 10.9554 14.1648 11.3399 14.4944 11.8333C14.8241 12.3266 15 12.9067 15 13.5C14.999 14.2953 14.6826 15.0578 14.1202 15.6202C13.5578 16.1826 12.7953 16.499 12 16.5Z" fill="#6F6F6F"/>
</svg>
