<svg width="83" height="52" viewBox="0 0 83 52" fill="none" xmlns="http://www.w3.org/2000/svg">
<rect width="83" height="52" rx="4" fill="#03A9F4"/>
<path d="M56.5833 13.25C55.2267 14.2069 53.7247 14.9388 52.135 15.4175C51.2818 14.4364 50.1479 13.7411 48.8866 13.4255C47.6254 13.1099 46.2976 13.1893 45.083 13.6529C43.8683 14.1166 42.8253 14.942 42.0951 16.0177C41.3648 17.0934 40.9826 18.3674 41 19.6675V21.0841C38.5104 21.1487 36.0435 20.5965 33.8189 19.4768C31.5944 18.3572 29.6813 16.7047 28.25 14.6666C28.25 14.6666 22.5833 27.4166 35.3333 33.0833C32.4158 35.0637 28.9401 36.0568 25.4167 35.9166C38.1667 43 53.75 35.9166 53.75 19.625C53.7487 19.2304 53.7108 18.8367 53.6367 18.4491C55.0825 17.0232 56.1028 15.223 56.5833 13.25Z" fill="white"/>
</svg>
