<svg width="18" height="20" viewBox="0 0 18 20" fill="none" xmlns="http://www.w3.org/2000/svg">
<path d="M1.6875 0.25C1.47201 0.25 1.26535 0.335603 1.11298 0.487976C0.960603 0.640349 0.875 0.847012 0.875 1.0625C0.875 1.27799 0.960603 1.48465 1.11298 1.63702C1.26535 1.7894 1.47201 1.875 1.6875 1.875H16.3125C16.528 1.875 16.7347 1.7894 16.887 1.63702C17.0394 1.48465 17.125 1.27799 17.125 1.0625C17.125 0.847012 17.0394 0.640349 16.887 0.487976C16.7347 0.335603 16.528 0.25 16.3125 0.25H1.6875ZM9.57525 3.73725C9.49978 3.66158 9.41012 3.60155 9.3114 3.56059C9.21269 3.51963 9.10687 3.49855 9 3.49855C8.89313 3.49855 8.78731 3.51963 8.6886 3.56059C8.58988 3.60155 8.50022 3.66158 8.42475 3.73725L2.73725 9.42475C2.66171 9.50029 2.60178 9.58998 2.5609 9.68868C2.52002 9.78738 2.49897 9.89317 2.49897 10C2.49897 10.1068 2.52002 10.2126 2.5609 10.3113C2.60178 10.41 2.66171 10.4997 2.73725 10.5753C2.81279 10.6508 2.90248 10.7107 3.00118 10.7516C3.09988 10.7925 3.20567 10.8135 3.3125 10.8135C3.41933 10.8135 3.52512 10.7925 3.62382 10.7516C3.72252 10.7107 3.81221 10.6508 3.88775 10.5753L8.1875 6.27387V18.9375C8.1875 19.153 8.2731 19.3597 8.42548 19.512C8.57785 19.6644 8.78451 19.75 9 19.75C9.21549 19.75 9.42215 19.6644 9.57452 19.512C9.7269 19.3597 9.8125 19.153 9.8125 18.9375V6.27387L14.1122 10.5753C14.2648 10.7278 14.4717 10.8135 14.6875 10.8135C14.9033 10.8135 15.1102 10.7278 15.2628 10.5753C15.4153 10.4227 15.501 10.2158 15.501 10C15.501 9.78424 15.4153 9.57732 15.2628 9.42475L9.57525 3.73725Z" fill="white"/>
</svg>
