<svg width="18" height="12" viewBox="0 0 18 12" fill="none" xmlns="http://www.w3.org/2000/svg">
<path d="M9.00524 11.6708C7.35534 11.6708 5.74826 11.2266 4.22874 10.3505C2.66892 9.45117 1.27086 8.13379 0.0730482 6.43473C-0.0168912 6.32394 -0.0265813 6.16273 0.0596371 6.04021C1.25935 4.33491 2.66077 3.01317 4.22495 2.11151C5.74482 1.23555 7.35253 0.79126 9.00293 0.79126C9.00426 0.79126 9.00524 0.79126 9.00658 0.79126C10.6572 0.791893 12.2642 1.23675 13.783 2.11355C15.3449 3.01514 16.7438 4.33631 17.9406 6.04036C17.9792 6.09547 18 6.16112 18 6.22846V6.23358C18 6.30091 17.9792 6.36656 17.9406 6.42168C16.7437 8.12572 15.3452 9.44696 13.7838 10.3485C12.2654 11.2252 10.6589 11.6701 9.00882 11.6708C9.00763 11.6708 9.00644 11.6708 9.00524 11.6708V11.6708ZM0.729736 6.22796C2.96907 9.31798 5.90048 11.0164 9.00524 11.0164C9.00644 11.0164 9.00749 11.0164 9.00862 11.0164C12.1111 11.0151 15.0384 9.31784 17.2729 6.23105C15.0384 3.14419 12.1102 1.44689 9.00637 1.44563C9.00546 1.44563 9.00398 1.44563 9.003 1.44563C5.89866 1.44569 2.96865 3.14145 0.729736 6.22796Z" fill="#6F6F6F"/>
<path d="M8.99505 10.0551C6.88638 10.0551 5.1709 8.33956 5.1709 6.23096C5.1709 4.12229 6.88638 2.40674 8.99505 2.40674C11.1037 2.40674 12.8193 4.12229 12.8193 6.23096C12.8193 8.33963 11.1037 10.0551 8.99505 10.0551ZM8.99505 3.0611C7.24727 3.0611 5.82527 4.4831 5.82527 6.23095C5.82527 7.97873 7.24727 9.40074 8.99505 9.40074C10.7428 9.40074 12.1648 7.97873 12.1648 6.23095C12.1648 4.4831 10.7429 3.0611 8.99505 3.0611Z" fill="#6F6F6F"/>
<path d="M10.7754 6.49685C10.5947 6.49685 10.4482 6.35031 10.4482 6.16966C10.4482 5.38027 9.80603 4.73812 9.01664 4.73812C8.83599 4.73812 8.68945 4.59166 8.68945 4.41093C8.68945 4.2302 8.83599 4.08374 9.01664 4.08374C10.1668 4.08374 11.1026 5.01945 11.1026 6.16966C11.1026 6.35031 10.956 6.49685 10.7754 6.49685Z" fill="#6F6F6F"/>
</svg>
